<svg width="320" height="543" viewBox="0 0 320 543" fill="none" xmlns="http://www.w3.org/2000/svg">
<path fill-rule="evenodd" clip-rule="evenodd" d="M-331.199 300.948C-322.908 269.384 -305.131 239.076 -280.119 213.863C-250.454 183.514 -215.136 158.544 -176.708 140.751C-138.28 122.958 -97.7002 112.785 -57.8918 110.967C-48.9236 110.655 -40.0495 110.699 -31.2892 111.093V-22.7318H225.862C255.045 -51.0052 289.141 -74.3799 326.042 -91.3178C362.043 -106.206 400.156 -109.053 433.23 -99.3248C466.305 -89.5971 492.066 -67.9632 505.681 -38.4827C517.418 -8.60868 520.082 25.1257 513.417 59.499C502.236 129.407 468.284 198.113 434.48 266.52C394.568 347.287 354.863 427.636 353.09 509.049C323.578 508.881 293.515 511.788 263.43 517.72C162.339 539.675 61.1883 547.398 -36.5394 540.621C-134.789 533.528 -213.521 512.442 -277.283 450.556C-294.542 433.805 -317.189 398.18 -325.012 375.158C-332.834 352.137 -334.943 326.84 -331.199 300.948Z" fill="url(#paint0_linear)"/>
<path d="M351.796 493.427C350.62 494.392 349.444 495.358 348.268 496.323L152.636 319.712C153.705 318.651 154.774 317.589 155.843 316.527L351.796 493.427ZM326.033 510.799C324.643 511.571 323.146 512.247 321.65 513.019L134.142 343.743C134.891 342.392 135.746 341.137 136.494 339.786L326.033 510.799ZM294.496 522.862C292.679 523.345 290.969 523.731 289.151 524.117L121.955 373.178C122.383 371.537 122.811 369.897 123.345 368.352L294.496 522.862ZM132.218 457.623L195.504 514.756C189.945 512.343 184.6 509.544 179.576 506.456L141.412 472.003C138.098 467.467 134.997 462.641 132.218 457.623ZM119.39 385.048L275.895 526.337C273.864 526.626 271.833 526.819 269.802 527.012L118.641 390.549C118.748 389.488 118.855 388.33 119.069 387.268C119.176 386.496 119.283 385.82 119.39 385.048ZM229.5 525.082C226.506 524.503 223.62 523.924 220.733 523.248L122.704 434.75C121.955 432.144 121.207 429.442 120.672 426.837L229.5 525.082ZM339.609 502.692C338.327 503.561 337.044 504.429 335.654 505.201L142.694 331.004C143.657 329.846 144.512 328.591 145.474 327.433L339.609 502.692ZM254.729 527.495C252.377 527.495 250.025 527.398 247.673 527.205L118.321 410.43C118.214 408.307 118.107 406.184 118 404.061L254.729 527.495ZM311.066 517.555C309.463 518.134 307.859 518.713 306.256 519.292L127.194 357.64C127.835 356.192 128.476 354.745 129.118 353.297L311.066 517.555ZM395.092 410.72C394.985 412.553 394.771 414.483 394.557 416.317L241.259 277.924C243.29 277.731 245.428 277.538 247.459 277.441L395.092 410.72ZM376.17 338.821L327.102 294.523C347.413 305.332 364.304 320.677 376.17 338.821ZM388.892 364.492C389.854 367.291 390.709 370.09 391.457 372.985L289.258 280.723C292.465 281.398 295.565 282.17 298.559 283.039L388.892 364.492ZM387.395 444.305C386.86 445.752 386.219 447.296 385.578 448.744L205.446 286.127C207.05 285.548 208.653 284.969 210.364 284.487L387.395 444.305ZM394.664 390.067C394.878 392.19 395.092 394.41 395.199 396.629L263.067 277.345C265.526 277.441 267.878 277.634 270.336 277.828L394.664 390.067ZM392.312 428.477C391.885 430.118 391.457 431.758 391.03 433.399L222.23 281.012C224.047 280.626 225.865 280.24 227.682 279.854L392.312 428.477ZM380.66 458.588C379.912 459.939 379.163 461.29 378.308 462.545L190.052 292.593C191.549 291.821 192.939 291.146 194.435 290.47L380.66 458.588ZM362.807 483.004C361.738 484.066 360.776 485.224 359.707 486.286L163.861 309.482C165.037 308.517 166.213 307.552 167.496 306.684L362.807 483.004ZM372.429 471.423C371.573 472.678 370.611 473.836 369.649 474.994L176.262 300.411C177.545 299.542 178.935 298.77 180.217 297.901L372.429 471.423Z" fill="white" fill-opacity="0.3"/>
<defs>
<linearGradient id="paint0_linear" x1="45" y1="109" x2="333" y2="553" gradientUnits="userSpaceOnUse">
<stop stop-color="#87C4FD"/>
<stop offset="1" stop-color="#89dce9"/>
</linearGradient>
</defs>
</svg>
