<svg width="395" height="495" viewBox="0 0 395 495" fill="none" xmlns="http://www.w3.org/2000/svg">
<g opacity="0.3">
<path d="M57.5749 103.431C57.5749 143.109 57.5749 182.517 57.5749 222.195C57.5749 242.979 89.8553 242.979 89.8553 222.195C89.8553 182.517 89.8553 143.109 89.8553 103.431C89.8553 82.3777 57.5749 82.3777 57.5749 103.431Z" fill="white"/>
<path d="M133.897 146.615C94.353 146.615 55.0785 146.615 15.535 146.615C-5.17832 146.615 -5.17832 179.005 15.535 179.005C55.0785 179.005 94.353 179.005 133.897 179.005C154.61 179.005 154.61 146.615 133.897 146.615Z" fill="white"/>
<path d="M191.001 222.198C191.001 241.902 191.001 261.876 191.001 281.58C191.001 297.235 215.211 297.235 215.211 281.58C215.211 261.876 215.211 241.902 215.211 222.198C215.211 206.542 191.001 206.542 191.001 222.198Z" fill="white"/>
<path d="M232.696 239.742C213.059 239.742 193.153 239.742 173.515 239.742C157.913 239.742 157.913 264.034 173.515 264.034C193.153 264.034 213.059 264.034 232.696 264.034C248.298 264.034 248.298 239.742 232.696 239.742Z" fill="white"/>
<path d="M365.933 160.809C365.933 171.504 365.933 182.346 365.933 193.042C365.933 201.539 377.77 201.539 377.77 193.042C377.77 182.346 377.77 171.504 377.77 160.809C377.77 152.311 365.933 152.311 365.933 160.809Z" fill="white"/>
<path d="M387.968 171.007C377.272 171.007 366.431 171.007 355.735 171.007C347.238 171.007 347.238 182.843 355.735 182.843C366.431 182.843 377.272 182.843 387.968 182.843C396.465 182.843 396.465 171.007 387.968 171.007Z" fill="white"/>
<path d="M295.834 12.2007C295.834 34.334 295.834 56.4673 295.834 78.6006C295.834 94.2559 320.045 94.2559 320.045 78.6006C320.045 56.4673 320.045 34.334 320.045 12.2007C320.045 -3.18459 295.834 -3.45451 295.834 12.2007Z" fill="white"/>
<path d="M341.027 33.5232C318.969 33.5232 296.911 33.5232 274.853 33.5232C259.25 33.5232 259.25 57.8158 274.853 57.8158C296.911 57.8158 318.969 57.8158 341.027 57.8158C356.63 57.8158 356.63 33.5232 341.027 33.5232Z" fill="white"/>
<path d="M110.029 416.535C110.029 438.668 110.029 460.802 110.029 482.935C110.029 498.59 134.24 498.59 134.24 482.935C134.24 460.802 134.24 438.668 134.24 416.535C134.24 400.88 110.029 400.88 110.029 416.535Z" fill="white"/>
<path d="M155.223 437.59C133.165 437.59 111.107 437.59 89.0485 437.59C73.4463 437.59 73.4463 461.882 89.0485 461.882C111.107 461.882 133.165 461.882 155.223 461.882C170.826 461.882 170.826 437.59 155.223 437.59Z" fill="white"/>
</g>
</svg>
