<svg width="55"  viewBox="0 0 55 45" fill="none" xmlns="http://www.w3.org/2000/svg">
<rect x="1.72021" y="4.99365" width="3.3291" height="36.6201" fill="#82CACD" fill-opacity="0.5"/>
<rect x="49.9922" y="4.99365" width="3.3291" height="36.6201" fill="#82CACD" fill-opacity="0.5"/>
<path d="M0.618836 4.8705C0.279935 5.1197 0.0556641 5.52585 0.0556641 5.93208V43.3882C0.14537 44.6765 1.16209 44.856 2.15637 44.3825C8.66774 38.8654 16.6693 38.3022 26.8635 44.4722C27.2696 44.7214 27.7904 44.7214 28.1742 44.4722C38.503 38.4368 44.155 38.843 52.9489 44.4498C53.694 44.9482 54.8926 44.3152 54.915 43.3882V5.93462C54.915 5.55086 54.7107 5.14467 54.3942 4.91788C44.7206 -1.5265 36.2655 -1.57116 27.4716 4.39458C17.865 -2.11423 9.05132 -0.848449 0.618504 4.87054L0.618836 4.8705ZM26.1833 6.58743L26.2306 41.2399C17.2326 36.4255 9.11877 36.5825 2.60996 40.901V6.6568C11.1525 1.3889 18.8147 1.04996 26.1834 6.58703L26.1833 6.58743ZM52.3583 41.1257C43.2282 35.9276 36.8533 36.72 28.7848 41.2179L28.7399 6.61265C37.3073 1.0532 44.8802 1.41453 52.3606 6.63508V41.128L52.3583 41.1257ZM6.04317 10.9062C5.4775 11.2676 5.29806 12.1273 5.68184 12.6929C6.04317 13.2362 6.88045 13.4156 7.4461 13.0543C12.2157 9.84471 16.5787 9.84471 21.3485 13.0543C21.9142 13.4156 22.749 13.2362 23.1128 12.6929C23.4966 12.1273 23.3171 11.27 22.7515 10.9062C17.3041 7.33528 10.8623 7.74151 6.04787 10.9062H6.04317ZM32.1958 10.9062C31.6301 11.2676 31.4507 12.1273 31.8345 12.6929C32.1958 13.2362 33.0331 13.4156 33.5987 13.0543C38.3683 9.84471 42.7314 9.84471 47.5012 13.0543C48.0668 13.4156 48.9016 13.2362 49.2654 12.6929C49.6492 12.1273 49.4698 11.27 48.9041 10.9062C43.4344 7.33528 37.015 7.74151 32.2005 10.9062H32.1958ZM6.04317 17.3028C5.4775 17.6865 5.29806 18.5238 5.68184 19.0895C6.04317 19.6551 6.88045 19.8121 7.4461 19.4508C12.2157 16.2413 16.5787 16.2413 21.3485 19.4508C21.9142 19.8121 22.749 19.6551 23.1128 19.0895C23.4966 18.5238 23.3171 17.689 22.7515 17.3028C17.3041 13.7318 10.8623 14.138 6.04787 17.3028H6.04317ZM32.1958 17.3028C31.6301 17.6865 31.4507 18.5238 31.8345 19.0895C32.1958 19.6551 33.0331 19.8121 33.5987 19.4508C38.3683 16.2413 42.7314 16.2413 47.5012 19.4508C48.0668 19.8121 48.9016 19.6551 49.2654 19.0895C49.6492 18.5238 49.4698 17.689 48.9041 17.3028C43.4344 13.7318 37.015 14.138 32.2005 17.3028H32.1958ZM6.04317 23.7216C5.4775 24.083 5.29806 24.9427 5.68184 25.4859C6.04317 26.0516 6.88045 26.231 7.4461 25.8472C12.2157 22.6601 16.5787 22.6601 21.3485 25.8472C21.9142 26.231 22.749 26.0516 23.1128 25.4859C23.4966 24.9427 23.3171 24.0854 22.7515 23.7216C17.3041 20.1507 10.8623 20.5345 6.04787 23.7216H6.04317ZM32.1958 23.7216C31.6301 24.083 31.4507 24.9427 31.8345 25.4859C32.1958 26.0516 33.0331 26.231 33.5987 25.8472C38.3683 22.6601 42.7314 22.6601 47.5012 25.8472C48.0668 26.231 48.9016 26.0516 49.2654 25.4859C49.6492 24.9427 49.4698 24.0854 48.9041 23.7216C43.4344 20.1507 37.015 20.5345 32.2005 23.7216H32.1958ZM6.04317 30.1182C5.4775 30.5019 5.29806 31.3392 5.68184 31.9049C6.04317 32.4706 6.88045 32.6275 7.4461 32.2662C12.2157 29.0567 16.5787 29.0567 21.3485 32.2662C21.9142 32.6275 22.749 32.4706 23.1128 31.9049C23.4966 31.3392 23.3171 30.5044 22.7515 30.1182C17.3041 26.5472 10.8623 26.9535 6.04787 30.1182H6.04317ZM32.1958 30.1182C31.6301 30.5019 31.4507 31.3392 31.8345 31.9049C32.1958 32.4706 33.0331 32.6275 33.5987 32.2662C38.3683 29.0567 42.7314 29.0567 47.5012 32.2662C48.0668 32.6275 48.9016 32.4706 49.2654 31.9049C49.6492 31.3392 49.4698 30.5044 48.9041 30.1182C43.4344 26.5472 37.015 26.9535 32.2005 30.1182H32.1958Z" fill="#343F56"/>
</svg>
