<svg width="60" height="56" viewBox="0 0 60 56" fill="none" xmlns="http://www.w3.org/2000/svg">
<g style="mix-blend-mode:multiply">
<path d="M59.6059 25.2079C59.8881 23.5139 59.6823 21.7706 59.0143 20.1986C57.8387 17.6661 55.2278 16.1847 52.6198 15.4669C47.835 14.1501 42.6802 14.8909 38.0783 16.7891C33.4764 18.6873 29.3657 21.6855 25.5222 24.9375C24.3822 25.913 23.1439 26.7564 21.8291 27.4528C26.6171 34.0767 25.5471 43.628 29.4677 50.8459C30.2999 52.5012 31.525 53.9063 33.026 54.927C34.5973 55.8859 36.45 56.2136 38.2364 55.8486C40.0229 55.4836 41.6203 54.4511 42.7288 52.9447C43.9988 51.0453 44.8058 48.8516 45.0798 46.5535C45.3538 44.2553 45.0867 41.9222 44.3014 39.7561C44.0869 39.095 43.7486 38.4849 43.3063 37.9613C42.864 37.4377 42.3265 37.0109 41.7248 36.7057C45.5972 37.63 49.6608 37.0168 53.1234 34.9856C54.8298 33.9574 56.2963 32.5471 57.4173 30.8564C58.5382 29.1656 59.2857 27.2364 59.6059 25.2079Z" fill="white"/>
</g>
<path d="M4.40787 4.0021C5.24619 2.52181 6.48662 1.33427 7.97217 0.58978C10.4415 -0.542416 13.3497 0.0966818 15.781 1.31504C20.2419 3.55027 23.7046 7.60222 26.0271 12.1608C28.3497 16.7194 29.6147 21.7829 30.5182 26.8586C30.7795 28.3726 31.1976 29.8524 31.7655 31.272C24.0031 33.0741 18.8796 41.068 11.4081 43.9089C9.74559 44.6057 7.93959 44.8463 6.16257 44.6077C4.37047 44.2742 2.75658 43.27 1.62375 41.7834C0.490915 40.2969 -0.0829972 38.4301 0.00970522 36.5335C0.223893 34.2284 0.973525 32.0126 2.19367 30.078C3.41381 28.1434 5.06766 26.5483 7.01197 25.4309C7.58627 25.0729 8.22298 24.8375 8.88517 24.7382C9.54736 24.6389 10.2219 24.6778 10.8695 24.8525C7.34739 22.9359 4.6356 19.7196 3.26281 15.8307C2.60328 13.8934 2.36389 11.8276 2.5619 9.7822C2.7599 7.73679 3.39037 5.76267 4.40787 4.0021Z" fill="white"/>
<path d="M59.6179 25.2138C59.9002 23.5198 59.6943 21.7764 59.0264 20.2045C57.8508 17.6719 55.2399 16.1905 52.6319 15.4728C47.8471 14.1559 42.6923 14.8968 38.0904 16.795C33.4885 18.6932 29.3778 21.6914 25.5343 24.9433C24.3942 25.9189 23.1559 26.7623 21.8412 27.4586C26.6292 34.0826 25.5592 43.6338 29.4798 50.8517C30.312 52.507 31.5371 53.9121 33.0381 54.9329C34.6094 55.8917 36.4621 56.2194 38.2485 55.8544C40.035 55.4895 41.6323 54.4569 42.7409 52.9506C44.0109 51.0512 44.8179 48.8574 45.0919 46.5593C45.3659 44.2612 45.0987 41.928 44.3135 39.7619C44.099 39.1009 43.7607 38.4908 43.3184 37.9672C42.8761 37.4435 42.3386 37.0167 41.7369 36.7115C45.6093 37.6359 49.6729 37.0227 53.1355 34.9915C54.8419 33.9633 56.3084 32.553 57.4293 30.8622C58.5503 29.1714 59.2978 27.2423 59.6179 25.2138Z" fill="white"/>
<g style="mix-blend-mode:multiply">
<path d="M4.40787 4.0021C5.24619 2.52181 6.48662 1.33427 7.97217 0.58978C10.4415 -0.542416 13.3497 0.0966818 15.781 1.31504C20.2419 3.55027 23.7046 7.60222 26.0271 12.1608C28.3497 16.7194 29.6147 21.7829 30.5182 26.8586C30.7795 28.3726 31.1976 29.8524 31.7655 31.272C24.0031 33.0741 18.8796 41.068 11.4081 43.9089C9.74559 44.6057 7.93959 44.8463 6.16257 44.6077C4.37047 44.2742 2.75658 43.27 1.62375 41.7834C0.490915 40.2969 -0.0829972 38.4301 0.00970522 36.5335C0.223893 34.2284 0.973525 32.0126 2.19367 30.078C3.41381 28.1434 5.06766 26.5483 7.01197 25.4309C7.58627 25.0729 8.22298 24.8375 8.88517 24.7382C9.54736 24.6389 10.2219 24.6778 10.8695 24.8525C7.34739 22.9359 4.6356 19.7196 3.26281 15.8307C2.60328 13.8934 2.36389 11.8276 2.5619 9.7822C2.7599 7.73679 3.39037 5.76267 4.40787 4.0021Z" fill="#F1A86D"/>
</g>
<g style="mix-blend-mode:multiply">
<path d="M59.6179 25.2138C59.9002 23.5198 59.6943 21.7764 59.0264 20.2045C57.8508 17.6719 55.2399 16.1905 52.6319 15.4728C47.8471 14.1559 42.6923 14.8968 38.0904 16.795C33.4885 18.6932 29.3778 21.6914 25.5343 24.9433C24.3942 25.9189 23.1559 26.7623 21.8412 27.4586C26.6292 34.0826 25.5592 43.6338 29.4798 50.8517C30.312 52.507 31.5371 53.9121 33.0381 54.9329C34.6094 55.8917 36.4621 56.2194 38.2485 55.8544C40.035 55.4895 41.6323 54.4569 42.7409 52.9506C44.0109 51.0512 44.8179 48.8574 45.0919 46.5593C45.3659 44.2612 45.0987 41.928 44.3135 39.7619C44.099 39.1009 43.7607 38.4908 43.3184 37.9672C42.8761 37.4435 42.3386 37.0167 41.7369 36.7115C45.6093 37.6359 49.6729 37.0227 53.1355 34.9915C54.8419 33.9633 56.3084 32.553 57.4293 30.8622C58.5503 29.1714 59.2978 27.2423 59.6179 25.2138Z" fill="#EB822F"/>
</g>
</svg>
