<svg width="35" height="29" viewBox="0 0 35 29" fill="none" xmlns="http://www.w3.org/2000/svg">
<g style="mix-blend-mode:multiply">
<path d="M34.9863 8.16919C34.9376 7.18657 34.6004 6.2406 34.0174 5.45106C33.4699 4.8619 32.8042 4.39668 32.0646 4.08626C31.3249 3.77585 30.5282 3.62733 29.7271 3.65055C26.7699 3.63396 23.8836 4.5616 21.4827 6.30019C19.1014 8.03512 16.9967 10.1254 15.241 12.4989C14.7037 13.1932 14.0931 13.8267 13.4199 14.3882C17.0184 17.4561 17.5944 22.928 20.7651 26.4416C21.4535 27.2561 22.3379 27.8794 23.3337 28.2518C24.3624 28.5805 25.4749 28.5198 26.4624 28.0812C27.4499 27.6427 28.2445 26.8563 28.6971 25.8698C29.1938 24.6426 29.386 23.312 29.2569 21.9932C29.1278 20.6745 28.6813 19.4073 27.9561 18.3014C27.7493 17.9606 27.4773 17.6646 27.156 17.4305C26.8347 17.1963 26.4704 17.0288 26.0843 16.9375C28.4395 16.9444 30.7128 16.0679 32.4611 14.4788C33.3192 13.6806 33.9908 12.7007 34.4275 11.6096C34.8642 10.5185 35.055 9.34349 34.9863 8.16919Z" fill="white"/>
</g>
<g style="mix-blend-mode:multiply">
<path d="M0.402363 3.58739C0.701948 2.65093 1.2707 1.82501 2.03665 1.21415C2.7169 0.787645 3.47942 0.511643 4.27366 0.404453C5.06791 0.297262 5.87571 0.36133 6.64349 0.592408C9.50427 1.34675 12.054 2.99465 13.9264 5.29939C15.7809 7.59554 17.277 10.1629 18.3631 12.913C18.7037 13.7237 19.1307 14.4948 19.6367 15.2126C15.373 17.2389 13.4103 22.3744 9.44487 24.9424C8.57056 25.5499 7.55619 25.9216 6.49861 26.0219C5.42046 26.0714 4.36143 25.7231 3.52024 25.0422C2.67905 24.3614 2.11354 23.3948 1.92981 22.324C1.76522 21.0092 1.92146 19.6738 2.38499 18.4336C2.84853 17.1933 3.60538 16.0855 4.58999 15.2062C4.87734 14.9309 5.21611 14.7158 5.58666 14.5733C5.95721 14.4309 6.35216 14.3639 6.74861 14.3763C4.47181 13.7695 2.50102 12.3307 1.2204 10.3404C0.596532 9.34576 0.199569 8.22416 0.0581112 7.05641C-0.0833464 5.88867 0.0342281 4.70387 0.402363 3.58739Z" fill="white"/>
</g>
<g style="mix-blend-mode:multiply">
<path d="M34.9863 8.16919C34.9376 7.18657 34.6004 6.2406 34.0174 5.45106C33.4699 4.8619 32.8042 4.39668 32.0646 4.08626C31.3249 3.77585 30.5282 3.62733 29.7271 3.65055C26.7699 3.63396 23.8836 4.5616 21.4827 6.30019C19.1014 8.03512 16.9967 10.1254 15.241 12.4989C14.7037 13.1932 14.0931 13.8267 13.4199 14.3882C17.0184 17.4561 17.5944 22.928 20.7651 26.4416C21.4535 27.2561 22.3379 27.8794 23.3337 28.2518C24.3624 28.5805 25.4749 28.5198 26.4624 28.0812C27.4499 27.6427 28.2445 26.8563 28.6971 25.8698C29.1938 24.6426 29.386 23.312 29.2569 21.9932C29.1278 20.6745 28.6813 19.4073 27.9561 18.3014C27.7493 17.9606 27.4773 17.6646 27.156 17.4305C26.8347 17.1963 26.4704 17.0288 26.0843 16.9375C28.4395 16.9444 30.7128 16.0679 32.4611 14.4788C33.3192 13.6806 33.9908 12.7007 34.4275 11.6096C34.8642 10.5185 35.055 9.34349 34.9863 8.16919Z" fill="#F5B33C"/>
</g>
<g style="mix-blend-mode:multiply">
<path d="M0.402363 3.58739C0.701948 2.65093 1.2707 1.82501 2.03665 1.21415C2.7169 0.787645 3.47942 0.511643 4.27366 0.404453C5.06791 0.297262 5.87571 0.36133 6.64349 0.592408C9.50427 1.34675 12.054 2.99465 13.9264 5.29939C15.7809 7.59554 17.277 10.1629 18.3631 12.913C18.7037 13.7237 19.1307 14.4948 19.6367 15.2126C15.373 17.2389 13.4103 22.3744 9.44487 24.9424C8.57056 25.5499 7.55619 25.9216 6.49861 26.0219C5.42046 26.0714 4.36143 25.7231 3.52024 25.0422C2.67905 24.3614 2.11354 23.3948 1.92981 22.324C1.76522 21.0092 1.92146 19.6738 2.38499 18.4336C2.84853 17.1933 3.60538 16.0855 4.58999 15.2062C4.87734 14.9309 5.21611 14.7158 5.58666 14.5733C5.95721 14.4309 6.35216 14.3639 6.74861 14.3763C4.47181 13.7695 2.50102 12.3307 1.2204 10.3404C0.596532 9.34576 0.199569 8.22416 0.0581112 7.05641C-0.0833464 5.88867 0.0342281 4.70387 0.402363 3.58739Z" fill="#F8CA77"/>
</g>
</svg>
