<svg width="120" height="103" viewBox="0 0 120 103" fill="none" xmlns="http://www.w3.org/2000/svg">
<g style="mix-blend-mode:multiply">
<path d="M85.1511 36.0112C85.5543 33.5912 85.2603 31.1007 84.3061 28.8551C82.6266 25.2371 78.8968 23.1209 75.171 22.0955C68.3356 20.2143 60.9716 21.2727 54.3974 23.9844C47.8233 26.6961 41.9509 30.9792 36.4601 35.6248C34.8315 37.0185 33.0625 38.2234 31.1843 39.2182C38.0243 48.6809 36.4957 62.3256 42.0966 72.6368C43.2855 75.0016 45.0357 77.0089 47.1799 78.4671C49.4246 79.8369 52.0713 80.305 54.6234 79.7836C57.1754 79.2622 59.4574 77.7871 61.0411 75.6352C62.8554 72.9218 64.0082 69.7879 64.3996 66.5048C64.7911 63.2218 64.4094 59.8887 63.2876 56.7943C62.9811 55.8499 62.4979 54.9784 61.8661 54.2303C61.2342 53.4823 60.4663 52.8726 59.6068 52.4365C65.1388 53.7571 70.9438 52.8811 75.8904 49.9794C78.3281 48.5105 80.4232 46.4958 82.0245 44.0804C83.6259 41.665 84.6938 38.9091 85.1511 36.0112V36.0112Z" fill="white"/>
</g>
<path d="M6.29696 5.71729C7.49456 3.60259 9.2666 1.9061 11.3888 0.842543C14.9164 -0.77488 19.071 0.138117 22.5443 1.87863C28.917 5.07182 33.8637 10.8603 37.1816 17.3726C40.4996 23.8849 42.3066 31.1184 43.5975 38.3695C43.9706 40.5323 44.5681 42.6463 45.3792 44.6743C34.2901 47.2487 26.9708 58.6685 16.2973 62.727C13.9223 63.7225 11.3423 64.0662 8.80367 63.7252C6.24353 63.2489 3.93797 61.8143 2.31964 59.6906C0.701306 57.567 -0.118567 54.9002 0.0138646 52.1906C0.319847 48.8978 1.39075 45.7323 3.13381 42.9686C4.87687 40.2049 7.23952 37.9261 10.0171 36.3298C10.8375 35.8185 11.7471 35.4821 12.6931 35.3403C13.6391 35.1985 14.6026 35.254 15.5279 35.5036C10.4963 32.7656 6.62229 28.1709 4.66115 22.6152C3.71897 19.8477 3.37698 16.8966 3.65985 13.9746C3.94272 11.0526 4.84339 8.23238 6.29696 5.71729V5.71729Z" fill="white"/>
<path d="M85.1683 36.0198C85.5716 33.5997 85.2775 31.1092 84.3233 28.8636C82.6439 25.2457 78.914 23.1294 75.1883 22.104C68.3528 20.2228 60.9888 21.2812 54.4147 23.9929C47.8406 26.7047 41.9682 30.9877 36.4775 35.6334C34.8489 37.0271 33.0799 38.2319 31.2017 39.2267C38.0416 48.6895 36.5131 62.3341 42.1139 72.6454C43.3028 75.0101 45.053 77.0174 47.1972 78.4756C49.4419 79.8454 52.0886 80.3135 54.6407 79.7921C57.1927 79.2707 59.4747 77.7957 61.0583 75.6437C62.8726 72.9304 64.0254 69.7964 64.4169 66.5134C64.8084 63.2304 64.4267 59.8972 63.3049 56.8028C62.9984 55.8584 62.5152 54.9869 61.8834 54.2389C61.2515 53.4908 60.4836 52.8811 59.6241 52.4451C65.156 53.7656 70.9611 52.8896 75.9077 49.9879C78.3454 48.5191 80.4404 46.5044 82.0418 44.089C83.6431 41.6736 84.711 38.9176 85.1683 36.0198V36.0198Z" fill="white"/>
<g style="mix-blend-mode:multiply">
<path d="M6.29696 5.71729C7.49456 3.60259 9.2666 1.9061 11.3888 0.842543C14.9164 -0.77488 19.071 0.138117 22.5443 1.87863C28.917 5.07182 33.8637 10.8603 37.1816 17.3726C40.4996 23.8849 42.3066 31.1184 43.5975 38.3695C43.9706 40.5323 44.5681 42.6463 45.3792 44.6743C34.2901 47.2487 26.9708 58.6685 16.2973 62.727C13.9223 63.7225 11.3423 64.0662 8.80367 63.7252C6.24353 63.2489 3.93797 61.8143 2.31964 59.6906C0.701306 57.567 -0.118567 54.9002 0.0138646 52.1906C0.319847 48.8978 1.39075 45.7323 3.13381 42.9686C4.87687 40.2049 7.23952 37.9261 10.0171 36.3298C10.8375 35.8185 11.7471 35.4821 12.6931 35.3403C13.6391 35.1985 14.6026 35.254 15.5279 35.5036C10.4963 32.7656 6.62229 28.1709 4.66115 22.6152C3.71897 19.8477 3.37698 16.8966 3.65985 13.9746C3.94272 11.0526 4.84339 8.23238 6.29696 5.71729V5.71729Z" fill="#F1A86D"/>
</g>
<g style="mix-blend-mode:multiply">
<path d="M85.1683 36.0198C85.5716 33.5997 85.2775 31.1092 84.3233 28.8636C82.6439 25.2457 78.914 23.1294 75.1883 22.104C68.3528 20.2228 60.9888 21.2812 54.4147 23.9929C47.8406 26.7047 41.9682 30.9877 36.4775 35.6334C34.8489 37.0271 33.0799 38.2319 31.2017 39.2267C38.0416 48.6895 36.5131 62.3341 42.1139 72.6454C43.3028 75.0101 45.053 77.0174 47.1972 78.4756C49.4419 79.8454 52.0886 80.3135 54.6407 79.7921C57.1927 79.2707 59.4747 77.7957 61.0583 75.6437C62.8726 72.9304 64.0254 69.7964 64.4169 66.5134C64.8084 63.2304 64.4267 59.8972 63.3049 56.8028C62.9984 55.8584 62.5152 54.9869 61.8834 54.2389C61.2515 53.4908 60.4836 52.8811 59.6241 52.4451C65.156 53.7656 70.9611 52.8896 75.9077 49.9879C78.3454 48.5191 80.4404 46.5044 82.0418 44.089C83.6431 41.6736 84.711 38.9176 85.1683 36.0198V36.0198Z" fill="#EB822F"/>
</g>
<g style="mix-blend-mode:multiply">
<path d="M119.986 81.8152C119.938 80.8326 119.6 79.8866 119.017 79.0971C118.47 78.5079 117.804 78.0427 117.065 77.7323C116.325 77.4218 115.528 77.2733 114.727 77.2965C111.77 77.28 108.884 78.2076 106.483 79.9462C104.101 81.6811 101.997 83.7714 100.241 86.1449C99.7037 86.8392 99.0931 87.4727 98.4199 88.0342C102.018 91.1021 102.594 96.574 105.765 100.088C106.454 100.902 107.338 101.525 108.334 101.898C109.362 102.226 110.475 102.166 111.462 101.727C112.45 101.289 113.244 100.502 113.697 99.5158C114.194 98.2886 114.386 96.958 114.257 95.6392C114.128 94.3205 113.681 93.0532 112.956 91.9474C112.749 91.6066 112.477 91.3106 112.156 91.0765C111.835 90.8423 111.47 90.6748 111.084 90.5835C113.439 90.5904 115.713 89.7139 117.461 88.1248C118.319 87.3266 118.991 86.3467 119.428 85.2556C119.864 84.1645 120.055 82.9895 119.986 81.8152V81.8152Z" fill="white"/>
</g>
<g style="mix-blend-mode:multiply">
<path d="M85.4024 77.2334C85.7019 76.2969 86.2707 75.471 87.0366 74.8601C87.7169 74.4336 88.4794 74.1576 89.2737 74.0504C90.0679 73.9433 90.8757 74.0073 91.6435 74.2384C94.5043 74.9927 97.054 76.6406 98.9264 78.9454C100.781 81.2415 102.277 83.8089 103.363 86.559C103.704 87.3697 104.131 88.1408 104.637 88.8586C100.373 90.8849 98.4103 96.0204 94.4449 98.5884C93.5706 99.1959 92.5562 99.5675 91.4986 99.6679C90.4205 99.7174 89.3614 99.3691 88.5202 98.6882C87.6791 98.0074 87.1135 97.0408 86.9298 95.97C86.7652 94.6552 86.9215 93.3198 87.385 92.0796C87.8485 90.8393 88.6054 89.7315 89.59 88.8522C89.8773 88.5769 90.2161 88.3618 90.5867 88.2193C90.9572 88.0769 91.3522 88.0099 91.7486 88.0223C89.4718 87.4155 87.501 85.9767 86.2204 83.9864C85.5965 82.9918 85.1996 81.8702 85.0581 80.7024C84.9167 79.5347 85.0342 78.3499 85.4024 77.2334V77.2334Z" fill="white"/>
</g>
<g style="mix-blend-mode:multiply">
<path d="M119.986 81.8152C119.938 80.8326 119.6 79.8866 119.017 79.0971C118.47 78.5079 117.804 78.0427 117.065 77.7323C116.325 77.4218 115.528 77.2733 114.727 77.2965C111.77 77.28 108.884 78.2076 106.483 79.9462C104.101 81.6811 101.997 83.7714 100.241 86.1449C99.7037 86.8392 99.0931 87.4727 98.4199 88.0342C102.018 91.1021 102.594 96.574 105.765 100.088C106.454 100.902 107.338 101.525 108.334 101.898C109.362 102.226 110.475 102.166 111.462 101.727C112.45 101.289 113.244 100.502 113.697 99.5158C114.194 98.2886 114.386 96.958 114.257 95.6392C114.128 94.3205 113.681 93.0532 112.956 91.9474C112.749 91.6066 112.477 91.3106 112.156 91.0765C111.835 90.8423 111.47 90.6748 111.084 90.5835C113.439 90.5904 115.713 89.7139 117.461 88.1248C118.319 87.3266 118.991 86.3467 119.428 85.2556C119.864 84.1645 120.055 82.9895 119.986 81.8152V81.8152Z" fill="#F5B33C"/>
</g>
<g style="mix-blend-mode:multiply">
<path d="M85.4024 77.2334C85.7019 76.2969 86.2707 75.471 87.0366 74.8601C87.7169 74.4336 88.4794 74.1576 89.2737 74.0504C90.0679 73.9433 90.8757 74.0073 91.6435 74.2384C94.5043 74.9927 97.054 76.6406 98.9264 78.9454C100.781 81.2415 102.277 83.8089 103.363 86.559C103.704 87.3697 104.131 88.1408 104.637 88.8586C100.373 90.8849 98.4103 96.0204 94.4449 98.5884C93.5706 99.1959 92.5562 99.5675 91.4986 99.6679C90.4205 99.7174 89.3614 99.3691 88.5202 98.6882C87.6791 98.0074 87.1135 97.0408 86.9298 95.97C86.7652 94.6552 86.9215 93.3198 87.385 92.0796C87.8485 90.8393 88.6054 89.7315 89.59 88.8522C89.8773 88.5769 90.2161 88.3618 90.5867 88.2193C90.9572 88.0769 91.3522 88.0099 91.7486 88.0223C89.4718 87.4155 87.501 85.9767 86.2204 83.9864C85.5965 82.9918 85.1996 81.8702 85.0581 80.7024C84.9167 79.5347 85.0342 78.3499 85.4024 77.2334Z" fill="#F8CA77"/>
</g>
</svg>
