<svg width="100%" height="100%" viewBox="0 0 213 242" fill="none" xmlns="http://www.w3.org/2000/svg">
<path d="M37.7346 209.042C38.757 209.976 39.7794 210.91 40.8018 211.843L210.887 40.9869C209.957 39.9599 209.028 38.9328 208.098 37.9058L37.7346 209.042ZM60.1338 225.848C61.3421 226.595 62.6433 227.248 63.9445 227.995L226.966 64.2346C226.315 62.9275 225.572 61.7137 224.921 60.4066L60.1338 225.848ZM87.5519 237.519C89.1319 237.985 90.619 238.359 92.199 238.732L237.561 92.7106C237.189 91.1234 236.818 89.5362 236.353 88.0424L87.5519 237.519ZM228.639 174.404L173.617 229.676C178.45 227.342 183.097 224.634 187.465 221.647L220.646 188.316C223.527 183.927 226.222 179.259 228.639 174.404ZM239.792 104.194L103.724 240.88C105.49 241.16 107.256 241.346 109.022 241.533L240.442 109.516C240.349 108.489 240.256 107.369 240.071 106.342C239.978 105.595 239.885 104.941 239.792 104.194ZM144.061 239.666C146.663 239.106 149.173 238.545 151.682 237.892L236.911 152.277C237.561 149.756 238.212 147.142 238.676 144.621L144.061 239.666ZM48.3301 218.005C49.4454 218.846 50.5608 219.686 51.769 220.433L219.53 51.9105C218.694 50.7901 217.95 49.5764 217.114 48.456L48.3301 218.005ZM122.127 242C124.171 242 126.216 241.907 128.261 241.72L240.721 128.749C240.814 126.695 240.907 124.641 241 122.587L122.127 242ZM73.1458 232.383C74.5399 232.944 75.9341 233.504 77.3282 234.064L233.007 77.679C232.449 76.2786 231.892 74.8781 231.334 73.4776L73.1458 232.383ZM0.0929198 129.029C0.185862 130.803 0.371747 132.671 0.557633 134.444L133.837 0.560162C132.071 0.373434 130.213 0.186706 128.447 0.0933414L0.0929198 129.029ZM16.5438 59.473L59.2044 16.6188C41.5453 27.0756 26.8604 41.9205 16.5438 59.473ZM5.48363 84.3079C4.64715 87.0154 3.90359 89.723 3.25299 92.5239L92.106 3.26775C89.3178 3.9213 86.6225 4.66823 84.0201 5.50851L5.48363 84.3079ZM6.78479 161.52C7.24951 162.921 7.80717 164.414 8.36483 165.815L164.973 8.49612C163.579 7.93593 162.185 7.37579 160.698 6.90897L6.78479 161.52ZM0.464713 109.049C0.278828 111.103 0.0929425 113.251 0 115.398L114.877 0C112.739 0.0933642 110.695 0.280093 108.557 0.466821L0.464713 109.049ZM2.50946 146.208C2.88123 147.795 3.25301 149.383 3.62478 150.97L150.381 3.54783C148.801 3.17437 147.221 2.8009 145.641 2.42745L2.50946 146.208ZM12.6402 175.338C13.2908 176.645 13.9414 177.952 14.6849 179.166L178.357 14.7515C177.056 14.0046 175.847 13.3511 174.546 12.6975L12.6402 175.338ZM28.1616 198.959C29.091 199.986 29.9275 201.106 30.8569 202.133L201.128 31.0903C200.105 30.1566 199.083 29.223 197.968 28.3827L28.1616 198.959ZM19.7968 187.755C20.5403 188.969 21.3768 190.089 22.2133 191.21L190.346 22.3141C189.231 21.4738 188.023 20.7268 186.907 19.8866L19.7968 187.755Z" fill="white" fill-opacity="0.3"/>
</svg>
