<?xml version="1.0" encoding="utf-8"?>
<!-- Generator: Adobe Illustrator 22.0.1, SVG Export Plug-In . SVG Version: 6.00 Build 0)  -->
<svg version="1.1" id="Layer_1" xmlns="http://www.w3.org/2000/svg" xmlns:xlink="http://www.w3.org/1999/			xlink" x="0px" y="0px"
	viewBox="0 0 64 47" style="enable-background:new 0 0 64 47;" xml:space="preserve">
<style type="text/css">
	.st2{fill:#82CACD;fill-opacity:0.5;}
	.st3{fill:#343F56;}
</style>
<path class="st2" d="M9.5,24.9C9.5,12.8,19.9,3,32.8,3C45.6,3,56,12.8,56,24.9c0,7.3-4.3,14.7-10.2,18.7l-13.1-0.9l-13.6,0.9
	C13.3,39.7,9.5,32.3,9.5,24.9z M32.3,39.4c7.9,0,14.4-6.1,14.4-13.5s-6.4-13.5-14.4-13.5s-14.4,6.1-14.4,13.5S24.4,39.4,32.3,39.4z" />
<path class="st3" d="M13.5,37.4c-0.9-1.5-1.6-3.2-2.2-4.8C11,32,11.4,31.4,12,31.3l4.7-0.9c0.5-0.1,1,0.2,1.2,0.7
	c1.3,3.6,4,6.7,7.3,8.4c0.1-0.1,0.2-0.2,0.3-0.3c0.6-0.5,1.5-1.3,2.6-1.8c-4.6-1.7-8.1-6.2-8.1-11.5c0-6.7,5.5-12.1,12.1-12.1
	c6.7,0,12.1,5.5,12.1,12.1c0,5.3-3.4,9.8-8.1,11.5c1.2,0.6,2,1.3,2.6,1.8c0.1,0.1,0.3,0.2,0.3,0.3c3.4-1.8,6-4.8,7.3-8.4
	c0.2-0.5,0.7-0.8,1.2-0.7l4.7,0.9c0.6,0.1,1,0.7,0.8,1.3c-0.5,1.7-1.3,3.3-2.2,4.8c1.2,0.5,2,1.2,2.6,1.7c2.4-3.8,3.7-8.3,3.7-13.2
	C57.5,12,46.1,0.7,32.2,0.7S7.1,12,7.1,26c0,4.8,1.4,9.3,3.7,13.2C11.4,38.6,12.3,37.9,13.5,37.4L13.5,37.4z M37.7,5.7
	c0.1-0.6,0.7-1,1.3-0.8c6.9,2.2,12.2,7.6,14.4,14.4c0.2,0.6-0.2,1.2-0.8,1.3l-4.7,0.9c-0.5,0.1-1-0.2-1.1-0.7
	c-1.5-4.3-5-7.7-9.2-9.2c-0.5-0.2-0.8-0.7-0.7-1.1L37.7,5.7z M11.3,19.2C13.5,12.4,18.9,7,25.7,4.9c0.6-0.2,1.2,0.2,1.3,0.8l0.9,4.7
	c0.1,0.5-0.2,1-0.7,1.2c-4.3,1.5-7.7,4.9-9.2,9.2c-0.2,0.5-0.7,0.8-1.2,0.7l-4.7-0.9C11.5,20.4,11.1,19.8,11.3,19.2L11.3,19.2z"/>
<path class="st3" d="M62.1,39.7c-2.4,0-3.7,1.1-4.8,1.9c-0.9,0.7-1.5,1.2-2.7,1.2c-1.3,0-1.8-0.5-2.7-1.2c-1.1-0.9-2.3-1.9-4.8-1.9
	c-2.4,0-3.7,1.1-4.8,1.9c-0.9,0.7-1.5,1.2-2.7,1.2c-1.3,0-1.8-0.5-2.7-1.2c-1-0.9-2.3-1.9-4.8-1.9c-2.4,0-3.7,1.1-4.8,1.9
	c-0.9,0.7-1.5,1.2-2.7,1.2c-1.3,0-1.8-0.5-2.7-1.2c-1.1-0.9-2.3-1.9-4.8-1.9s-3.7,1.1-4.8,1.9c-0.9,0.7-1.5,1.2-2.7,1.2
	c-1.3,0-1.8-0.5-2.7-1.2c-1.1-0.9-2.3-1.9-4.8-1.9c-0.9,0-1.6,0.7-1.6,1.6c0,0.9,0.7,1.6,1.6,1.6c1.3,0,1.8,0.5,2.7,1.2
	C6.2,44.9,7.4,46,9.9,46c2.4,0,3.7-1.1,4.8-1.9c0.9-0.7,1.5-1.2,2.7-1.2c1.3,0,1.8,0.5,2.7,1.2c1.1,0.9,2.3,1.9,4.8,1.9
	c2.4,0,3.7-1.1,4.8-1.9c0.9-0.7,1.5-1.2,2.7-1.2c1.3,0,1.8,0.5,2.7,1.2c1,0.9,2.3,1.9,4.8,1.9c2.4,0,3.7-1.1,4.8-1.9
	c0.9-0.7,1.5-1.2,2.7-1.2c1.3,0,1.8,0.5,2.7,1.2c1.1,0.9,2.3,1.9,4.8,1.9c2.4,0,3.7-1.1,4.8-1.9c0.9-0.7,1.5-1.2,2.7-1.2
	c0.9,0,1.6-0.7,1.6-1.6C63.7,40.4,63,39.7,62.1,39.7z" />
</svg>