<svg width="375" height="474" viewBox="0 0 375 474" fill="none" xmlns="http://www.w3.org/2000/svg">
<path d="M322.846 375.073C322.846 337.035 322.846 299.256 322.846 261.218C322.846 241.293 291.9 241.293 291.9 261.218C291.9 299.256 291.9 337.035 291.9 375.073C291.9 395.256 322.846 395.256 322.846 375.073Z" fill="white"/>
<path d="M250.638 333.675C288.547 333.675 326.198 333.675 364.107 333.675C383.964 333.675 383.964 302.623 364.107 302.623C326.198 302.623 288.547 302.623 250.638 302.623C230.781 302.623 230.781 333.675 250.638 333.675Z" fill="white"/>
<path d="M194.936 261.216C194.936 242.326 194.936 223.178 194.936 204.288C194.936 189.28 171.726 189.28 171.726 204.288C171.726 223.178 171.726 242.326 171.726 261.216C171.726 276.224 194.936 276.224 194.936 261.216Z" fill="white"/>
<path d="M154.963 244.397C173.789 244.397 192.872 244.397 211.698 244.397C226.655 244.397 226.655 221.109 211.698 221.109C192.872 221.109 173.789 221.109 154.963 221.109C140.006 221.109 140.006 244.397 154.963 244.397Z" fill="white"/>
<path d="M27.2334 320.067C27.2334 309.814 27.2334 299.42 27.2334 289.167C27.2334 281.021 15.8861 281.021 15.8861 289.167C15.8861 299.42 15.8861 309.814 15.8861 320.067C15.8861 328.214 27.2334 328.214 27.2334 320.067Z" fill="white"/>
<path d="M6.10987 310.291C16.3631 310.291 26.7568 310.291 37.0101 310.291C45.1565 310.291 45.1565 298.944 37.0101 298.944C26.7568 298.944 16.3631 298.944 6.10987 298.944C-2.03654 298.944 -2.03654 310.291 6.10987 310.291Z" fill="white"/>
<path d="M95.3938 462.533C95.3938 441.315 95.3938 420.096 95.3938 398.878C95.3938 383.87 72.1842 383.87 72.1842 398.878C72.1842 420.096 72.1842 441.315 72.1842 462.533C72.1842 477.282 95.3938 477.541 95.3938 462.533Z" fill="white"/>
<path d="M52.0687 442.092C73.2152 442.092 94.3618 442.092 115.508 442.092C130.466 442.092 130.466 418.804 115.508 418.804C94.3618 418.804 73.2152 418.804 52.0687 418.804C37.1114 418.804 37.1114 442.092 52.0687 442.092Z" fill="white"/>
<path d="M272.56 74.9113C272.56 53.6929 272.56 32.4745 272.56 11.2561C272.56 -3.75209 249.35 -3.75209 249.35 11.2561C249.35 32.4745 249.35 53.6929 249.35 74.9113C249.35 89.9195 272.56 89.9195 272.56 74.9113Z" fill="white"/>
<path d="M229.234 54.7271C250.381 54.7271 271.527 54.7271 292.674 54.7271C307.631 54.7271 307.631 31.4385 292.674 31.4385C271.527 31.4385 250.381 31.4385 229.234 31.4385C214.277 31.4385 214.277 54.7271 229.234 54.7271Z" fill="white"/>
</svg>
