<svg width="266" height="270" viewBox="0 0 266 270" fill="none" xmlns="http://www.w3.org/2000/svg">
<g style="mix-blend-mode:multiply">
<path d="M93.3042 37.6351C93.7432 35.1059 93.423 32.5031 92.3843 30.1562C90.5561 26.3751 86.4957 24.1634 82.4399 23.0918C74.9988 21.1258 66.9823 22.2319 59.8257 25.0659C52.6691 27.8999 46.2765 32.3761 40.2992 37.2313C38.5263 38.6878 36.6005 39.947 34.5559 40.9866C42.0019 50.8761 40.3379 65.1361 46.435 75.9123C47.7293 78.3837 49.6345 80.4815 51.9687 82.0055C54.4123 83.437 57.2935 83.9262 60.0717 83.3813C62.8499 82.8364 65.334 81.2949 67.058 79.0459C69.033 76.2101 70.288 72.9349 70.7142 69.5038C71.1403 66.0727 70.7248 62.5893 69.5036 59.3553C69.17 58.3684 68.644 57.4576 67.9561 56.6758C67.2683 55.894 66.4323 55.2568 65.4967 54.8011C71.5188 56.1812 77.8382 55.2657 83.223 52.2331C85.8767 50.698 88.1574 48.5925 89.9006 46.0682C91.6439 43.5438 92.8064 40.6636 93.3042 37.6351Z" fill="white"/>
</g>
<path d="M7.46329 5.9751C8.767 3.76504 10.6961 1.99205 13.0063 0.880536C16.8464 -0.809822 21.3692 0.144345 25.1501 1.96335C32.0875 5.30053 37.4725 11.35 41.0844 18.156C44.6964 24.9619 46.6635 32.5217 48.0688 40.0997C48.475 42.36 49.1253 44.5694 50.0084 46.6889C37.9367 49.3793 29.9689 61.3141 18.3497 65.5556C15.7642 66.596 12.9556 66.9551 10.1921 66.5988C7.40512 66.101 4.89529 64.6017 3.13356 62.3823C1.37184 60.1628 0.479326 57.3758 0.623491 54.5441C0.956584 51.1027 2.12237 47.7946 4.01987 44.9062C5.91737 42.0178 8.48936 39.6364 11.513 37.9681C12.4062 37.4336 13.3963 37.0821 14.4261 36.9339C15.4559 36.7857 16.5049 36.8437 17.5121 37.1046C12.0347 34.2431 7.81744 29.4412 5.68254 23.635C4.65688 20.7427 4.28459 17.6585 4.59252 14.6047C4.90045 11.5509 5.88093 8.6036 7.46329 5.9751Z" fill="white"/>
<path d="M93.3228 37.6442C93.7617 35.115 93.4416 32.5123 92.4029 30.1654C90.5746 26.3843 86.5143 24.1726 82.4585 23.101C75.0174 21.135 67.0009 22.2411 59.8443 25.0751C52.6876 27.9091 46.295 32.3853 40.3177 37.2404C38.5448 38.6969 36.6191 39.9561 34.5745 40.9958C42.0205 50.8852 40.3565 65.1452 46.4536 75.9214C47.7479 78.3927 49.653 80.4905 51.9872 82.0145C54.4309 83.4461 57.3121 83.9353 60.0903 83.3904C62.8684 82.8455 65.3526 81.3039 67.0766 79.0549C69.0516 76.2192 70.3066 72.9439 70.7327 69.5129C71.1589 66.0818 70.7433 62.5984 69.5222 59.3644C69.1885 58.3774 68.6625 57.4667 67.9747 56.6849C67.2868 55.9031 66.4509 55.2659 65.5152 54.8102C71.5373 56.1903 77.8567 55.2748 83.2416 52.2422C85.8953 50.7071 88.1759 48.6016 89.9192 46.0773C91.6625 43.553 92.8249 40.6728 93.3228 37.6442Z" fill="white"/>
<g style="mix-blend-mode:multiply">
<path d="M7.46329 5.9751C8.767 3.76504 10.6961 1.99205 13.0063 0.880536C16.8464 -0.809822 21.3692 0.144345 25.1501 1.96335C32.0875 5.30053 37.4725 11.35 41.0844 18.156C44.6964 24.9619 46.6635 32.5217 48.0688 40.0997C48.475 42.36 49.1253 44.5694 50.0084 46.6889C37.9367 49.3793 29.9689 61.3141 18.3497 65.5556C15.7642 66.596 12.9556 66.9551 10.1921 66.5988C7.40512 66.101 4.89529 64.6017 3.13356 62.3823C1.37184 60.1628 0.479326 57.3758 0.623491 54.5441C0.956584 51.1027 2.12237 47.7946 4.01987 44.9062C5.91737 42.0178 8.48936 39.6364 11.513 37.9681C12.4062 37.4336 13.3963 37.0821 14.4261 36.9339C15.4559 36.7857 16.5049 36.8437 17.5121 37.1046C12.0347 34.2431 7.81744 29.4412 5.68254 23.635C4.65688 20.7427 4.28459 17.6585 4.59252 14.6047C4.90045 11.5509 5.88093 8.6036 7.46329 5.9751Z" fill="#F9CC7D"/>
</g>
<g style="mix-blend-mode:multiply">
<path d="M93.3229 37.6442C93.7618 35.115 93.4417 32.5123 92.4029 30.1654C90.5747 26.3843 86.5144 24.1726 82.4585 23.101C75.0174 21.135 67.0009 22.2411 59.8443 25.0751C52.6877 27.9091 46.295 32.3853 40.3177 37.2404C38.5448 38.6969 36.6191 39.9561 34.5745 40.9958C42.0205 50.8852 40.3565 65.1452 46.4536 75.9214C47.7479 78.3927 49.6531 80.4905 51.9873 82.0145C54.4309 83.4461 57.3121 83.9353 60.0903 83.3904C62.8685 82.8455 65.3526 81.3039 67.0766 79.0549C69.0516 76.2192 70.3066 72.9439 70.7327 69.5129C71.1589 66.0818 70.7434 62.5984 69.5222 59.3644C69.1886 58.3774 68.6626 57.4667 67.9747 56.6849C67.2869 55.9031 66.4509 55.2659 65.5152 54.8102C71.5374 56.1903 77.8568 55.2748 83.2416 52.2422C85.8953 50.7071 88.176 48.6016 89.9193 46.0773C91.6625 43.553 92.825 40.6728 93.3229 37.6442Z" fill="#F5B33C"/>
</g>
<g style="mix-blend-mode:multiply">
<path d="M199.684 249.628C199.636 248.669 199.305 247.746 198.733 246.975C198.196 246.4 197.543 245.946 196.817 245.643C196.091 245.34 195.309 245.195 194.523 245.217C191.621 245.201 188.789 246.107 186.433 247.804C184.096 249.497 182.03 251.538 180.308 253.854C179.78 254.532 179.181 255.151 178.521 255.699C182.052 258.693 182.617 264.034 185.728 267.464C186.404 268.259 187.272 268.868 188.249 269.231C189.259 269.552 190.35 269.493 191.319 269.065C192.288 268.637 193.068 267.869 193.512 266.906C194 265.708 194.188 264.409 194.062 263.122C193.935 261.835 193.497 260.598 192.785 259.518C192.582 259.186 192.315 258.897 192 258.668C191.685 258.44 191.327 258.276 190.948 258.187C193.259 258.194 195.49 257.338 197.206 255.787C198.048 255.008 198.707 254.051 199.136 252.986C199.564 251.921 199.751 250.774 199.684 249.628Z" fill="#82CACD"/>
</g>
<g style="mix-blend-mode:multiply">
<path d="M165.746 245.156C166.04 244.242 166.598 243.436 167.35 242.84C168.017 242.423 168.765 242.154 169.545 242.049C170.324 241.945 171.117 242.007 171.87 242.233C174.678 242.969 177.18 244.578 179.017 246.827C180.837 249.069 182.305 251.575 183.371 254.259C183.705 255.05 184.124 255.803 184.621 256.504C180.437 258.482 178.511 263.494 174.619 266.001C173.761 266.594 172.766 266.957 171.728 267.055C170.67 267.103 169.631 266.763 168.806 266.098C167.98 265.434 167.425 264.49 167.245 263.445C167.083 262.162 167.237 260.858 167.691 259.648C168.146 258.437 168.889 257.356 169.855 256.497C170.137 256.229 170.47 256.019 170.833 255.88C171.197 255.741 171.585 255.675 171.974 255.687C169.739 255.095 167.805 253.691 166.549 251.748C165.936 250.777 165.547 249.682 165.408 248.542C165.269 247.402 165.385 246.246 165.746 245.156Z" fill="#82CACD"/>
</g>
<g style="mix-blend-mode:multiply">
<path d="M260.472 204.096C259.694 202.897 258.579 201.956 257.267 201.392C255.091 200.542 252.597 201.18 250.535 202.282C246.787 204.434 243.817 207.72 242.05 211.668C240.305 215.598 239.169 219.771 238.68 224.044C238.507 225.311 238.197 226.556 237.756 227.756C244.536 228.968 249.251 235.421 255.816 237.507C257.28 238.025 258.851 238.159 260.38 237.895C261.919 237.552 263.281 236.659 264.209 235.382C265.137 234.106 265.568 232.534 265.421 230.961C265.155 229.054 264.428 227.241 263.304 225.679C262.18 224.116 260.693 222.852 258.971 221.995C258.462 221.718 257.903 221.546 257.326 221.488C256.75 221.43 256.168 221.487 255.613 221.656C258.594 219.934 260.827 217.163 261.879 213.881C262.381 212.248 262.516 210.523 262.273 208.831C262.029 207.139 261.414 205.522 260.472 204.096Z" fill="#EB822F"/>
</g>
<g style="mix-blend-mode:multiply">
<path d="M213.441 223.745C213.138 222.348 213.254 220.892 213.777 219.562C214.706 217.415 216.913 216.088 219.145 215.396C223.308 214.242 227.73 214.44 231.775 215.96C235.791 217.484 239.551 219.611 242.927 222.269C243.948 223.038 245.049 223.693 246.211 224.223C242.301 229.902 243.562 237.798 240.423 243.938C239.761 245.344 238.75 246.556 237.487 247.459C236.161 248.314 234.569 248.654 233.011 248.416C231.452 248.179 230.033 247.379 229.021 246.169C227.855 244.637 227.08 242.844 226.762 240.945C226.444 239.046 226.593 237.098 227.197 235.27C227.359 234.712 227.63 234.193 227.995 233.742C228.359 233.291 228.809 232.916 229.319 232.641C226.001 233.551 222.463 233.191 219.395 231.63C217.882 230.839 216.563 229.721 215.534 228.357C214.504 226.994 213.79 225.418 213.441 223.745Z" fill="#F1A96F"/>
</g>
</svg>
