<svg width="198" height="176" viewBox="0 0 198 176" fill="none" xmlns="http://www.w3.org/2000/svg">
<g style="mix-blend-mode:multiply">
<path d="M55.2936 143.262C55.2173 141.72 54.6889 140.235 53.7755 138.996C52.9177 138.072 51.8747 137.342 50.7158 136.855C49.5569 136.368 48.3085 136.134 47.0535 136.171C42.4201 136.145 37.8977 137.601 34.136 140.329C30.405 143.051 27.1073 146.332 24.3564 150.056C23.5147 151.146 22.558 152.14 21.5032 153.021C27.1412 157.835 28.0437 166.422 33.0116 171.936C34.0903 173.214 35.4759 174.192 37.0361 174.777C38.648 175.292 40.391 175.197 41.9382 174.509C43.4854 173.821 44.7304 172.587 45.4395 171.039C46.2179 169.113 46.5189 167.025 46.3167 164.955C46.1144 162.886 45.4148 160.897 44.2786 159.162C43.9546 158.627 43.5285 158.163 43.025 157.795C42.5215 157.428 41.9508 157.165 41.3458 157.022C45.0359 157.032 48.5978 155.657 51.3371 153.163C52.6816 151.911 53.7339 150.373 54.4181 148.661C55.1022 146.949 55.4013 145.105 55.2936 143.262Z" fill="white"/>
</g>
<g style="mix-blend-mode:multiply">
<path d="M1.10723 136.072C1.57663 134.602 2.46776 133.306 3.66785 132.348C4.73367 131.678 5.9284 131.245 7.17283 131.077C8.41726 130.909 9.68293 131.009 10.8859 131.372C15.3682 132.556 19.3631 135.142 22.2969 138.758C25.2026 142.362 27.5466 146.39 29.2484 150.706C29.7819 151.978 30.451 153.188 31.2438 154.315C24.5634 157.494 21.4883 165.554 15.2751 169.583C13.9053 170.537 12.3159 171.12 10.6589 171.277C8.96964 171.355 7.31034 170.808 5.99236 169.74C4.67438 168.672 3.78832 167.155 3.50045 165.474C3.24257 163.411 3.48737 161.316 4.21364 159.369C4.93991 157.423 6.12575 155.685 7.66844 154.305C8.11867 153.873 8.64947 153.535 9.23005 153.312C9.81063 153.088 10.4294 152.983 11.0506 153.002C7.48329 152.05 4.39544 149.792 2.38894 146.669C1.41146 145.108 0.789493 143.348 0.567856 141.516C0.346219 139.683 0.530436 137.824 1.10723 136.072Z" fill="white"/>
</g>
<g style="mix-blend-mode:multiply">
<path d="M55.2936 143.262C55.2173 141.72 54.6889 140.235 53.7755 138.996C52.9177 138.072 51.8747 137.342 50.7158 136.855C49.5569 136.368 48.3085 136.134 47.0535 136.171C42.4201 136.145 37.8977 137.601 34.136 140.329C30.405 143.051 27.1073 146.332 24.3564 150.056C23.5147 151.146 22.558 152.14 21.5032 153.021C27.1412 157.835 28.0437 166.422 33.0116 171.936C34.0903 173.214 35.4759 174.192 37.0361 174.777C38.648 175.292 40.391 175.197 41.9382 174.509C43.4854 173.821 44.7304 172.587 45.4395 171.039C46.2179 169.113 46.5189 167.025 46.3167 164.955C46.1144 162.886 45.4148 160.897 44.2786 159.162C43.9546 158.627 43.5285 158.163 43.025 157.795C42.5215 157.428 41.9508 157.165 41.3458 157.022C45.0359 157.032 48.5978 155.657 51.3371 153.163C52.6816 151.911 53.7339 150.373 54.4181 148.661C55.1022 146.949 55.4013 145.105 55.2936 143.262Z" fill="#F5B33C"/>
</g>
<g style="mix-blend-mode:multiply">
<path d="M1.10723 136.072C1.57663 134.602 2.46776 133.306 3.66785 132.348C4.73367 131.678 5.9284 131.245 7.17283 131.077C8.41726 130.909 9.68293 131.009 10.8859 131.372C15.3682 132.556 19.3631 135.142 22.2969 138.758C25.2026 142.362 27.5466 146.39 29.2484 150.706C29.7819 151.978 30.451 153.188 31.2438 154.315C24.5634 157.494 21.4883 165.554 15.2751 169.583C13.9053 170.537 12.3159 171.12 10.6589 171.277C8.96964 171.355 7.31034 170.808 5.99236 169.74C4.67438 168.672 3.78832 167.155 3.50045 165.474C3.24257 163.411 3.48737 161.316 4.21364 159.369C4.93991 157.423 6.12575 155.685 7.66844 154.305C8.11867 153.873 8.64947 153.535 9.23005 153.312C9.81063 153.088 10.4294 152.983 11.0506 153.002C7.48329 152.05 4.39544 149.792 2.38894 146.669C1.41146 145.108 0.789493 143.348 0.567856 141.516C0.346219 139.683 0.530436 137.824 1.10723 136.072Z" fill="#F8CA77"/>
</g>
<g style="mix-blend-mode:multiply">
<path d="M170.457 28.6039C168.972 25.0751 166.475 22.0676 163.281 19.962C160.483 18.5419 157.416 17.7336 154.282 17.5909C151.148 17.4482 148.019 17.9743 145.102 19.1342C134.199 23.0424 124.811 30.3092 118.286 39.8907C111.829 49.4325 106.861 59.9028 103.554 70.941C102.5 74.2017 101.095 77.3383 99.3635 80.2954C116.68 86.6877 126.069 105.929 142.403 114.526C146.019 116.581 150.101 117.674 154.26 117.7C158.482 117.521 162.495 115.806 165.545 112.877C168.596 109.947 170.475 106.005 170.83 101.789C171.028 96.6334 169.967 91.5085 167.74 86.858C165.513 82.2075 162.187 78.1716 158.049 75.0999C156.836 74.1311 155.442 73.4133 153.948 72.9881C152.455 72.563 150.892 72.439 149.35 72.6234C158.025 69.4876 165.225 63.2306 169.548 55.072C171.645 51.0006 172.814 46.5148 172.971 41.9379C173.129 37.361 172.27 32.8069 170.457 28.6039Z" fill="#82CACD"/>
</g>
<g style="mix-blend-mode:multiply">
<path d="M37.1292 58.2404C36.9874 54.413 37.9829 50.6287 39.9897 47.3664C41.9262 44.8934 44.3654 42.8606 47.1456 41.4026C49.9258 39.9447 52.9834 39.0949 56.1157 38.9098C67.6449 37.8298 79.2168 40.4357 89.1691 46.3531C99.044 52.2631 107.96 59.6462 115.611 68.2479C117.941 70.7563 120.537 73.0035 123.353 74.95C110.356 88.0836 109.957 109.502 98.7768 124.217C96.3667 127.612 93.1279 130.333 89.3696 132.12C85.4681 133.748 81.1083 133.895 77.1083 132.533C73.1083 131.171 69.7431 128.395 67.6442 124.725C65.2917 120.136 64.0924 115.042 64.1502 109.884C64.208 104.725 65.5212 99.6572 67.976 95.1195C68.6676 93.7269 69.6284 92.4854 70.8027 91.467C71.9769 90.4487 73.3412 89.6737 74.8166 89.187C65.6322 90.0228 56.4686 87.4049 49.1118 81.8435C45.4946 79.0426 42.5436 75.4728 40.4716 71.3913C38.3995 67.3098 37.258 62.8182 37.1292 58.2404Z" fill="#82CACD"/>
</g>
</svg>
