<svg width="77" height="69" viewBox="0 0 77 69" fill="none" xmlns="http://www.w3.org/2000/svg">
<g style="mix-blend-mode:multiply">
<path d="M76.1842 30.8828C76.545 28.8073 76.2819 26.6715 75.4282 24.7457C73.9256 21.643 70.5885 19.828 67.2551 18.9487C61.1395 17.3354 54.5509 18.243 48.6691 20.5686C42.7873 22.8942 37.5333 26.5673 32.6207 30.5514C31.1637 31.7466 29.5809 32.7799 27.9005 33.633C34.0202 41.7482 32.6526 53.4498 37.6636 62.2927C38.7274 64.3207 40.2932 66.0421 42.2116 67.2927C44.22 68.4674 46.588 68.8689 48.8713 68.4217C51.1546 67.9746 53.1962 66.7096 54.6131 64.8641C56.2364 62.5371 57.2678 59.8494 57.618 57.0339C57.9683 54.2184 57.6268 51.36 56.6231 48.7062C56.3489 47.8963 55.9166 47.1489 55.3513 46.5074C54.7859 45.8659 54.0989 45.343 53.3299 44.969C58.2793 46.1015 63.4731 45.3503 67.8987 42.8618C70.0797 41.6021 71.9542 39.8743 73.3869 37.8029C74.8196 35.7314 75.775 33.368 76.1842 30.8828Z" fill="white"/>
</g>
<path d="M5.63385 4.90312C6.70533 3.08956 8.29076 1.63466 10.1895 0.722561C13.3456 -0.664533 17.0627 0.118448 20.1702 1.61111C25.8718 4.34957 30.2976 9.31375 33.2661 14.8987C36.2347 20.4836 37.8514 26.687 39.0064 32.9055C39.3402 34.7603 39.8747 36.5733 40.6005 38.3125C30.6791 40.5202 24.1306 50.3138 14.5811 53.7944C12.4562 54.6481 10.1479 54.9428 7.87658 54.6504C5.58604 54.242 3.52328 53.0117 2.07537 51.1904C0.627454 49.3691 -0.106081 47.0821 0.0124046 44.7584C0.286164 41.9345 1.24429 39.2198 2.8038 36.8497C4.3633 34.4795 6.47715 32.5253 8.96223 31.1563C9.69626 30.7177 10.5101 30.4293 11.3564 30.3077C12.2028 30.186 13.0649 30.2336 13.8927 30.4477C9.39093 28.0996 5.92491 24.1592 4.1703 19.3947C3.32733 17.0213 3.02136 14.4904 3.27444 11.9845C3.52752 9.47861 4.33335 7.06005 5.63385 4.90312Z" fill="white"/>
<path d="M76.1993 30.8901C76.5601 28.8147 76.297 26.6788 75.4433 24.753C73.9407 21.6503 70.6036 19.8354 67.2702 18.956C61.1546 17.3427 54.5661 18.2504 48.6842 20.5759C42.8024 22.9015 37.5485 26.5746 32.6359 30.5587C31.1788 31.754 29.5961 32.7872 27.9156 33.6403C34.0353 41.7556 32.6677 53.4572 37.6788 62.3C38.7425 64.328 40.3083 66.0495 42.2268 67.3C44.2351 68.4747 46.6031 68.8762 48.8864 68.429C51.1697 67.9819 53.2114 66.7169 54.6283 64.8714C56.2515 62.5444 57.2829 59.8568 57.6332 57.0413C57.9834 54.2257 57.6419 51.3673 56.6383 48.7135C56.364 47.9036 55.9317 47.1562 55.3664 46.5147C54.8011 45.8732 54.114 45.3503 53.345 44.9764C58.2944 46.1088 63.4882 45.3576 67.9139 42.8691C70.0949 41.6094 71.9693 39.8816 73.402 37.8102C74.8348 35.7388 75.7902 33.3753 76.1993 30.8901Z" fill="white"/>
<g style="mix-blend-mode:multiply">
<path d="M5.63385 4.90312C6.70533 3.08956 8.29076 1.63466 10.1895 0.722561C13.3456 -0.664533 17.0627 0.118448 20.1702 1.61111C25.8718 4.34957 30.2976 9.31375 33.2661 14.8987C36.2347 20.4836 37.8514 26.687 39.0064 32.9055C39.3402 34.7603 39.8747 36.5733 40.6005 38.3125C30.6791 40.5202 24.1306 50.3138 14.5811 53.7944C12.4562 54.6481 10.1479 54.9428 7.87658 54.6504C5.58604 54.242 3.52328 53.0117 2.07537 51.1904C0.627454 49.3691 -0.106081 47.0821 0.0124046 44.7584C0.286164 41.9345 1.24429 39.2198 2.8038 36.8497C4.3633 34.4795 6.47715 32.5253 8.96223 31.1563C9.69626 30.7177 10.5101 30.4293 11.3564 30.3077C12.2028 30.186 13.0649 30.2336 13.8927 30.4477C9.39093 28.0996 5.92491 24.1592 4.1703 19.3947C3.32733 17.0213 3.02136 14.4904 3.27444 11.9845C3.52752 9.47861 4.33335 7.06005 5.63385 4.90312Z" fill="#F9CC7D"/>
</g>
<g style="mix-blend-mode:multiply">
<path d="M76.1996 30.8906C76.5604 28.8151 76.2972 26.6793 75.4435 24.7535C73.941 21.6508 70.6039 19.8359 67.2705 18.9565C61.1549 17.3432 54.5663 18.2509 48.6845 20.5764C42.8026 22.902 37.5487 26.5751 32.6361 30.5592C31.179 31.7544 29.5963 32.7877 27.9159 33.6408C34.0356 41.7561 32.668 53.4576 37.679 62.3005C38.7428 64.3285 40.3086 66.0499 42.227 67.3005C44.2353 68.4752 46.6033 68.8767 48.8867 68.4295C51.17 67.9824 53.2116 66.7174 54.6285 64.8719C56.2517 62.5449 57.2832 59.8573 57.6334 57.0417C57.9836 54.2262 57.6421 51.3678 56.6385 48.714C56.3643 47.9041 55.932 47.1567 55.3666 46.5152C54.8013 45.8737 54.1143 45.3508 53.3453 44.9769C58.2947 46.1093 63.4885 45.3581 67.9141 42.8696C70.0951 41.6099 71.9695 39.8821 73.4023 37.8107C74.835 35.7392 75.7904 33.3758 76.1996 30.8906Z" fill="#F5B33C"/>
</g>
</svg>
