<svg width="45" height="45" viewBox="0 0 45 45" fill="none" xmlns="http://www.w3.org/2000/svg">
<rect width="45" height="45" fill="#E5E5E5"/>
<g clip-path="url(#clip0)">
<rect width="320" height="3411" transform="translate(-23 -1478)" fill="white"/>
<path d="M29.2548 16.6884L18.9312 27.0064L15.1535 23.2311C14.4579 22.5351 13.3294 22.5351 12.6338 23.2311C11.9373 23.9263 11.9373 25.054 12.6338 25.7493L17.6717 30.784C18.0195 31.1317 18.4762 31.3062 18.932 31.3062C19.3878 31.3062 19.8437 31.1324 20.1915 30.784L31.7754 19.2074C32.471 18.5114 32.471 17.3844 31.7754 16.6884C31.0789 15.9932 29.9513 15.9932 29.2548 16.6884Z" fill="#4DB3B7" fill-opacity="0.5"/>
<path d="M29.2548 14.6699L18.9312 24.9878L15.1535 21.2125C14.4579 20.5165 13.3294 20.5165 12.6338 21.2125C11.9373 21.9077 11.9373 23.0355 12.6338 23.7307L17.6717 28.7655C18.0195 29.1131 18.4762 29.2877 18.932 29.2877C19.3878 29.2877 19.8437 29.1139 20.1915 28.7655L31.7754 17.1888C32.471 16.4928 32.471 15.3659 31.7754 14.6699C31.0789 13.9746 29.9513 13.9746 29.2548 14.6699Z" fill="#343F56"/>
<path d="M22.1412 44.3009C16.268 44.3009 10.6372 41.9687 6.48529 37.8156C2.33197 33.6641 0 28.0329 0 22.1597C0 16.2866 2.3322 10.6558 6.48529 6.50385C10.6368 2.35052 16.268 0.0185547 22.1412 0.0185547C28.0143 0.0185547 33.6451 2.35076 37.797 6.50385C41.9504 10.6553 44.2823 16.2866 44.2823 22.1597C44.2823 28.0329 41.9501 33.6637 37.797 37.8156C33.6455 41.9689 28.0143 44.3009 22.1412 44.3009ZM22.1412 2.97071C17.0526 2.97071 12.1704 4.99291 8.57211 8.59067C4.97417 12.1886 2.95216 17.0707 2.95216 22.1597C2.95216 27.2488 4.97436 32.1304 8.57211 35.7288C12.1701 39.3267 17.0521 41.3487 22.1412 41.3487C27.2302 41.3487 32.1119 39.3265 35.7102 35.7288C39.3082 32.1308 41.3302 27.2488 41.3302 22.1597C41.3302 17.0707 39.308 12.189 35.7102 8.59067C32.1123 4.99272 27.2302 2.97071 22.1412 2.97071Z" fill="#343F56"/>
</g>
<defs>
<clipPath id="clip0">
<rect width="320" height="3411" fill="white" transform="translate(-23 -1478)"/>
</clipPath>
</defs>
</svg>
