<svg width="45" height="45" viewBox="0 0 45 45" fill="none" xmlns="http://www.w3.org/2000/svg">
<rect width="45" height="45" fill="#E5E5E5"/>
<g clip-path="url(#clip0)">
<rect width="320" height="3411" transform="translate(-23 -1739)" fill="white"/>
<path d="M36.3342 22.6273C36.3342 14.8235 30.008 8.49731 22.2042 8.49731V24.6459L33.028 31.7108C35.0914 29.2547 36.3342 26.0861 36.3342 22.6273Z" fill="#4DB3B7" fill-opacity="0.5"/>
<path d="M22.1412 44.7054C16.268 44.7054 10.6372 42.3732 6.48529 38.2201C2.33197 34.0686 0 28.4374 0 22.5643C0 16.6911 2.3322 11.0603 6.48529 6.90839C10.6368 2.75506 16.268 0.423096 22.1412 0.423096C28.0143 0.423096 33.6451 2.7553 37.797 6.90839C41.9504 11.0599 44.2823 16.6911 44.2823 22.5643C44.2823 28.4374 41.9501 34.0682 37.797 38.2201C33.6455 42.3735 28.0143 44.7054 22.1412 44.7054ZM22.1412 3.37525C17.0526 3.37525 12.1704 5.39745 8.57211 8.99521C4.97417 12.5932 2.95216 17.4752 2.95216 22.5643C2.95216 27.6533 4.97436 32.535 8.57211 36.1333C12.1701 39.7313 17.0521 41.7533 22.1412 41.7533C27.2302 41.7533 32.1119 39.7311 35.7102 36.1333C39.3082 32.5354 41.3302 27.6533 41.3302 22.5643C41.3302 17.4752 39.308 12.5935 35.7102 8.99521C32.1123 5.39726 27.2302 3.37525 22.1412 3.37525Z" fill="#343F56"/>
<path d="M28.9537 29.5221C29.1843 29.2029 29.2784 28.8062 29.2139 28.4188C29.1493 28.0294 28.9334 27.6844 28.6142 27.4556L23.1379 23.5145V10.9827C23.1379 10.1671 22.4773 9.50659 21.6618 9.50659C21.2706 9.50659 20.8942 9.66158 20.6175 9.93834C20.3407 10.2151 20.1857 10.5915 20.1857 10.9827V25.0203L26.8873 29.8618C27.2065 30.0924 27.6032 30.1865 27.9907 30.122C28.38 30.0574 28.7251 29.8415 28.9539 29.5223L28.9537 29.5221Z" fill="#343F56"/>
</g>
<defs>
<clipPath id="clip0">
<rect width="320" height="3411" fill="white" transform="translate(-23 -1739)"/>
</clipPath>
</defs>
</svg>
