<svg width="34" height="34" viewBox="0 0 34 34" fill="none" xmlns="http://www.w3.org/2000/svg">
<rect width="34" height="34" fill="#E5E5E5"/>
<g clip-path="url(#clip0)">
<rect width="320" height="3411" transform="translate(-32 -2704)" fill="white"/>
<path d="M6.13931 9.77593L2.10217 7.25272V5.23415L6.13931 3.21559L10.6811 1.70166H23.2971L31.3714 4.22487L32.3807 6.74808L29.3528 9.27129L18.2507 11.2899L6.13931 9.77593Z" fill="#4DB3B7" fill-opacity="0.5"/>
<path d="M17.1607 33.6555C25.2869 33.6555 33.5111 31.6883 33.5111 27.9328V5.8598H33.4941C33.1024 2.2789 25.0845 0.409668 17.1606 0.409668C9.23664 0.409668 1.21895 2.2789 0.82709 5.8598H0.810059V27.9328C0.810059 31.6883 9.03431 33.6555 17.1605 33.6555H17.1607ZM17.1607 2.58972C26.3279 2.58972 31.3311 4.92734 31.3311 6.13231C31.3311 7.33728 26.328 9.67489 17.1607 9.67489C7.99344 9.67489 2.99038 7.33728 2.99038 6.13231C2.99038 4.92734 7.99344 2.58972 17.1607 2.58972ZM2.99038 9.14078C5.97095 10.9291 11.5912 11.8552 17.1607 11.8552C22.7302 11.8552 28.3504 10.9291 31.3311 9.14078V17.0326C31.3311 18.2375 26.328 20.5752 17.1607 20.5752C7.99344 20.5752 2.99038 18.2375 2.99038 17.0326V9.14078ZM2.99038 20.041C5.97095 21.8293 11.5912 22.7555 17.1607 22.7555C22.7302 22.7555 28.3504 21.8294 31.3311 20.041V27.9328C31.3311 29.1378 26.328 31.4754 17.1607 31.4754C7.99344 31.4754 2.99038 29.1378 2.99038 27.9328V20.041Z" fill="#343F56"/>
</g>
<defs>
<clipPath id="clip0">
<rect width="320" height="3411" fill="white" transform="translate(-32 -2704)"/>
</clipPath>
</defs>
</svg>
