<svg width="40" height="48" viewBox="0 0 40 48" fill="none" xmlns="http://www.w3.org/2000/svg">
<rect width="40" height="48" fill="#E5E5E5"/>
<g clip-path="url(#clip0)">
<rect width="320" height="3411" transform="translate(-26 -2165)" fill="white"/>
<rect x="8.10205" y="5.38721" width="8.07427" height="38.3528" fill="#4DB3B7" fill-opacity="0.5"/>
<path d="M38.5959 42.3874H35.723V3.06422C35.723 2.20692 35.0171 1.50097 34.1598 1.50097H20.4463L16.665 0.39192C16.5647 0.34082 16.4625 0.34082 16.4133 0.34082C16.2108 0.34082 16.0102 0.39192 15.8077 0.543323C15.556 0.745825 15.4045 0.997533 15.4045 1.30034V1.50284H5.32133C4.61543 1.50284 4.06088 2.05734 4.06088 2.76329V42.3874H0.985476C0.430977 42.3874 0.027832 42.8416 0.027832 43.345C0.027832 43.8995 0.482042 44.3026 0.985476 44.3026H15.4538V46.5718C15.4538 46.8746 15.6052 47.1263 15.8058 47.3288C15.9572 47.4802 16.2089 47.5805 16.4114 47.5805H16.5628L31.2337 45.0597C31.6368 45.0086 31.8885 44.7077 31.9907 44.3538H38.5958C39.1503 44.3538 39.5534 43.8996 39.5534 43.3961C39.5534 42.8416 39.1503 42.3874 38.5958 42.3874H38.5959ZM33.7548 3.46732V42.3874H31.991V5.68532C31.991 5.23111 31.6882 4.87908 31.2851 4.72767L27.0003 3.46722L33.7548 3.46732ZM17.3199 2.61001L30.0756 6.39132V43.2959L17.3199 45.514V2.61001ZM8.69937 4.57637C7.99347 4.57637 7.43892 5.13087 7.43892 5.83682V42.3873H5.976V3.46718H15.4027V4.57622L8.69937 4.57637ZM9.35421 6.49161H15.3537V42.3875H9.35421V6.49161Z" fill="#343F56"/>
<path d="M20.2439 25.8013C21.5554 25.8013 22.0589 24.6412 22.0589 24.0375H23.571C23.8227 24.0375 24.0744 23.9372 24.2769 23.7347C24.4794 23.5322 24.5797 23.3316 24.5797 23.0288V22.8774C24.5797 22.6257 24.4794 22.3739 24.2769 22.1715C24.0744 21.969 23.8227 21.8687 23.571 21.8687H20.999H20.2931C19.7897 21.8687 19.2844 22.0712 18.9324 22.3721C18.5804 22.6749 18.3268 23.1783 18.3268 23.7328V23.7839C18.3287 24.944 19.186 25.8014 20.2439 25.8014V25.8013Z" fill="#343F56"/>
</g>
<defs>
<clipPath id="clip0">
<rect width="320" height="3411" fill="white" transform="translate(-26 -2165)"/>
</clipPath>
</defs>
</svg>
