<svg width="31" height="44" viewBox="0 0 31 44" fill="none" xmlns="http://www.w3.org/2000/svg">
<rect width="31" height="44" fill="#E5E5E5"/>
<g clip-path="url(#clip0)">
<rect width="320" height="3411" transform="translate(-30 -2412)" fill="white"/>
<path d="M13.6903 29.2693L12.1764 27.2508L12.681 24.2229L15.2042 22.709L18.2321 23.7183L19.2414 27.2508L18.2321 29.2693V30.7833V34.8204H12.1764L13.6903 29.2693Z" fill="#4DB3B7" fill-opacity="0.5"/>
<path d="M27.4509 43.3992H3.41975C1.56692 43.3992 0.0649414 41.8972 0.0649414 40.0443V21.4378C0.0649414 19.5867 1.56687 18.0847 3.41975 18.0847H27.4509C28.3392 18.0847 29.1936 18.4373 29.8225 19.0662C30.4514 19.6951 30.804 20.5495 30.804 21.4378V40.0443C30.804 40.9343 30.4514 41.787 29.8225 42.4159C29.1936 43.0465 28.3392 43.3991 27.4509 43.3991V43.3992ZM3.41975 19.8918C2.56709 19.8969 1.87881 20.5869 1.87373 21.4378V40.0443C1.87882 40.897 2.56709 41.5853 3.41975 41.5904H27.4509C28.3019 41.5853 28.9918 40.897 28.9969 40.0443V21.4378C28.9918 20.5869 28.3019 19.8969 27.4509 19.8918H3.41975Z" fill="#343F56"/>
<path d="M17.4154 35.8047H13.4554C12.7841 35.8013 12.1518 35.4911 11.7382 34.9622C11.3263 34.4333 11.1788 33.7433 11.3398 33.0924L12.2434 29.4223C11.1737 28.356 10.7075 26.8252 11.0008 25.3437C11.294 23.862 12.3078 22.6246 13.7029 22.0448C15.0964 21.4667 16.6899 21.6227 17.946 22.4618C19.2021 23.2992 19.9565 24.7113 19.9548 26.2218C19.9582 27.4254 19.4767 28.5781 18.6173 29.4223L19.5208 33.0924C19.6819 33.7434 19.5344 34.4333 19.1225 34.9622C18.7088 35.4911 18.0765 35.8013 17.4052 35.8047L17.4154 35.8047ZM15.4354 23.5094C14.2725 23.5145 13.2418 24.2587 12.874 25.3623C12.5061 26.4642 12.8808 27.6796 13.808 28.3814L14.2776 28.7425L13.0842 33.5249V33.5266C13.0553 33.6401 13.0825 33.7605 13.1571 33.852C13.2232 33.9436 13.3317 33.9978 13.4452 33.9961H17.4052C17.5205 33.9978 17.6273 33.9436 17.6951 33.852C17.7697 33.7605 17.7968 33.6401 17.768 33.5266L16.5746 28.7442L17.0441 28.3831V28.3814C17.968 27.6813 18.3444 26.4709 17.9799 25.3707C17.6171 24.2688 16.5932 23.5213 15.4354 23.5094L15.4354 23.5094Z" fill="#343F56"/>
<path d="M0.968628 37.9744H29.9006V39.7832H0.968628V37.9744Z" fill="#343F56"/>
<path d="M27.1883 19.8919H21.538V10.8514C21.4736 7.79323 18.9444 5.36555 15.8864 5.42674C12.83 5.36572 10.3008 7.79323 10.2361 10.8514V19.8919H4.58582V10.8514C4.64854 7.9153 5.87419 5.12513 7.99318 3.09067C10.1122 1.05644 12.95 -0.053923 15.8862 0.00201589C18.8223 -0.0539273 21.662 1.05644 23.7793 3.09067C25.8983 5.12491 27.1239 7.91513 27.1884 10.8514L27.1883 19.8919ZM23.4182 18.0831H25.3084V10.8514C25.2524 8.40521 24.2302 6.07943 22.4655 4.38434C20.6991 2.69086 18.3343 1.76355 15.8865 1.81102C13.4403 1.76356 11.0738 2.69081 9.30924 4.38434C7.54285 6.07952 6.52063 8.40534 6.46639 10.8514V18.0848H8.35655V10.8514C8.39893 8.89512 9.21603 7.03378 10.6264 5.67931C12.0385 4.32315 13.9304 3.58236 15.8866 3.61795C17.8445 3.58235 19.7364 4.32315 21.1468 5.67931C22.5589 7.03378 23.3759 8.89512 23.4183 10.8514L23.4182 18.0831Z" fill="#343F56"/>
</g>
<defs>
<clipPath id="clip0">
<rect width="320" height="3411" fill="white" transform="translate(-30 -2412)"/>
</clipPath>
</defs>
</svg>
