<svg width="47" height="47" viewBox="0 0 47 47" fill="none" xmlns="http://www.w3.org/2000/svg">
<rect width="47" height="47" fill="#E5E5E5"/>
<g clip-path="url(#clip0)">
<rect width="320" height="3411" transform="translate(-30 -806)" fill="white"/>
<circle cx="14.6995" cy="17.4979" r="12.616" fill="#4DB3B7" fill-opacity="0.5"/>
<path d="M16.042 0.330072C7.50522 0.330072 0.55957 7.27572 0.55957 15.8125C0.55957 24.3492 7.50522 31.2949 16.042 31.2949C19.887 31.2949 23.3991 29.883 26.1091 27.5546L28.7516 30.197L27.114 31.8346C26.8884 32.0579 26.7604 32.3626 26.7604 32.6813C26.7604 33 26.8884 33.3047 27.114 33.528L40.0097 46.4237C40.233 46.6493 40.5377 46.7772 40.8564 46.7772C41.1751 46.7772 41.4798 46.6493 41.7031 46.4237L46.653 41.4551C47.1112 40.9922 47.1112 40.2432 46.653 39.7803L33.7573 26.8656C33.4968 26.6074 33.1339 26.4841 32.7711 26.5307C32.5036 26.5586 32.2547 26.6772 32.064 26.8656L30.4264 28.5032L27.8026 25.8794C30.124 23.1718 31.5243 19.6501 31.5243 15.8122C31.5243 7.27548 24.5787 0.329834 16.0419 0.329834L16.042 0.330072ZM16.042 2.71198C23.2925 2.71198 29.1425 8.56207 29.1425 15.8125C29.1425 23.0629 23.2924 28.913 16.042 28.913C8.79157 28.913 2.94148 23.0629 2.94148 15.8125C2.94148 8.56207 8.79157 2.71198 16.042 2.71198ZM32.9202 29.3965L35.0044 31.4807L31.7292 34.7558L29.6451 32.6716L32.9202 29.3965ZM36.6978 33.1741L44.1413 40.6176L40.8661 43.8927L33.4227 36.4492L36.6978 33.1741Z" fill="#343F56"/>
</g>
<defs>
<clipPath id="clip0">
<rect width="320" height="3411" fill="white" transform="translate(-30 -806)"/>
</clipPath>
</defs>
</svg>
