<svg width="31" height="46" viewBox="0 0 31 46" fill="none" xmlns="http://www.w3.org/2000/svg">
<rect width="31" height="46" fill="#E5E5E5"/>
<g clip-path="url(#clip0)">
<rect width="320" height="3411" transform="translate(-33 -1956)" fill="white"/>
<path d="M12.1454 5.88053L12.1454 5.88052C11.9738 5.70731 11.8739 5.47203 11.8739 5.22628C11.8739 4.97886 11.9736 4.74317 12.146 4.57147L12.1454 5.88053ZM12.1454 5.88053L12.1466 5.88168M12.1454 5.88053L12.1466 5.88168M12.1466 5.88168C12.3214 6.05358 12.5593 6.14752 12.8021 6.14327H18.6716C18.9144 6.14752 19.1523 6.05358 19.3272 5.88169L19.3283 5.88052M12.1466 5.88168L19.3283 5.88052M19.3283 5.88052C19.4999 5.70732 19.5999 5.47203 19.5999 5.22628C19.5999 4.97886 19.5001 4.74317 19.3277 4.57146C19.1529 4.39726 18.9146 4.30291 18.671 4.3093H12.8027M19.3283 5.88052L12.8027 4.3093M12.8027 4.3093C12.5591 4.30291 12.3208 4.39727 12.146 4.57146L12.8027 4.3093ZM5.24231 0.293945C2.89101 0.293945 0.977173 2.23418 0.977173 4.60456V40.6418C0.977173 43.0122 2.89101 44.9524 5.24231 44.9524L26.2254 44.9505C28.5765 44.9505 30.4964 43.0105 30.4964 40.6398V4.6046C30.4964 2.23399 28.5765 0.293993 26.2254 0.293993L5.24231 0.293945ZM5.24231 2.12791H26.2254C27.5948 2.12791 28.6774 3.21918 28.6774 4.60456V35.0837H2.7961V4.60456C2.7961 3.2188 3.87324 2.12791 5.24226 2.12791H5.24231ZM2.7962 36.9177H28.6755V40.6397C28.6755 42.0251 27.5929 43.1164 26.2235 43.1164H5.24241C3.87339 43.1164 2.79625 42.0255 2.79625 40.6397L2.7962 36.9177ZM15.7366 37.8022C14.5329 37.8022 13.5445 38.8018 13.5445 40.0141C13.5445 41.2263 14.5327 42.228 15.7366 42.228C16.9405 42.228 17.9287 41.2263 17.9287 40.0141C17.9287 38.8018 16.9403 37.8022 15.7366 37.8022ZM15.7366 39.6362C15.9508 39.6362 16.1098 39.7949 16.1098 40.0141C16.1098 40.2333 15.9508 40.392 15.7366 40.392C15.5205 40.392 15.3576 40.2314 15.3576 40.0141C15.3576 39.7969 15.5205 39.6362 15.7366 39.6362Z" fill="#343F56" stroke="#343F56" stroke-width="0.25"/>
<rect x="5.13928" y="8.49316" width="21.195" height="24.2228" fill="#4DB3B7" fill-opacity="0.5"/>
</g>
<defs>
<clipPath id="clip0">
<rect width="320" height="3411" fill="white" transform="translate(-33 -1956)"/>
</clipPath>
</defs>
</svg>
