<svg width="49" height="50" viewBox="0 0 49 50" fill="none" xmlns="http://www.w3.org/2000/svg">
<path d="M22.2042 37.6386V32.5921H23.2135H30.2785L34.3156 31.0782L36.3342 29.0596V24.0132V17.9575H43.3992L45.9224 18.9668V24.0132V34.6107V38.6478L43.3992 40.6664H39.362V46.7221L32.8017 40.6664H25.7367L23.2135 39.6571L22.2042 37.6386Z" fill="#4DB3B7" fill-opacity="0.5"/>
<path d="M42.3899 16.1565H37.4053V7.43627C37.3997 4.17185 34.754 1.52832 31.4896 1.52638H6.78237C5.20977 1.5226 3.70152 2.14329 2.58882 3.25415C1.47607 4.36312 0.849716 5.86944 0.847778 7.44203V27.4447C0.851563 29.0154 1.47985 30.5199 2.5926 31.627C3.70534 32.734 5.21166 33.3547 6.78237 33.3509H9.75155V40.1333C9.75155 40.6235 10.0468 41.0663 10.4991 41.2536C10.9532 41.441 11.4736 41.3369 11.82 40.9906L19.4274 33.3507H20.8808V36.5375C20.8827 39.4026 23.1971 41.7304 26.064 41.7454H32.0422L38.4709 48.1645C38.8172 48.5127 39.3395 48.6167 39.7918 48.4275C40.246 48.2402 40.5412 47.7973 40.5393 47.3072V41.7457H42.3901C45.2647 41.7438 47.5961 39.4123 47.598 36.5377V21.3646C47.5961 18.49 45.2647 16.1605 42.3901 16.1567L42.3899 16.1565ZM18.9224 30.9285C18.6025 30.9266 18.2922 31.0553 18.0651 31.2824L12.1552 37.187V32.1399C12.1552 31.8182 12.0284 31.5097 11.8013 31.2826C11.5743 31.0556 11.2658 30.9288 10.9441 30.9288H6.78272C5.85542 30.9325 4.96223 30.5692 4.30366 29.9144C3.64509 29.2615 3.2723 28.3721 3.27041 27.4448V7.44208C3.27041 6.511 3.64132 5.6197 4.29988 4.96491C4.96034 4.31012 5.85353 3.943 6.78272 3.94867H31.49C33.4184 3.94867 34.9834 5.51181 34.9834 7.44203V27.4447C34.9777 29.3693 33.4145 30.9287 31.49 30.9287L18.9224 30.9285ZM45.1755 36.5376C45.1755 38.0761 43.9284 39.3232 42.3899 39.3232H39.328C38.66 39.3232 38.1169 39.8663 38.1169 40.5343V44.41L33.3991 39.7016C33.1701 39.4745 32.8616 39.3478 32.5418 39.3478H26.0642C25.3166 39.3534 24.5976 39.0601 24.0696 38.5321C23.5416 38.0042 23.2483 37.285 23.2539 36.5375V33.3507H31.4897C34.7522 33.3469 37.3976 30.707 37.4054 27.4447V18.5787H42.3899C43.9285 18.5787 45.1756 19.8258 45.1756 21.3643L45.1755 36.5376Z" fill="#343F56"/>
<path d="M19.276 7.8095C17.8378 7.77165 16.4449 8.31478 15.4136 9.31775C14.3822 10.3226 13.8013 11.7003 13.8013 13.1385C13.8013 13.8084 14.3444 14.3497 15.0124 14.3497C15.6823 14.3497 16.2236 13.8084 16.2236 13.1385C16.2217 12.3551 16.5377 11.6056 17.1016 11.0606C17.6599 10.5081 18.4225 10.2109 19.2079 10.2412C20.5364 10.2904 21.6605 11.231 21.9424 12.5292C22.2244 13.8274 21.5923 15.1502 20.4058 15.7462C18.907 16.4729 17.9475 17.9812 17.9248 19.6446V19.673V20.2464C17.9248 20.9144 18.4679 21.4575 19.136 21.4575C19.804 21.4575 20.3471 20.9144 20.3471 20.2464V19.6938C20.3528 18.9293 20.7956 18.2348 21.4863 17.9055C23.6758 16.8212 24.8454 14.3856 24.325 11.9976C23.8065 9.61123 21.7286 7.88158 19.2857 7.80591L19.276 7.8095Z" fill="#343F56"/>
<path d="M19.1263 24.0537C18.4564 24.0537 17.9152 24.5968 17.9152 25.2649V25.7058C17.9152 26.3738 18.4564 26.9169 19.1263 26.9169C19.7943 26.9169 20.3374 26.3738 20.3374 25.7058V25.2649C20.3374 24.9431 20.2088 24.6347 19.9817 24.4076C19.7546 24.1805 19.448 24.0537 19.1263 24.0537L19.1263 24.0537Z" fill="#343F56"/>
</svg>
