<svg width="581" height="606" viewBox="0 0 581 606" fill="none" xmlns="http://www.w3.org/2000/svg">
<path d="M94.4149 523.47C96.973 525.808 99.5311 528.146 102.089 530.484L527.654 102.637C525.329 100.065 523.003 97.493 520.678 94.9212L94.4149 523.47ZM150.459 565.553C153.482 567.424 156.738 569.06 159.994 570.931L567.885 160.852C566.257 157.579 564.397 154.539 562.769 151.266L150.459 565.553ZM219.061 594.778C223.015 595.947 226.735 596.882 230.689 597.817L594.396 232.16C593.465 228.185 592.535 224.211 591.373 220.47L219.061 594.778ZM572.071 436.731L434.402 575.139C446.494 569.294 458.122 562.514 469.052 555.032L552.072 471.567C559.281 460.579 566.025 448.889 572.071 436.731ZM599.977 260.917L259.525 603.194C263.943 603.896 268.362 604.363 272.78 604.831L601.605 274.243C601.372 271.671 601.14 268.866 600.674 266.294C600.442 264.424 600.209 262.787 599.977 260.917ZM360.451 600.155C366.963 598.752 373.241 597.349 379.52 595.713L592.768 381.322C594.396 375.009 596.024 368.463 597.186 362.151L360.451 600.155ZM120.926 545.914C123.716 548.018 126.507 550.123 129.53 551.993L549.281 129.991C547.188 127.185 545.328 124.146 543.235 121.34L120.926 545.914ZM305.57 606C310.686 606 315.802 605.766 320.918 605.299L602.302 322.405C602.535 317.262 602.767 312.118 603 306.974L305.57 606ZM183.016 581.919C186.504 583.322 189.993 584.725 193.481 586.127L583.001 194.519C581.606 191.012 580.21 187.505 578.815 183.998L183.016 581.919ZM0.232492 323.107C0.465042 327.549 0.93014 332.225 1.39524 336.667L334.871 1.40272C330.452 0.935128 325.801 0.467535 321.383 0.233739L0.232492 323.107ZM41.3937 148.928L148.134 41.6157C103.95 67.8009 67.2067 104.975 41.3937 148.928ZM13.7205 211.118C11.6275 217.898 9.76707 224.678 8.13922 231.692L230.456 8.18287C223.48 9.81944 216.736 11.6899 210.225 13.794L13.7205 211.118ZM16.9761 404.468C18.1388 407.975 19.5341 411.715 20.9294 415.222L412.775 21.2754C409.287 19.8726 405.798 18.47 402.078 17.301L16.9761 404.468ZM1.16275 273.074C0.697648 278.218 0.232549 283.595 0 288.972L287.431 0C282.082 0.233796 276.966 0.701389 271.617 1.16898L1.16275 273.074ZM6.27886 366.125C7.20905 370.099 8.13928 374.074 9.06948 378.049L376.265 8.88423C372.311 7.94905 368.358 7.01383 364.405 6.07865L6.27886 366.125ZM31.6266 439.069C33.2545 442.343 34.8823 445.616 36.7427 448.655L446.262 36.9398C443.006 35.0694 439.983 33.4328 436.727 31.7962L31.6266 439.069ZM70.4624 498.22C72.7879 500.792 74.8809 503.597 77.2064 506.169L503.237 77.8541C500.678 75.5162 498.12 73.1783 495.33 71.0741L70.4624 498.22ZM49.5329 470.164C51.3933 473.204 53.4864 476.009 55.5793 478.815L476.261 55.8774C473.47 53.7732 470.447 51.9027 467.656 49.7986L49.5329 470.164Z" fill="white" fill-opacity="0.3"/>
</svg>
