<svg width="44" height="45" viewBox="0 0 44 45" fill="none" xmlns="http://www.w3.org/2000/svg">
<rect width="44" height="45" fill="#E5E5E5"/>
<g clip-path="url(#clip0)">
<rect width="320" height="3411" transform="translate(-27 -1021)" fill="white"/>
<circle cx="20.7275" cy="23.5311" r="9.5882" fill="#4DB3B7" fill-opacity="0.5"/>
<path d="M43.6382 7.79246C43.3354 7.18689 42.8812 6.8841 42.2756 6.8841H37.7339V2.34233C37.7339 1.73676 37.4311 1.13118 36.8255 0.979792C36.2199 0.677007 35.6144 0.8284 35.1602 1.28258L31.5268 4.916C28.4989 3.25068 24.8655 2.34233 21.2321 2.34233C9.57508 2.34233 0.0371094 11.8803 0.0371094 23.5373C0.0371094 35.1943 9.57508 44.7322 21.2321 44.7322C32.8891 44.7322 42.427 35.1943 42.427 23.5373C42.427 19.7525 41.5187 16.2704 39.8534 13.2426L43.4868 9.60917C43.7896 9.0036 43.941 8.39803 43.6382 7.79246ZM36.2202 9.91195H38.6425L35.6146 12.9398H31.6784V9.0036L34.7062 5.97575V8.39803C34.7062 9.30639 35.3118 9.91195 36.2202 9.91195ZM28.6505 23.5373C28.6505 27.7763 25.3199 31.1069 21.0809 31.1069C16.8419 31.1069 13.5113 27.7763 13.5113 23.5373C13.5113 19.2983 16.8419 15.9677 21.0809 15.9677C22.5948 15.9677 24.1088 16.4218 25.3199 17.1788L20.0209 22.4778C19.4154 23.0834 19.4154 23.9917 20.0209 24.5973C20.3237 24.9001 20.7779 25.0515 21.0807 25.0515C21.3835 25.0515 21.8376 24.9001 22.1404 24.5973L27.4394 19.2983C28.1964 20.5094 28.6505 22.0234 28.6505 23.5373ZM39.248 23.5373C39.248 33.5292 31.0728 41.7044 21.0809 41.7044C11.089 41.7044 2.91381 33.5292 2.91381 23.5373C2.91381 13.5454 11.089 5.37018 21.0809 5.37018C23.9574 5.37018 26.8338 5.97575 29.2561 7.18689L29.1047 7.33828C28.8019 7.64107 28.6505 7.94385 28.6505 8.39803V13.8482L27.4394 15.0593C25.6227 13.6968 23.5032 12.9398 21.0809 12.9398C15.1764 12.9398 10.4834 17.633 10.4834 23.5373C10.4834 29.4416 15.1766 34.1348 21.0809 34.1348C26.9852 34.1348 31.6784 29.4416 31.6784 23.5373C31.6784 21.115 30.9214 18.9955 29.5589 17.1788L30.77 15.9677H36.2202C36.6744 15.9677 36.9771 15.8163 37.2799 15.5135L37.4313 15.3621C38.6425 17.7844 39.248 20.6611 39.248 23.5373Z" fill="#343F56"/>
</g>
<defs>
<clipPath id="clip0">
<rect width="320" height="3411" fill="white" transform="translate(-27 -1021)"/>
</clipPath>
</defs>
</svg>
