<svg width="103" height="74" viewBox="0 0 103 74" fill="none" xmlns="http://www.w3.org/2000/svg">
<g style="mix-blend-mode:normal">
<path d="M69.4637 42.0398C70.2153 40.3915 70.4802 38.5591 70.2251 36.7744C69.7121 33.8718 67.4419 31.6461 64.9663 30.1991C60.4243 27.5443 54.9416 26.8841 49.7094 27.5547C44.4772 28.2252 39.448 30.1512 34.6231 32.409C33.189 33.0899 31.6904 33.6091 30.1535 33.9576C33.2501 42.0196 29.5469 51.4558 31.5929 59.8847C31.9936 61.7994 32.865 63.5671 34.1239 65.0189C35.4718 66.427 37.2802 67.2693 39.2098 67.3878C41.1394 67.5064 43.0576 66.893 44.6043 65.6627C46.4237 64.0764 47.8492 62.0632 48.7572 59.7973C49.6652 57.5314 50.0284 55.0813 49.8152 52.6591C49.7759 51.9268 49.5959 51.2125 49.2858 50.5577C48.9756 49.9029 48.5415 49.3205 48.0085 48.8445C51.7229 50.849 56.0529 51.3397 60.1543 50.221C62.183 49.6419 64.0702 48.6078 65.68 47.1931C67.2898 45.7784 68.5821 44.0183 69.4637 42.0398Z" fill="white"/>
</g>
<path d="M18.7085 5.2868C19.9713 4.00894 21.5662 3.13966 23.2911 2.78901C26.1297 2.31342 28.9343 3.76272 31.0923 5.67119C35.0518 9.17264 37.4929 14.2508 38.6277 19.5321C39.7626 24.8135 39.6762 30.3188 39.2164 35.7375C39.0707 37.3514 39.0952 38.9737 39.2893 40.5757C30.8459 40.2808 23.4155 47.0179 14.9865 47.8612C13.0932 48.1147 11.1775 47.8641 9.42235 47.1332C7.67758 46.3016 6.29847 44.8357 5.5438 43.0104C4.78913 41.185 4.71078 39.1259 5.32345 37.2192C6.17204 34.9298 7.54476 32.8784 9.32271 31.2425C11.1007 29.6066 13.2302 28.4356 15.5269 27.831C16.2129 27.624 16.9294 27.5589 17.6349 27.6395C18.3403 27.7202 19.0206 27.9449 19.6364 28.3007C16.5515 25.3815 14.6516 21.3607 14.3069 17.0222C14.16 14.8677 14.4787 12.6976 15.2398 10.6683C16.001 8.63898 17.1857 6.801 18.7085 5.2868Z" fill="white"/>
<path d="M69.4741 42.0493C70.2256 40.401 70.4906 38.5686 70.2355 36.784C69.7225 33.8814 67.4523 31.6556 64.9767 30.2086C60.4347 27.5538 54.952 26.8936 49.7198 27.5642C44.4876 28.2348 39.4584 30.1607 34.6335 32.4185C33.1994 33.0994 31.7007 33.6187 30.1639 33.9672C33.2605 42.0291 29.5573 51.4653 31.6033 59.8943C32.004 61.8089 32.8754 63.5766 34.1343 65.0284C35.4822 66.4365 37.2906 67.2788 39.2202 67.3973C41.1498 67.5159 43.068 66.9025 44.6147 65.6723C46.4341 64.086 47.8596 62.0727 48.7676 59.8068C49.6756 57.5409 50.0387 55.0908 49.8256 52.6687C49.7863 51.9363 49.6063 51.2221 49.2962 50.5672C48.986 49.9124 48.5518 49.3301 48.0189 48.854C51.7333 50.8585 56.0633 51.3493 60.1647 50.2305C62.1933 49.6514 64.0806 48.6173 65.6904 47.2026C67.3002 45.7879 68.5924 44.0278 69.4741 42.0493Z" fill="white"/>
<g style="mix-blend-mode:normal">
<path d="M18.7085 5.2868C19.9713 4.00894 21.5662 3.13966 23.2911 2.78901C26.1297 2.31342 28.9343 3.76272 31.0923 5.67119C35.0518 9.17264 37.4929 14.2508 38.6277 19.5321C39.7626 24.8135 39.6762 30.3188 39.2164 35.7375C39.0707 37.3514 39.0952 38.9737 39.2893 40.5757C30.8459 40.2808 23.4155 47.0179 14.9865 47.8612C13.0932 48.1147 11.1775 47.8641 9.42235 47.1332C7.67758 46.3016 6.29847 44.8357 5.5438 43.0104C4.78913 41.185 4.71078 39.1259 5.32345 37.2192C6.17204 34.9298 7.54476 32.8784 9.32271 31.2425C11.1007 29.6066 13.2302 28.4356 15.5269 27.831C16.2129 27.624 16.9294 27.5589 17.6349 27.6395C18.3403 27.7202 19.0206 27.9449 19.6364 28.3007C16.5515 25.3815 14.6516 21.3607 14.3069 17.0222C14.16 14.8677 14.4787 12.6976 15.2398 10.6683C16.001 8.63898 17.1857 6.801 18.7085 5.2868Z" fill="#F1A86D"/>
</g>
<g style="mix-blend-mode:multiply">
<path d="M69.4743 42.0493C70.2259 40.401 70.4909 38.5686 70.2357 36.784C69.7228 33.8814 67.4526 31.6556 64.9769 30.2086C60.4349 27.5538 54.9522 26.8936 49.72 27.5642C44.4878 28.2348 39.4586 30.1607 34.6338 32.4185C33.1997 33.0994 31.701 33.6187 30.1641 33.9672C33.2607 42.0291 29.5575 51.4653 31.6035 59.8943C32.0042 61.8089 32.8756 63.5766 34.1345 65.0284C35.4824 66.4365 37.2908 67.2788 39.2204 67.3973C41.15 67.5159 43.0682 66.9025 44.615 65.6723C46.4344 64.086 47.8598 62.0727 48.7678 59.8068C49.6758 57.5409 50.039 55.0908 49.8258 52.6687C49.7865 51.9363 49.6066 51.2221 49.2964 50.5672C48.9863 49.9124 48.5521 49.3301 48.0191 48.854C51.7335 50.8585 56.0635 51.3493 60.1649 50.2305C62.1936 49.6514 64.0808 48.6173 65.6906 47.2026C67.3004 45.7879 68.5927 44.0278 69.4743 42.0493Z" fill="#EB822F"/>
</g>
<g style="mix-blend-mode:normal">
<path d="M102.091 6.27504C102.052 5.48607 101.782 4.72653 101.313 4.09258C100.874 3.61953 100.339 3.246 99.7455 2.99676C99.1516 2.74752 98.5118 2.62827 97.8687 2.64691C95.4943 2.63359 93.1767 3.37841 91.249 4.77438C89.337 6.1674 87.6471 7.8457 86.2374 9.75148C85.806 10.309 85.3158 10.8176 84.7752 11.2684C87.6645 13.7318 88.127 18.1253 90.6728 20.9464C91.2256 21.6004 91.9357 22.1009 92.7352 22.3999C93.5612 22.6638 94.4545 22.6151 95.2473 22.2629C96.0402 21.9108 96.6782 21.2794 97.0416 20.4873C97.4405 19.502 97.5948 18.4336 97.4911 17.3747C97.3874 16.3158 97.0289 15.2984 96.4467 14.4104C96.2806 14.1368 96.0623 13.8991 95.8043 13.7112C95.5463 13.5232 95.2538 13.3886 94.9437 13.3153C96.8348 13.3209 98.6601 12.6171 100.064 11.3412C100.753 10.7003 101.292 9.91348 101.643 9.03743C101.993 8.16137 102.147 7.21792 102.091 6.27504Z" fill="white"/>
</g>
<g style="mix-blend-mode:normal">
<path d="M74.3231 2.59617C74.5636 1.84426 75.0203 1.18111 75.6353 0.690631C76.1815 0.348181 76.7937 0.126573 77.4314 0.0405066C78.0692 -0.0455593 78.7178 0.00588245 79.3342 0.191421C81.6312 0.797103 83.6785 2.12024 85.1819 3.97078C86.6709 5.81441 87.8722 7.87581 88.7442 10.084C89.0177 10.7349 89.3605 11.354 89.7668 11.9303C86.3434 13.5573 84.7675 17.6808 81.5835 19.7426C80.8815 20.2304 80.0671 20.5288 79.2179 20.6094C78.3522 20.6492 77.5019 20.3695 76.8265 19.8228C76.1511 19.2761 75.697 18.5001 75.5495 17.6402C75.4173 16.5846 75.5428 15.5124 75.915 14.5165C76.2872 13.5207 76.8948 12.6312 77.6854 11.9252C77.9161 11.7042 78.1882 11.5314 78.4857 11.417C78.7832 11.3027 79.1003 11.2489 79.4186 11.2589C77.5905 10.7716 76.0081 9.61637 74.9799 8.01833C74.479 7.21971 74.1602 6.31915 74.0467 5.38153C73.9331 4.44392 74.0275 3.49262 74.3231 2.59617Z" fill="white"/>
</g>
<g style="mix-blend-mode:normal">
<path d="M102.091 6.27504C102.052 5.48607 101.782 4.72653 101.313 4.09258C100.874 3.61953 100.339 3.246 99.7455 2.99676C99.1516 2.74752 98.5118 2.62827 97.8687 2.64691C95.4943 2.63359 93.1767 3.37841 91.249 4.77438C89.337 6.1674 87.6471 7.8457 86.2374 9.75148C85.806 10.309 85.3158 10.8176 84.7752 11.2684C87.6645 13.7318 88.127 18.1253 90.6728 20.9464C91.2256 21.6004 91.9357 22.1009 92.7352 22.3999C93.5612 22.6638 94.4545 22.6151 95.2473 22.2629C96.0402 21.9108 96.6782 21.2794 97.0416 20.4873C97.4405 19.502 97.5948 18.4336 97.4911 17.3747C97.3874 16.3158 97.0289 15.2984 96.4467 14.4104C96.2806 14.1368 96.0623 13.8991 95.8043 13.7112C95.5463 13.5232 95.2538 13.3886 94.9437 13.3153C96.8348 13.3209 98.6601 12.6171 100.064 11.3412C100.753 10.7003 101.292 9.91348 101.643 9.03743C101.993 8.16137 102.147 7.21792 102.091 6.27504Z" fill="#F5B33C"/>
</g>
<g style="mix-blend-mode:multiply">
<path d="M74.3231 2.59617C74.5636 1.84426 75.0203 1.18111 75.6353 0.690631C76.1815 0.348181 76.7937 0.126573 77.4314 0.0405066C78.0692 -0.0455594 78.7178 0.00588244 79.3342 0.191421C81.6312 0.797103 83.6785 2.12024 85.1819 3.97078C86.6709 5.81441 87.8722 7.87581 88.7442 10.084C89.0177 10.7349 89.3605 11.354 89.7668 11.9303C86.3434 13.5573 84.7675 17.6808 81.5835 19.7426C80.8815 20.2304 80.0671 20.5288 79.2179 20.6094C78.3522 20.6492 77.5019 20.3695 76.8265 19.8228C76.1511 19.2761 75.697 18.5001 75.5495 17.6402C75.4173 16.5846 75.5428 15.5124 75.915 14.5165C76.2872 13.5207 76.8948 12.6312 77.6854 11.9252C77.9161 11.7042 78.1881 11.5314 78.4857 11.4171C78.7832 11.3027 79.1003 11.2489 79.4186 11.2589C77.5905 10.7716 76.0081 9.61637 74.9799 8.01833C74.479 7.21971 74.1602 6.31915 74.0467 5.38154C73.9331 4.44392 74.0275 3.49262 74.3231 2.59617Z" fill="#F8CA77"/>
</g>
</svg>
