<svg width="320" height="291" viewBox="0 0 320 291" fill="none" xmlns="http://www.w3.org/2000/svg">
<path fill-rule="evenodd" clip-rule="evenodd" d="M-260.199 37.5889C-251.908 4.58383 -234.131 -27.1066 -209.119 -53.4704C-179.454 -85.2043 -144.136 -111.314 -105.708 -129.919C-67.2804 -148.524 -26.7003 -159.161 13.108 -161.063C22.0762 -161.389 30.9504 -161.342 39.7106 -160.93V-287.732H284.527C316.25 -323.223 354.81 -352.309 397.042 -372.579C433.043 -388.146 471.156 -391.123 504.23 -380.951C537.305 -370.779 563.066 -348.158 576.681 -317.332C588.418 -286.095 591.082 -250.821 584.417 -214.879C573.236 -141.781 539.284 -69.939 505.48 1.5892C465.568 86.0426 425.863 170.058 424.09 255.186C394.578 255.011 364.515 258.051 334.43 264.253C233.339 287.21 132.188 295.285 34.4605 288.199C-63.7895 280.782 -142.522 258.735 -206.284 194.024C-223.542 176.508 -246.189 139.258 -254.012 115.186C-261.834 91.1132 -263.943 64.6627 -260.199 37.5889Z" fill="url(#paint0_linear)"/>
<defs>
<linearGradient id="paint0_linear" x1="93" y1="450" x2="93" y2="0" gradientUnits="userSpaceOnUse">
<stop stop-color="#4b9b9f"/>
<stop offset="1" stop-color="#7abec0"/>
</linearGradient>
</defs>
</svg>
