<svg width="71" height="68" viewBox="0 0 71 68" fill="none" xmlns="http://www.w3.org/2000/svg">
<path fill-rule="evenodd" clip-rule="evenodd" d="M0 26.5229V57.4657H70.7675V26.5229L35.3833 5.5253L0 26.5229Z" fill="#F5B33C"/>
<path fill-rule="evenodd" clip-rule="evenodd" d="M7.74009 0H63.027C64.2437 0 65.2383 0.994533 65.2383 2.20986V40.889C65.2383 42.1048 64.2437 43.0995 63.027 43.0995H7.74009C6.52408 43.0995 5.52881 42.1048 5.52881 40.889V2.20986C5.52881 0.994533 6.52408 0 7.74009 0Z" fill="#F5F5F5"/>
<path fill-rule="evenodd" clip-rule="evenodd" d="M70.7668 64.0963C70.7668 65.9198 69.2746 67.4118 67.45 67.4118H3.31745C1.4929 67.4118 0 65.9198 0 64.0963V26.5229L35.3833 41.9947L70.7675 26.5229V64.0963H70.7668Z" fill="#FAD99E"/>
<path fill-rule="evenodd" clip-rule="evenodd" d="M70.7668 64.0963C70.7668 65.9198 69.2746 67.4118 67.45 67.4118H3.31745C1.4929 67.4118 0 65.9198 0 64.0963V57.4656L70.7668 26.5229V64.0963Z" fill="#F8CA77"/>
<path fill-rule="evenodd" clip-rule="evenodd" d="M13.1933 17.3492H28.2238H52.0734H57.5586C58.9134 17.3492 58.9155 15.2448 57.5586 15.2448H42.5281H18.6785H13.1933C11.8383 15.2448 11.8362 17.3492 13.1933 17.3492Z" fill="#495B7A"/>
<path fill-rule="evenodd" clip-rule="evenodd" d="M13.8159 24.3423H28.8463H52.6958H58.181C59.536 24.3423 59.5381 22.2379 58.181 22.2379H43.1505H19.3009H13.8159C12.4609 22.2379 12.4588 24.3423 13.8159 24.3423Z" fill="#495B7A"/>
<path fill-rule="evenodd" clip-rule="evenodd" d="M13.1933 10.1716H28.2238H52.0734H57.5586C58.9134 10.1716 58.9155 8.06711 57.5586 8.06711H42.5281H18.6785H13.1933C11.8383 8.06711 11.8362 10.1716 13.1933 10.1716Z" fill="#495B7A"/>
</svg>
