<svg width="54" height="71" viewBox="0 0 54 71" fill="none" xmlns="http://www.w3.org/2000/svg">
<path fill-rule="evenodd" clip-rule="evenodd" d="M7.67847 68.6517H46.2775V1.9447H7.67847V68.6517Z" fill="#B8E1E2"/>
<path fill-rule="evenodd" clip-rule="evenodd" d="M45.1408 67.754L8.81519 67.7152L8.83838 51.556C8.83838 51.556 18.8159 46.4181 28.633 48.761C38.4495 51.1026 45.1408 51.5958 45.1408 51.5958V67.754Z" fill="#9ACCAB"/>
<path fill-rule="evenodd" clip-rule="evenodd" d="M8.78062 3.04552H45.1753V68.9664H47.3795V0.844055H6.57715V68.9664H8.78062V3.04552Z" fill="#343F56"/>
<path fill-rule="evenodd" clip-rule="evenodd" d="M45.1628 68.938L8.83716 68.8992L8.86036 52.74C8.86036 52.74 18.6523 50.3971 28.4696 52.74C38.2859 55.0816 45.1628 52.7798 45.1628 52.7798V68.938Z" fill="#6DB585"/>
<path fill-rule="evenodd" clip-rule="evenodd" d="M32.0485 60.2584L8.78076 68.869V2.54651L32.0485 13.5004V60.2584Z" fill="#343F56"/>
<path fill-rule="evenodd" clip-rule="evenodd" d="M28.6331 37.3643C28.6331 38.103 29.2787 38.7024 30.0745 38.7024C30.8677 38.7024 31.5173 38.103 31.5173 37.3643C31.5173 36.6245 30.8687 36.0249 30.0745 36.0249C29.2787 36.0261 28.6331 36.6245 28.6331 37.3643Z" fill="#F5B33C"/>
<path fill-rule="evenodd" clip-rule="evenodd" d="M29.7966 32.781H13.0093V10.1262L29.7966 17.0482V32.781Z" fill="#717989"/>
<path fill-rule="evenodd" clip-rule="evenodd" d="M28.749 31.3658H14.0569V11.5413L28.749 17.5981V31.3658Z" fill="#B8E1E2"/>
<path fill-rule="evenodd" clip-rule="evenodd" d="M14.0569 11.5413V31.3658H21.403V14.5698L14.0569 11.5413Z" fill="#82CACD" fill-opacity="0.5"/>
<path fill-rule="evenodd" clip-rule="evenodd" d="M33.9582 37.3612C33.9582 38.4279 33.0273 39.2932 31.8785 39.2932C30.7305 39.2932 29.7998 38.4279 29.7998 37.3612C29.7998 36.2935 30.7305 35.4283 31.8785 35.4283C33.0273 35.4283 33.9582 36.2935 33.9582 37.3612Z" fill="#F8CA77"/>
<path fill-rule="evenodd" clip-rule="evenodd" d="M0 70.9962H54V68.1058H0V70.9962Z" fill="#485267"/>
</svg>
