<svg width="73" height="70" viewBox="0 0 73 70" fill="none" xmlns="http://www.w3.org/2000/svg">
<path fill-rule="evenodd" clip-rule="evenodd" d="M35.4584 6.94333C51.4319 6.94333 64.3803 19.7375 64.3803 35.5206C64.3803 51.3032 51.4319 64.0979 35.4584 64.0979C19.4854 64.0979 6.5363 51.3034 6.5363 35.5206C6.53649 19.7375 19.4854 6.94333 35.4584 6.94333Z" fill="#3E8F92"/>
<path fill-rule="evenodd" clip-rule="evenodd" d="M35.4584 6.94299C46.9147 6.94299 56.8139 13.5243 61.4975 23.0694C62.2028 25.6608 62.581 28.3844 62.581 31.1958C62.581 48.4392 48.4336 62.4184 30.9815 62.4184C28.3844 62.4184 25.8612 62.1065 23.4463 61.5226C13.4697 57.0154 6.53669 47.0684 6.53669 35.5207C6.53669 19.7374 19.4855 6.94299 35.4584 6.94299Z" fill="#3E8F92"/>
<path fill-rule="evenodd" clip-rule="evenodd" d="M34.9843 17.7071C34.9667 18.7327 35.3269 18.3881 35.6695 18.894C35.5126 19.3265 35.4847 18.9898 35.3091 19.4357C35.1515 19.81 35.3459 19.4733 35.2437 20.125C35.5126 20.1395 35.9105 20.0447 36.2625 20.015C36.7629 19.9711 36.7538 19.9269 36.9296 19.4216C36.6518 19.0848 36.3738 18.748 36.0869 18.4109C35.7251 17.8686 36.0869 18.2417 35.9756 17.7875C35.8926 17.6262 35.818 17.4659 35.7441 17.304C35.2625 17.4657 35.3089 17.4215 34.9843 17.7071ZM45.8004 22.1469C45.5135 21.7517 45.5317 21.5534 44.9761 21.5387C44.7543 21.7737 44.4945 22.1248 44.3745 22.484C44.1892 23.0263 44.3189 22.6522 44.3373 23.2386C44.328 23.2604 44.3373 23.2903 44.3373 23.3121C44.328 23.6637 44.2446 23.2461 44.2999 23.5688C44.7355 23.4807 44.4022 23.488 44.7262 23.3849C45.0317 23.2823 45.9675 23.0035 46.236 23.0698C46.8745 23.2166 47.4119 23.7154 48.1342 23.2166C48.097 22.5794 47.3192 22.3371 46.7822 22.0586C46.8101 21.473 46.9673 21.9344 46.9299 21.3701C46.745 21.363 46.6337 21.3339 46.4578 21.4067C46.0414 21.5898 46.2727 21.6415 46.2727 21.7072C46.2911 22.0222 46.6895 21.6415 46.2636 22.03C46.143 22.1323 45.948 22.1323 45.8004 22.1469ZM49.5877 21.912C49.6521 22.8066 50.1891 23.151 50.5697 23.5606C50.5229 23.9857 50.4213 23.8757 50.4305 24.4692C50.8841 24.7922 51.217 24.9891 51.81 24.8287C51.893 24.1104 51.6619 24.1468 51.4398 23.656C51.4768 23.5972 51.5784 23.5242 51.5968 23.5096C51.7635 23.2903 51.6805 23.5972 51.7635 23.2238C51.3287 23.085 50.6245 22.6449 50.5695 22.0666C50.7823 21.8984 50.7172 22.0005 50.874 21.8984C51.217 21.6779 50.958 22.0147 51.1614 21.6415C50.9861 21.3046 50.7913 21.2456 50.3653 21.4142C50.1806 21.4877 49.6897 21.8318 49.5877 21.912ZM50.9208 42.3535C50.5142 42.5581 50.4578 43.028 50.1526 43.2912C49.8192 43.5916 49.3746 43.4529 49.2451 44.0094C49.0784 44.7051 49.523 44.4927 49.0319 45.4015C48.8566 45.738 48.8469 46.5803 49.1158 46.8303C49.921 47.5991 50.3568 45.6578 50.5417 45.0496C50.6802 44.6174 50.8105 44.1266 50.9584 43.7234C51.1067 43.2912 51.3192 42.9106 50.9208 42.3535ZM41.0312 22.6281C41.2871 22.7898 41.601 22.9131 41.7908 23.0771C42.0314 23.7292 41.726 23.4142 42.1979 24.0962C42.4666 24.4623 42.4112 24.7259 42.6884 24.9308C43.1985 24.8651 42.7539 25.0117 43.0684 24.704C43.124 24.6458 43.2815 24.4621 43.3272 24.3891C43.1611 24.1395 43.0593 24.1177 42.9114 23.8612C43.4848 23.1072 43.7351 23.5388 43.8741 24.0376C44.2355 25.4222 44.7907 25.0189 45.2543 24.9527C45.7264 24.8868 45.3185 24.9678 45.7446 25.0774C46.1523 25.1801 45.9571 25.0774 46.2444 25.0044C47.2165 24.7695 46.4671 26.6311 46.3654 26.8359C45.8375 26.9014 45.9394 26.7848 45.5589 26.7478C44.7907 26.6675 45.6054 27.2027 43.7908 26.6158C42.0494 26.067 42.4201 25.9421 42.0587 27.1369C41.6607 27.1073 41.6795 27.0338 41.3094 26.9099C41.1679 26.8566 41.0866 26.8282 41.031 26.8122L41.0126 26.8062C40.8647 26.7553 41.0126 26.7999 40.7072 26.5139C40.4383 26.2647 39.7813 26.2062 39.3178 25.9641C39.3178 25.5691 39.6694 25.2394 39.2437 24.7699C39.1051 24.7333 37.1324 24.8146 36.818 24.8797C36.1794 25.0119 36.0675 25.5463 35.1881 25.4295C34.7065 25.3634 34.8736 25.4076 34.7525 25.1291C34.9101 24.9753 34.7525 25.0555 35.022 24.9607C35.1233 24.9243 35.1608 24.9389 35.2625 24.9243C36.6883 24.7113 35.9566 24.0004 36.8455 23.3194C37.5865 22.733 37.0031 23.3267 37.4106 22.6156C37.9106 22.5719 37.8457 22.8131 38.2718 22.6083C38.6243 22.4327 38.5124 22.2789 39.0126 22.2635C39.4571 22.7039 39.3641 22.9673 40.0868 23.3041C40.374 23.4368 40.55 23.5096 40.735 23.7518C41.0684 24.2205 40.7813 24.0667 40.9114 24.3891C40.9389 24.3745 40.9754 24.359 41.0128 24.345L41.0312 24.3364C41.4207 24.1525 40.8367 24.0945 41.4664 23.546C41.2817 23.4142 41.1473 23.3217 41.0312 23.2558L41.0128 23.246C40.5221 22.9608 40.7165 23.224 40.0868 22.4474C39.9201 22.2271 39.8736 22.2132 39.8835 21.8758C40.3367 21.7955 40.4205 22.1176 40.8276 22.4765C40.8833 22.5281 40.948 22.5719 41.0128 22.6156L41.0312 22.6281ZM16.2796 14.1323C16.4547 13.9787 16.6319 13.8274 16.811 13.6782L16.8252 13.7069C16.8622 13.7655 16.8903 13.7655 16.9276 13.9193C16.4584 14.0322 16.4592 14.109 16.2796 14.1323ZM7.21323 29.3576C8.51624 23.5004 11.6368 18.3166 15.9613 14.4137C16.2975 14.5291 16.7418 14.4528 17.0759 14.4392C17.1955 14.2199 17.2701 14.0287 17.4828 13.9484C17.5662 13.9195 17.6685 13.912 17.8068 13.9195C17.8254 14.0287 17.8533 14.1388 17.8808 14.249C17.8808 14.257 17.8994 14.3298 17.8907 14.3153C17.8994 14.2998 17.9089 14.359 17.9178 14.381C18.502 14.044 18.0107 14.0367 18.3254 13.4285C17.8345 13.3331 17.8996 13.3914 17.5935 13.0837C17.8907 12.7615 18.464 12.6514 18.8903 12.6811C18.862 12.9743 18.7238 12.9671 18.8349 13.2159C19.1683 13.0107 19.3994 12.4617 19.9366 12.5636C20.0386 12.6368 20.1596 12.7031 20.2703 12.7688C19.9921 13.0257 19.5758 13.0401 19.2148 13.1864C19.0572 14.7767 19.7241 13.4431 19.502 14.5346C19.9 14.5055 20.2893 14.2197 20.4366 13.9268C20.2891 13.7364 20.0758 13.7364 19.9556 13.5088C20.0491 13.2157 20.2486 12.9941 20.5297 12.8621C20.7199 12.7723 20.9481 12.7249 21.2059 12.7249C24.1504 12.7468 22.7518 12.8788 23.6599 13.2895C23.8635 13.377 24.2243 13.4213 24.3451 13.5973C24.5302 13.8758 24.3542 14.139 24.6502 14.3591C24.9098 14.5496 24.947 14.3519 25.2894 14.7769C25.2157 15.0183 25.0393 15.2677 24.6789 15.2752C24.1787 15.2825 24.475 14.9453 23.9377 14.9965C23.9472 15.4943 24.4472 15.6855 23.9837 15.956C23.5768 16.1979 23.8354 15.8685 23.5302 16.0368C23.5209 16.0441 23.4928 16.0589 23.4837 16.0661C23.4653 16.0807 23.4469 16.1024 23.4372 16.1171C23.3817 16.1761 23.3352 16.2271 23.2894 16.2788C22.5487 16.0807 22.6879 16.1692 22.2431 15.6855C22.0764 15.5026 22.0492 15.4579 21.7522 15.4807C21.5671 15.4872 21.3267 15.5673 21.1501 15.4072C21.5114 14.9601 21.6875 15.3926 22.215 15.1285C22.3077 15.084 22.8912 14.6379 22.9841 14.535C22.8265 14.1837 22.9651 14.4758 22.734 14.2492C22.215 13.7293 22.0665 13.8607 21.3635 13.8607C21.0339 14.2356 20.7873 14.6984 20.4283 14.9018C20.2117 15.025 19.9541 15.0528 19.6132 14.9093C19.7707 15.539 20.1776 15.0555 20.2148 15.8175C19.9465 15.766 19.8071 15.6338 19.5295 15.7294C18.937 15.9489 19.4651 15.9271 19.5113 16.0445C19.5113 16.0518 19.7889 16.0811 19.5113 16.1836C19.2051 16.293 19.4649 16.1248 18.8721 15.7805C18.9554 15.634 19.039 15.4809 19.1222 15.3261C18.6406 15.4729 18.0384 15.7075 17.4743 15.9782C16.8347 16.293 16.2327 16.6527 15.8719 16.982C15.8624 17.532 15.9642 17.1649 16.02 17.8176C16.8812 17.8687 16.6032 18.1245 17.4646 18.3668C17.6311 18.411 17.8444 18.4547 18.104 18.4986C18.104 18.9089 17.7331 19.2169 17.9921 19.642C18.5943 20.0589 18.6129 19.2459 18.761 18.7262C20.7994 18.3055 19.8172 17.713 20.3438 16.6058C20.4227 16.4405 20.5347 16.2638 20.6966 16.0736C20.8532 16.0809 21.4922 16.147 21.6314 16.1763C22.0946 16.2566 21.8447 16.3665 22.3447 16.5857C22.335 16.9818 22.1316 17.4946 22.7241 17.3998C23.178 17.3195 23.0766 16.9672 23.6316 16.8791C23.8813 17.458 23.8168 17.7073 23.9279 18.4028C25.2615 18.9162 24.6686 19.3332 24.4094 20.2937C24.5765 20.374 24.7516 20.4477 24.9282 20.5205C24.9193 20.799 24.9094 21.0701 24.9001 21.3414C24.8728 21.3414 23.474 21.0404 23.3813 21.0119C23.5944 20.4102 23.9831 20.4037 24.2336 19.7882C23.7336 19.8757 23.77 20.0295 23.4091 20.1397C23.0855 20.2351 22.835 20.169 22.4924 20.2133C22.372 20.6084 22.4831 19.8684 22.5207 20.3738C22.539 20.565 22.6318 20.382 22.5017 20.5866C22.0388 20.3738 22.1964 19.8757 21.335 20.3372C21.5295 20.4253 21.7235 20.5056 21.9275 20.5866C21.9002 21.1504 21.8536 20.7253 21.7332 21.0994C21.4364 22.0589 22.539 21.4651 22.8259 21.4145C22.7514 21.9204 22.4366 21.9204 21.9922 22.0589C21.5019 22.2053 21.3534 22.4038 20.9645 22.4921C20.9645 21.8906 20.8721 22.3965 21.1404 21.9791C20.7511 22.0151 20.4641 22.1911 20.094 22.3455L20.0572 22.3593C19.5813 22.5513 19.5091 22.5796 19.455 23.1802C19.0473 23.3045 18.5755 23.4443 18.2885 23.7374C18.0016 24.0083 17.7143 24.2793 17.4361 24.5431C17.4083 24.5651 17.3895 24.5868 17.3717 24.6013C17.4739 25.3563 17.3717 25.3708 16.9084 25.6645C16.5193 25.9132 16.3896 25.9061 16.0288 26.2208C14.8713 27.247 15.427 26.7702 15.4913 28.5358C15.2508 28.463 15.0191 28.3824 14.7975 28.3021C14.6209 27.1296 14.8617 27.5181 13.908 27.2472C12.8803 26.9539 13.0189 27.4518 12.593 27.5403C12.1209 27.6424 11.889 27.115 11.2037 27.5545C10.8245 27.8108 10.4633 27.9793 10.3706 28.4333C10.2595 28.9833 10.0096 29.3856 10.0465 29.9948C10.1116 31.6433 11.63 31.738 12.0189 30.9687C12.2777 30.4562 12.2136 30.1775 13.0559 30.3097C13.1397 30.7493 13.0094 31.0717 12.8985 31.4083C12.8243 31.6062 12.6205 31.9648 12.7225 32.2368C13.3246 32.478 13.3429 32.0238 14.1395 32.4927C14.1951 33.2766 13.7783 34.1557 14.3896 34.6102C14.8615 34.9541 14.8894 34.6466 15.3062 34.5736C15.7696 34.4934 15.686 34.7786 16.1121 34.8449C16.3527 34.5518 16.2511 34.7349 16.4086 34.3756C16.686 33.7536 16.7602 34.0459 17.4178 33.6653C17.4822 33.6289 17.5375 33.5917 17.6028 33.548C17.6769 33.7017 17.7604 33.8486 17.8339 33.9949C18.3157 33.4308 18.3711 33.9802 18.9267 34.1344C19.166 34.1991 19.336 34.2223 19.4673 34.224C19.8715 34.23 19.9126 34.0359 20.4638 34.229C20.5289 34.2589 20.6121 34.2809 20.6865 34.3026C20.696 34.3026 20.7234 34.3171 20.7234 34.3317C20.7332 34.339 20.7606 34.361 20.7695 34.3689C20.8618 34.471 20.8717 34.5736 20.9455 34.684C21.3255 35.0424 21.7055 35.4021 22.0756 35.7535C22.8067 36.0393 22.8067 35.5041 23.6403 36.3025C23.992 36.6322 23.8342 36.6255 24.0291 37.05C24.0576 37.1164 24.1124 37.1817 24.1496 37.263C24.2235 37.4605 24.3073 37.6507 24.3908 37.8411C24.7702 38.3328 25.2884 38.025 25.8164 38.5303C26.1219 38.8232 25.891 38.7349 26.5666 38.8525C27.6132 39.0209 27.206 38.9261 28.0024 39.5198C28.3078 39.7393 28.3817 39.6144 28.669 39.8048C29.0672 40.3546 28.965 40.9482 28.6323 41.4317C27.6042 42.9117 27.9561 42.6696 27.9098 43.8423C27.8724 44.5159 27.6783 45.9077 27.0389 46.0763C24.7146 46.7215 26.0664 47.1684 25.4558 48.3038C25.2797 48.6268 25.1498 48.7068 25.0387 48.9635C24.5764 50.0324 24.9001 50.3918 23.5298 50.1506C23.6595 50.3776 23.5762 50.2236 23.7061 50.4284C24.1128 51.0512 24.1781 51.5209 23.3445 51.6735C22.6502 51.8057 22.9465 51.6735 22.8815 52.4358C22.6128 52.5457 22.4924 52.4358 22.3166 52.6114C22.5574 53.0513 22.335 52.685 22.7429 52.9344C22.6685 53.1756 22.6128 53.4106 22.5483 53.6445C22.3912 54.2163 22.3447 53.6892 22.2893 54.3554C22.5297 54.465 22.6968 54.443 22.9093 54.7295C22.8817 54.9491 22.6592 55.5498 22.5946 55.894C22.9374 56.4001 23.2152 56.9417 23.9467 56.9936C23.9374 57.4179 24.0391 57.3742 23.669 57.4616C23.3542 57.5351 22.6877 57.2422 22.4093 57.0955C21.9277 56.8386 21.4831 56.5022 21.1594 56.0187C20.9744 55.7471 21.0483 55.8795 20.8534 55.6233C20.5018 55.1762 20.6412 54.9707 20.5392 54.6701C20.4833 54.4945 20.1966 54.3043 20.3168 53.7325C20.3449 53.5715 20.6039 52.802 20.2895 52.934C19.9742 53.0587 20.5299 53.0068 20.0946 53.2126C19.9925 52.934 19.9097 52.5235 19.854 52.1797C19.7428 51.6008 19.6039 51.5783 19.5388 51.2272C19.3998 50.4135 19.7519 50.3251 19.3628 48.9695C19.1072 48.073 19.21 45.9499 18.9401 44.8603C18.8971 44.6869 18.8442 44.5396 18.7796 44.427C18.5297 44.0174 17.9182 43.827 17.4279 43.4968C17.3998 43.4904 17.3814 43.4824 17.3723 43.4678C16.6965 42.9987 16.0573 41.1599 15.5198 40.4716C15.2703 40.1414 15.1125 40.2877 15.0012 39.768C14.8814 39.2918 15.0662 39.3726 15.2234 38.9759C14.3999 37.4817 16.2885 37.5038 15.8998 35.7086C15.8169 35.379 15.5761 34.9177 15.3719 34.7717C14.983 34.9401 15.1684 35.0349 14.9642 35.3575C14.6496 35.1819 14.3347 35.0052 14.0292 34.8301C13.0751 33.9218 13.5842 34.5807 13.3163 33.9873C12.7421 32.7417 12.1957 33.4383 11.5104 32.8228C11.2045 32.5661 11.149 32.163 10.6399 32.2368C9.87179 32.3387 10.2975 32.4561 9.50111 32.0895C8.82489 31.7744 8.12113 31.4083 7.64867 30.9834C7.62405 30.0936 7.89779 30.1794 7.21343 29.3582L7.21323 29.3576ZM53.5281 13.2086C58.9061 17.4665 62.712 23.5823 63.9472 30.5721C63.8605 30.4392 63.7711 30.2658 63.6816 30.0086C63.1168 30.1915 63.0984 30.2061 62.4317 30.3162L62.4024 30.3563C62.1372 30.7296 62.4158 30.5716 61.9497 30.9608C61.3947 31.4223 61.0329 32.0521 60.4131 32.4255C60.3386 33.0783 60.4683 33.2247 60.302 34.0015C60.2367 34.2873 59.9127 35.0562 59.5329 34.9982C59.4125 34.9761 58.9032 33.7302 58.7832 33.3858C58.5793 32.7998 58.3478 32.3673 58.1999 31.6937C58.1169 31.3342 58.0607 30.6459 57.9777 30.4038C57.5795 30.4622 57.5977 30.7122 57.2177 30.4484C56.9498 30.2572 57.0698 30.1406 56.9215 29.8547C56.6072 29.5617 56.2829 29.2688 55.9589 28.9757C55.7086 28.8952 54.7453 29.0339 54.3379 28.99C53.6063 28.9239 53.5425 28.9682 53.1069 28.3895C52.3378 28.4263 52.4029 28.7115 51.6526 28.0742C51.1617 27.6639 51.2544 27.0047 50.5417 27.3779C50.5144 27.9788 50.8104 28.1113 51.0788 28.3893C51.273 28.6021 51.5142 28.7487 51.6154 29.0337C51.6251 29.0418 51.6714 29.3122 51.6809 29.3486C52.375 29.3935 52.5419 29.0636 52.9211 28.7851C53.292 29.1293 52.9302 29.1883 53.4676 29.4588C53.8932 29.6718 53.8102 29.5471 54.0876 29.8911C54.2268 30.3528 53.1342 31.6056 52.7726 31.8328C52.4952 32.0085 52.3471 31.9058 52.0972 32.1106C51.7271 32.419 52.1435 32.3745 51.4956 32.6092C50.8011 32.8586 50.115 33.3858 49.3841 33.4297C49.2265 33.0044 49.0689 32.573 48.9121 32.1403C48.4487 30.6675 48.4675 31.2392 47.995 30.4771C47.7723 30.1467 47.8653 29.9348 47.7168 29.6417C47.6149 29.422 47.458 29.3264 47.3188 29.0561C47.106 28.6381 46.8562 27.9864 46.3652 28.0518C46.263 28.3816 46.8188 29.4948 46.9576 29.7661C47.0968 30.0373 47.3188 30.1547 47.384 30.5434C47.4764 31.0779 47.3652 31.0114 47.6614 31.3702C48.282 32.1104 47.6339 31.9792 48.5968 32.7038C49.3188 33.2465 49.1335 33.4074 49.4396 34.1333C49.9118 34.2643 51.3192 33.6425 51.5598 33.8254C51.8467 34.3306 51.2267 35.1361 51.0691 35.5757C50.5507 37.0486 49.6431 37.0268 48.9487 38.1547C48.5695 38.7637 48.3931 38.8439 48.0416 39.5771C47.643 40.4042 48.8467 42.6976 48.1249 43.6579C47.9673 43.8772 47.4582 44.0094 46.8192 44.6762C46.143 45.4013 46.8376 45.2766 46.578 46.4855C46.3745 46.7642 46.1246 46.7788 45.8743 46.9769C45.7818 47.2619 45.8561 47.4887 45.6984 47.8412C45.5317 48.2661 45.5042 48.0387 45.2628 48.3835C45.0872 48.654 45.106 48.7638 44.902 49.0135C44.726 49.2407 44.6333 49.3057 44.4672 49.453C43.6611 50.1861 41.9294 50.2076 41.7817 50.1047C41.3736 49.7608 41.6522 49.6725 41.5502 49.189C41.4511 48.7638 41.2227 48.4082 41.0323 48.0801L41.0128 48.0458C40.9205 47.8853 40.8367 47.7305 40.7902 47.5843C40.4567 46.5438 40.5779 45.7534 39.9944 44.6981C39.2627 43.3345 40.4011 42.6244 40.3548 41.8553C40.3364 41.6503 40.2625 41.5258 40.2435 41.3639C40.1051 40.5147 40.0219 39.7525 39.4476 39.0855C38.8178 38.3604 38.9009 38.6166 39.1049 37.4229C39.3639 36.0529 38.7718 36.4042 37.9386 36.3678C37.5305 35.1223 36.7342 35.7299 35.9384 36.0966C35.4382 36.3234 35.253 36.0309 34.6877 36.1111C33.4281 36.2795 34.4192 36.8147 32.7339 35.4956C32.0301 34.9461 32.5024 35.2244 32.0858 34.5363C31.9472 34.2869 31.5208 33.9572 31.326 33.708C30.6878 32.9167 31.447 32.1184 31.3359 31.2098C31.141 29.5249 30.8638 30.9897 31.8175 28.9533C32.3176 27.869 33.0766 27.8617 33.2715 27.3775C33.438 26.9459 33.3265 26.6375 33.6416 26.2425C33.9194 25.9199 34.3176 25.9856 34.4748 25.4803C34.6968 24.8577 34.2711 24.7772 33.8083 24.7621C33.6141 24.1102 33.6141 24.2713 33.7616 23.6706C33.8453 23.3336 33.7711 23.1716 33.8453 22.8352C34.0303 21.9931 35.4843 22.8285 35.9012 22.4835C36.0954 22.1247 36.1233 21.7734 35.9012 21.4283C35.6691 21.0845 35.3645 21.128 35.2069 20.7985C35.5586 20.5646 35.2992 20.7692 35.6051 20.7031C35.9659 20.6228 35.9194 20.5202 36.3455 20.4401C36.7251 20.3661 36.9667 20.0221 37.3364 19.788C37.8641 19.4512 37.6138 19.1499 38.2532 19.0478C39.2813 18.8714 38.6142 18.9013 38.7259 17.9557C38.8823 17.8971 39.0306 17.8308 39.1789 17.7655C39.5035 18.1831 39.0962 18.0147 39.4847 18.2927C39.5867 18.2343 39.7069 18.1758 39.8181 18.1176C39.7623 17.6626 39.5496 17.7509 39.4104 17.1872C38.9011 17.2673 38.7164 17.6925 38.3087 17.5383C37.9104 17.392 37.892 16.8274 37.9104 16.3587C38.0582 16.007 38.7991 15.8168 39.0863 15.7286C39.5496 15.575 39.4845 15.2672 39.9108 14.8494C40.4664 14.2994 40.0585 14.8566 40.3272 14.1465C40.9387 14.1241 40.6516 14.1019 41.0126 13.9191L41.031 13.9119L41.068 13.8969C41.2813 13.8015 41.5589 13.7799 41.8371 13.6851C42.8551 13.3483 43.2718 13.5165 44.0125 13.8161C44.5866 14.0511 46.3186 14.0584 46.4481 14.7766C46.0315 15.2082 45.6335 14.8934 45.0311 14.9306C45.1424 15.4869 45.1888 15.4869 45.6981 15.6405C45.7816 15.3767 45.661 15.4802 45.8 15.311C45.967 15.3474 46.1337 15.3767 46.2994 15.4064C46.4671 14.8417 46.661 14.9229 47.2263 14.8566C47.1333 14.468 47.0313 14.5781 47.2444 14.2705C47.8283 14.3297 47.3557 14.2785 47.6426 14.74C48.0503 14.6883 48.4485 14.2414 49.0131 14.1831C49.3651 14.1465 49.3469 14.2783 49.8465 14.2268C50.2542 14.1831 50.2356 14.0366 50.6435 14.205C50.7913 13.9337 50.6435 13.941 51.0045 13.8753C51.5596 13.7799 52.0413 14.1166 52.5784 14.1904C52.1805 13.7067 51.8007 13.8015 52.2914 12.9958C52.9116 12.8713 52.9673 12.9594 53.2358 13.4209C53.3884 13.3362 53.4531 13.2516 53.5279 13.2083H53.5281V13.2086Z" fill="#4DB3B7"/>
<mask id="mask0" mask-type="alpha" maskUnits="userSpaceOnUse" x="0" y="53" width="17" height="17">
<path fill-rule="evenodd" clip-rule="evenodd" d="M0 53.3158V69.4069H16.2851V53.3158L0 53.3158L0 53.3158Z" fill="white"/>
</mask>
<g mask="url(#mask0)">
<path fill-rule="evenodd" clip-rule="evenodd" d="M8.14246 53.3158C12.6395 53.3158 16.2851 56.9181 16.2851 61.3614C16.2851 65.8049 12.6395 69.407 8.14246 69.407C3.64542 69.407 -0.000133514 65.8049 -0.000133514 61.3614C-0.000133514 56.9181 3.64542 53.3158 8.14246 53.3158Z" fill="#F5B33C"/>
</g>
<path fill-rule="evenodd" clip-rule="evenodd" d="M3.85645 65.7319C3.82136 65.7319 3.78627 65.7187 3.75951 65.6922C3.706 65.6394 3.706 65.5535 3.75951 65.5007L6.03013 63.2569C6.08383 63.204 6.1705 63.204 6.224 63.2569C6.27751 63.3098 6.27751 63.3958 6.224 63.4485L3.95338 65.6922C3.92663 65.7187 3.89154 65.7319 3.85645 65.7319Z" fill="#FEFEFE"/>
<path fill-rule="evenodd" clip-rule="evenodd" d="M12.3716 58.0326L11.5114 57.1826C11.4354 57.1077 11.3123 57.1077 11.2363 57.1826C11.1601 57.2577 11.1601 57.3796 11.2363 57.4547L11.4944 57.7096L9.3612 59.8172L9.70532 60.1572L11.8383 58.0496L12.0963 58.3046C12.1723 58.3797 12.2956 58.3797 12.3716 58.3046C12.4476 58.2293 12.4476 58.1077 12.3716 58.0326Z" fill="#E5E8EB"/>
<path fill-rule="evenodd" clip-rule="evenodd" d="M5.84049 64.1914L5.27865 63.6362C5.12026 63.4795 5.12026 63.2259 5.27865 63.0696L9.24642 59.1489C9.40481 58.9922 9.6615 58.9922 9.81989 59.1489L10.3819 59.704C10.5403 59.8605 10.5403 60.1142 10.3819 60.2705L6.41396 64.1914C6.25557 64.3477 5.99869 64.3477 5.84049 64.1914Z" fill="#FEFEFE"/>
<path fill-rule="evenodd" clip-rule="evenodd" d="M7.73842 60.6389L5.27858 63.0694C5.12018 63.2259 5.12018 63.4795 5.27858 63.636L5.84042 64.1912C5.99881 64.3477 6.25549 64.3477 6.41389 64.1912L8.87373 61.7604L7.73842 60.6389Z" fill="#EB822F"/>
<path fill-rule="evenodd" clip-rule="evenodd" d="M9.40488 61.236C9.56327 61.0795 9.56327 60.8257 9.40488 60.6694L8.84304 60.1142C8.68464 59.9575 8.42776 59.9575 8.26957 60.1142L6.76144 61.6042L7.89675 62.726L9.40488 61.236Z" fill="#FEFEFE"/>
<path fill-rule="evenodd" clip-rule="evenodd" d="M10.8567 60.7384C10.7866 60.7384 10.7164 60.7118 10.6629 60.6589L8.85346 58.8711C8.74625 58.7653 8.74625 58.5939 8.85346 58.4879C8.96048 58.3822 9.13419 58.3822 9.24121 58.4879L11.0506 60.276C11.1576 60.3817 11.1576 60.5532 11.0506 60.6589C10.9971 60.7118 10.9269 60.7384 10.8567 60.7384Z" fill="#A6A8AA"/>
<path fill-rule="evenodd" clip-rule="evenodd" d="M64.0677 52.4044C68.5647 52.4044 72.2103 56.0067 72.2103 60.4499C72.2103 64.8934 68.5647 68.4955 64.0677 68.4955C59.5707 68.4955 55.9251 64.8934 55.9251 60.4499C55.9251 56.0067 59.5707 52.4044 64.0677 52.4044Z" fill="#F5B33C"/>
<path fill-rule="evenodd" clip-rule="evenodd" d="M59.3244 56.4428H68.5703C68.8741 56.4428 69.1226 56.6884 69.1226 56.9886V62.6163H58.772V56.9886C58.772 56.6882 59.0206 56.4428 59.3244 56.4428Z" fill="#A6A8AA"/>
<path fill-rule="evenodd" clip-rule="evenodd" d="M59.1472 62.2458H68.7477V56.9886C68.7477 56.893 68.667 56.8135 68.5703 56.8135H59.3246C59.2276 56.8135 59.1472 56.893 59.1472 56.9886V62.2458Z" fill="#E5E8EB"/>
<path fill-rule="evenodd" clip-rule="evenodd" d="M69.1226 62.6164V63.2131C69.1226 63.5135 68.8487 63.7589 68.5137 63.7589H59.381C59.046 63.7589 58.772 63.5135 58.772 63.2131V62.6164H69.1226Z" fill="#FEFEFE"/>
<path fill-rule="evenodd" clip-rule="evenodd" d="M63.9474 62.9758C64.0525 62.9758 64.1376 63.0599 64.1376 63.1637C64.1376 63.2673 64.0525 63.3516 63.9474 63.3516C63.8423 63.3516 63.7574 63.2673 63.7574 63.1637C63.7574 63.0599 63.8423 62.9758 63.9474 62.9758Z" fill="#B6B5B7"/>
<path fill-rule="evenodd" clip-rule="evenodd" d="M65.1411 64.6173L66.0193 64.8954H61.8755L62.5841 64.6173V63.7589H65.1411V64.6173Z" fill="#C1C1C3"/>
<path fill-rule="evenodd" clip-rule="evenodd" d="M62.584 64.6173H65.141L66.0192 64.8955V65.0152H63.9473H61.8754V64.8955L62.584 64.6173Z" fill="#ECEFF0"/>
<path fill-rule="evenodd" clip-rule="evenodd" d="M64.354 61.6988H63.9704C63.9279 61.6988 63.8936 61.6647 63.8936 61.6229V59.8786C63.8936 59.8366 63.9279 59.8027 63.9704 59.8027H64.354C64.3965 59.8027 64.4308 59.8366 64.4308 59.8786V61.6229C64.4308 61.6647 64.3965 61.6988 64.354 61.6988Z" fill="#FDD487"/>
<path fill-rule="evenodd" clip-rule="evenodd" d="M64.354 61.6988H63.9704C63.9279 61.6988 63.8936 61.6647 63.8936 61.6229V60.3335C63.8936 60.2916 63.9279 60.2579 63.9704 60.2579H64.354C64.3965 60.2579 64.4308 60.2916 64.4308 60.3335V61.6229C64.4308 61.6647 64.3965 61.6988 64.354 61.6988Z" fill="#FBCB70"/>
<path fill-rule="evenodd" clip-rule="evenodd" d="M65.1216 61.6988H64.7379C64.6954 61.6988 64.6611 61.6647 64.6611 61.623V58.5133C64.6611 58.4714 64.6954 58.4377 64.7379 58.4377H65.1216C65.164 58.4377 65.1984 58.4714 65.1984 58.5133V61.623C65.1984 61.6647 65.164 61.6988 65.1216 61.6988Z" fill="#43BCA2"/>
<path fill-rule="evenodd" clip-rule="evenodd" d="M65.1216 61.6988H64.7379C64.6954 61.6988 64.6611 61.6647 64.6611 61.623V59.4234C64.6611 59.3815 64.6954 59.3478 64.7379 59.3478H65.1216C65.164 59.3478 65.1984 59.3815 65.1984 59.4234V61.623C65.1984 61.6647 65.164 61.6988 65.1216 61.6988Z" fill="#37AF95"/>
<path fill-rule="evenodd" clip-rule="evenodd" d="M62.8189 61.6988H62.4352C62.3928 61.6988 62.3585 61.6647 62.3585 61.6229V60.3335C62.3585 60.2916 62.3928 60.2579 62.4352 60.2579H62.8189C62.8614 60.2579 62.8957 60.2916 62.8957 60.3335V61.6229C62.8957 61.6647 62.8614 61.6988 62.8189 61.6988Z" fill="#B8E1E2"/>
<path fill-rule="evenodd" clip-rule="evenodd" d="M65.8891 61.6988H65.5054C65.463 61.6988 65.4287 61.6647 65.4287 61.6229V58.0584C65.4287 58.0164 65.463 57.9825 65.5054 57.9825H65.8891C65.9316 57.9825 65.9659 58.0164 65.9659 58.0584V61.6229C65.9659 61.6647 65.9316 61.6988 65.8891 61.6988Z" fill="#5A488F"/>
<path fill-rule="evenodd" clip-rule="evenodd" d="M65.8891 61.6988H65.5054C65.463 61.6988 65.4287 61.6647 65.4287 61.623V58.9685C65.4287 58.9265 65.463 58.8926 65.5054 58.8926H65.8891C65.9316 58.8926 65.9659 58.9265 65.9659 58.9685V61.623C65.9659 61.6647 65.9316 61.6988 65.8891 61.6988Z" fill="#4C3C77"/>
<path fill-rule="evenodd" clip-rule="evenodd" d="M63.5864 61.6988H63.2028C63.1603 61.6988 63.126 61.6647 63.126 61.623V59.4234C63.126 59.3815 63.1603 59.3478 63.2028 59.3478H63.5864C63.6289 59.3478 63.6632 59.3815 63.6632 59.4234V61.623C63.6632 61.6647 63.6289 61.6988 63.5864 61.6988Z" fill="#F48776"/>
<path fill-rule="evenodd" clip-rule="evenodd" d="M63.5864 61.6988H63.2028C63.1603 61.6988 63.126 61.6647 63.126 61.6229V59.8786C63.126 59.8366 63.1603 59.8027 63.2028 59.8027H63.5864C63.6289 59.8027 63.6632 59.8366 63.6632 59.8786V61.6229C63.6632 61.6647 63.6289 61.6988 63.5864 61.6988Z" fill="#F0806F"/>
<path fill-rule="evenodd" clip-rule="evenodd" d="M62.8189 61.6988H62.4352C62.3928 61.6988 62.3585 61.6647 62.3585 61.6229V60.7887C62.3585 60.7467 62.3928 60.7128 62.4352 60.7128H62.8189C62.8614 60.7128 62.8957 60.7467 62.8957 60.7887V61.6229C62.8957 61.6647 62.8614 61.6988 62.8189 61.6988Z" fill="#82CACD"/>
<path fill-rule="evenodd" clip-rule="evenodd" d="M61.8966 57.4412V61.6884C61.8966 61.8362 62.1293 61.8364 62.1293 61.6884V57.4412C62.1293 57.2934 61.8966 57.2932 61.8966 57.4412Z" fill="#717989"/>
<path fill-rule="evenodd" clip-rule="evenodd" d="M66.1006 61.5837H61.8022C61.6526 61.5837 61.6524 61.8136 61.8022 61.8136H66.1006C66.2502 61.8136 66.2504 61.5837 66.1006 61.5837Z" fill="#717989"/>
<path fill-rule="evenodd" clip-rule="evenodd" d="M62.0129 57.9434H61.7828C61.6329 57.9434 61.6327 58.1732 61.7828 58.1732H62.0129C62.1626 58.1732 62.1628 57.9434 62.0129 57.9434Z" fill="#717989"/>
<path fill-rule="evenodd" clip-rule="evenodd" d="M62.0129 58.3989H61.7828C61.6329 58.3989 61.6327 58.6288 61.7828 58.6288H62.0129C62.1626 58.6288 62.1628 58.3989 62.0129 58.3989Z" fill="#717989"/>
<path fill-rule="evenodd" clip-rule="evenodd" d="M62.0097 58.8355H61.7796C61.6297 58.8355 61.6295 59.0654 61.7796 59.0654H62.0097C62.1594 59.0654 62.1595 58.8355 62.0097 58.8355Z" fill="#717989"/>
<path fill-rule="evenodd" clip-rule="evenodd" d="M62.0097 59.2912H61.7796C61.6297 59.2912 61.6295 59.5209 61.7796 59.5209H62.0097C62.1594 59.5209 62.1595 59.2912 62.0097 59.2912Z" fill="#717989"/>
<path fill-rule="evenodd" clip-rule="evenodd" d="M62.0113 59.7635H61.7812C61.6313 59.7635 61.6311 59.9934 61.7812 59.9934H62.0113C62.161 59.9934 62.1612 59.7635 62.0113 59.7635Z" fill="#717989"/>
<path fill-rule="evenodd" clip-rule="evenodd" d="M62.0113 60.2191H61.7812C61.6313 60.2191 61.6311 60.449 61.7812 60.449H62.0113C62.161 60.449 62.1612 60.2191 62.0113 60.2191Z" fill="#717989"/>
<path fill-rule="evenodd" clip-rule="evenodd" d="M62.0081 60.6557H61.778C61.6281 60.6557 61.6279 60.8856 61.778 60.8856H62.0081C62.1577 60.8856 62.1579 60.6557 62.0081 60.6557Z" fill="#717989"/>
<path fill-rule="evenodd" clip-rule="evenodd" d="M62.0081 61.1114H61.778C61.6281 61.1114 61.6279 61.3411 61.778 61.3411H62.0081C62.1577 61.3411 62.1579 61.1114 62.0081 61.1114Z" fill="#717989"/>
<path fill-rule="evenodd" clip-rule="evenodd" d="M16.6746 25.6009C15.0711 34.3137 13.4678 43.0265 11.8643 51.7393C11.6407 52.954 11.4172 54.1687 11.1937 55.3833C11.1382 55.6845 11.6052 55.8138 11.6611 55.5105C13.2646 46.7976 14.8679 38.085 16.4714 29.3722C16.6949 28.1575 16.9185 26.9428 17.142 25.7281C17.1975 25.427 16.7304 25.2977 16.6746 25.6009Z" fill="#F5B33C"/>
<path fill-rule="evenodd" clip-rule="evenodd" d="M37.6921 27.6885C39.9526 30.915 42.213 34.1412 44.4735 37.3675C48.1007 42.5444 51.7276 47.7212 55.3546 52.8983C56.1874 54.0868 57.0201 55.2752 57.8528 56.4637C58.0292 56.7154 58.4493 56.4763 58.2714 56.2219C56.0108 52.9956 53.7505 49.7694 51.4899 46.5431C47.8628 41.3661 44.2358 36.1892 40.6087 31.0125C39.776 29.8236 38.9433 28.6352 38.1107 27.4467C37.9342 27.195 37.5139 27.4343 37.6921 27.6885Z" fill="#F5B33C"/>
<path fill-rule="evenodd" clip-rule="evenodd" d="M44.1454 20.993C48.8398 17.7819 53.5344 14.5707 58.229 11.3596C58.8955 10.9037 59.5621 10.4476 60.2286 9.99164C60.4832 9.81751 60.2412 9.4022 59.9839 9.57825C55.2893 12.7894 50.5949 16.0005 45.9003 19.2117C45.2338 19.6676 44.5673 20.1235 43.9008 20.5796C43.646 20.7537 43.8882 21.169 44.1454 20.993Z" fill="#F5B33C"/>
<path fill-rule="evenodd" clip-rule="evenodd" d="M61.8681 0C66.3958 0 70.0661 3.62664 70.0661 8.10017C70.0661 12.5739 66.3958 16.2005 61.8681 16.2005C57.3404 16.2005 53.67 12.5739 53.67 8.10017C53.67 3.62664 57.3404 0 61.8681 0Z" fill="#F5B33C"/>
<path fill-rule="evenodd" clip-rule="evenodd" d="M58.701 12.0586C58.1072 12.0586 57.6233 11.5805 57.6233 10.9938V4.83276H59.7788V10.9938C59.7788 11.5805 59.2949 12.0586 58.701 12.0586Z" fill="#FEFEFE"/>
<path fill-rule="evenodd" clip-rule="evenodd" d="M57.8432 8.35333V10.9938C57.8432 11.461 58.228 11.8413 58.7011 11.8413C59.1739 11.8413 59.5588 11.461 59.5588 10.9938V8.35333H57.8432Z" fill="#F48632"/>
<path fill-rule="evenodd" clip-rule="evenodd" d="M57.6232 5.06088H59.7787V4.83273H57.6232V5.06088Z" fill="#E5E8EC"/>
<path fill-rule="evenodd" clip-rule="evenodd" d="M59.7457 4.83284H57.6672C57.5022 4.83284 57.3813 4.70238 57.3813 4.55028C57.3813 4.38726 57.5133 4.26773 57.6672 4.26773H59.7457C59.9107 4.26773 60.0317 4.39799 60.0317 4.55028C60.0317 4.70238 59.8997 4.83284 59.7457 4.83284Z" fill="#FEFEFE"/>
<path fill-rule="evenodd" clip-rule="evenodd" d="M57.8543 5.65875H58.3053V5.46317H57.8543V5.65875Z" fill="#E5E8EC"/>
<path fill-rule="evenodd" clip-rule="evenodd" d="M57.8543 6.22366H58.3053V6.02808H57.8543V6.22366Z" fill="#E5E8EC"/>
<path fill-rule="evenodd" clip-rule="evenodd" d="M57.8543 6.77765H58.3053V6.58206H57.8543V6.77765Z" fill="#E5E8EC"/>
<path fill-rule="evenodd" clip-rule="evenodd" d="M57.8543 7.34277H58.3053V7.14719H57.8543V7.34277Z" fill="#E5E8EC"/>
<path fill-rule="evenodd" clip-rule="evenodd" d="M57.8543 7.89694H58.3053V7.70135H57.8543V7.89694Z" fill="#E5E8EC"/>
<path fill-rule="evenodd" clip-rule="evenodd" d="M61.8681 12.0586C61.2743 12.0586 60.7904 11.5805 60.7904 10.9938V4.83276H62.9458V10.9938C62.9458 11.5805 62.4619 12.0586 61.8681 12.0586Z" fill="#FEFEFE"/>
<path fill-rule="evenodd" clip-rule="evenodd" d="M61.0103 8.35333V10.9938C61.0103 11.461 61.3952 11.8413 61.868 11.8413C62.3409 11.8413 62.7259 11.461 62.7259 10.9938V8.35333H61.0103Z" fill="#F48776"/>
<path fill-rule="evenodd" clip-rule="evenodd" d="M60.7905 5.06088H62.946V4.83273H60.7905V5.06088Z" fill="#E5E8EC"/>
<path fill-rule="evenodd" clip-rule="evenodd" d="M62.9018 4.83284H60.8344C60.6694 4.83284 60.5484 4.70238 60.5484 4.55028C60.5484 4.38726 60.6804 4.26773 60.8344 4.26773H62.9129C63.0779 4.26773 63.1986 4.39799 63.1986 4.55028C63.1986 4.70238 63.0668 4.83284 62.9018 4.83284Z" fill="#FEFEFE"/>
<path fill-rule="evenodd" clip-rule="evenodd" d="M61.0214 5.65875H61.4723V5.46317H61.0214V5.65875Z" fill="#E5E8EC"/>
<path fill-rule="evenodd" clip-rule="evenodd" d="M61.0214 6.22366H61.4723V6.02808H61.0214V6.22366Z" fill="#E5E8EC"/>
<path fill-rule="evenodd" clip-rule="evenodd" d="M61.0214 6.77765H61.4723V6.58206H61.0214V6.77765Z" fill="#E5E8EC"/>
<path fill-rule="evenodd" clip-rule="evenodd" d="M61.0214 7.34277H61.4723V7.14719H61.0214V7.34277Z" fill="#E5E8EC"/>
<path fill-rule="evenodd" clip-rule="evenodd" d="M61.0214 7.89694H61.4723V7.70135H61.0214V7.89694Z" fill="#E5E8EC"/>
<path fill-rule="evenodd" clip-rule="evenodd" d="M65.0353 12.0586C64.4414 12.0586 63.9575 11.5805 63.9575 10.9938V4.83276H66.113V10.9938C66.113 11.5805 65.6291 12.0586 65.0353 12.0586Z" fill="#FEFEFE"/>
<path fill-rule="evenodd" clip-rule="evenodd" d="M64.1774 8.35333V10.9938C64.1774 11.461 64.5622 11.8413 65.0353 11.8413C65.5081 11.8413 65.893 11.461 65.893 10.9938V8.35333H64.1774Z" fill="#4C3C77"/>
<path fill-rule="evenodd" clip-rule="evenodd" d="M63.9576 5.06088H66.113V4.83273H63.9576V5.06088Z" fill="#E5E8EC"/>
<path fill-rule="evenodd" clip-rule="evenodd" d="M66.0689 4.83284H63.9906C63.8256 4.83284 63.7046 4.70238 63.7046 4.55028C63.7046 4.38726 63.8365 4.26773 63.9906 4.26773H66.0689C66.2339 4.26773 66.3549 4.39799 66.3549 4.55028C66.3549 4.70238 66.2339 4.83284 66.0689 4.83284Z" fill="#FEFEFE"/>
<path fill-rule="evenodd" clip-rule="evenodd" d="M64.1885 5.65875H64.6392V5.46317H64.1885V5.65875Z" fill="#E5E8EC"/>
<path fill-rule="evenodd" clip-rule="evenodd" d="M64.1885 6.22366H64.6392V6.02808H64.1885V6.22366Z" fill="#E5E8EC"/>
<path fill-rule="evenodd" clip-rule="evenodd" d="M64.1885 6.77765H64.6392V6.58206H64.1885V6.77765Z" fill="#E5E8EC"/>
<path fill-rule="evenodd" clip-rule="evenodd" d="M64.1885 7.34277H64.6392V7.14719H64.1885V7.34277Z" fill="#E5E8EC"/>
<path fill-rule="evenodd" clip-rule="evenodd" d="M64.1885 7.89694H64.6392V7.70135H64.1885V7.89694Z" fill="#E5E8EC"/>
</svg>
