<svg width="72" height="69" viewBox="0 0 72 69" fill="none" xmlns="http://www.w3.org/2000/svg">
<rect x="62.4131" y="30.1617" width="2.06587" height="23.5509" transform="rotate(75 62.4131 30.1617)" fill="#485267"/>
<rect x="28.7076" y="41.3174" width="2.06587" height="23.5509" transform="rotate(27.6833 28.7076 41.3174)" fill="#485267"/>
<rect width="2.06587" height="23.5509" transform="matrix(-0.885529 0.464584 0.464584 0.885529 44.3864 43.3832)" fill="#485267"/>
<rect x="36.3593" y="31.4012" width="2.06587" height="23.5509" transform="rotate(-180 36.3593 31.4012)" fill="#485267"/>
<rect x="31.9597" y="36.3593" width="2.06587" height="23.5509" transform="rotate(105 31.9597 36.3593)" fill="#485267"/>
<path fill-rule="evenodd" clip-rule="evenodd" d="M35.5328 20.2455C45.5731 20.2455 53.7126 28.3847 53.7126 38.4253C53.7126 48.4656 45.5731 56.6048 35.5328 56.6048C25.4925 56.6048 17.3533 48.4656 17.3533 38.4253C17.3533 28.3847 25.4925 20.2455 35.5328 20.2455Z" fill="#82CACD"/>
<path fill-rule="evenodd" clip-rule="evenodd" d="M53.9191 58.6707C56.7716 58.6707 59.0838 60.9829 59.0838 63.8354C59.0838 66.6877 56.7716 69 53.9191 69C51.0667 69 48.7545 66.6877 48.7545 63.8354C48.7545 60.9829 51.0667 58.6707 53.9191 58.6707Z" fill="#EB822F"/>
<path fill-rule="evenodd" clip-rule="evenodd" d="M35.4085 0C38.7625 0 41.4817 2.71556 41.4817 6.0656C41.4817 9.41536 38.7625 12.1309 35.4085 12.1309C32.0546 12.1309 29.3353 9.41536 29.3353 6.0656C29.3353 2.71556 32.0546 0 35.4085 0Z" fill="#F1A86D"/>
<path d="M25.6168 42.1626V46.2785C25.6168 48.1107 29.9818 49.5808 35.3866 49.5808C40.7913 49.5808 45.1564 48.1108 45.1564 46.2785V42.1626C42.8267 43.6327 38.914 44.221 35.3866 44.221C31.858 44.221 27.9464 43.6327 25.6168 42.1626Z" fill="#2E6B6E"/>
<path d="M35.3866 36.7798C31.8581 36.7798 27.9465 36.1915 25.6168 34.6994V38.8383C25.6168 40.6476 29.9819 42.1176 35.3866 42.1176C40.7914 42.1176 45.1564 40.6476 45.1564 38.8152V34.6994C42.8268 36.1924 38.9149 36.7798 35.3866 36.7798Z" fill="#2E6B6E"/>
<path d="M45.1565 31.3982C45.1565 33.2216 40.7826 34.6996 35.3867 34.6996C29.9908 34.6996 25.6169 33.2216 25.6169 31.3982C25.6169 29.5739 29.9908 28.0958 35.3867 28.0958C40.7826 28.0958 45.1565 29.5738 45.1565 31.3982Z" fill="#2E6B6E"/>
<path fill-rule="evenodd" clip-rule="evenodd" d="M17.9731 58.6707C20.8255 58.6707 23.1377 60.983 23.1377 63.8353C23.1377 66.6877 20.8255 69 17.9731 69C15.1207 69 12.8084 66.6877 12.8084 63.8353C12.8084 60.983 15.1207 58.6707 17.9731 58.6707Z" fill="#DDA136"/>
<path fill-rule="evenodd" clip-rule="evenodd" d="M5.16474 25.2036C8.01714 25.2036 10.3293 27.5159 10.3293 30.3682C10.3293 33.2206 8.01714 35.5329 5.16474 35.5329C2.31233 35.5329 0 33.2206 0 30.3682C0 27.5159 2.31233 25.2036 5.16474 25.2036Z" fill="#FAD99E"/>
<path fill-rule="evenodd" clip-rule="evenodd" d="M65.9011 25.2036C68.7536 25.2036 71.0659 27.5158 71.0659 30.3683C71.0659 33.2207 68.7536 35.5329 65.9011 35.5329C63.0488 35.5329 60.7365 33.2207 60.7365 30.3683C60.7365 27.5158 63.0488 25.2036 65.9011 25.2036Z" fill="#F5B33C"/>
</svg>
