<svg width="68" height="67" viewBox="0 0 68 67" fill="none" xmlns="http://www.w3.org/2000/svg">
<path d="M64.7226 33.3857C64.7226 50.4276 50.8095 64.2714 33.6113 64.2714C16.4131 64.2714 2.5 50.4276 2.5 33.3857C2.5 16.3438 16.4131 2.5 33.6113 2.5C50.8095 2.5 64.7226 16.3438 64.7226 33.3857Z" stroke="#DA7579" stroke-width="5"/>
<path fill-rule="evenodd" clip-rule="evenodd" d="M39.5346 11.1782H28.4632C26.9349 11.1782 25.6956 12.4085 25.6956 13.9237V18.0428H28.4632V15.2966C28.4632 14.539 29.0819 13.9237 29.8471 13.9237H38.1508C38.916 13.9237 39.5346 14.539 39.5346 15.2966V18.0428H42.3031V13.9237C42.3031 12.4093 41.0627 11.1782 39.5346 11.1782Z" fill="#343F56"/>
<path fill-rule="evenodd" clip-rule="evenodd" d="M14.6233 18.0444H53.3742C54.9024 18.0444 56.1425 19.274 56.1425 20.7915V48.2495C56.1425 49.7656 54.9024 50.9959 53.3742 50.9959H14.6233C13.0958 50.9959 11.8557 49.7656 11.8557 48.2495V20.7915C11.8557 19.274 13.0958 18.0444 14.6233 18.0444Z" fill="#3E8F92"/>
<path fill-rule="evenodd" clip-rule="evenodd" d="M40.9191 31.7715H36.7668V27.6562C36.7668 26.8971 36.1483 26.2804 35.3831 26.2804H32.6145C31.8493 26.2804 31.2308 26.8971 31.2308 27.6562V31.7715H27.0793C26.3141 31.7715 25.6956 32.3882 25.6956 33.1451V35.8906C25.6956 36.6513 26.3141 37.2664 27.0793 37.2664H31.2308V41.3824C31.2308 42.1432 31.8501 42.7553 32.6154 42.7553H35.3831C36.1483 42.7553 36.7668 42.1432 36.7668 41.3824V37.2664H40.9191C41.6844 37.2664 42.3029 36.6513 42.3029 35.8906V33.1451C42.3029 32.3899 41.6844 31.7715 40.9191 31.7715Z" fill="white"/>
<path fill-rule="evenodd" clip-rule="evenodd" d="M53.388 50.9943C54.9109 50.9859 56.1425 49.7609 56.1425 48.2495V41.3825L46.4544 50.9943H53.388ZM53.3743 18.0444H46.4552L56.1425 27.6547V20.7915C56.1425 19.274 54.9024 18.0444 53.3743 18.0444ZM14.6096 50.9943H21.5432L11.8557 41.3825V48.2495C11.8557 49.7609 13.0873 50.9875 14.6096 50.9943ZM14.6236 18.0444C13.0961 18.0444 11.856 19.2741 11.856 20.7915V27.6547L21.5435 18.0444H14.6236Z" fill="#2E6B6E"/>
<path fill-rule="evenodd" clip-rule="evenodd" d="M28.4632 11.1782C26.9349 11.1782 25.6956 12.4085 25.6956 13.9237V18.0428H28.4632V15.2966C28.4632 14.539 29.0817 13.9237 29.8469 13.9237" fill="#2A3245"/>
<path fill-rule="evenodd" clip-rule="evenodd" d="M12.4973 56.7687L16.9403 52.3611C20.4977 48.8322 24.0551 45.3031 27.6124 41.7742L40.581 28.909L51.7056 17.8732C53.5186 16.0746 55.4255 14.3327 57.1619 12.4604C57.186 12.4346 57.2123 12.4104 57.2374 12.3855C58.064 11.5655 56.7814 10.2924 55.9543 11.1129C54.4734 12.582 52.9924 14.0513 51.5115 15.5204C47.954 19.0495 44.3966 22.5785 40.8392 26.1075L27.8707 38.9727C24.1625 42.6512 20.4543 46.3298 16.7462 50.0084C14.9331 51.8069 13.0262 53.5489 11.2897 55.4212C11.2657 55.4471 11.2395 55.4711 11.2144 55.496C10.3877 56.316 11.6703 57.5891 12.4973 56.7687Z" fill="#DA7579"/>
</svg>
