<svg width="53" height="71" viewBox="0 0 53 71" fill="none" xmlns="http://www.w3.org/2000/svg">
<path fill-rule="evenodd" clip-rule="evenodd" d="M39.0346 20.3699V30.5399H39.0351H45.988V20.3699C45.988 9.60931 37.2456 0.854645 26.5 0.854645V7.81783C33.412 7.81783 39.0346 13.4481 39.0346 20.3699Z" fill="#343F56"/>
<path fill-rule="evenodd" clip-rule="evenodd" d="M13.9657 30.54V20.3701C13.9657 13.4485 19.5885 7.81802 26.5001 7.81802V0.854645C15.7547 0.854645 7.01227 9.60931 7.01227 20.3699V30.5399H7.01282H13.9657V30.54Z" fill="#485267"/>
<path fill-rule="evenodd" clip-rule="evenodd" d="M48.8722 30.5401H45.9888H45.9882H39.0351H39.0346H26.5V70.0122H48.8722C51.1518 70.0122 53 68.1611 53 65.8782V34.6737C53 32.3907 51.1518 30.5401 48.8722 30.5401Z" fill="#4DB3B7"/>
<path fill-rule="evenodd" clip-rule="evenodd" d="M13.9662 30.5401H13.9656H7.01274H7.01219H4.12821C1.84863 30.5401 0 32.3909 0 34.6741V65.8784C0 68.1615 1.84826 70.0123 4.12821 70.0123H26.5V30.5401H13.9662Z" fill="#82CACD"/>
<path fill-rule="evenodd" clip-rule="evenodd" d="M31.2187 44.2516C31.2187 41.6419 29.1064 39.5264 26.5001 39.5264C23.894 39.5264 21.7814 41.6419 21.7814 44.2516C21.7814 45.9292 22.66 47.3935 23.976 48.232L22.5688 54.9465H30.431L29.0238 48.232C30.34 47.3935 31.2187 45.9293 31.2187 44.2516Z" fill="#2E6B6E"/>
</svg>
