<svg width="70" height="68" viewBox="0 0 70 68" fill="none" xmlns="http://www.w3.org/2000/svg">
<path fill-rule="evenodd" clip-rule="evenodd" d="M19.9187 44.1696H1.17879C0.527699 44.1696 0 43.6448 0 42.9976V24.3894C0 23.7419 0.527699 23.2173 1.17879 23.2173H19.9187V44.1696Z" fill="#EB822F"/>
<path fill-rule="evenodd" clip-rule="evenodd" d="M67.9852 44.1696H19.9187V23.2173H67.9852C69.0981 23.2173 70 24.0932 70 25.1737V42.2129C70 43.2935 69.0981 44.1696 67.9852 44.1696Z" fill="#EDEDED"/>
<path fill-rule="evenodd" clip-rule="evenodd" d="M23.9025 39.6394C23.9025 40.2649 24.4095 40.7719 25.035 40.7719H65.4528C66.0783 40.7719 66.5854 40.2649 66.5854 39.6394C66.5854 39.0139 66.0783 38.5068 65.4528 38.5068H25.035C24.4095 38.5068 23.9025 39.0139 23.9025 39.6394Z" fill="#C7C5C5"/>
<path fill-rule="evenodd" clip-rule="evenodd" d="M23.9025 33.9766C23.9025 34.6021 24.4095 35.1091 25.035 35.1091H36.9976C37.623 35.1091 38.1301 34.6021 38.1301 33.9766C38.1301 33.3511 37.623 32.844 36.9976 32.844H25.035C24.4095 32.844 23.9025 33.3511 23.9025 33.9766Z" fill="#C7C5C5"/>
<path fill-rule="evenodd" clip-rule="evenodd" d="M23.9025 27.1813C23.9025 27.8068 24.4095 28.3138 25.035 28.3138H46.6723C47.2978 28.3138 47.8049 27.8068 47.8049 27.1813C47.8049 26.5558 47.2978 26.0487 46.6723 26.0487H25.035C24.4095 26.0487 23.9025 26.5558 23.9025 27.1813Z" fill="#C7C5C5"/>
<path fill-rule="evenodd" clip-rule="evenodd" d="M7.86135 40.7987C7.50887 40.4393 7.33224 39.9987 7.33224 39.4774C7.33224 38.956 7.50887 38.5151 7.86135 38.1549C8.21383 37.7955 8.64626 37.6163 9.15761 37.6163C9.66869 37.6163 10.1011 37.7955 10.4536 38.1549C10.8061 38.5151 10.9827 38.956 10.9827 39.4774C10.9827 39.9987 10.8061 40.4393 10.4536 40.7987C10.1011 41.1581 9.66869 41.3382 9.15761 41.3382C8.64626 41.3382 8.21383 41.1581 7.86135 40.7987ZM10.6924 36.7701H7.53992V35.1842C7.53992 34.6064 7.6123 34.1732 7.7581 33.8837C7.90285 33.5954 8.21013 33.2033 8.68097 32.7099L10.0909 31.2303C10.2986 30.9764 10.4018 30.6487 10.4018 30.247C10.4018 29.8447 10.291 29.5101 10.07 29.2418C9.8492 28.9744 9.55891 28.8404 9.19885 28.8404C8.83984 28.8404 8.53909 28.9994 8.29662 29.3167C8.05492 29.6337 7.90651 30.0525 7.85112 30.5749H4.55286C4.70519 29.1651 5.21 28.0585 6.06703 27.2545C6.92432 26.4512 7.99953 26.0487 9.29292 26.0487C10.5853 26.0487 11.6359 26.4081 12.4451 27.1279C13.2535 27.8467 13.6585 28.8404 13.6585 30.109C13.6585 30.6735 13.589 31.0923 13.4508 31.3672C13.3129 31.6424 13.2159 31.8398 13.1605 31.9594C13.1051 32.0793 12.9771 32.2594 12.777 32.4992C12.5758 32.7386 12.4415 32.894 12.372 32.9638C12.0401 33.3021 11.7263 33.6194 11.4282 33.9154C11.1314 34.2116 10.9338 34.4548 10.8379 34.6448C10.7402 34.8352 10.6924 35.1208 10.6924 35.5013V36.7701Z" fill="white"/>
<path fill-rule="evenodd" clip-rule="evenodd" d="M19.9187 20.9522H1.17879C0.527699 20.9522 0 20.4277 0 19.7802V1.17202C0 0.524788 0.527699 0 1.17879 0H19.9187V20.9522Z" fill="#F5B33C"/>
<path fill-rule="evenodd" clip-rule="evenodd" d="M67.9852 20.9522H19.9187V0H67.9852C69.0981 0 70 0.876073 70 1.95666V18.9958C70 20.0764 69.0981 20.9522 67.9852 20.9522Z" fill="#EDEDED"/>
<path fill-rule="evenodd" clip-rule="evenodd" d="M23.9025 16.422C23.9025 17.0475 24.4095 17.5546 25.035 17.5546H65.4528C66.0783 17.5546 66.5854 17.0475 66.5854 16.422C66.5854 15.7965 66.0783 15.2895 65.4528 15.2895H25.035C24.4095 15.2895 23.9025 15.7965 23.9025 16.422Z" fill="#C7C5C5"/>
<path fill-rule="evenodd" clip-rule="evenodd" d="M23.9025 10.193C23.9025 10.8185 24.4095 11.3255 25.035 11.3255H36.9976C37.623 11.3255 38.1301 10.8185 38.1301 10.193C38.1301 9.56749 37.623 9.06042 36.9976 9.06042H25.035C24.4095 9.06042 23.9025 9.56749 23.9025 10.193Z" fill="#C7C5C5"/>
<path fill-rule="evenodd" clip-rule="evenodd" d="M23.9025 4.53023C23.9025 5.15572 24.4095 5.66278 25.035 5.66278H46.6723C47.2978 5.66278 47.8049 5.15572 47.8049 4.53023C47.8049 3.90474 47.2978 3.39767 46.6723 3.39767H25.035C24.4095 3.39767 23.9025 3.90474 23.9025 4.53023Z" fill="#C7C5C5"/>
<path fill-rule="evenodd" clip-rule="evenodd" d="M7.86135 17.5814C7.50887 17.222 7.33224 16.7811 7.33224 16.2597C7.33224 15.7384 7.50887 15.2978 7.86135 14.9373C8.21383 14.5779 8.64626 14.3989 9.15761 14.3989C9.66869 14.3989 10.1011 14.5779 10.4536 14.9373C10.8061 15.2978 10.9827 15.7384 10.9827 16.2597C10.9827 16.7811 10.8061 17.222 10.4536 17.5814C10.1011 17.9408 9.66869 18.1208 9.15761 18.1208C8.64626 18.1208 8.21383 17.9408 7.86135 17.5814ZM10.6924 13.5525H7.53992V11.9666C7.53992 11.3888 7.6123 10.9556 7.7581 10.6663C7.90285 10.3778 8.21013 9.98591 8.68097 9.49226L10.0909 8.01266C10.2986 7.75877 10.4018 7.4311 10.4018 7.02962C10.4018 6.62709 10.291 6.29275 10.07 6.02421C9.8492 5.75701 9.55891 5.62274 9.19885 5.62274C8.83984 5.62274 8.53909 5.78179 8.29662 6.09907C8.05492 6.41636 7.90651 6.83515 7.85112 7.3573H4.55286C4.70519 5.94776 5.21 4.84085 6.06703 4.03684C6.92432 3.2339 7.99953 2.83136 9.29292 2.83136C10.5853 2.83136 11.6359 3.19074 12.4451 3.9103C13.2535 4.62906 13.6585 5.62274 13.6585 6.89163C13.6585 7.45614 13.589 7.87466 13.4508 8.14985C13.3129 8.42478 13.2159 8.62219 13.1605 8.74207C13.1051 8.86195 12.9771 9.04204 12.777 9.28154C12.5758 9.52104 12.4415 9.67635 12.372 9.74641C12.0401 10.0845 11.7263 10.4018 11.4282 10.698C11.1314 10.994 10.9338 11.2375 10.8379 11.4272C10.7402 11.6179 10.6924 11.9035 10.6924 12.2839V13.5525Z" fill="white"/>
<path fill-rule="evenodd" clip-rule="evenodd" d="M19.9187 67.9532H1.17879C0.527699 67.9532 0 67.4284 0 66.7809V48.173C0 47.5258 0.527699 47.001 1.17879 47.001H19.9187V67.9532Z" fill="#4DB3B7"/>
<path fill-rule="evenodd" clip-rule="evenodd" d="M67.9852 67.9532H19.9187V47.001H67.9852C69.0981 47.001 70 47.877 70 48.9576V65.9966C70 67.0772 69.0981 67.9532 67.9852 67.9532Z" fill="#EDEDED"/>
<path fill-rule="evenodd" clip-rule="evenodd" d="M23.9025 63.423C23.9025 64.0485 24.4095 64.5555 25.035 64.5555H65.4528C66.0783 64.5555 66.5854 64.0485 66.5854 63.423C66.5854 62.7975 66.0783 62.2904 65.4528 62.2904H25.035C24.4095 62.2904 23.9025 62.7975 23.9025 63.423Z" fill="#C7C5C5"/>
<path fill-rule="evenodd" clip-rule="evenodd" d="M23.9025 57.194C23.9025 57.8194 24.4095 58.3265 25.035 58.3265H36.9976C37.623 58.3265 38.1301 57.8194 38.1301 57.194C38.1301 56.5685 37.623 56.0614 36.9976 56.0614H25.035C24.4095 56.0614 23.9025 56.5685 23.9025 57.194Z" fill="#C7C5C5"/>
<path fill-rule="evenodd" clip-rule="evenodd" d="M23.9025 51.5312C23.9025 52.1567 24.4095 52.6637 25.035 52.6637H46.6723C47.2978 52.6637 47.8049 52.1567 47.8049 51.5312C47.8049 50.9057 47.2978 50.3986 46.6723 50.3986H25.035C24.4095 50.3986 23.9025 50.9057 23.9025 51.5312Z" fill="#C7C5C5"/>
<path fill-rule="evenodd" clip-rule="evenodd" d="M7.86135 64.0161C7.50887 63.6567 7.33224 63.2158 7.33224 62.6945C7.33224 62.1734 7.50887 61.7325 7.86135 61.372C8.21383 61.0127 8.64626 60.8336 9.15761 60.8336C9.66869 60.8336 10.1011 61.0127 10.4536 61.372C10.8061 61.7325 10.9827 62.1734 10.9827 62.6945C10.9827 63.2158 10.8061 63.6567 10.4536 64.0161C10.1011 64.3755 9.66869 64.5556 9.15761 64.5556C8.64626 64.5556 8.21383 64.3755 7.86135 64.0161ZM10.6924 59.9875H7.53992V58.4013C7.53992 57.8235 7.6123 57.3903 7.7581 57.101C7.90285 56.8125 8.21013 56.4206 8.68097 55.9272L10.0909 54.4476C10.2986 54.1935 10.4018 53.8658 10.4018 53.4643C10.4018 53.0618 10.291 52.7274 10.07 52.4592C9.8492 52.1917 9.55891 52.0574 9.19885 52.0574C8.83984 52.0574 8.53909 52.2167 8.29662 52.5338C8.05492 52.8511 7.90651 53.2698 7.85112 53.792H4.55286C4.70519 52.3824 5.21 51.2755 6.06703 50.4715C6.92432 49.6686 7.99953 49.2661 9.29292 49.2661C10.5853 49.2661 11.6359 49.6254 12.4451 50.345C13.2535 51.0637 13.6585 52.0574 13.6585 53.3263C13.6585 53.8908 13.589 54.3096 13.4508 54.5845C13.3129 54.8595 13.2159 55.0569 13.1605 55.1768C13.1051 55.2966 12.9771 55.4767 12.777 55.7162C12.5758 55.9557 12.4415 56.111 12.372 56.1811C12.0401 56.5194 11.7263 56.8365 11.4282 57.1327C11.1314 57.4287 10.9338 57.6722 10.8379 57.8619C10.7402 58.0526 10.6924 58.3382 10.6924 58.7186V59.9875Z" fill="white"/>
</svg>
