<?xml version="1.0" encoding="utf-8"?>
<!-- Generator: Adobe Illustrator 24.0.2, SVG Export Plug-In . SVG Version: 6.00 Build 0)  -->
<svg version="1.1" id="Layer_1" xmlns="http://www.w3.org/2000/svg" xmlns:xlink="http://www.w3.org/1999/xlink" x="0px" y="0px"
	 viewBox="0 0 63 69.1" style="enable-background:new 0 0 63 69.1;" xml:space="preserve">
<style type="text/css">
	.st0{fill-rule:evenodd;clip-rule:evenodd;fill:#FFFFFF;filter:url(#Adobe_OpacityMaskFilter);}
	.st1{mask:url(#mask0_1_);}
	.st2{fill-rule:evenodd;clip-rule:evenodd;fill:#4DB3B7;}
	.st3{fill-rule:evenodd;clip-rule:evenodd;fill:#FFFFFF;}
	.st4{fill-rule:evenodd;clip-rule:evenodd;fill:#FFFFFF;filter:url(#Adobe_OpacityMaskFilter_1_);}
	.st5{mask:url(#mask1_1_);}
	.st6{fill-rule:evenodd;clip-rule:evenodd;fill:#485267;}
	.st7{fill-rule:evenodd;clip-rule:evenodd;fill:#F5B33C;}
	.st8{fill-rule:evenodd;clip-rule:evenodd;fill:#FFFFFF;filter:url(#Adobe_OpacityMaskFilter_2_);}
	.st9{mask:url(#mask2_1_);}
	.st10{fill-rule:evenodd;clip-rule:evenodd;fill:#82CACD;}
	.st11{fill-rule:evenodd;clip-rule:evenodd;fill:#FFFFFF;filter:url(#Adobe_OpacityMaskFilter_3_);}
	.st12{mask:url(#mask3_1_);}
	.st13{fill-rule:evenodd;clip-rule:evenodd;fill:#6DB585;}
</style>
<defs>
	<filter id="Adobe_OpacityMaskFilter" filterUnits="userSpaceOnUse" x="26.7" y="0.6" width="36.3" height="68.5">
		<feColorMatrix  type="matrix" values="1 0 0 0 0  0 1 0 0 0  0 0 1 0 0  0 0 0 1 0"/>
	</filter>
</defs>
<mask maskUnits="userSpaceOnUse" x="26.7" y="0.6" width="36.3" height="68.5" id="mask0_1_">
	<path class="st0" d="M63,0.6v68.5H26.7V0.6H63z"/>
</mask>
<g class="st1">
	<path class="st2" d="M56.3,0.6H33.4c-4.5,0-6.7,2.3-6.7,6.7v55.1c0,4.5,2.3,6.7,6.7,6.7l22.8,0c4.5,0,6.7-2.3,6.7-6.7V7.3
		C63,2.9,60.7,0.6,56.3,0.6z"/>
</g>
<path class="st3" d="M48.3,4.9h-6.9c-0.4,0-0.8,0.4-0.8,0.8c0,0.4,0.4,0.8,0.8,0.8h6.9c0.4,0,0.8-0.4,0.8-0.8
	C49.1,5.2,48.8,4.9,48.3,4.9z"/>
<defs>
	<filter id="Adobe_OpacityMaskFilter_1_" filterUnits="userSpaceOnUse" x="30.2" y="9.6" width="29.2" height="57.3">
		<feColorMatrix  type="matrix" values="1 0 0 0 0  0 1 0 0 0  0 0 1 0 0  0 0 0 1 0"/>
	</filter>
</defs>
<mask maskUnits="userSpaceOnUse" x="30.2" y="9.6" width="29.2" height="57.3" id="mask1_1_">
	<path class="st4" d="M26.6,175.6h92.9V0.6H26.6V175.6z"/>
</mask>
<g class="st5">
	<path class="st6" d="M30.2,59.7h29.2V9.6H30.2V59.7z"/>
	<path class="st3" d="M47.7,64.2c0,1.5-1.2,2.7-2.7,2.7c-1.5,0-2.7-1.2-2.7-2.7c0-1.5,1.2-2.7,2.7-2.7
		C46.5,61.5,47.7,62.7,47.7,64.2z"/>
	<path class="st7" d="M43.8,26.7v8.8c0,1.4,2.2,1.4,2.2,0v-8.8C46.1,25.3,43.8,25.3,43.8,26.7z"/>
	<path class="st7" d="M46.6,40.1c0,0.9-0.7,1.6-1.6,1.6c-0.9,0-1.6-0.7-1.6-1.6c0-0.9,0.7-1.6,1.6-1.6
		C45.8,38.4,46.6,39.2,46.6,40.1z"/>
</g>
<defs>
	<filter id="Adobe_OpacityMaskFilter_2_" filterUnits="userSpaceOnUse" x="0.1" y="0.6" width="36.6" height="68.6">
		<feColorMatrix  type="matrix" values="1 0 0 0 0  0 1 0 0 0  0 0 1 0 0  0 0 0 1 0"/>
	</filter>
</defs>
<mask maskUnits="userSpaceOnUse" x="0.1" y="0.6" width="36.6" height="68.6" id="mask2_1_">
	<path class="st8" d="M36.6,0.6v68.6H0.1V0.6H36.6z"/>
</mask>
<g class="st9">
	<path class="st10" d="M29.9,0.6h-23c-4.5,0-6.8,2.3-6.8,6.7v55.2c0,4.5,2.3,6.7,6.8,6.7l23,0c4.5,0,6.8-2.3,6.8-6.7V7.3
		C36.6,2.9,34.4,0.6,29.9,0.6z"/>
</g>
<path class="st3" d="M21.9,4.9h-7c-0.4,0-0.8,0.4-0.8,0.8c0,0.4,0.4,0.8,0.8,0.8h7c0.4,0,0.8-0.4,0.8-0.8
	C22.6,5.2,22.3,4.9,21.9,4.9z"/>
<defs>
	<filter id="Adobe_OpacityMaskFilter_3_" filterUnits="userSpaceOnUse" x="3.5" y="9.2" width="29.4" height="57.8">
		<feColorMatrix  type="matrix" values="1 0 0 0 0  0 1 0 0 0  0 0 1 0 0  0 0 0 1 0"/>
	</filter>
</defs>
<mask maskUnits="userSpaceOnUse" x="3.5" y="9.2" width="29.4" height="57.8" id="mask3_1_">
	<path class="st11" d="M0,175.8h93.5V0.6H0V175.8z"/>
</mask>
<g class="st12">
	<path class="st6" d="M3.5,59.3H33V9.2H3.5V59.3z"/>
	<path class="st3" d="M21.2,64.3c0,1.5-1.2,2.7-2.7,2.7s-2.7-1.2-2.7-2.7c0-1.5,1.2-2.7,2.7-2.7S21.2,62.8,21.2,64.3z"/>
	<path class="st13" d="M11.2,35.4h14.6c1.4,0,1.4-2.2,0-2.2H11.2C9.7,33.1,9.7,35.4,11.2,35.4z"/>
	<path class="st13" d="M17.2,27v14.5c0,1.4,2.2,1.4,2.2,0V27C19.5,25.5,17.2,25.5,17.2,27z"/>
</g>
</svg>
