<svg width="58" height="72" viewBox="0 0 58 72" fill="none" xmlns="http://www.w3.org/2000/svg">
<path d="M56.9466 72H1.03141C0.757682 72.0005 0.495001 71.9053 0.301448 71.7354C0.107896 71.5656 -0.00058191 71.335 2.34791e-06 71.0948V8.90521C-0.00058191 8.66498 0.107896 8.43443 0.301448 8.26456C0.495001 8.09469 0.757682 7.99949 1.03141 8H56.9686C57.2423 7.99949 57.505 8.09469 57.6986 8.26456C57.8921 8.43443 58.0006 8.66498 58 8.90521V71.1141C57.9732 71.6082 57.5103 71.9975 56.9466 72Z" fill="#3E8F92"/>
<path d="M6 12V66H43.9793H52V58.4178V12H6Z" fill="white"/>
<path d="M33.6872 5.96181V4.41301C33.6872 1.97577 31.5836 0 28.9887 0C26.3938 0 24.2902 1.97577 24.2902 4.41301V5.96181H16V15H42V5.96181H33.6872Z" fill="#F8CA77"/>
<path d="M34 6V4.44128C34 1.98843 31.7614 0 29 0C26.2386 0 24 1.98843 24 4.44128V6" fill="#F5B33C"/>
<rect x="13" y="49" width="7" height="7" rx="3.5" fill="#9ACCAB" fill-opacity="0.5"/>
<rect x="13" y="36" width="7" height="7" rx="3.5" fill="#9ACCAB" fill-opacity="0.5"/>
<rect x="13" y="24" width="7" height="7" rx="3.5" fill="#9ACCAB" fill-opacity="0.5"/>
<path d="M23.0781 29H46.9219C48.3584 29 48.3603 26 46.9219 26H23.0781C21.6416 26 21.6397 29 23.0781 29Z" fill="#495B7A"/>
<path d="M19.4455 36.1169L19.446 36.1172L19.4455 36.1169ZM19.4455 36.1169L19.4451 36.1165L19.4455 36.1169ZM14.4943 38.7049L14.494 38.7052L14.4943 38.7049ZM14.4943 38.7049L14.4946 38.7046L14.4943 38.7049ZM15.7062 41.2882L15.7062 41.2882C16.1075 41.6653 16.6613 41.4893 16.9023 41.1751C16.9023 41.1751 16.9023 41.1751 16.9023 41.1751L19.9159 37.2457L19.9159 37.2457L20.3452 36.686L20.3452 36.686C20.4893 36.4981 20.5436 36.2559 20.4622 36.0206C20.3895 35.8105 20.2322 35.6739 20.0885 35.5986C19.8152 35.4556 19.3453 35.4269 19.0492 35.8129L19.0492 35.8129L16.1633 39.5758C15.631 39.0837 15.1888 38.6721 14.8364 38.3409L14.8364 38.3409C14.4724 37.9987 14.0057 38.1138 13.7589 38.3363C13.633 38.4499 13.5232 38.6212 13.5032 38.834C13.4815 39.0644 13.5715 39.2817 13.7401 39.4402C13.7401 39.4402 13.7401 39.4402 13.7401 39.4402L15.7062 41.2882Z" fill="#6DB585" stroke="#6DB585"/>
<path d="M19.4455 24.1169L19.446 24.1172L19.4455 24.1169ZM19.4455 24.1169L19.4451 24.1165L19.4455 24.1169ZM14.4943 26.7049L14.494 26.7052L14.4943 26.7049ZM14.4943 26.7049L14.4946 26.7046L14.4943 26.7049ZM15.7062 29.2882L15.7062 29.2882C16.1075 29.6653 16.6613 29.4893 16.9023 29.1751C16.9023 29.1751 16.9023 29.1751 16.9023 29.1751L19.9159 25.2457L19.9159 25.2457L20.3452 24.686L20.3452 24.686C20.4893 24.4981 20.5436 24.2559 20.4622 24.0206C20.3895 23.8105 20.2322 23.6739 20.0885 23.5986C19.8152 23.4556 19.3453 23.4269 19.0492 23.8129L19.0492 23.8129L16.1633 27.5758C15.631 27.0837 15.1888 26.6721 14.8364 26.3409L14.8364 26.3409C14.4724 25.9987 14.0057 26.1138 13.7589 26.3363C13.633 26.4499 13.5232 26.6212 13.5032 26.834C13.4815 27.0644 13.5715 27.2817 13.7401 27.4402C13.7401 27.4402 13.7401 27.4402 13.7401 27.4402L15.7062 29.2882Z" fill="#6DB585" stroke="#6DB585"/>
<path d="M19.4455 49.1169L19.446 49.1172L19.4455 49.1169ZM19.4455 49.1169L19.4451 49.1165L19.4455 49.1169ZM14.4943 51.7049L14.494 51.7052L14.4943 51.7049ZM14.4943 51.7049L14.4946 51.7046L14.4943 51.7049ZM15.7062 54.2882L15.7062 54.2882C16.1075 54.6653 16.6613 54.4893 16.9023 54.1751C16.9023 54.1751 16.9023 54.1751 16.9023 54.1751L19.9159 50.2457L19.9159 50.2457L20.3452 49.686L20.3452 49.686C20.4893 49.4981 20.5436 49.2559 20.4622 49.0206C20.3895 48.8105 20.2322 48.6739 20.0885 48.5986C19.8152 48.4556 19.3453 48.4269 19.0492 48.8129L19.0492 48.8129L16.1633 52.5758C15.631 52.0837 15.1888 51.6721 14.8364 51.3409L14.8364 51.3409C14.4724 50.9987 14.0057 51.1138 13.7589 51.3363C13.633 51.4499 13.5232 51.6212 13.5032 51.834C13.4815 52.0644 13.5715 52.2817 13.7401 52.4402C13.7401 52.4402 13.7401 52.4402 13.7401 52.4402L15.7062 54.2882Z" fill="#6DB585" stroke="#6DB585"/>
<path d="M23.0781 41H46.9219C48.3584 41 48.3603 39 46.9219 39H23.0781C21.6416 39 21.6397 41 23.0781 41Z" fill="#495B7A"/>
<path d="M23.0782 54H46.9218C48.3585 54 48.3603 51 46.9218 51H23.0782C21.6415 51 21.6397 54 23.0782 54Z" fill="#495B7A"/>
</svg>
