<svg width="18" height="18" viewBox="0 0 18 18" fill="none" xmlns="http://www.w3.org/2000/svg">
<path d="M13.38 6.5C13.38 6.5 7.74 12.2 7.7 12.22C7.48 12.44 7.12 12.44 6.9 12.22L4.14 9.44C3.92 9.22 3.92 8.86 4.12 8.64C4.34 8.42 4.7 8.42 4.92 8.62C4.92 8.62 4.92 8.62 4.94 8.64L7.32 11.02L12.6 5.7C12.82 5.48 13.18 5.48 13.4 5.7C13.6 5.92 13.6 6.28 13.38 6.5ZM18 9C18 13.98 13.98 18 9 18C4.02 18 0 13.98 0 9C0 4.02 4.02 0 9 0C13.98 0 18 4.02 18 9ZM16.9 9C16.9 4.64 13.36 1.12 9 1.12C4.66 1.12 1.12 4.64 1.12 9V9.02C1.12 13.38 4.66 16.9 9.02 16.9C13.38 16.88 16.9 13.36 16.9 9Z" fill="white"/>
</svg>
