<svg width="24" height="28" viewBox="0 0 24 28" fill="none" xmlns="http://www.w3.org/2000/svg">
<path fill-rule="evenodd" clip-rule="evenodd" d="M21.3901 28H2.6103C1.16855 28 0 26.839 0 25.4074V11.9281C0 10.4961 1.16855 9.33549 2.6103 9.33549H3.11279V8.82691H3.12932C3.13106 3.95198 7.1109 0 12.0196 0C16.9296 0 20.8672 3.95327 20.8672 8.82994C20.8672 9.00839 20.8742 9.17389 20.8746 9.33549H21.3897C22.8315 9.33549 24 10.4961 24 11.9281V25.4074C24.0004 26.8394 22.8323 28 21.3901 28ZM12.0374 3.11241C8.86546 3.11241 6.29431 5.66611 6.29301 8.81568H6.28213V9.33549H17.7562V9.29444C17.7709 9.14407 17.7823 8.98852 17.7823 8.81784C17.7818 5.66698 15.2098 3.11241 12.0374 3.11241ZM20.8833 13.4957C20.8833 12.9228 20.4156 12.4587 19.8392 12.4587H4.16387C3.58743 12.4587 3.11975 12.9228 3.11975 13.4957V23.857C3.11975 24.43 3.58743 24.8941 4.16387 24.8941H19.8392C20.4156 24.8941 20.8833 24.4296 20.8833 23.857V13.4957ZM12.2545 21.7683H11.7324C11.0142 21.7683 10.4321 21.1901 10.4321 20.4767V16.8938C10.4321 16.1804 11.0142 15.6022 11.7324 15.6022H12.2545C12.9728 15.6022 13.5549 16.1804 13.5549 16.8938V20.4767C13.5553 21.1901 12.9728 21.7683 12.2545 21.7683Z" fill="black"/>
</svg>
