<svg width="67" height="42" viewBox="0 0 67 42" fill="none" xmlns="http://www.w3.org/2000/svg">
<g style="mix-blend-mode:multiply">
<path d="M66.4516 4.37922C66.4231 3.82864 66.226 3.29859 65.8852 2.85619C65.5651 2.52607 65.176 2.2654 64.7436 2.09147C64.3113 1.91754 63.8455 1.83432 63.3773 1.84733C61.6486 1.83804 59.9613 2.35781 58.5579 3.33198C57.1659 4.3041 55.9356 5.47531 54.9092 6.80525C54.5952 7.19431 54.2383 7.54925 53.8447 7.86385C55.9482 9.58289 56.2849 12.6489 58.1384 14.6176C58.5409 15.074 59.0578 15.4233 59.6399 15.6319C60.2413 15.8161 60.8916 15.7821 61.4688 15.5364C62.0461 15.2906 62.5106 14.85 62.7751 14.2972C63.0655 13.6096 63.1778 12.8641 63.1024 12.1251C63.0269 11.3862 62.7659 10.6761 62.342 10.0565C62.2211 9.86556 62.0621 9.69969 61.8743 9.56851C61.6864 9.43732 61.4735 9.34343 61.2478 9.29228C62.6245 9.29614 63.9534 8.80501 64.9754 7.91465C65.4771 7.46739 65.8697 6.9183 66.1249 6.30695C66.3802 5.6956 66.4917 5.03721 66.4516 4.37922Z" fill="white"/>
</g>
<g style="mix-blend-mode:multiply">
<path d="M46.2352 1.81174C46.4103 1.28702 46.7428 0.824236 47.1905 0.481957C47.5882 0.242978 48.0339 0.0883286 48.4982 0.0282675C48.9625 -0.0317936 49.4347 0.00410507 49.8835 0.133583C51.5558 0.556258 53.0463 1.47961 54.1408 2.77101C55.2249 4.05759 56.0995 5.49613 56.7344 7.03708C56.9334 7.49134 57.183 7.92338 57.4788 8.32558C54.9864 9.46095 53.8391 12.3385 51.5211 13.7774C51.01 14.1178 50.417 14.326 49.7988 14.3823C49.1686 14.41 48.5495 14.2148 48.0578 13.8333C47.5661 13.4518 47.2355 12.9103 47.1281 12.3102C47.0319 11.5735 47.1232 10.8253 47.3942 10.1304C47.6651 9.43542 48.1076 8.81471 48.6831 8.322C48.8511 8.16775 49.0491 8.04721 49.2657 7.96739C49.4823 7.88756 49.7132 7.85004 49.945 7.85699C48.614 7.51697 47.462 6.71078 46.7134 5.59559C46.3487 5.03827 46.1167 4.40981 46.034 3.7555C45.9513 3.10119 46.02 2.43732 46.2352 1.81174Z" fill="white"/>
</g>
<g style="mix-blend-mode:multiply">
<path d="M66.4516 4.37922C66.4231 3.82864 66.226 3.29859 65.8852 2.85619C65.5651 2.52607 65.176 2.2654 64.7436 2.09147C64.3113 1.91754 63.8455 1.83432 63.3773 1.84733C61.6486 1.83804 59.9613 2.35781 58.5579 3.33198C57.1659 4.3041 55.9356 5.47531 54.9092 6.80525C54.5952 7.19431 54.2383 7.54925 53.8447 7.86385C55.9482 9.58289 56.2849 12.6489 58.1384 14.6176C58.5409 15.074 59.0578 15.4233 59.6399 15.6319C60.2413 15.8161 60.8916 15.7821 61.4688 15.5364C62.0461 15.2906 62.5106 14.85 62.7751 14.2972C63.0655 13.6096 63.1778 12.8641 63.1024 12.1251C63.0269 11.3862 62.7659 10.6761 62.342 10.0565C62.2211 9.86556 62.0621 9.69969 61.8743 9.56851C61.6864 9.43732 61.4735 9.34343 61.2478 9.29228C62.6245 9.29614 63.9534 8.80501 64.9754 7.91465C65.4771 7.46739 65.8697 6.9183 66.1249 6.30695C66.3802 5.6956 66.4917 5.03721 66.4516 4.37922Z" fill="#E566A1"/>
</g>
<g style="mix-blend-mode:multiply">
<path d="M46.2352 1.81174C46.4103 1.28702 46.7428 0.824236 47.1905 0.481957C47.5882 0.242978 48.0339 0.0883286 48.4982 0.0282675C48.9625 -0.0317936 49.4347 0.00410507 49.8835 0.133583C51.5558 0.556258 53.0463 1.47961 54.1408 2.77101C55.2249 4.05759 56.0995 5.49613 56.7344 7.03708C56.9334 7.49134 57.183 7.92338 57.4788 8.32558C54.9864 9.46095 53.8391 12.3385 51.5211 13.7774C51.01 14.1178 50.417 14.326 49.7988 14.3823C49.1686 14.41 48.5495 14.2148 48.0578 13.8333C47.5661 13.4518 47.2355 12.9103 47.1281 12.3102C47.0319 11.5735 47.1232 10.8253 47.3942 10.1304C47.6651 9.43542 48.1076 8.81471 48.6831 8.322C48.8511 8.16775 49.0491 8.04721 49.2657 7.96739C49.4823 7.88756 49.7132 7.85004 49.945 7.85699C48.614 7.51697 47.462 6.71078 46.7134 5.59559C46.3487 5.03827 46.1167 4.40981 46.034 3.7555C45.9513 3.10119 46.02 2.43732 46.2352 1.81174Z" fill="#ECA0C6"/>
</g>
<path d="M36.4934 10.4924C36.0134 9.53428 35.2622 8.7412 34.3348 8.21361C33.5307 7.87006 32.6633 7.70276 31.7902 7.7228C30.9171 7.74284 30.0582 7.94976 29.2705 8.32984C26.3172 9.63099 23.8492 11.8421 22.2207 14.6456C20.6103 17.4367 19.4313 20.459 18.7244 23.6082C18.4944 24.54 18.1646 25.4438 17.7407 26.3038C22.6718 27.7598 25.6485 32.9596 30.3495 35.0504C31.3929 35.5559 32.5475 35.7834 33.703 35.7111C34.8721 35.5804 35.9537 35.0242 36.7448 34.1469C37.536 33.2695 37.9823 32.1313 38 30.9459C37.9561 29.5008 37.5633 28.0883 36.8557 26.8308C36.1481 25.5733 35.147 24.5086 33.9391 23.7289C33.5834 23.4813 33.1826 23.3072 32.7597 23.2169C32.3368 23.1266 31.9003 23.1219 31.4756 23.2029C33.8248 22.1604 35.7046 20.2734 36.7486 17.9098C37.2529 16.7314 37.4916 15.4549 37.4475 14.1723C37.4033 12.8896 37.0775 11.6328 36.4934 10.4924Z" fill="white"/>
<path d="M0.0302284 21.3331C-0.082472 20.2658 0.121504 19.1887 0.616338 18.2383C1.10669 17.5098 1.7451 16.8948 2.48922 16.434C3.23335 15.9732 4.06617 15.6771 4.93246 15.5654C8.11343 15.0429 11.3769 15.55 14.254 17.0139C17.1095 18.4775 19.727 20.3712 22.0164 22.6298C22.7115 23.2866 23.4755 23.8651 24.2947 24.3554C20.937 28.2758 21.2365 34.2715 18.4137 38.5992C17.8095 39.5946 16.9623 40.4172 15.9528 40.9886C14.9006 41.5183 13.6927 41.6428 12.5558 41.3387C11.4189 41.0346 10.4312 40.3227 9.77802 39.3367C9.03675 38.099 8.60606 36.6977 8.52328 35.2543C8.4405 33.8109 8.70811 32.3689 9.30293 31.0533C9.46829 30.6507 9.71129 30.2852 10.0179 29.9781C10.3244 29.6709 10.6884 29.4281 11.0888 29.2638C8.55437 29.6733 5.95949 29.1168 3.81001 27.7027C2.75182 26.9889 1.86392 26.0473 1.21031 24.9458C0.556702 23.8444 0.153659 22.6105 0.0302284 21.3331Z" fill="white"/>
<g style="mix-blend-mode:multiply">
<path d="M36.4934 10.4924C36.0134 9.53428 35.2622 8.7412 34.3348 8.21361C33.5307 7.87006 32.6633 7.70276 31.7902 7.7228C30.9171 7.74284 30.0582 7.94976 29.2705 8.32984C26.3172 9.63099 23.8492 11.8421 22.2207 14.6456C20.6103 17.4367 19.4313 20.459 18.7244 23.6082C18.4944 24.54 18.1646 25.4438 17.7407 26.3038C22.6718 27.7598 25.6485 32.9596 30.3495 35.0504C31.3929 35.5559 32.5475 35.7834 33.703 35.7111C34.8721 35.5804 35.9537 35.0242 36.7448 34.1469C37.536 33.2695 37.9823 32.1313 38 30.9459C37.9561 29.5008 37.5633 28.0883 36.8557 26.8308C36.1481 25.5733 35.147 24.5086 33.9391 23.7289C33.5834 23.4813 33.1826 23.3072 32.7597 23.2169C32.3368 23.1266 31.9003 23.1219 31.4756 23.2029C33.8248 22.1604 35.7046 20.2734 36.7486 17.9098C37.2529 16.7314 37.4916 15.4549 37.4475 14.1723C37.4033 12.8896 37.0775 11.6328 36.4934 10.4924Z" fill="#DA7579"/>
</g>
<g style="mix-blend-mode:multiply">
<path d="M0.0302284 21.3331C-0.082472 20.2658 0.121504 19.1887 0.616338 18.2383C1.10669 17.5098 1.7451 16.8948 2.48922 16.434C3.23335 15.9732 4.06617 15.6771 4.93246 15.5654C8.11343 15.0429 11.3769 15.55 14.254 17.0139C17.1095 18.4775 19.727 20.3712 22.0164 22.6298C22.7115 23.2866 23.4755 23.8651 24.2947 24.3554C20.937 28.2758 21.2365 34.2715 18.4137 38.5992C17.8095 39.5946 16.9623 40.4172 15.9528 40.9886C14.9006 41.5183 13.6927 41.6428 12.5558 41.3387C11.4189 41.0346 10.4312 40.3227 9.77802 39.3367C9.03675 38.099 8.60606 36.6977 8.52328 35.2543C8.4405 33.8109 8.70811 32.3689 9.30293 31.0533C9.46829 30.6507 9.71129 30.2852 10.0179 29.9781C10.3244 29.6709 10.6884 29.4281 11.0888 29.2638C8.55437 29.6733 5.95949 29.1168 3.81001 27.7027C2.75182 26.9889 1.86392 26.0473 1.21031 24.9458C0.556702 23.8444 0.153659 22.6105 0.0302284 21.3331Z" fill="#CC4045"/>
</g>
</svg>
