<svg width="48" height="42" viewBox="0 0 48 42" fill="none" xmlns="http://www.w3.org/2000/svg">
<g style="mix-blend-mode:multiply">
<path d="M47.3129 18.511C47.537 17.267 47.3736 15.9868 46.8434 14.8325C45.9103 12.9728 43.8378 11.8849 41.7677 11.3578C37.9697 10.3908 33.878 10.9349 30.2251 12.3288C26.5723 13.7227 23.3094 15.9244 20.2586 18.3124C19.3537 19.0288 18.3708 19.6482 17.3271 20.1595C21.1277 25.0237 20.2784 32.0376 23.3904 37.3379C24.051 38.5535 25.0234 39.5853 26.2148 40.3349C27.4621 41.039 28.9327 41.2796 30.3507 41.0116C31.7687 40.7436 33.0366 39.9854 33.9166 38.8792C34.9247 37.4844 35.5652 35.8735 35.7827 34.1859C36.0002 32.4983 35.7881 30.7849 35.1648 29.1943C34.9945 28.7088 34.7261 28.2608 34.375 27.8763C34.0239 27.4918 33.5972 27.1784 33.1196 26.9542C36.1934 27.633 39.4189 27.1828 42.1674 25.6912C43.5219 24.9361 44.6859 23.9005 45.5757 22.6589C46.4655 21.4173 47.0588 20.0006 47.3129 18.511Z" fill="white"/>
</g>
<path d="M3.4988 2.93889C4.16423 1.85186 5.14884 0.979803 6.32801 0.433098C8.28806 -0.398317 10.5965 0.0709971 12.5264 0.965686C16.0672 2.6071 18.8158 5.5826 20.6594 8.93015C22.5029 12.2777 23.507 15.996 24.2242 19.7233C24.4316 20.8351 24.7635 21.9218 25.2142 22.9642C19.0527 24.2875 14.9859 30.1578 9.05534 32.244C7.73568 32.7557 6.30215 32.9324 4.89162 32.7571C3.46911 32.5123 2.18807 31.7748 1.28887 30.6832C0.38967 29.5915 -0.06588 28.2207 0.00770364 26.8279C0.177718 25.1352 0.772748 23.5081 1.74125 22.0874C2.70975 20.6668 4.02252 19.4954 5.56584 18.6749C6.0217 18.412 6.52709 18.2391 7.05271 18.1662C7.57833 18.0933 8.11372 18.1218 8.62783 18.2502C5.83208 16.8427 3.67957 14.4809 2.58989 11.625C2.06638 10.2024 1.87637 8.68547 2.03354 7.18344C2.19071 5.68142 2.69115 4.23174 3.4988 2.93889Z" fill="white"/>
<path d="M47.3222 18.5156C47.5463 17.2716 47.3829 15.9914 46.8527 14.837C45.9195 12.9773 43.8471 11.8894 41.7769 11.3623C37.9789 10.3953 33.8872 10.9394 30.2344 12.3333C26.5816 13.7272 23.3187 15.9289 20.2678 18.3169C19.3629 19.0333 18.38 19.6527 17.3364 20.164C21.1369 25.0282 20.2876 32.0421 23.3997 37.3425C24.0603 38.558 25.0327 39.5898 26.2241 40.3394C27.4714 41.0435 28.942 41.2842 30.36 41.0161C31.778 40.7481 33.0459 39.9899 33.9258 38.8837C34.9339 37.4889 35.5745 35.878 35.792 34.1904C36.0095 32.5028 35.7974 30.7894 35.1741 29.1988C35.0038 28.7133 34.7353 28.2654 34.3843 27.8808C34.0332 27.4963 33.6065 27.1829 33.1289 26.9588C36.2027 27.6376 39.4282 27.1873 42.1767 25.6957C43.5311 24.9406 44.6952 23.905 45.585 22.6634C46.4748 21.4218 47.0681 20.0052 47.3222 18.5156Z" fill="white"/>
<g style="mix-blend-mode:multiply">
<path d="M3.4988 2.93889C4.16423 1.85186 5.14884 0.979803 6.32801 0.433098C8.28806 -0.398317 10.5965 0.0709971 12.5264 0.965686C16.0672 2.6071 18.8158 5.5826 20.6594 8.93015C22.5029 12.2777 23.507 15.996 24.2242 19.7233C24.4316 20.8351 24.7635 21.9218 25.2142 22.9642C19.0527 24.2875 14.9859 30.1578 9.05534 32.244C7.73568 32.7557 6.30215 32.9324 4.89162 32.7571C3.46911 32.5123 2.18807 31.7748 1.28887 30.6832C0.38967 29.5915 -0.06588 28.2207 0.00770364 26.8279C0.177718 25.1352 0.772748 23.5081 1.74125 22.0874C2.70975 20.6668 4.02252 19.4954 5.56584 18.6749C6.0217 18.412 6.52709 18.2391 7.05271 18.1662C7.57833 18.0933 8.11372 18.1218 8.62783 18.2502C5.83208 16.8427 3.67957 14.4809 2.58989 11.625C2.06638 10.2024 1.87637 8.68547 2.03354 7.18344C2.19071 5.68142 2.69115 4.23174 3.4988 2.93889Z" fill="#F9CC7D"/>
</g>
<g style="mix-blend-mode:multiply">
<path d="M47.3227 18.5156C47.5468 17.2716 47.3833 15.9914 46.8532 14.837C45.92 12.9773 43.8476 11.8894 41.7774 11.3623C37.9794 10.3953 33.8877 10.9394 30.2349 12.3333C26.5821 13.7272 23.3192 15.9289 20.2683 18.3169C19.3634 19.0333 18.3805 19.6527 17.3369 20.164C21.1374 25.0282 20.2881 32.0421 23.4001 37.3425C24.0608 38.558 25.0332 39.5898 26.2246 40.3394C27.4718 41.0435 28.9424 41.2842 30.3605 41.0161C31.7785 40.7481 33.0464 39.9899 33.9263 38.8837C34.9344 37.4889 35.575 35.878 35.7925 34.1904C36.01 32.5028 35.7979 30.7894 35.1746 29.1988C35.0043 28.7133 34.7358 28.2654 34.3848 27.8808C34.0337 27.4963 33.607 27.1829 33.1294 26.9588C36.2032 27.6376 39.4287 27.1873 42.1772 25.6957C43.5316 24.9406 44.6957 23.905 45.5855 22.6634C46.4753 21.4218 47.0686 20.0052 47.3227 18.5156Z" fill="#F5B33C"/>
</g>
</svg>
