<svg width="98" height="75" viewBox="0 0 98 75" fill="none" xmlns="http://www.w3.org/2000/svg">
<g clip-path="url(#clip0)">
<path d="M72.1551 65.8196C72.2298 63.94 72.9612 62.8308 73.9934 62.8308C75.0256 62.8308 75.5328 63.7332 75.5505 65.6501L72.1551 65.8196ZM77.953 66.4973C78.0474 64.1095 76.9582 62.0585 74.1448 62.0585C71.7993 62.0585 69.6779 64.0523 69.6779 66.7593C69.6779 69.3738 71.3864 71.141 74.0681 71.141C75.3067 71.141 76.6967 70.5007 77.8587 69.5432L77.6621 69.1098C76.5552 69.5235 75.8041 69.7008 74.941 69.7008C73.0477 69.7008 72.165 68.5542 72.1453 66.5052L77.953 66.4973ZM63.2174 63.3194L64.3813 62.8682V62.3402H59.3344V62.9057L60.4787 63.3568L63.7817 71.0405H65.1697L68.396 63.5204L69.6543 62.8998V62.3343H65.9384V62.8623L67.0276 63.4534L66.1193 66.1387L65.2641 68.365H65.15L63.2174 63.3194ZM55.6245 64.0306V69.8781L54.3878 70.2919V70.8376H59.2381V70.2919L58.0761 69.8781V62.1944L57.7557 62.0073L54.435 62.7579V63.2426L55.6245 64.0306ZM55.2686 58.8038C55.2651 59.0039 55.3021 59.2027 55.3774 59.3881C55.4528 59.5735 55.5649 59.7416 55.707 59.8824C55.849 60.0231 56.0181 60.1335 56.204 60.2068C56.3899 60.2801 56.5887 60.3149 56.7884 60.309C57.2165 60.309 57.627 60.1386 57.9297 59.8352C58.2324 59.5319 58.4025 59.1205 58.4025 58.6915C58.4075 58.4884 58.3709 58.2865 58.2951 58.0982C58.2192 57.9099 58.1057 57.7391 57.9614 57.5964C57.8172 57.4537 57.6453 57.3422 57.4564 57.2686C57.2675 57.195 57.0656 57.1609 56.8631 57.1685C56.4363 57.1768 56.0299 57.3529 55.7316 57.6589C55.4333 57.9648 55.267 58.376 55.2686 58.8038ZM53.5109 70.2308L53.4913 69.6397C53.0981 69.6772 52.7049 69.6969 52.404 69.6969C51.7847 69.6969 51.421 69.6397 51.0907 69.4132C50.7152 69.1511 50.6031 68.7374 50.6031 67.9474V63.5637H53.4539V62.3028H50.6031V59.6706H49.9072L48.5191 61.7965L46.6985 63.0554V63.5637H48.1436V68.8477C48.1436 70.3707 48.8946 71.0839 50.377 71.0839C51.4745 71.0605 52.55 70.7705 53.5109 70.2387V70.2308ZM43.0594 69.2221C42.6485 69.5065 42.1693 69.6758 41.6713 69.7126C40.8082 69.7126 40.3206 69.2418 40.3206 68.3769C40.3206 67.4371 41.052 66.7416 43.0594 66.6667V69.2221ZM45.3852 64.6729C45.3852 62.8308 44.4297 62.0585 42.383 62.0585C40.417 62.0585 38.3506 62.9431 38.3506 64.2395C38.3522 64.3927 38.384 64.5441 38.4442 64.685C38.5044 64.8258 38.5919 64.9533 38.7016 65.0601C38.8113 65.1669 38.941 65.2509 39.0832 65.3072C39.2254 65.3635 39.3774 65.391 39.5303 65.3881C40.242 65.3881 40.6549 64.9172 40.6549 64.3163C40.6525 64.1176 40.6038 63.9222 40.5127 63.7457C40.4215 63.5691 40.2904 63.4164 40.1299 63.2997C40.4363 63.1861 40.7607 63.1287 41.0874 63.1303C42.4951 63.1303 43.0535 63.6011 43.0535 65.0118V66.0461C39.6758 66.2904 38.0243 67.3799 38.0243 68.9778C38.0243 70.2761 38.9621 71.009 40.3147 71.009C41.3076 71.009 42.1156 70.5401 42.9591 69.7501L43.1852 69.7875C43.3346 70.6701 43.8222 71.0287 44.6853 71.0287C45.4051 71.0032 46.1156 70.8567 46.787 70.5953L46.7497 70.1067C45.6624 70.087 45.3734 69.6929 45.3734 69.0546L45.3852 64.6729ZM33.4827 64.0306V69.8781L32.244 70.2919V70.8376H37.1041V70.2919L35.9402 69.8781V62.1944L35.6217 62.0073L32.303 62.754V63.2426L33.4827 64.0306ZM33.1268 58.8038C33.1233 59.0039 33.1603 59.2027 33.2356 59.3881C33.311 59.5735 33.4231 59.7416 33.5652 59.8824C33.7072 60.0231 33.8763 60.1335 34.0622 60.2068C34.2481 60.2801 34.4469 60.3149 34.6466 60.309C34.8584 60.309 35.0682 60.2671 35.264 60.1858C35.4597 60.1045 35.6375 59.9853 35.7872 59.8351C35.937 59.6849 36.0557 59.5066 36.1366 59.3103C36.2175 59.1141 36.259 58.9038 36.2587 58.6915C36.264 58.4885 36.2277 58.2867 36.152 58.0983C36.0764 57.91 35.963 57.7392 35.819 57.5965C35.6749 57.4538 35.5032 57.3422 35.3144 57.2686C35.1256 57.195 34.9237 57.1609 34.7213 57.1685C34.2943 57.1763 33.8876 57.3522 33.5892 57.6583C33.2908 57.9644 33.1247 58.3759 33.1268 58.8038ZM31.3672 70.2308L31.3495 69.6397C30.9563 69.6772 30.5631 69.6969 30.2603 69.6969C29.641 69.6969 29.2772 69.6397 28.9469 69.4132C28.5714 69.1511 28.4594 68.7374 28.4594 67.9474V63.5637H31.3121V62.3028H28.4535V59.6706H27.7594L26.3714 61.7965L24.5508 63.0554V63.5637H25.9959V68.8477C25.9959 70.3707 26.7469 71.0839 28.2293 71.0839C29.3262 71.0605 30.401 70.7704 31.3613 70.2387L31.3672 70.2308ZM20.7249 64.0306V69.8781L19.4862 70.2919V70.8376H24.3444V70.2919L23.1824 69.8781V62.1944L22.862 62.0073L19.5413 62.7579V63.2426L20.7249 64.0306ZM20.367 58.8038C20.3635 59.0039 20.4005 59.2027 20.4759 59.3881C20.5512 59.5735 20.6633 59.7416 20.8054 59.8824C20.9475 60.0231 21.1166 60.1335 21.3025 60.2068C21.4883 60.2801 21.6871 60.3149 21.8868 60.309C22.3149 60.309 22.7255 60.1386 23.0282 59.8352C23.3309 59.5319 23.501 59.1205 23.501 58.6915C23.5059 58.4884 23.4694 58.2865 23.3935 58.0982C23.3176 57.9099 23.2041 57.7391 23.0599 57.5964C22.9156 57.4537 22.7438 57.3422 22.5549 57.2686C22.366 57.195 22.1641 57.1609 21.9615 57.1685C21.5348 57.1768 21.1283 57.3529 20.83 57.6589C20.5317 57.9648 20.3654 58.376 20.367 58.8038ZM17.4081 64.6355C17.4081 63.0456 16.545 62.0605 15.0017 62.0605C13.9695 62.0605 12.9923 62.5688 11.856 63.6208L11.6318 63.5834L11.7616 62.2299L11.4057 62.0053L8.19711 62.7559V63.2426L9.37675 64.0306V69.8781L8.17745 70.2919V70.8376H12.839V70.2919L11.8461 69.8781V64.2021C12.4831 63.8652 12.896 63.676 13.535 63.676C14.5652 63.676 14.9604 64.3538 14.9604 65.463V69.8801L13.9478 70.2938V70.8396H18.5897V70.2938L17.4101 69.8801L17.4081 64.6355ZM5.12022 69.8052V59.8933L6.90344 59.4795V58.8589H0.503906V59.4795L2.30679 59.8933V69.8013L0.503906 70.215V70.8356H6.90344V70.215L5.12022 69.8052Z" fill="white"/>
<path d="M95.1625 54.8969C95.1625 55.7992 93.9416 56.5695 92.3844 56.5695C90.4518 56.5695 89.6457 55.8938 89.6457 54.9146C89.6413 54.4669 89.7867 54.0306 90.0586 53.6753L93.0785 53.7128C94.5235 53.7305 95.1625 54.0694 95.1625 54.8949V54.8969ZM93.454 47.4082C93.454 48.8918 92.9094 49.6641 92.0659 49.6641C91.1085 49.6641 90.5265 49.1932 90.5265 47.4831C90.5265 45.8459 91.1281 45.3021 91.9716 45.3021C92.929 45.3021 93.454 46.0153 93.454 47.4082ZM95.7051 47.5382C95.708 47.0411 95.5718 46.5531 95.3119 46.1296L95.3493 45.9779L96.9064 46.2793H97.2819V44.6441H96.2124L94.7673 45.4518C94.1106 44.981 93.3223 44.6441 92.0659 44.6441C89.9269 44.6441 88.2754 45.7336 88.2754 47.4831C88.2754 48.5549 88.9694 49.4198 89.9642 49.9084V50.0207C88.8573 50.8856 88.3324 51.5633 88.3324 52.1879C88.3324 52.7139 88.6686 53.1729 89.4196 53.4291L89.4393 53.6261C88.2007 54.097 87.6187 54.7353 87.6187 55.4308C87.6187 56.5222 88.9143 57.3497 91.7278 57.3497C94.8047 57.3497 96.812 55.7874 96.812 53.9453C96.812 52.5346 95.7995 51.7781 93.8492 51.7465L91.541 51.7071C90.6405 51.6894 90.3024 51.4628 90.3024 50.9939C90.3395 50.6897 90.4631 50.4025 90.6582 50.1665C91.1045 50.2986 91.5695 50.3559 92.0345 50.3359C94.3053 50.3359 95.711 49.1538 95.711 47.552L95.7051 47.5382ZM87.2432 46.1237C87.2432 45.2213 86.6062 44.6382 85.7234 44.6382C84.6165 44.6382 83.8478 45.4085 83.0791 46.6871L82.853 46.632L83.0594 44.8273L82.7035 44.6007L79.489 45.3454V45.834L80.6687 46.6221V52.4696L79.4674 52.8833V53.4291H84.4592V52.8833L83.1263 52.4696V47.5048C83.5391 46.959 84.009 46.565 84.6087 46.433C84.703 47.0733 85.1533 47.6151 85.8846 47.6151C86.6534 47.6151 87.2353 46.9748 87.2353 46.1099L87.2432 46.1237ZM72.8241 48.4032C72.8988 46.5236 73.6302 45.4144 74.6623 45.4144C75.6945 45.4144 76.2018 46.3167 76.2195 48.2337L72.8241 48.4032ZM78.622 49.0809C78.7164 46.693 77.6272 44.6441 74.8137 44.6441C72.4682 44.6441 70.3468 46.6359 70.3468 49.3449C70.3468 51.9574 72.0553 53.7246 74.739 53.7246C75.9757 53.7246 77.3657 53.0863 78.5276 52.1268L78.3212 51.6933C77.2143 52.1071 76.4652 52.2844 75.6002 52.2844C73.7068 52.2844 72.8241 51.1378 72.8064 49.0888L78.622 49.0809ZM66.5445 49.5124C66.5445 51.9002 65.6617 52.8617 64.6669 52.8617C63.9355 52.8617 63.4106 52.5602 62.9407 51.9593V46.5098C63.3518 46.3374 63.7909 46.2419 64.2363 46.2281C65.6991 46.2281 66.5445 47.2821 66.5445 49.5183V49.5124ZM69.1338 48.9272C69.1338 46.2754 67.5393 44.6401 65.7757 44.6401C64.7062 44.6401 63.9355 45.0913 63.1668 45.7868L62.9407 45.7493V39.7048L62.5848 39.5078L59.1717 40.3885V40.8771L60.4851 41.6652V53.1355C61.6836 53.5055 62.9275 53.7077 64.1813 53.7364C67.2582 53.7364 69.1357 51.4609 69.1357 48.943L69.1338 48.9272ZM59.1442 46.1217C59.1442 45.2194 58.5072 44.6362 57.6244 44.6362C56.5175 44.6362 55.7488 45.4065 54.9781 46.6852L54.754 46.63L54.9604 44.8253L54.6026 44.5987L51.394 45.3514V45.84L52.5736 46.628V52.4755L51.3724 52.8892V53.435H56.3681V52.8892L55.0351 52.4755V47.5107C55.448 46.9649 55.9179 46.5709 56.5175 46.4389C56.6119 47.0792 57.0621 47.621 57.7935 47.621C58.5623 47.621 59.1442 46.9807 59.1442 46.1158V46.1217ZM44.731 48.4091C44.8077 46.5295 45.5391 45.4203 46.5712 45.4203C47.6034 45.4203 48.1087 46.3227 48.1284 48.2396L44.731 48.4091ZM50.5289 49.0868C50.6233 46.699 49.5459 44.65 46.7207 44.65C44.3751 44.65 42.2557 46.6418 42.2557 49.3508C42.2557 51.9633 43.9623 53.7305 46.6459 53.7305C47.8846 53.7305 49.2726 53.0922 50.4365 52.1327L50.2301 51.6993C49.1232 52.113 48.3721 52.2903 47.509 52.2903C45.6138 52.2903 44.731 51.1437 44.7133 49.0947L50.5289 49.0868ZM37.7751 48.2692L40.3644 45.9463L41.5283 45.4952V44.9317H37.549V45.4006L38.5812 46.0409L36.2927 48.6159H35.579V39.7048L35.2231 39.5078L31.8277 40.3885V40.8771L33.1214 41.6652V52.4775L31.9201 52.8912V53.437H36.5168V52.8912L35.579 52.4775V49.6128H36.2356L38.4121 52.5839L37.718 52.9405V53.431H41.9215V52.8853L41.021 52.4913L37.7751 48.2692ZM31.0452 46.6714C31.0452 45.5622 29.8813 44.6598 28.0234 44.6598C25.2276 44.6598 23.1829 46.7659 23.1829 49.3981C23.1829 51.9928 25.1156 53.7325 27.5358 53.7325C28.8295 53.7325 30.013 53.2439 31.0629 52.1721L30.8762 51.7209C29.9934 52.0598 29.4684 52.2292 28.6997 52.2292C26.9912 52.2292 25.7152 51.1378 25.7152 49.0513C25.7152 46.7758 26.9342 45.572 28.3242 45.5168C28.4372 45.5185 28.5498 45.5311 28.6604 45.5543C28.5242 45.8689 28.4539 46.2082 28.454 46.5512C28.454 47.3964 28.9435 48.017 29.7869 48.017C30.5183 48.017 31.0452 47.4259 31.0452 46.6635V46.6714ZM21.2582 51.8332V44.8194L20.9003 44.5928L17.617 45.3454V45.7966L18.7967 46.567V51.5692C18.1597 51.9061 17.7468 52.0756 17.1078 52.0756C16.0953 52.0756 15.6824 51.4372 15.6824 50.2709V44.8194L15.3442 44.5928L12.0609 45.3454V45.7966L13.2327 46.567V51.1181C13.2327 52.641 14.0584 53.7128 15.6352 53.7128C16.7225 53.7128 17.6426 53.2045 18.7809 52.1524L19.0051 52.1898L18.8753 53.5433L19.2312 53.7404L22.4575 52.9976V52.5267L21.2582 51.8332ZM11.2666 49.1439L10.8341 49.0671L9.44606 51.0984C8.82675 52.0007 8.35882 52.3967 7.38169 52.3967L3.81722 52.4341L11.2666 41.9232L11.1919 41.4524H1.3675L1.01165 45.2883L1.48153 45.4006L2.68083 43.8974C3.48889 42.8433 3.95681 42.5064 4.98899 42.5064L7.85944 42.469L0.35498 52.9602L0.429691 53.431H10.8734L11.2666 49.1439Z" fill="white"/>
<path d="M43.1392 29.8145C43.1392 28.2167 42.2761 27.2395 40.7386 27.2395C39.7064 27.2395 38.7313 27.7478 37.5929 28.7998L37.3609 28.7644L37.4927 27.4109L37.1348 27.1882L33.9262 27.9408V28.4294L35.1059 29.2175V35.0689L33.9046 35.4827V36.0284H38.5583V35.4748L37.5674 35.0689V29.383C38.2044 29.0441 38.6172 28.857 39.2562 28.857C40.2884 28.857 40.6816 29.5327 40.6816 30.642V35.0689L39.6691 35.4827V36.0284H44.3228V35.4748L43.1431 35.0611L43.1392 29.8145ZM29.3551 34.403C28.9473 34.6844 28.4725 34.853 27.9789 34.8916C27.1158 34.8916 26.6282 34.4227 26.6282 33.5578C26.6282 32.6161 27.3596 31.9206 29.3669 31.8457L29.3551 34.403ZM31.6829 29.8519C31.6829 28.0098 30.7255 27.2395 28.6808 27.2395C26.7147 27.2395 24.6464 28.1221 24.6464 29.4204C24.6482 29.5735 24.6802 29.7247 24.7405 29.8653C24.8009 30.006 24.8884 30.1332 24.9981 30.2398C25.1077 30.3464 25.2373 30.4302 25.3794 30.4863C25.5215 30.5425 25.6733 30.57 25.826 30.5671C26.5397 30.5671 26.9526 30.0982 26.9526 29.4953C26.9498 29.2969 26.9009 29.102 26.8097 28.9258C26.7186 28.7497 26.5878 28.5973 26.4277 28.4807C26.7352 28.3663 27.061 28.3089 27.3891 28.3112C28.7968 28.3112 29.3551 28.7801 29.3551 30.1908V31.2251C25.9794 31.4694 24.3279 32.5609 24.3279 34.1587C24.3279 35.4551 25.2657 36.19 26.6164 36.19C27.6112 36.19 28.4173 35.7191 29.2627 34.9291L29.4868 34.9665C29.6382 35.8511 30.1258 36.2077 30.9889 36.2077C31.7087 36.1829 32.4191 36.037 33.0906 35.7762L33.0533 35.2876C31.9641 35.2679 31.677 34.8739 31.677 34.2336L31.6829 29.8519ZM19.8079 30.64V35.0689L18.7934 35.4827V36.0284H23.4668V35.4748L22.2773 35.0689V29.8145C22.2773 28.2738 21.4515 27.2395 19.8748 27.2395C18.7128 27.2395 17.6983 27.8601 16.8352 28.6304L16.6288 28.593V22.2884L16.2729 22.0815L12.8716 22.9701V23.4607L14.1653 24.2487V35.0689L12.9641 35.4827V36.0284H17.6374V35.4748L16.6229 35.0689V29.383C17.2796 29.0264 17.6924 28.857 18.3688 28.857C19.4186 28.857 19.8138 29.5524 19.8138 30.642L19.8079 30.64ZM11.753 32.3166L11.2457 32.2417L9.02406 35.0808C8.62665 35.2217 8.20685 35.2884 7.78544 35.2778C5.45959 35.2778 3.71372 33.4337 3.71372 29.8618C3.71372 26.4218 5.12142 24.6723 6.99705 24.6723C8.51682 24.6723 9.58635 25.687 10.825 28.3388L11.519 28.3014L11.2949 23.705H10.7503L10.1133 24.3433C9.1839 23.9613 8.19027 23.7607 7.18579 23.7523C3.37753 23.7523 0.619141 26.5538 0.619141 30.1455C0.619141 34.0858 3.37163 36.2944 7.22315 36.2944C8.64996 36.3317 10.0669 36.0475 11.3696 35.463L11.753 32.3166Z" fill="white"/>
<path d="M86.6777 64.6907C86.2002 65.0218 85.6323 65.1966 85.0517 65.1911C84.8617 65.2045 84.671 65.1796 84.4908 65.1181C84.3105 65.0565 84.1443 64.9595 84.002 64.8326C83.8597 64.7058 83.7441 64.5518 83.662 64.3795C83.58 64.2073 83.5331 64.0204 83.5241 63.8298C83.5087 63.6161 83.5374 63.4015 83.6082 63.1994C83.679 62.9972 83.7905 62.8118 83.9357 62.6546C84.081 62.4974 84.2569 62.3718 84.4526 62.2855C84.6483 62.1993 84.8596 62.1542 85.0734 62.1531C85.2988 62.1513 85.5222 62.1956 85.73 62.2832C85.73 62.2832 85.675 62.7422 85.6573 62.9491H86.3474L86.4712 61.9147L86.2746 61.7926C85.8266 61.5179 85.2974 61.407 84.7771 61.4788C84.2567 61.5507 83.7772 61.8008 83.4199 62.1866C83.2098 62.4127 83.049 62.6801 82.9474 62.9717C82.8459 63.2634 82.8059 63.573 82.8301 63.881C82.8637 64.4289 83.1058 64.9429 83.5064 65.3172C83.923 65.6953 84.4682 65.899 85.0301 65.8866H85.0734C85.4815 65.8742 85.8842 65.7895 86.2628 65.6364L86.7622 64.6671C86.7622 64.6671 86.7524 64.6454 86.6816 64.6947" fill="#FF414B"/>
<path d="M89.0228 67.171L88.9382 68.1226V68.1345C88.9272 68.3027 88.8746 68.4656 88.785 68.6084C88.6954 68.7511 88.5717 68.8693 88.4251 68.9521C88.3186 69.0084 88.2002 69.038 88.0798 69.0386C87.9594 69.0391 87.8407 69.0105 87.7338 68.9552C87.6268 68.8998 87.5348 68.8194 87.4655 68.7208C87.3962 68.6221 87.3518 68.5082 87.3359 68.3886C87.3125 68.1989 87.342 68.0065 87.4211 67.8326C87.5003 67.6587 87.6259 67.5102 87.7842 67.4035L92.4123 64.3852C92.6062 65.8107 92.2519 67.2566 91.4214 68.4301C90.5908 69.6035 89.3461 70.4165 87.9395 70.7044C86.5329 70.9922 85.0697 70.7334 83.8466 69.9802C82.6234 69.2271 81.7318 68.036 81.3524 66.6486C80.9731 65.2611 81.1344 63.7809 81.8037 62.5082C82.473 61.2355 83.6002 60.2655 84.9568 59.7947C86.3134 59.3239 87.7978 59.3877 89.1092 59.973C90.4206 60.5584 91.4609 61.6216 92.0191 62.947L92.5833 62.5786C91.9445 61.1543 90.8024 60.0172 89.3769 59.3865C87.9514 58.7558 86.3434 58.6761 84.8627 59.1627C83.382 59.6493 82.1334 60.6677 81.3574 62.0219C80.5815 63.376 80.333 64.9701 80.66 66.4968C80.987 68.0236 81.8662 69.3751 83.1283 70.2909C84.3905 71.2068 85.9461 71.6221 87.4957 71.457C89.0452 71.292 90.479 70.5581 91.5207 69.3967C92.5624 68.2354 93.1384 66.7289 93.1377 65.1674C93.1375 64.7708 93.1007 64.3751 93.0276 63.9853C92.9871 63.7706 92.9353 63.5581 92.8723 63.3489L91.559 64.1724L89.8171 65.2777C89.7851 65.1467 89.7237 65.0248 89.6375 64.9214C89.5513 64.8179 89.4425 64.7356 89.3196 64.6807C88.9677 64.5212 88.3976 64.6433 87.9788 64.8778C87.9788 64.8778 89.125 62.6574 89.3157 62.2909C89.3184 62.2855 89.3196 62.2796 89.3194 62.2735C89.3191 62.2675 89.3173 62.2617 89.3141 62.2566C89.311 62.2514 89.3066 62.2472 89.3014 62.2443C89.2962 62.2413 89.2903 62.2397 89.2843 62.2397H87.1412L87.0547 62.9568H88.2167L86.575 66.1091C86.5675 66.1226 86.5646 66.1382 86.5667 66.1535C86.5688 66.1688 86.5758 66.183 86.5867 66.1939C86.5976 66.2049 86.6118 66.2119 86.6271 66.214C86.6424 66.2161 86.6579 66.2132 86.6714 66.2057L87.5463 65.7387C87.969 65.522 88.6728 65.0748 89.0208 65.3329C89.0559 65.3632 89.0846 65.4003 89.1052 65.4419C89.1258 65.4835 89.1379 65.5288 89.1407 65.5752C89.1409 65.5948 89.1363 65.6142 89.1274 65.6317C89.1185 65.6492 89.1056 65.6643 89.0896 65.6757L87.3418 66.8578C87.0899 67.0307 86.8888 67.2681 86.7594 67.5453C86.6301 67.8225 86.5773 68.1293 86.6065 68.4339C86.6551 68.8007 86.8362 69.1368 87.1156 69.3786C87.395 69.6205 87.7532 69.7512 88.1223 69.7461C88.3477 69.7386 88.5683 69.6793 88.7672 69.5727C89.0181 69.4353 89.2308 69.2371 89.3856 68.9962C89.5405 68.7553 89.6327 68.4794 89.6539 68.1936L89.7954 66.5918L89.0228 67.171Z" fill="#FF414B"/>
</g>
<path d="M1.75 8.249C1.246 8.06 0.959 7.822 0.959 7.381C0.959 6.842 1.372 6.562 1.904 6.562C2.114 6.562 2.296 6.604 2.478 6.702L2.625 7.493H3.052L3.094 6.576C2.793 6.352 2.415 6.212 1.946 6.212C1.05 6.212 0.371 6.716 0.371 7.535C0.371 8.242 0.854 8.641 1.575 8.928L1.848 9.04C2.443 9.271 2.709 9.46 2.709 9.894C2.709 10.44 2.282 10.755 1.624 10.755C1.323 10.755 1.113 10.699 0.896 10.58L0.756 9.754H0.322L0.28 10.734C0.602 10.944 1.12 11.105 1.645 11.105C2.618 11.105 3.304 10.594 3.304 9.761C3.304 9.11 2.947 8.718 2.03 8.361L1.75 8.249ZM8.50112 6.317H6.82112V6.604L7.53512 6.695V8.914C7.53512 10.153 7.12912 10.608 6.33812 10.608C5.62412 10.608 5.17612 10.23 5.17612 9.033V8.48C5.17612 7.871 5.17612 7.276 5.19012 6.688L5.90412 6.604V6.317H3.92312V6.604L4.50412 6.674C4.51812 7.276 4.51812 7.878 4.51812 8.48V9.236C4.51812 10.545 5.20412 11.105 6.21912 11.105C7.17812 11.105 7.89212 10.559 7.89212 9.082V6.681L8.50112 6.604V6.317ZM10.9443 6.639C11.7843 6.639 12.1553 7.031 12.1553 7.71C12.1553 8.368 11.7843 8.823 10.8393 8.823H10.5103V8.487C10.5103 7.864 10.5103 7.241 10.5243 6.639H10.9443ZM10.7413 9.152C12.2673 9.152 12.8483 8.494 12.8483 7.71C12.8483 6.884 12.2533 6.317 11.0703 6.317H9.18734V6.604L9.83134 6.681C9.84534 7.283 9.84534 7.885 9.84534 8.487V8.83C9.84534 9.439 9.84534 10.048 9.83134 10.636L9.18734 10.713V11H11.1753V10.713L10.5243 10.636C10.5103 10.132 10.5103 9.649 10.5103 9.152H10.7413ZM15.278 6.639C16.118 6.639 16.489 7.031 16.489 7.71C16.489 8.368 16.118 8.823 15.173 8.823H14.844V8.487C14.844 7.864 14.844 7.241 14.858 6.639H15.278ZM15.075 9.152C16.601 9.152 17.182 8.494 17.182 7.71C17.182 6.884 16.587 6.317 15.404 6.317H13.521V6.604L14.165 6.681C14.179 7.283 14.179 7.885 14.179 8.487V8.83C14.179 9.439 14.179 10.048 14.165 10.636L13.521 10.713V11H15.509V10.713L14.858 10.636C14.844 10.132 14.844 9.649 14.844 9.152H15.075ZM18.7071 8.655C18.7071 7.605 19.1201 6.562 20.0931 6.562C21.0661 6.562 21.4651 7.605 21.4651 8.655C21.4651 9.712 21.0661 10.755 20.0931 10.755C19.1201 10.755 18.7071 9.712 18.7071 8.655ZM20.0931 6.212C19.0081 6.212 17.9441 7.122 17.9441 8.655C17.9441 10.258 19.0011 11.105 20.0931 11.105C21.1781 11.105 22.2351 10.195 22.2351 8.655C22.2351 7.059 21.1711 6.212 20.0931 6.212ZM24.3044 8.515C24.3044 7.829 24.3044 7.241 24.3184 6.639H24.9204C25.6414 6.639 25.9494 6.961 25.9494 7.521C25.9494 8.109 25.5994 8.515 24.8434 8.515H24.3044ZM26.5304 10.643L26.2294 9.614C26.0824 9.103 25.8654 8.844 25.5084 8.746C26.3064 8.599 26.6424 8.102 26.6424 7.514C26.6424 6.772 26.0124 6.317 24.9414 6.317H22.9814V6.604L23.6254 6.681C23.6394 7.283 23.6394 7.885 23.6394 8.487V8.83C23.6394 9.439 23.6394 10.048 23.6254 10.636L22.9814 10.713V11H24.9624V10.713L24.3184 10.636C24.3044 10.055 24.3044 9.46 24.3044 8.83H24.6124C25.1724 8.83 25.4104 8.935 25.5504 9.502L25.8234 10.622C25.9074 10.958 26.1524 11.07 26.6074 11.07C26.8244 11.07 26.9924 11.042 27.1324 11V10.713L26.5304 10.643ZM30.8223 6.667L30.9763 7.563H31.3823L31.3263 6.317H27.4903L27.4343 7.563H27.8403L27.9943 6.667H29.0653C29.0793 7.276 29.0793 7.885 29.0793 8.487V8.83C29.0793 9.439 29.0793 10.041 29.0653 10.636L28.3513 10.713V11H30.4653V10.713L29.7513 10.636C29.7373 10.034 29.7373 9.432 29.7373 8.83V8.487C29.7373 7.871 29.7373 7.262 29.7513 6.667H30.8223ZM35.3829 9.754L35.2289 10.65H33.4439C33.4299 10.048 33.4299 9.439 33.4299 8.774H34.4659L34.5569 9.432H34.8789V7.78H34.5569L34.4589 8.445H33.4299C33.4299 7.843 33.4299 7.248 33.4439 6.667H35.0889L35.2429 7.556H35.6419L35.5929 6.317H32.1069V6.604L32.7509 6.681C32.7649 7.283 32.7649 7.885 32.7649 8.487V8.83C32.7649 9.439 32.7649 10.048 32.7509 10.636L32.1069 10.713V11H35.7329L35.7819 9.754H35.3829ZM37.9416 10.671C37.9276 10.055 37.9276 9.432 37.9276 8.746V8.487C37.9276 7.864 37.9276 7.241 37.9416 6.639H38.5576C39.5306 6.639 40.1746 7.346 40.1746 8.655C40.1746 9.971 39.5306 10.671 38.5646 10.671H37.9416ZM36.6046 6.317V6.604L37.2486 6.681C37.2626 7.283 37.2626 7.885 37.2626 8.487V8.746C37.2626 9.425 37.2626 10.041 37.2486 10.636L36.6046 10.713V11H38.5366C39.8526 11 40.9376 10.174 40.9376 8.655C40.9376 7.143 39.9646 6.317 38.6696 6.317H36.6046ZM45.1052 10.671C45.0912 10.062 45.0912 9.432 45.0912 8.739H45.4762C46.4422 8.739 46.8622 9.068 46.8622 9.719C46.8622 10.335 46.4282 10.671 45.5322 10.671H45.1052ZM45.5882 6.639C46.3022 6.639 46.6662 6.87 46.6662 7.507C46.6662 8.144 46.3022 8.417 45.4552 8.417H45.0912C45.0912 7.815 45.0912 7.22 45.1052 6.639H45.5882ZM43.7682 6.317V6.604L44.4122 6.681C44.4262 7.283 44.4262 7.885 44.4262 8.487V8.83C44.4262 9.439 44.4262 10.048 44.4122 10.636L43.7682 10.713V11H45.6932C47.0372 11 47.5622 10.356 47.5622 9.719C47.5622 9.152 47.1702 8.697 46.2392 8.564C47.0162 8.403 47.3242 7.955 47.3242 7.458C47.3242 6.793 46.7712 6.317 45.7982 6.317H43.7682ZM51.5389 6.695L52.1549 6.604V6.317H50.5519V6.604L51.1819 6.688L50.1809 8.802L49.2079 6.681L49.8729 6.604V6.317H47.8989V6.604L48.4519 6.667L49.6909 9.187V9.355C49.6909 9.649 49.6909 10.139 49.6769 10.636L48.9629 10.713V11H51.0769V10.713L50.3629 10.636C50.3489 10.132 50.3489 9.642 50.3489 9.355V9.159L51.5389 6.695Z" fill="white"/>
<defs>
<clipPath id="clip0">
<rect width="97.5168" height="56.15" fill="white" transform="translate(0.0605469 18.7166)"/>
</clipPath>
</defs>
</svg>
