<svg width="50" height="90" viewBox="0 0 22 40" fill="none" xmlns="http://www.w3.org/2000/svg">
<mask id="mask0" mask-type="alpha" maskUnits="userSpaceOnUse" x="0" y="18" width="22" height="22">
<path d="M0.0612793 18.0882H21.973V40H0.0612793V18.0882Z" fill="#C4C4C4"/>
</mask>
<g mask="url(#mask0)">
<path d="M2.7937 39.991C2.80652 38.7176 2.86305 37.0937 2.90377 35.8209C2.94746 34.4467 3.00778 33.0731 3.08471 31.7001C3.12807 30.9288 3.17657 30.1577 3.23021 29.3869C3.23114 29.3774 3.23334 29.3681 3.23676 29.3591C3.23672 29.3585 3.23683 29.3578 3.2371 29.3572C3.23932 29.3499 3.24228 29.3429 3.24596 29.3362C3.24999 29.3284 3.25484 29.3211 3.26042 29.3143C3.27548 29.2938 3.29718 29.2791 3.32183 29.2727C3.34649 29.2663 3.37259 29.2686 3.39572 29.2793C3.39999 29.2812 3.40363 29.2825 3.40787 29.2847C3.41477 29.2886 3.422 29.2926 3.42889 29.2965C3.8161 29.5158 4.20351 29.735 4.59112 29.9542C5.47586 30.4549 6.36049 30.9557 7.245 31.4564C8.17275 31.9814 9.1005 32.5063 10.0283 33.0313C10.5511 33.3274 11.0741 33.6234 11.5974 33.9193C11.6118 33.9276 11.6276 33.9348 11.6414 33.9443C11.7389 34.0116 11.714 34.1746 11.7209 34.2812C11.757 34.834 11.8026 35.3861 11.8575 35.9374C11.9672 37.042 12.1142 38.1421 12.2985 39.2377C12.3212 39.372 12.4854 39.839 12.5091 39.9732L2.7937 39.991Z" fill="#3E8F92"/>
<g style="mix-blend-mode:multiply" opacity="0.2">
<path d="M10.6811 37.336C9.74649 36.7456 8.6693 36.416 7.69984 35.886C6.69589 35.3373 5.69527 34.6555 4.98587 33.7437C4.32048 32.87 3.9039 31.8325 3.78029 30.7413C3.73924 30.3313 3.74796 29.9179 3.80628 29.5101C4.06768 29.6581 4.3293 29.8061 4.59116 29.9541C5.4759 30.4548 6.36053 30.9555 7.24504 31.4563C8.17279 31.9813 9.10054 32.5062 10.0283 33.0312C10.5511 33.3272 11.0741 33.6232 11.5974 33.9192C11.6119 33.9275 11.6277 33.9347 11.6414 33.9442C11.739 34.0115 11.714 34.1745 11.7209 34.2811C11.7571 34.8339 11.8026 35.386 11.8575 35.9373C11.9544 36.9125 12.081 37.8841 12.2372 38.8521C11.8365 38.2383 11.3051 37.7206 10.6811 37.336Z" fill="#3E8F92"/>
</g>
<path d="M20.7566 25.7944C20.0081 25.943 19.2682 26.1452 18.5313 26.3455C18.53 26.3562 18.5277 26.3661 18.526 26.3761C18.5217 26.4068 18.5165 26.4375 18.5129 26.468C18.5116 26.4752 18.5112 26.4791 18.5106 26.4825C18.51 26.4881 18.509 26.4947 18.5084 26.5031C18.4906 26.6522 18.4752 26.8016 18.4634 26.9513C18.4417 27.228 18.4292 27.5051 18.417 27.7825C18.3977 28.2406 18.3763 28.6976 18.3241 29.1531C18.3096 29.2801 18.2923 29.4066 18.2722 29.5328C18.2656 29.5729 18.2591 29.613 18.2515 29.6531C18.0812 30.5371 17.7087 31.3698 17.1632 32.086C16.1891 33.3855 14.7901 34.2639 13.2511 34.7489C11.7159 35.2184 10.0972 35.35 8.50626 35.1345C7.72917 35.0397 6.96464 34.8609 6.22612 34.6012C5.32365 34.2858 4.49519 33.7892 3.79163 33.142C3.05951 32.4489 2.48156 31.6093 2.09539 30.6781C1.69605 29.7261 1.55943 28.6771 1.46388 27.6566C1.41625 27.1404 1.38439 26.6234 1.35254 26.1061C1.31707 25.5349 1.27602 24.9637 1.25631 24.3914C1.21315 23.1211 1.24496 21.8494 1.35156 20.5829C1.45237 19.3893 1.58833 18.179 1.90984 17.022C2.19459 15.9977 2.63235 14.9898 3.38309 14.2205C4.67142 12.9001 6.56636 12.4152 8.34698 12.2542C9.48461 12.1485 10.6317 12.2163 11.749 12.4552C12.9233 12.6989 14.0492 13.1353 15.081 13.7468C16.0163 14.301 16.7935 15.0862 17.3382 16.0271C17.8435 16.9284 18.1343 17.9341 18.1881 18.9661C18.2112 19.4222 18.1869 19.8795 18.1155 20.3306C18.1766 20.4858 18.216 20.5789 18.2929 20.7465C18.3714 20.9174 18.4541 21.0864 18.5412 21.2537C18.7149 21.5893 18.9024 21.9173 19.0978 22.2401C19.4903 22.8898 19.9129 23.5212 20.3149 24.1648C20.5422 24.5288 20.7625 24.8969 20.9688 25.2732C21.0709 25.4614 20.9891 25.7487 20.7566 25.7944Z" fill="#3E8F92"/>
<path d="M18.3241 29.1531C18.3097 29.2801 18.2924 29.4066 18.2722 29.5328C18.2657 29.5729 18.2591 29.613 18.2515 29.6531C17.5491 29.6618 16.8558 29.4929 16.236 29.162C15.6163 28.8311 15.0902 28.3489 14.7067 27.7603C14.6901 27.7319 14.6793 27.7005 14.6748 27.6679C14.6703 27.6353 14.6723 27.6022 14.6807 27.5704C14.689 27.5385 14.7036 27.5087 14.7234 27.4825C14.7433 27.4563 14.7682 27.4342 14.7966 27.4177C14.825 27.4011 14.8564 27.3902 14.889 27.3857C14.9215 27.3813 14.9547 27.3833 14.9865 27.3916C15.0183 27.4 15.0482 27.4145 15.0744 27.4344C15.1006 27.4543 15.1226 27.4791 15.1392 27.5075C15.1711 27.5554 15.2029 27.6027 15.2364 27.6495C15.2512 27.6695 15.266 27.6901 15.2811 27.7101C15.2837 27.7131 15.2861 27.7163 15.2883 27.7197C15.2886 27.7202 15.2893 27.7202 15.2893 27.7208L15.2883 27.7203C15.289 27.7211 15.2897 27.7219 15.2906 27.7225C15.2916 27.7235 15.2925 27.7246 15.2932 27.7258C15.2938 27.7263 15.2944 27.7269 15.2948 27.7275C15.2952 27.7282 15.2956 27.7287 15.2961 27.7292L15.2965 27.7298V27.7303C15.2978 27.7314 15.2984 27.7325 15.2991 27.7331L15.2994 27.7337L15.2998 27.7347C15.3027 27.7377 15.3053 27.7409 15.3077 27.7443C15.3724 27.826 15.4407 27.9045 15.5116 27.9802C15.5855 28.0588 15.6622 28.1342 15.7418 28.2063C15.7816 28.2425 15.8223 28.2782 15.8633 28.312C15.8827 28.3282 15.9024 28.3444 15.9218 28.36C15.9329 28.3689 15.9441 28.3777 15.9556 28.3866C15.9563 28.3873 15.9569 28.3877 15.9586 28.3894H15.9589C15.9596 28.39 15.9602 28.39 15.9609 28.391L15.9612 28.3918H15.9619L15.9641 28.3933L15.9651 28.3939L15.968 28.3962L15.9697 28.3978L15.9707 28.3984C15.9792 28.4046 15.9904 28.4129 15.9904 28.4129C15.9993 28.4196 16.0075 28.4256 16.0164 28.4324C16.0338 28.4447 16.0508 28.4575 16.0686 28.4696C16.1067 28.497 16.1458 28.5231 16.1845 28.5487C16.2627 28.6 16.3421 28.6484 16.4236 28.6934C16.508 28.7408 16.5944 28.7853 16.6817 28.8265C16.7192 28.8439 16.7559 28.8604 16.7937 28.8767H16.794C16.7947 28.8773 16.7954 28.8773 16.7963 28.8777C16.7967 28.8781 16.7973 28.8783 16.7979 28.8783C16.7991 28.8788 16.8002 28.8793 16.8012 28.88C16.8023 28.8806 16.8036 28.881 16.8048 28.8811C16.816 28.8855 16.8327 28.8922 16.8393 28.8951C16.8594 28.9028 16.8794 28.9106 16.8994 28.9184C17.0772 28.9856 17.2597 29.0394 17.4455 29.0793C17.4971 29.091 17.5497 29.101 17.6022 29.1098C17.6249 29.1137 17.6482 29.1176 17.6709 29.1209C17.6764 29.122 17.6873 29.1233 17.6965 29.1248C17.6987 29.1248 17.7004 29.1254 17.7027 29.1254L17.7037 29.126H17.7043C17.7059 29.1259 17.7074 29.1261 17.7089 29.1265C17.8091 29.1382 17.9086 29.1471 18.0101 29.1522C18.115 29.1566 18.2194 29.157 18.3241 29.1531Z" fill="#2A3245"/>
<path fill-rule="evenodd" clip-rule="evenodd" d="M12.0373 21.6175C12.0373 21.6175 12.0373 21.6175 12.0373 21.6175C12.0373 21.6175 12.0373 21.6175 12.0373 21.6175L12.0391 21.6196C12.041 21.6218 12.0444 21.6258 12.0493 21.6312C12.059 21.642 12.0746 21.6589 12.0956 21.6803C12.1377 21.7234 12.2013 21.7845 12.2842 21.8529C12.451 21.9907 12.6896 22.1532 12.9818 22.2613C13.2717 22.3686 13.6131 22.4221 13.9949 22.3467C14.3766 22.2714 14.8193 22.0631 15.3054 21.6143C15.4248 21.5042 15.6109 21.5116 15.7211 21.631C15.8312 21.7504 15.8238 21.9364 15.7044 22.0466C15.1523 22.5562 14.6143 22.824 14.1088 22.9238C13.6034 23.0236 13.1514 22.9513 12.7776 22.813C12.4061 22.6755 12.1107 22.4726 11.9096 22.3064C11.8084 22.2229 11.7295 22.1474 11.6751 22.0917C11.6479 22.0639 11.6266 22.0409 11.6117 22.0243C11.6042 22.0159 11.5983 22.0092 11.594 22.0042L11.5887 21.998L11.587 21.996L11.5863 21.9952L11.5861 21.9949C11.586 21.9948 11.5858 21.9946 11.8118 21.8064L11.5858 21.9946C11.4819 21.8698 11.4988 21.6844 11.6236 21.5804C11.7482 21.4766 11.9332 21.4933 12.0373 21.6175Z" fill="#2A3245"/>
<g style="mix-blend-mode:multiply" opacity="0.2">
<path d="M1.35166 20.5836C1.45248 19.3898 1.58843 18.1796 1.90994 17.0224C2.1947 15.9982 2.63245 14.9907 3.38352 14.2208C4.67121 12.9006 6.56646 12.4154 8.34708 12.255C9.48482 12.1492 10.632 12.2169 11.7494 12.4559C12.9237 12.6993 14.0496 13.1357 15.0811 13.7473C15.2795 13.8679 15.4713 13.9982 15.6559 14.1366C14.3567 13.6524 12.9701 13.3947 11.5862 13.5094C8.5573 13.7612 5.83184 15.6534 4.2903 18.2375C3.4095 19.7141 2.97108 21.3997 2.74119 23.0908C2.50104 24.858 2.37301 26.6861 2.53494 28.4656C2.6824 30.0854 3.13593 31.8649 4.01148 33.3363C3.93726 33.2733 3.86369 33.2096 3.7921 33.1428C3.0598 32.4497 2.48173 31.6101 2.09553 30.6787C1.69619 29.7266 1.55956 28.6775 1.46401 27.6569C1.41606 27.141 1.38453 26.6239 1.35268 26.1068C1.31721 25.5352 1.27616 24.9641 1.25645 24.3917C1.21327 23.1216 1.24506 21.85 1.35166 20.5836Z" fill="#4DB3B7"/>
</g>
</g>
<g style="mix-blend-mode:multiply">
<path d="M18.2198 11.5648C18.1285 11.4243 17.9975 11.3139 17.8435 11.2478C17.5879 11.1481 17.295 11.2229 17.0529 11.3521C16.6128 11.6044 16.2639 11.9897 16.0564 12.4527C15.8515 12.9134 15.7181 13.4027 15.6607 13.9037C15.6404 14.0523 15.604 14.1983 15.5521 14.339C16.3484 14.4811 16.9021 15.2378 17.6731 15.4823C17.8449 15.543 18.0294 15.5587 18.209 15.5278C18.3898 15.4876 18.5496 15.3828 18.6586 15.2332C18.7676 15.0835 18.8182 14.8992 18.801 14.7148C18.7697 14.4912 18.6844 14.2786 18.5524 14.0954C18.4204 13.9122 18.2458 13.7639 18.0436 13.6634C17.9838 13.6311 17.9181 13.6109 17.8504 13.604C17.7827 13.5972 17.7143 13.6039 17.6492 13.6237C17.9993 13.4219 18.2616 13.0969 18.385 12.7121C18.444 12.5206 18.4598 12.3183 18.4313 12.1199C18.4027 11.9215 18.3305 11.732 18.2198 11.5648Z" fill="white"/>
</g>
<g style="mix-blend-mode:multiply">
<path d="M12.6966 13.8688C12.661 13.705 12.6747 13.5343 12.7361 13.3783C12.8451 13.1265 13.1043 12.971 13.3664 12.8899C13.8554 12.7546 14.3747 12.7778 14.8496 12.9561C15.3212 13.1346 15.7628 13.3841 16.1593 13.6957C16.2792 13.7859 16.4085 13.8627 16.545 13.9249C16.0857 14.5907 16.2339 15.5165 15.8652 16.2365C15.7875 16.4013 15.6688 16.5435 15.5205 16.6493C15.3647 16.7495 15.1778 16.7894 14.9948 16.7615C14.8117 16.7337 14.6451 16.64 14.5262 16.498C14.3893 16.3185 14.2983 16.1082 14.2609 15.8856C14.2236 15.6629 14.2411 15.4345 14.312 15.2201C14.3311 15.1548 14.3629 15.0939 14.4057 15.041C14.4485 14.9881 14.5014 14.9442 14.5613 14.9118C14.1715 15.0185 13.7561 14.9763 13.3958 14.7934C13.2181 14.7005 13.0633 14.5695 12.9424 14.4096C12.8215 14.2497 12.7376 14.065 12.6966 13.8688Z" fill="white"/>
</g>
<g style="mix-blend-mode:multiply">
<path d="M18.2198 11.5648C18.1285 11.4243 17.9975 11.3139 17.8435 11.2478C17.5879 11.1481 17.295 11.2229 17.0529 11.3521C16.6128 11.6044 16.2639 11.9897 16.0564 12.4527C15.8515 12.9134 15.7181 13.4027 15.6607 13.9037C15.6404 14.0523 15.604 14.1983 15.5521 14.339C16.3484 14.4811 16.9021 15.2378 17.6731 15.4823C17.8449 15.543 18.0294 15.5587 18.209 15.5278C18.3898 15.4876 18.5496 15.3828 18.6586 15.2332C18.7676 15.0835 18.8182 14.8992 18.801 14.7148C18.7697 14.4912 18.6844 14.2786 18.5524 14.0954C18.4204 13.9122 18.2458 13.7639 18.0436 13.6634C17.9838 13.6311 17.9181 13.6109 17.8504 13.604C17.7827 13.5972 17.7143 13.6039 17.6492 13.6237C17.9993 13.4219 18.2616 13.0969 18.385 12.7121C18.444 12.5206 18.4598 12.3183 18.4313 12.1199C18.4027 11.9215 18.3305 11.732 18.2198 11.5648Z" fill="#EB822F"/>
</g>
<g style="mix-blend-mode:multiply">
<path d="M12.6966 13.8688C12.661 13.705 12.6747 13.5343 12.7361 13.3783C12.8451 13.1265 13.1043 12.971 13.3664 12.8899C13.8554 12.7546 14.3747 12.7778 14.8496 12.9561C15.3212 13.1346 15.7628 13.3841 16.1593 13.6957C16.2792 13.7859 16.4085 13.8627 16.545 13.9249C16.0857 14.5907 16.2339 15.5165 15.8652 16.2365C15.7875 16.4013 15.6688 16.5435 15.5205 16.6493C15.3647 16.7495 15.1778 16.7894 14.9948 16.7615C14.8117 16.7337 14.6451 16.64 14.5262 16.498C14.3893 16.3185 14.2983 16.1082 14.2609 15.8856C14.2236 15.6629 14.2411 15.4345 14.312 15.2201C14.3311 15.1548 14.3629 15.0939 14.4057 15.041C14.4485 14.9881 14.5014 14.9442 14.5613 14.9118C14.1715 15.0185 13.7561 14.9763 13.3958 14.7934C13.2181 14.7005 13.0633 14.5695 12.9424 14.4096C12.8215 14.2497 12.7376 14.065 12.6966 13.8688Z" fill="#F1A96F"/>
</g>
<g style="mix-blend-mode:multiply">
<path d="M20.2368 4.47538C20.302 4.32095 20.32 4.15065 20.2884 3.98602C20.2276 3.71849 20.0014 3.51789 19.7588 3.38987C19.303 3.16687 18.7884 3.09404 18.2887 3.18184C17.7923 3.27055 17.3123 3.4344 16.8652 3.66773C16.7308 3.73424 16.5896 3.78594 16.444 3.82193C16.7728 4.56093 16.4567 5.44363 16.6865 6.21917C16.7326 6.3955 16.8231 6.55707 16.9493 6.68846C17.084 6.81559 17.2603 6.88922 17.4454 6.89554C17.6304 6.90186 17.8114 6.84043 17.9544 6.72278C18.122 6.5715 18.2503 6.38164 18.3279 6.16963C18.4056 5.95763 18.4305 5.72988 18.4003 5.50612C18.3936 5.4384 18.3735 5.3727 18.3412 5.31281C18.3088 5.25293 18.265 5.20005 18.212 5.15726C18.5755 5.3339 18.9916 5.36889 19.3794 5.2554C19.5711 5.19689 19.7475 5.09657 19.8957 4.96169C20.044 4.82681 20.1605 4.66071 20.2368 4.47538Z" fill="white"/>
</g>
<g style="mix-blend-mode:multiply">
<path d="M15.2322 1.19395C15.3479 1.07257 15.4969 0.988239 15.6605 0.951612C15.9301 0.900763 16.2042 1.02816 16.4184 1.19965C16.8046 1.52868 17.0765 1.97164 17.1952 2.46491C17.3117 2.95552 17.3528 3.46102 17.317 3.96401C17.3096 4.11381 17.3185 4.26397 17.3436 4.41184C16.5347 4.40492 15.8512 5.04668 15.0484 5.14513C14.8683 5.17316 14.684 5.15458 14.5132 5.09115C14.3429 5.01836 14.2051 4.88595 14.1255 4.71876C14.046 4.55157 14.0301 4.36109 14.081 4.18306C14.153 3.96903 14.276 3.77576 14.4394 3.61999C14.6029 3.46422 14.8018 3.35065 15.0191 3.28911C15.0839 3.26829 15.1521 3.26053 15.2199 3.26629C15.2877 3.27206 15.3537 3.29122 15.4141 3.32269C15.1072 3.05983 14.9092 2.69211 14.8587 2.29121C14.8359 2.09207 14.8576 1.89037 14.9222 1.70062C14.9868 1.51088 15.0927 1.33783 15.2322 1.19395Z" fill="white"/>
</g>
<g style="mix-blend-mode:multiply">
<path d="M20.2389 4.47648C20.3041 4.32205 20.322 4.15175 20.2904 3.98712C20.2296 3.71959 20.0035 3.51899 19.7608 3.39097C19.3051 3.16796 18.7904 3.09514 18.2907 3.18294C17.7943 3.27165 17.3144 3.43549 16.8673 3.66883C16.7329 3.73534 16.5916 3.78704 16.446 3.82303C16.7749 4.56203 16.4588 5.44473 16.6886 6.22027C16.7346 6.3966 16.8251 6.55817 16.9514 6.68956C17.086 6.81669 17.2624 6.89032 17.4475 6.89664C17.6325 6.90296 17.8135 6.84153 17.9565 6.72388C18.1241 6.5726 18.2523 6.38274 18.33 6.17073C18.4077 5.95873 18.4326 5.73098 18.4024 5.50722C18.3957 5.4395 18.3755 5.3738 18.3432 5.31391C18.3109 5.25403 18.267 5.20115 18.2141 5.15836C18.5775 5.335 18.9937 5.36999 19.3815 5.2565C19.5732 5.19798 19.7495 5.09767 19.8978 4.96279C20.0461 4.82791 20.1626 4.66181 20.2389 4.47648Z" fill="#FAD99E"/>
</g>
<g style="mix-blend-mode:multiply">
<path d="M15.2344 1.19498C15.3501 1.07361 15.4991 0.989276 15.6627 0.952649C15.9323 0.901801 16.2064 1.02919 16.4206 1.20069C16.8068 1.52972 17.0787 1.97268 17.1974 2.46595C17.3139 2.95656 17.355 3.46206 17.3192 3.96505C17.3118 4.11485 17.3207 4.26501 17.3458 4.41288C16.5369 4.40595 15.8534 5.04772 15.0506 5.14616C14.8705 5.1742 14.6862 5.15562 14.5154 5.09219C14.3451 5.0194 14.2073 4.88699 14.1277 4.7198C14.0482 4.5526 14.0323 4.36212 14.0832 4.1841C14.1552 3.97006 14.2782 3.77679 14.4416 3.62102C14.6051 3.46526 14.804 3.35169 15.0213 3.29015C15.0861 3.26933 15.1543 3.26157 15.2221 3.26733C15.2899 3.27309 15.3559 3.29226 15.4163 3.32372C15.1094 3.06086 14.9114 2.69315 14.8609 2.29225C14.8381 2.09311 14.8598 1.8914 14.9244 1.70166C14.989 1.51192 15.0949 1.33887 15.2344 1.19498Z" fill="#F8CA77"/>
</g>
<g style="mix-blend-mode:multiply">
<path d="M13.5693 6.96119C13.5629 6.83249 13.5184 6.70858 13.4415 6.60516C13.3693 6.52799 13.2815 6.46706 13.184 6.4264C13.0864 6.38574 12.9813 6.36629 12.8757 6.36933C12.4857 6.36715 12.105 6.48866 11.7884 6.71639C11.4743 6.94363 11.1967 7.21742 10.9652 7.52832C10.8943 7.61926 10.8138 7.70224 10.725 7.77578C11.1996 8.17763 11.2755 8.89436 11.6937 9.35458C11.7845 9.46127 11.9011 9.54291 12.0325 9.59169C12.1682 9.63474 12.3149 9.62679 12.4451 9.56935C12.5753 9.5119 12.6801 9.4089 12.7398 9.27968C12.8054 9.11894 12.8307 8.94466 12.8137 8.77192C12.7966 8.59918 12.7378 8.4332 12.6421 8.28835C12.6148 8.24371 12.579 8.20494 12.5366 8.17427C12.4942 8.1436 12.4462 8.12165 12.3952 8.1097C12.7059 8.1106 13.0057 7.99579 13.2363 7.78766C13.3494 7.6831 13.438 7.55474 13.4956 7.41183C13.5532 7.26892 13.5784 7.11501 13.5693 6.96119Z" fill="white"/>
</g>
<g style="mix-blend-mode:multiply">
<path d="M9.00814 6.36102C9.04766 6.23836 9.12267 6.13018 9.22369 6.05016C9.3134 5.9943 9.41397 5.95815 9.51872 5.94411C9.62347 5.93007 9.73001 5.93846 9.83127 5.96873C10.2086 6.06753 10.5449 6.28338 10.7918 6.58526C11.0364 6.88602 11.2337 7.2223 11.3769 7.58252C11.4219 7.68871 11.4782 7.7897 11.5449 7.88372C10.9826 8.14913 10.7237 8.8218 10.2007 9.15816C10.0854 9.23773 9.95165 9.28642 9.81216 9.29957C9.66997 9.30605 9.5303 9.26042 9.41935 9.17124C9.30841 9.08206 9.23383 8.95546 9.2096 8.81519C9.18789 8.64298 9.20849 8.46807 9.26963 8.30562C9.33076 8.14316 9.43058 7.99806 9.56044 7.88289C9.59834 7.84683 9.64302 7.81865 9.69189 7.79999C9.74076 7.78133 9.79285 7.77256 9.84514 7.77418C9.54485 7.6947 9.28493 7.50624 9.11603 7.24555C9.03375 7.11527 8.9814 6.96836 8.96274 6.8154C8.94409 6.66245 8.95959 6.50726 9.00814 6.36102Z" fill="white"/>
</g>
<g style="mix-blend-mode:multiply">
<path d="M13.5693 6.96119C13.5629 6.83249 13.5184 6.70858 13.4415 6.60516C13.3693 6.52799 13.2815 6.46706 13.184 6.4264C13.0864 6.38574 12.9813 6.36629 12.8757 6.36933C12.4857 6.36715 12.105 6.48866 11.7884 6.71639C11.4743 6.94363 11.1967 7.21742 10.9652 7.52832C10.8943 7.61926 10.8138 7.70224 10.725 7.77578C11.1996 8.17763 11.2755 8.89436 11.6937 9.35458C11.7845 9.46127 11.9011 9.54291 12.0325 9.59169C12.1682 9.63474 12.3149 9.62679 12.4451 9.56935C12.5753 9.5119 12.6801 9.4089 12.7398 9.27968C12.8054 9.11894 12.8307 8.94466 12.8137 8.77192C12.7966 8.59918 12.7378 8.4332 12.6421 8.28835C12.6148 8.24371 12.579 8.20494 12.5366 8.17427C12.4942 8.1436 12.4462 8.12165 12.3952 8.1097C12.7059 8.1106 13.0057 7.99579 13.2363 7.78766C13.3494 7.6831 13.438 7.55474 13.4956 7.41183C13.5532 7.26892 13.5784 7.11501 13.5693 6.96119Z" fill="#82CACD"/>
</g>
<g style="mix-blend-mode:multiply">
<path d="M9.00814 6.36102C9.04766 6.23836 9.12267 6.13018 9.22369 6.05016C9.3134 5.9943 9.41397 5.95815 9.51872 5.94411C9.62347 5.93007 9.73001 5.93846 9.83127 5.96873C10.2086 6.06753 10.5449 6.28338 10.7918 6.58526C11.0364 6.88602 11.2337 7.2223 11.3769 7.58252C11.4219 7.68871 11.4782 7.7897 11.5449 7.88372C10.9826 8.14913 10.7237 8.8218 10.2007 9.15816C10.0854 9.23773 9.95165 9.28642 9.81216 9.29957C9.66997 9.30605 9.5303 9.26042 9.41935 9.17124C9.30841 9.08206 9.23383 8.95546 9.2096 8.81519C9.18789 8.64298 9.20849 8.46807 9.26963 8.30562C9.33076 8.14316 9.43058 7.99806 9.56044 7.88289C9.59834 7.84683 9.64302 7.81865 9.69189 7.79999C9.74076 7.78133 9.79285 7.77256 9.84514 7.77418C9.54485 7.6947 9.28493 7.50624 9.11603 7.24555C9.03375 7.11527 8.9814 6.96836 8.96274 6.8154C8.94409 6.66245 8.95959 6.50726 9.00814 6.36102Z" fill="#82CACD"/>
</g>
<path d="M10.1917 0.33272C10.1336 0.217682 10.0427 0.122464 9.9305 0.0591199C9.8332 0.0178736 9.72823 -0.00221271 9.62257 0.000193222C9.51691 0.00259915 9.41297 0.0274423 9.31764 0.073075C8.96025 0.229292 8.66158 0.494763 8.46451 0.831353C8.26962 1.16646 8.12695 1.52931 8.04141 1.90741C8.01357 2.01929 7.97365 2.1278 7.92236 2.23105C8.5191 2.40587 8.87932 3.03015 9.44822 3.28118C9.57449 3.34187 9.71422 3.36918 9.85405 3.3605C9.99553 3.34481 10.1264 3.27803 10.2222 3.1727C10.3179 3.06736 10.3719 2.93071 10.3741 2.78838C10.3687 2.61489 10.3212 2.44531 10.2356 2.29432C10.1499 2.14334 10.0288 2.01551 9.88261 1.92191C9.83958 1.89217 9.79106 1.87128 9.73989 1.86044C9.68871 1.8496 9.63589 1.84903 9.58449 1.85876C9.86879 1.73359 10.0963 1.50703 10.2226 1.22326C10.2836 1.08178 10.3125 0.928516 10.3072 0.774522C10.3018 0.620529 10.2624 0.469637 10.1917 0.33272Z" fill="white"/>
<path d="M5.77917 1.63423C5.76553 1.50608 5.79022 1.37677 5.8501 1.26266C5.90944 1.1752 5.9867 1.10136 6.07675 1.04603C6.1668 0.990706 6.26758 0.955158 6.37242 0.941747C6.75736 0.879012 7.15229 0.939899 7.50047 1.11566C7.84603 1.29138 8.16279 1.51874 8.43983 1.78991C8.52396 1.86876 8.61641 1.93822 8.71555 1.99708C8.30921 2.46777 8.34546 3.18762 8.00386 3.70722C7.93074 3.82672 7.82821 3.92548 7.70605 3.99408C7.57871 4.05768 7.43254 4.07263 7.29496 4.03612C7.15738 3.9996 7.03785 3.91414 6.9588 3.79576C6.8691 3.64715 6.81698 3.47891 6.80696 3.30562C6.79694 3.13232 6.82933 2.95919 6.90131 2.80124C6.92132 2.75291 6.95073 2.70903 6.98783 2.67215C7.02493 2.63527 7.06898 2.60612 7.11743 2.5864C6.81072 2.63556 6.4967 2.56874 6.23658 2.39897C6.10853 2.31326 6.00108 2.20022 5.92198 2.06798C5.84288 1.93573 5.79411 1.78759 5.77917 1.63423Z" fill="white"/>
<g style="mix-blend-mode:multiply">
<path d="M10.1917 0.33272C10.1336 0.217682 10.0427 0.122464 9.9305 0.0591199C9.8332 0.0178736 9.72823 -0.00221271 9.62257 0.000193222C9.51691 0.00259915 9.41297 0.0274423 9.31764 0.073075C8.96025 0.229292 8.66158 0.494763 8.46451 0.831353C8.26962 1.16646 8.12695 1.52931 8.04141 1.90741C8.01357 2.01929 7.97365 2.1278 7.92236 2.23105C8.5191 2.40587 8.87932 3.03015 9.44822 3.28118C9.57449 3.34187 9.71422 3.36918 9.85405 3.3605C9.99553 3.34481 10.1264 3.27803 10.2222 3.1727C10.3179 3.06736 10.3719 2.93071 10.3741 2.78838C10.3687 2.61489 10.3212 2.44531 10.2356 2.29432C10.1499 2.14334 10.0288 2.01551 9.88261 1.92191C9.83958 1.89217 9.79106 1.87128 9.73989 1.86044C9.68871 1.8496 9.63589 1.84903 9.58449 1.85876C9.86879 1.73359 10.0963 1.50703 10.2226 1.22326C10.2836 1.08178 10.3125 0.928516 10.3072 0.774522C10.3018 0.620529 10.2624 0.469637 10.1917 0.33272Z" fill="#F1A86D"/>
</g>
<g style="mix-blend-mode:multiply">
<path d="M5.77917 1.63423C5.76553 1.50608 5.79022 1.37677 5.8501 1.26266C5.90944 1.1752 5.9867 1.10136 6.07675 1.04603C6.1668 0.990706 6.26758 0.955158 6.37242 0.941747C6.75736 0.879012 7.15229 0.939899 7.50047 1.11566C7.84603 1.29138 8.16279 1.51874 8.43983 1.78991C8.52396 1.86876 8.61641 1.93822 8.71555 1.99708C8.30921 2.46777 8.34546 3.18762 8.00386 3.70722C7.93074 3.82672 7.82821 3.92548 7.70605 3.99408C7.57871 4.05768 7.43254 4.07263 7.29496 4.03612C7.15738 3.9996 7.03785 3.91414 6.9588 3.79576C6.8691 3.64715 6.81698 3.47891 6.80696 3.30562C6.79694 3.13232 6.82933 2.95919 6.90131 2.80124C6.92132 2.75291 6.95073 2.70903 6.98783 2.67215C7.02493 2.63527 7.06898 2.60612 7.11743 2.5864C6.81072 2.63556 6.4967 2.56874 6.23658 2.39897C6.10853 2.31326 6.00108 2.20022 5.92198 2.06798C5.84288 1.93573 5.79411 1.78759 5.77917 1.63423Z" fill="#F5C197"/>
</g>
<g style="mix-blend-mode:multiply">
<path d="M10.6747 13.6049C10.7252 13.3141 10.6883 13.0149 10.5687 12.745C10.3582 12.3103 9.8906 12.056 9.42354 11.9328C8.56664 11.7067 7.64347 11.8339 6.81933 12.1598C5.99518 12.4856 5.25902 13.0003 4.57069 13.5585C4.36652 13.726 4.14476 13.8708 3.9093 13.9903C4.76677 15.1274 4.57515 16.767 5.27728 18.006C5.42633 18.2902 5.64572 18.5314 5.91453 18.7066C6.19593 18.8712 6.52773 18.9274 6.84765 18.8648C7.16758 18.8021 7.45365 18.6249 7.65218 18.3663C7.87963 18.0402 8.02415 17.6637 8.07322 17.2692C8.12229 16.8747 8.07445 16.4741 7.93382 16.1023C7.89539 15.9888 7.83482 15.8841 7.75561 15.7942C7.6764 15.7043 7.58013 15.6311 7.47238 15.5787C8.16588 15.7373 8.89361 15.6321 9.51372 15.2834C9.81932 15.1069 10.082 14.8648 10.2827 14.5746C10.4835 14.2843 10.6173 13.9532 10.6747 13.6049Z" fill="white"/>
</g>
<path d="M0.789396 9.96472C0.939528 9.71061 1.16167 9.50675 1.42772 9.37895C1.86994 9.1846 2.39077 9.29431 2.82618 9.50345C3.62507 9.88716 4.2452 10.5827 4.66114 11.3653C5.07708 12.1478 5.30362 13.017 5.46544 13.8883C5.51222 14.1482 5.58711 14.4022 5.6888 14.6459C4.29866 14.9553 3.3811 16.3275 2.04305 16.8152C1.74531 16.9348 1.42188 16.9761 1.10364 16.9351C0.782697 16.8779 0.49367 16.7055 0.290793 16.4503C0.0879167 16.1952 -0.0148638 15.8747 0.00173809 15.5491C0.0400964 15.1534 0.174346 14.7731 0.392859 14.441C0.611371 14.1089 0.907556 13.835 1.25576 13.6432C1.35861 13.5818 1.47263 13.5414 1.59122 13.5243C1.70981 13.5073 1.83061 13.5139 1.9466 13.5439C1.31583 13.2149 0.830179 12.6628 0.584329 11.9952C0.466215 11.6627 0.423343 11.3081 0.458804 10.9569C0.494265 10.6058 0.607174 10.2669 0.789396 9.96472Z" fill="white"/>
<path d="M10.6769 13.606C10.7274 13.3152 10.6905 13.0159 10.5709 12.7461C10.3604 12.3113 9.8928 12.057 9.42573 11.9338C8.56883 11.7078 7.64567 11.8349 6.82153 12.1608C5.99738 12.4866 5.26122 13.0013 4.57288 13.5596C4.36872 13.727 4.14696 13.8718 3.9115 13.9913C4.76897 15.1284 4.57735 16.768 5.27948 18.007C5.42852 18.2912 5.64792 18.5324 5.91672 18.7076C6.19813 18.8722 6.52992 18.9285 6.84985 18.8658C7.16978 18.8032 7.45585 18.6259 7.65438 18.3673C7.88182 18.0413 8.02634 17.6647 8.07542 17.2702C8.12449 16.8757 8.07664 16.4752 7.93602 16.1033C7.89759 15.9899 7.83702 15.8851 7.75781 15.7953C7.6786 15.7054 7.58233 15.6321 7.47458 15.5797C8.16808 15.7384 8.89581 15.6331 9.51592 15.2844C9.82151 15.1079 10.0841 14.8658 10.2849 14.5756C10.4856 14.2854 10.6195 13.9542 10.6769 13.606Z" fill="white"/>
<g style="mix-blend-mode:multiply">
<path d="M0.789396 9.96472C0.939528 9.71061 1.16167 9.50675 1.42772 9.37895C1.86994 9.1846 2.39077 9.29431 2.82618 9.50345C3.62507 9.88716 4.2452 10.5827 4.66114 11.3653C5.07708 12.1478 5.30362 13.017 5.46544 13.8883C5.51222 14.1482 5.58711 14.4022 5.6888 14.6459C4.29866 14.9553 3.3811 16.3275 2.04305 16.8152C1.74531 16.9348 1.42188 16.9761 1.10364 16.9351C0.782697 16.8779 0.49367 16.7055 0.290793 16.4503C0.0879167 16.1952 -0.0148638 15.8747 0.00173809 15.5491C0.0400964 15.1534 0.174346 14.7731 0.392859 14.441C0.611371 14.1089 0.907556 13.835 1.25576 13.6432C1.35861 13.5818 1.47263 13.5414 1.59122 13.5243C1.70981 13.5073 1.83061 13.5139 1.9466 13.5439C1.31583 13.2149 0.830179 12.6628 0.584329 11.9952C0.466215 11.6627 0.423343 11.3081 0.458804 10.9569C0.494265 10.6058 0.607174 10.2669 0.789396 9.96472Z" fill="#F9CC7D"/>
</g>
<g style="mix-blend-mode:multiply">
<path d="M10.6769 13.606C10.7274 13.3152 10.6905 13.0159 10.5709 12.7461C10.3604 12.3113 9.8928 12.057 9.42573 11.9338C8.56883 11.7078 7.64567 11.8349 6.82153 12.1608C5.99738 12.4866 5.26122 13.0013 4.57288 13.5596C4.36872 13.727 4.14696 13.8718 3.9115 13.9913C4.76897 15.1284 4.57735 16.768 5.27948 18.007C5.42852 18.2912 5.64792 18.5324 5.91672 18.7076C6.19813 18.8722 6.52992 18.9285 6.84985 18.8658C7.16978 18.8032 7.45585 18.6259 7.65438 18.3673C7.88182 18.0413 8.02634 17.6647 8.07542 17.2702C8.12449 16.8757 8.07664 16.4752 7.93602 16.1033C7.89759 15.9899 7.83702 15.8851 7.75781 15.7953C7.6786 15.7054 7.58233 15.6321 7.47458 15.5797C8.16808 15.7384 8.89581 15.6331 9.51592 15.2844C9.82151 15.1079 10.0841 14.8658 10.2849 14.5756C10.4856 14.2854 10.6195 13.9542 10.6769 13.606Z" fill="#F5B33C"/>
</g>
</svg>
