<svg width="66" height="121" viewBox="0 0 66 121" fill="none" xmlns="http://www.w3.org/2000/svg">
<mask id="mask0" mask-type="alpha" maskUnits="userSpaceOnUse" x="0" y="55" width="66" height="66">
<path d="M0.184082 55.1838H66V121H0.184082V55.1838Z" fill="#C4C4C4"/>
</mask>
<g mask="url(#mask0)">
<path d="M8.39136 120.972C8.42985 117.148 8.59965 112.27 8.72197 108.447C8.85321 104.319 9.03438 100.193 9.26547 96.0693C9.39571 93.7524 9.54138 91.4365 9.70249 89.1213C9.70528 89.0927 9.7119 89.0646 9.72217 89.0378C9.72203 89.0358 9.72238 89.0339 9.72319 89.0321C9.72984 89.0102 9.73876 88.989 9.7498 88.969C9.76191 88.9455 9.77647 88.9235 9.79325 88.9031C9.83847 88.8414 9.90364 88.7973 9.9777 88.7781C10.0518 88.759 10.1302 88.766 10.1996 88.7981C10.2124 88.8037 10.2234 88.8077 10.2361 88.8143C10.2568 88.8259 10.2786 88.8381 10.2993 88.8496C11.4623 89.5083 12.626 90.1668 13.7902 90.8252C16.4477 92.3292 19.1048 93.8333 21.7616 95.3374C24.5483 96.9142 27.335 98.491 30.1217 100.068C31.692 100.957 33.2631 101.846 34.8349 102.735C34.8782 102.76 34.9256 102.782 34.967 102.81C35.26 103.012 35.1851 103.502 35.2058 103.822C35.3144 105.483 35.4512 107.141 35.6161 108.797C35.9456 112.115 36.3871 115.419 36.9409 118.71C37.009 119.113 37.5022 120.516 37.5732 120.919L8.39136 120.972Z" fill="#3E8F92"/>
<g style="mix-blend-mode:multiply" opacity="0.2">
<path d="M32.0827 112.998C29.2753 111.225 26.0398 110.235 23.1278 108.643C20.1123 106.995 17.1067 104.947 14.9759 102.208C12.9773 99.5835 11.726 96.4673 11.3547 93.1896C11.2314 91.9582 11.2577 90.7165 11.4328 89.4915C12.218 89.9361 13.0038 90.3806 13.7904 90.8251C16.4478 92.3291 19.105 93.8332 21.7618 95.3373C24.5484 96.9141 27.3351 98.4909 30.1218 100.068C31.6921 100.957 33.2632 101.846 34.835 102.735C34.8784 102.76 34.9257 102.782 34.9671 102.81C35.2601 103.012 35.1852 103.502 35.2059 103.822C35.3145 105.483 35.4513 107.141 35.6163 108.797C35.9072 111.726 36.2873 114.644 36.7567 117.552C35.553 115.708 33.957 114.153 32.0827 112.998Z" fill="#3E8F92"/>
</g>
<path d="M62.3464 78.3308C60.0983 78.7772 57.8759 79.3846 55.6623 79.9863C55.6584 80.0184 55.6515 80.0482 55.6465 80.0783C55.6337 80.1703 55.618 80.2625 55.6071 80.3543C55.6032 80.376 55.6021 80.3876 55.6003 80.3977C55.5983 80.4144 55.5954 80.4344 55.5935 80.4596C55.5402 80.9076 55.4939 81.3563 55.4584 81.8058C55.3933 82.6369 55.3558 83.4694 55.3192 84.3025C55.261 85.6786 55.197 87.0512 55.04 88.4195C54.9966 88.8007 54.9447 89.1809 54.8842 89.5599C54.8644 89.6803 54.8447 89.8009 54.822 89.9212C54.3105 92.5766 53.1916 95.0777 51.553 97.229C48.6273 101.132 44.425 103.771 39.8026 105.227C35.1911 106.638 30.3291 107.033 25.5504 106.386C23.2163 106.101 20.9199 105.564 18.7016 104.784C15.9909 103.836 13.5025 102.345 11.3892 100.401C9.19013 98.3188 7.45415 95.7972 6.29422 92.9999C5.09472 90.1404 4.68435 86.9895 4.39734 83.9244C4.25428 82.374 4.1586 80.8208 4.06292 79.2672C3.95639 77.5516 3.83308 75.8358 3.77389 74.1168C3.64425 70.3013 3.73978 66.4814 4.05997 62.6771C4.36279 59.092 4.77117 55.4567 5.73688 51.9814C6.59219 48.9047 7.90705 45.8774 10.162 43.5667C14.0318 39.6005 19.7236 38.144 25.072 37.6604C28.4891 37.343 31.9345 37.5465 35.2905 38.2641C38.8178 38.9962 42.1996 40.3071 45.2988 42.1437C48.1081 43.8084 50.4427 46.1668 52.0786 48.993C53.5966 51.7004 54.4701 54.7212 54.6315 57.8209C54.7011 59.1909 54.628 60.5645 54.4135 61.9194C54.597 62.3857 54.7154 62.6653 54.9464 63.1687C55.1821 63.6819 55.4307 64.1896 55.6921 64.692C56.214 65.7 56.7772 66.6853 57.3641 67.655C58.5429 69.6066 59.8124 71.5029 61.0198 73.4363C61.7025 74.5295 62.3644 75.635 62.9838 76.7655C63.2906 77.3308 63.0448 78.1937 62.3464 78.3308Z" fill="#3E8F92"/>
<path d="M55.0402 88.4199C54.9967 88.8011 54.9448 89.1813 54.8843 89.5603C54.8646 89.6807 54.8448 89.8013 54.8221 89.9216C52.7121 89.9478 50.6296 89.4404 48.7682 88.4464C46.9067 87.4525 45.3266 86.0043 44.1746 84.2363C44.1247 84.151 44.0922 84.0567 44.0787 83.9588C44.0653 83.8609 44.0713 83.7613 44.0964 83.6658C44.1215 83.5702 44.1651 83.4805 44.2248 83.4018C44.2846 83.3231 44.3592 83.2569 44.4445 83.2071C44.5298 83.1572 44.6241 83.1246 44.722 83.1112C44.8199 83.0978 44.9194 83.1038 45.015 83.1289C45.1106 83.1539 45.2003 83.1976 45.279 83.2573C45.3577 83.317 45.4238 83.3917 45.4737 83.477C45.5694 83.6207 45.6651 83.763 45.7656 83.9034C45.81 83.9635 45.8544 84.0256 45.8998 84.0856C45.9077 84.0946 45.915 84.1041 45.9215 84.1142C45.9224 84.1159 45.9244 84.1159 45.9244 84.1176L45.9215 84.1161C45.9235 84.1186 45.9257 84.1209 45.9283 84.1229C45.9314 84.1257 45.9341 84.1289 45.9362 84.1325C45.9381 84.134 45.9398 84.1359 45.9411 84.1379C45.9422 84.1397 45.9435 84.1414 45.945 84.1429L45.9461 84.1446V84.146C45.95 84.1494 45.952 84.1528 45.9539 84.1547L45.9549 84.1564L45.9559 84.1594C45.9647 84.1682 45.9726 84.1779 45.9797 84.1882C46.174 84.4336 46.3791 84.6694 46.5922 84.8967C46.8141 85.133 47.0446 85.3594 47.2837 85.5759C47.4031 85.6845 47.5254 85.7919 47.6487 85.8933C47.7069 85.9421 47.7661 85.9907 47.8243 86.0375C47.8578 86.0644 47.8914 86.0908 47.9259 86.1175C47.9279 86.1194 47.9298 86.1208 47.9348 86.1258H47.9357C47.9378 86.1278 47.9397 86.1278 47.9417 86.1307L47.9427 86.133H47.9446L47.9514 86.1377L47.9544 86.1394L47.9632 86.1462L47.9682 86.1511L47.9712 86.1529C47.9968 86.1716 48.0303 86.1965 48.0303 86.1965C48.057 86.2165 48.0816 86.2347 48.1084 86.2552C48.1607 86.2919 48.2119 86.3304 48.2652 86.3669C48.3797 86.449 48.497 86.5275 48.6134 86.6045C48.8482 86.7584 49.0869 86.9039 49.3315 87.0389C49.5851 87.1815 49.8445 87.3151 50.1069 87.4389C50.2193 87.4909 50.3298 87.5407 50.4433 87.5896H50.4442C50.4462 87.5913 50.4482 87.5913 50.451 87.5926C50.4524 87.5938 50.4541 87.5945 50.456 87.5945C50.4594 87.5958 50.4627 87.5975 50.4658 87.5994C50.4691 87.6014 50.4728 87.6025 50.4767 87.6028C50.5102 87.6161 50.5605 87.6361 50.5803 87.6448C50.6404 87.6679 50.7006 87.6913 50.7608 87.7148C51.2947 87.9167 51.8431 88.0783 52.4012 88.1982C52.5561 88.2332 52.7139 88.2633 52.8717 88.2898C52.9398 88.3014 53.0098 88.3133 53.0779 88.3231C53.0947 88.3265 53.1272 88.3303 53.1548 88.3349C53.1616 88.3349 53.1667 88.3367 53.1736 88.3367L53.1766 88.3384H53.1785C53.1832 88.3381 53.1878 88.3386 53.1923 88.3399C53.4932 88.3752 53.7921 88.4018 54.0969 88.4171C54.4119 88.4302 54.7255 88.4316 55.0402 88.4199Z" fill="#2A3245"/>
<path fill-rule="evenodd" clip-rule="evenodd" d="M36.1564 65.7846C36.1564 65.7847 36.1564 65.7847 36.1564 65.7847C36.1564 65.7847 36.1564 65.7847 36.1564 65.7847L36.1618 65.7909C36.1675 65.7976 36.1778 65.8094 36.1924 65.8257C36.2217 65.8583 36.2683 65.9089 36.3314 65.9733C36.4579 66.1026 36.649 66.2861 36.8979 66.4917C37.3991 66.9056 38.1156 67.3936 38.9933 67.7184C39.8643 68.0407 40.8897 68.2013 42.0364 67.9749C43.1829 67.7485 44.5126 67.1229 45.9729 65.7751C46.3314 65.4442 46.8903 65.4666 47.2213 65.8251C47.5522 66.1836 47.5298 66.7425 47.1713 67.0735C45.513 68.604 43.8968 69.4086 42.3786 69.7083C40.8606 70.0081 39.5027 69.7908 38.3801 69.3755C37.2642 68.9625 36.3769 68.353 35.7727 67.8539C35.469 67.603 35.232 67.3761 35.0685 67.209C34.9867 67.1254 34.9229 67.0564 34.878 67.0064C34.8555 66.9814 34.8378 66.9611 34.8248 66.9461L34.809 66.9276L34.8038 66.9214L34.8018 66.9192L34.8011 66.9182C34.8007 66.9178 34.8004 66.9174 35.4792 66.352L34.8004 66.9174C34.4881 66.5425 34.5388 65.9855 34.9137 65.6732C35.288 65.3614 35.8438 65.4115 36.1564 65.7846Z" fill="#2A3245"/>
<g style="mix-blend-mode:multiply" opacity="0.2">
<path d="M4.06053 62.6792C4.36335 59.0933 4.77172 55.4583 5.73744 51.9823C6.59274 48.9059 7.90761 45.8798 10.1636 43.5673C14.0314 39.6018 19.7241 38.1446 25.0726 37.6627C28.49 37.3448 31.9358 37.5482 35.2921 38.2659C38.8194 38.9971 42.201 40.3079 45.2995 42.1451C45.8953 42.5074 46.4714 42.8987 47.0258 43.3143C43.1234 41.86 38.9587 41.0859 34.8019 41.4306C25.704 42.1866 17.5176 47.8705 12.8873 55.6323C10.2416 60.0673 8.92474 65.1304 8.23422 70.2101C7.51291 75.518 7.12833 81.0092 7.61473 86.3541C8.05766 91.2195 9.4199 96.5645 12.0498 100.984C11.8268 100.795 11.6059 100.604 11.3908 100.403C9.19124 98.321 7.45489 95.7991 6.29488 93.0015C5.09538 90.1418 4.685 86.9906 4.398 83.9251C4.25395 82.3754 4.15926 80.8222 4.06358 79.2691C3.95704 77.5522 3.83373 75.8368 3.77454 74.1174C3.64484 70.3024 3.74034 66.483 4.06053 62.6792Z" fill="#4DB3B7"/>
</g>
</g>
<g style="mix-blend-mode:multiply">
<path d="M54.726 35.5903C54.4518 35.168 54.0585 34.8366 53.5958 34.638C52.828 34.3386 51.9482 34.5633 51.2212 34.9512C49.8991 35.709 48.8512 36.8663 48.228 38.257C47.6126 39.641 47.2118 41.1107 47.0393 42.6155C46.9783 43.0619 46.869 43.5003 46.7133 43.923C49.1051 44.3498 50.7681 46.6225 53.0839 47.3572C53.6001 47.5395 54.1543 47.5866 54.6938 47.4937C55.2367 47.373 55.7169 47.0583 56.0442 46.6087C56.3716 46.1591 56.5237 45.6055 56.4719 45.0518C56.3779 44.3801 56.1216 43.7415 55.7252 43.1912C55.3288 42.6409 54.8042 42.1956 54.1968 41.8938C54.0171 41.7965 53.8198 41.7359 53.6165 41.7154C53.4132 41.6949 53.2078 41.715 53.0123 41.7745C54.0636 41.1681 54.8515 40.192 55.2224 39.0364C55.3996 38.461 55.4471 37.8535 55.3613 37.2576C55.2754 36.6617 55.0585 36.0922 54.726 35.5903Z" fill="white"/>
</g>
<g style="mix-blend-mode:multiply">
<path d="M38.1366 42.5102C38.0295 42.0182 38.0707 41.5055 38.2551 41.037C38.5826 40.2807 39.3612 39.8135 40.1484 39.5698C41.6171 39.1635 43.1768 39.2331 44.6035 39.7686C46.0201 40.3051 47.3465 41.0542 48.5373 41.9904C48.8974 42.2611 49.2858 42.4918 49.6958 42.6786C48.3164 44.6786 48.7614 47.4594 47.6541 49.622C47.4206 50.1171 47.064 50.544 46.6185 50.8621C46.1508 51.163 45.5893 51.2828 45.0394 51.1991C44.4896 51.1154 43.9892 50.834 43.6322 50.4076C43.2209 49.8682 42.9474 49.2368 42.8353 48.5679C42.7232 47.8991 42.7758 47.213 42.9886 46.569C43.0459 46.3728 43.1416 46.19 43.2702 46.031C43.3987 45.8721 43.5575 45.7403 43.7373 45.6432C42.5668 45.9637 41.3188 45.8368 40.2366 45.2873C39.703 45.0085 39.2379 44.6148 38.8747 44.1346C38.5116 43.6544 38.2595 43.0996 38.1366 42.5102Z" fill="white"/>
</g>
<g style="mix-blend-mode:multiply">
<path d="M54.726 35.5903C54.4518 35.168 54.0585 34.8366 53.5958 34.638C52.828 34.3386 51.9482 34.5633 51.2212 34.9512C49.8991 35.709 48.8512 36.8663 48.228 38.257C47.6126 39.641 47.2118 41.1107 47.0393 42.6155C46.9783 43.0619 46.869 43.5003 46.7133 43.923C49.1051 44.3498 50.7681 46.6225 53.0839 47.3572C53.6001 47.5395 54.1543 47.5866 54.6938 47.4937C55.2367 47.373 55.7169 47.0583 56.0442 46.6087C56.3716 46.1591 56.5237 45.6055 56.4719 45.0518C56.3779 44.3801 56.1216 43.7415 55.7252 43.1912C55.3288 42.6409 54.8042 42.1956 54.1968 41.8938C54.0171 41.7965 53.8198 41.7359 53.6165 41.7154C53.4132 41.6949 53.2078 41.715 53.0123 41.7745C54.0636 41.1681 54.8515 40.192 55.2224 39.0364C55.3996 38.461 55.4471 37.8535 55.3613 37.2576C55.2754 36.6617 55.0585 36.0922 54.726 35.5903Z" fill="#EB822F"/>
</g>
<g style="mix-blend-mode:multiply">
<path d="M38.1366 42.5102C38.0295 42.0182 38.0707 41.5055 38.2551 41.037C38.5826 40.2807 39.3612 39.8135 40.1484 39.5698C41.6171 39.1635 43.1768 39.2331 44.6035 39.7686C46.0201 40.3051 47.3465 41.0542 48.5373 41.9904C48.8974 42.2611 49.2858 42.4918 49.6958 42.6786C48.3164 44.6786 48.7614 47.4594 47.6541 49.622C47.4206 50.1171 47.064 50.544 46.6185 50.8621C46.1508 51.163 45.5893 51.2828 45.0394 51.1991C44.4896 51.1154 43.9892 50.834 43.6322 50.4076C43.2209 49.8682 42.9474 49.2368 42.8353 48.5679C42.7232 47.8991 42.7758 47.213 42.9886 46.569C43.0459 46.3728 43.1416 46.19 43.2702 46.031C43.3987 45.8721 43.5575 45.7403 43.7373 45.6432C42.5668 45.9637 41.3188 45.8368 40.2366 45.2873C39.703 45.0085 39.2379 44.6148 38.8747 44.1346C38.5116 43.6544 38.2595 43.0996 38.1366 42.5102Z" fill="#F1A96F"/>
</g>
<g style="mix-blend-mode:multiply">
<path d="M60.7853 14.2957C60.9812 13.8318 61.0351 13.3203 60.9401 12.8258C60.7575 12.0222 60.0782 11.4197 59.3494 11.0351C57.9805 10.3653 56.4346 10.1465 54.9337 10.4103C53.4427 10.6767 52.0009 11.1689 50.6582 11.8697C50.2544 12.0695 49.8301 12.2248 49.3928 12.3329C50.3805 14.5526 49.431 17.204 50.1213 19.5335C50.2596 20.0631 50.5315 20.5484 50.9108 20.9431C51.3151 21.3249 51.845 21.5461 52.4008 21.565C52.9566 21.584 53.5003 21.3995 53.9297 21.0461C54.4332 20.5917 54.8183 20.0214 55.0517 19.3847C55.2851 18.7479 55.3597 18.0638 55.269 17.3917C55.2488 17.1883 55.1884 16.9909 55.0914 16.811C54.9943 16.6312 54.8625 16.4723 54.7036 16.3438C55.7951 16.8744 57.0451 16.9795 58.21 16.6386C58.7858 16.4628 59.3154 16.1615 59.7608 15.7564C60.2061 15.3512 60.5561 14.8523 60.7853 14.2957Z" fill="white"/>
</g>
<g style="mix-blend-mode:multiply">
<path d="M45.7528 4.43934C46.1002 4.07478 46.5478 3.82146 47.0392 3.71144C47.849 3.55871 48.6724 3.94136 49.3156 4.45648C50.4756 5.44477 51.2925 6.77529 51.6489 8.25692C51.999 9.73055 52.1224 11.2489 52.0149 12.7597C51.9926 13.2097 52.0194 13.6607 52.0946 14.1049C49.6651 14.0841 47.6121 16.0117 45.2006 16.3074C44.6597 16.3916 44.1062 16.3358 43.5931 16.1453C43.0817 15.9267 42.6676 15.5289 42.4286 15.0268C42.1896 14.5246 42.1421 13.9524 42.295 13.4177C42.511 12.7748 42.8805 12.1943 43.3715 11.7264C43.8624 11.2585 44.4601 10.9174 45.1126 10.7326C45.3072 10.67 45.5122 10.6467 45.7159 10.664C45.9196 10.6813 46.1177 10.7389 46.299 10.8334C45.3772 10.0438 44.7825 8.93934 44.6308 7.73519C44.5624 7.13703 44.6276 6.53116 44.8216 5.96124C45.0157 5.39131 45.3337 4.87153 45.7528 4.43934Z" fill="white"/>
</g>
<g style="mix-blend-mode:multiply">
<path d="M60.7912 14.2986C60.9871 13.8347 61.041 13.3232 60.946 12.8287C60.7634 12.0251 60.0841 11.4226 59.3552 11.0381C57.9864 10.3682 56.4405 10.1495 54.9395 10.4132C53.4485 10.6797 52.0068 11.1718 50.6641 11.8727C50.2603 12.0724 49.836 12.2277 49.3987 12.3358C50.3864 14.5556 49.4369 17.2069 50.1271 19.5364C50.2655 20.066 50.5373 20.5513 50.9167 20.946C51.321 21.3278 51.8508 21.549 52.4066 21.568C52.9625 21.587 53.5061 21.4024 53.9356 21.0491C54.4391 20.5947 54.8242 20.0244 55.0576 19.3876C55.2909 18.7508 55.3655 18.0667 55.2749 17.3946C55.2547 17.1912 55.1943 16.9938 55.0972 16.814C55.0002 16.6341 54.8683 16.4753 54.7094 16.3467C55.801 16.8773 57.051 16.9824 58.2158 16.6415C58.7916 16.4658 59.3213 16.1645 59.7666 15.7593C60.212 15.3542 60.5619 14.8553 60.7912 14.2986Z" fill="#FAD99E"/>
</g>
<g style="mix-blend-mode:multiply">
<path d="M45.7594 4.44227C46.1068 4.07771 46.5544 3.82439 47.0458 3.71437C47.8555 3.56164 48.679 3.94429 49.3222 4.45941C50.4821 5.4477 51.299 6.77822 51.6555 8.25985C52.0056 9.73348 52.129 11.2519 52.0215 12.7627C51.9992 13.2126 52.0259 13.6636 52.1012 14.1078C49.6717 14.087 47.6187 16.0147 45.2072 16.3104C44.6663 16.3946 44.1128 16.3388 43.5996 16.1482C43.0883 15.9296 42.6742 15.5319 42.4352 15.0297C42.1962 14.5275 42.1487 13.9553 42.3016 13.4206C42.5176 12.7777 42.8871 12.1972 43.3781 11.7293C43.869 11.2614 44.4666 10.9203 45.1192 10.7355C45.3138 10.6729 45.5188 10.6496 45.7225 10.6669C45.9261 10.6843 46.1243 10.7418 46.3056 10.8363C45.3838 10.0468 44.7891 8.94227 44.6374 7.73812C44.569 7.13996 44.6342 6.53409 44.8282 5.96417C45.0223 5.39424 45.3403 4.87446 45.7594 4.44227Z" fill="#F8CA77"/>
</g>
<g style="mix-blend-mode:multiply">
<path d="M40.7582 21.7616C40.7389 21.375 40.6053 21.0028 40.3744 20.6922C40.1575 20.4604 39.8938 20.2774 39.6008 20.1553C39.3077 20.0331 38.9921 19.9747 38.6748 19.9838C37.5033 19.9773 36.3599 20.3423 35.4088 21.0263C34.4654 21.7089 33.6317 22.5312 32.9361 23.4651C32.7233 23.7382 32.4814 23.9875 32.2147 24.2084C33.6402 25.4154 33.8684 27.5682 35.1245 28.9506C35.3972 29.271 35.7476 29.5163 36.142 29.6628C36.5496 29.7921 36.9903 29.7682 37.3815 29.5957C37.7727 29.4231 38.0874 29.1138 38.2667 28.7256C38.4635 28.2428 38.5396 27.7193 38.4885 27.2005C38.4374 26.6816 38.2605 26.183 37.9732 25.748C37.8913 25.6139 37.7835 25.4974 37.6562 25.4053C37.5289 25.3132 37.3846 25.2473 37.2317 25.2114C38.1647 25.2141 39.0653 24.8692 39.7578 24.244C40.0978 23.93 40.3639 23.5444 40.5368 23.1152C40.7098 22.6859 40.7854 22.2236 40.7582 21.7616Z" fill="white"/>
</g>
<g style="mix-blend-mode:multiply">
<path d="M27.0576 19.9591C27.1763 19.5907 27.4016 19.2658 27.705 19.0254C27.9745 18.8576 28.2766 18.749 28.5912 18.7069C28.9058 18.6647 29.2258 18.6899 29.53 18.7808C30.6633 19.0776 31.6734 19.7259 32.4151 20.6327C33.1498 21.5361 33.7425 22.5461 34.1727 23.6281C34.3076 23.9471 34.4768 24.2504 34.6772 24.5328C32.9882 25.33 32.2107 27.3505 30.6398 28.3609C30.2934 28.5999 29.8916 28.7461 29.4726 28.7856C29.0455 28.8051 28.626 28.668 28.2927 28.4001C27.9595 28.1323 27.7355 27.752 27.6627 27.3307C27.5975 26.8134 27.6594 26.288 27.843 25.8001C28.0266 25.3121 28.3265 24.8763 28.7165 24.5303C28.8303 24.422 28.9645 24.3374 29.1113 24.2813C29.2581 24.2253 29.4146 24.1989 29.5716 24.2038C28.6697 23.9651 27.889 23.399 27.3817 22.616C27.1345 22.2247 26.9773 21.7834 26.9212 21.324C26.8652 20.8645 26.9118 20.3984 27.0576 19.9591Z" fill="white"/>
</g>
<g style="mix-blend-mode:multiply">
<path d="M40.7582 21.7616C40.7389 21.375 40.6053 21.0028 40.3744 20.6922C40.1575 20.4604 39.8938 20.2774 39.6008 20.1553C39.3077 20.0331 38.9921 19.9747 38.6748 19.9838C37.5033 19.9773 36.3599 20.3423 35.4088 21.0263C34.4654 21.7089 33.6317 22.5312 32.9361 23.4651C32.7233 23.7382 32.4814 23.9875 32.2147 24.2084C33.6402 25.4154 33.8684 27.5682 35.1245 28.9506C35.3972 29.271 35.7476 29.5163 36.142 29.6628C36.5496 29.7921 36.9903 29.7682 37.3815 29.5957C37.7727 29.4231 38.0874 29.1138 38.2667 28.7256C38.4635 28.2428 38.5396 27.7193 38.4885 27.2005C38.4374 26.6816 38.2605 26.183 37.9732 25.748C37.8913 25.6139 37.7835 25.4974 37.6562 25.4053C37.5289 25.3132 37.3846 25.2473 37.2317 25.2114C38.1647 25.2141 39.0653 24.8692 39.7578 24.244C40.0978 23.93 40.3639 23.5444 40.5368 23.1152C40.7098 22.6859 40.7854 22.2236 40.7582 21.7616Z" fill="#82CACD"/>
</g>
<g style="mix-blend-mode:multiply">
<path d="M27.0576 19.9591C27.1763 19.5907 27.4016 19.2658 27.705 19.0254C27.9745 18.8576 28.2766 18.749 28.5912 18.7069C28.9058 18.6647 29.2258 18.6899 29.53 18.7808C30.6633 19.0776 31.6734 19.7259 32.4151 20.6327C33.1498 21.5361 33.7425 22.5461 34.1727 23.6281C34.3076 23.9471 34.4768 24.2504 34.6772 24.5328C32.9882 25.33 32.2107 27.3505 30.6398 28.3609C30.2934 28.5999 29.8916 28.7461 29.4726 28.7856C29.0455 28.8051 28.626 28.668 28.2927 28.4001C27.9595 28.1323 27.7355 27.752 27.6627 27.3307C27.5975 26.8134 27.6594 26.288 27.843 25.8001C28.0266 25.3121 28.3265 24.8763 28.7165 24.5303C28.8303 24.422 28.9645 24.3374 29.1113 24.2813C29.2581 24.2253 29.4146 24.1989 29.5716 24.2038C28.6697 23.9651 27.889 23.399 27.3817 22.616C27.1345 22.2247 26.9773 21.7834 26.9212 21.324C26.8652 20.8645 26.9118 20.3984 27.0576 19.9591Z" fill="#82CACD"/>
</g>
<path d="M30.6127 1.85217C30.4382 1.50663 30.1652 1.22063 29.8281 1.03036C29.5358 0.90647 29.2205 0.846137 28.9031 0.853364C28.5858 0.86059 28.2736 0.935211 27.9872 1.07228C26.9138 1.5415 26.0166 2.33889 25.4247 3.3499C24.8393 4.35646 24.4108 5.44635 24.1538 6.58205C24.0702 6.91808 23.9503 7.24402 23.7963 7.55414C25.5887 8.07924 26.6707 9.9544 28.3795 10.7084C28.7587 10.8907 29.1784 10.9727 29.5984 10.9467C30.0234 10.8995 30.4165 10.699 30.7041 10.3826C30.9917 10.0662 31.1539 9.65571 31.1604 9.2282C31.1444 8.70708 31.0016 8.1977 30.7444 7.7442C30.4872 7.2907 30.1233 6.90674 29.6842 6.62559C29.555 6.53627 29.4092 6.47351 29.2555 6.44095C29.1018 6.40838 28.9432 6.40667 28.7888 6.4359C29.6427 6.05993 30.326 5.37943 30.7055 4.52707C30.8888 4.10209 30.9755 3.64175 30.9595 3.1792C30.9435 2.71665 30.825 2.26342 30.6127 1.85217Z" fill="white"/>
<path d="M17.3584 5.76152C17.3174 5.37661 17.3916 4.9882 17.5714 4.64545C17.7497 4.38275 17.9817 4.16096 18.2522 3.99477C18.5227 3.82859 18.8254 3.72181 19.1403 3.68153C20.2966 3.49309 21.4828 3.67598 22.5286 4.20391C23.5666 4.73172 24.518 5.41464 25.3502 6.22916C25.6029 6.46598 25.8806 6.67463 26.1783 6.85142C24.9578 8.26522 25.0667 10.4274 24.0407 11.9881C23.821 12.3471 23.5131 12.6437 23.1461 12.8498C22.7636 13.0408 22.3246 13.0857 21.9113 12.976C21.4981 12.8664 21.1391 12.6096 20.9016 12.2541C20.6322 11.8077 20.4756 11.3024 20.4456 10.7818C20.4155 10.2613 20.5127 9.7413 20.729 9.26685C20.7891 9.12168 20.8774 8.98988 20.9888 8.8791C21.1003 8.76833 21.2326 8.68078 21.3781 8.62154C20.4569 8.7692 19.5136 8.5685 18.7323 8.05856C18.3477 7.80113 18.0249 7.46157 17.7874 7.06436C17.5498 6.66715 17.4033 6.22218 17.3584 5.76152Z" fill="white"/>
<g style="mix-blend-mode:multiply">
<path d="M30.6127 1.85217C30.4382 1.50663 30.1652 1.22063 29.8281 1.03036C29.5358 0.90647 29.2205 0.846137 28.9031 0.853364C28.5858 0.86059 28.2736 0.935211 27.9872 1.07228C26.9138 1.5415 26.0166 2.33889 25.4247 3.3499C24.8393 4.35646 24.4108 5.44635 24.1538 6.58205C24.0702 6.91808 23.9503 7.24402 23.7963 7.55414C25.5887 8.07924 26.6707 9.9544 28.3795 10.7084C28.7587 10.8907 29.1784 10.9727 29.5984 10.9467C30.0234 10.8995 30.4165 10.699 30.7041 10.3826C30.9917 10.0662 31.1539 9.65571 31.1604 9.2282C31.1444 8.70708 31.0016 8.1977 30.7444 7.7442C30.4872 7.2907 30.1233 6.90674 29.6842 6.62559C29.555 6.53627 29.4092 6.47351 29.2555 6.44095C29.1018 6.40838 28.9432 6.40667 28.7888 6.4359C29.6427 6.05993 30.326 5.37943 30.7055 4.52707C30.8888 4.10209 30.9755 3.64175 30.9595 3.1792C30.9435 2.71665 30.825 2.26342 30.6127 1.85217Z" fill="#F1A86D"/>
</g>
<g style="mix-blend-mode:multiply">
<path d="M17.3584 5.76152C17.3174 5.37661 17.3916 4.9882 17.5714 4.64545C17.7497 4.38275 17.9817 4.16096 18.2522 3.99477C18.5227 3.82859 18.8254 3.72181 19.1403 3.68153C20.2966 3.49309 21.4828 3.67598 22.5286 4.20391C23.5666 4.73172 24.518 5.41464 25.3502 6.22916C25.6029 6.46598 25.8806 6.67463 26.1783 6.85142C24.9578 8.26522 25.0667 10.4274 24.0407 11.9881C23.821 12.3471 23.5131 12.6437 23.1461 12.8498C22.7636 13.0408 22.3246 13.0857 21.9113 12.976C21.4981 12.8664 21.1391 12.6096 20.9016 12.2541C20.6322 11.8077 20.4756 11.3024 20.4456 10.7818C20.4155 10.2613 20.5127 9.7413 20.729 9.26685C20.7891 9.12168 20.8774 8.98988 20.9888 8.8791C21.1003 8.76833 21.2326 8.68078 21.3781 8.62154C20.4569 8.7692 19.5136 8.5685 18.7323 8.05856C18.3477 7.80113 18.0249 7.46157 17.7874 7.06436C17.5498 6.66715 17.4033 6.22218 17.3584 5.76152Z" fill="#F5C197"/>
</g>
<g style="mix-blend-mode:multiply">
<path d="M32.0636 41.7177C32.2155 40.8442 32.1047 39.9453 31.7454 39.1348C31.1131 37.8289 29.7086 37.0651 28.3057 36.695C25.7318 36.016 22.9589 36.398 20.4835 37.3768C18.008 38.3555 15.7968 39.9014 13.7293 41.5782C13.116 42.0812 12.4499 42.5161 11.7427 42.8751C14.3182 46.2906 13.7427 51.2154 15.8516 54.937C16.2993 55.7905 16.9583 56.515 17.7657 57.0414C18.611 57.5358 19.6076 57.7047 20.5686 57.5165C21.5295 57.3283 22.3888 56.7959 22.9851 56.0192C23.6683 55.0399 24.1024 53.9087 24.2498 52.7238C24.3972 51.5388 24.2534 50.3358 23.831 49.2189C23.7156 48.8781 23.5337 48.5635 23.2958 48.2935C23.0578 48.0235 22.7687 47.8035 22.445 47.6461C24.5281 48.1227 26.714 47.8065 28.5766 46.7592C29.4945 46.2291 30.2833 45.5019 30.8863 44.6301C31.4893 43.7583 31.8914 42.7636 32.0636 41.7177Z" fill="white"/>
</g>
<path d="M2.37109 30.784C2.82204 30.0208 3.4893 29.4084 4.28841 29.0246C5.61671 28.4408 7.18111 28.7703 8.48895 29.3985C10.8886 30.551 12.7512 32.6403 14.0006 34.9908C15.2499 37.3413 15.9304 39.9521 16.4164 42.5693C16.557 43.3499 16.7819 44.1129 17.0874 44.8449C12.9118 45.774 10.1557 49.8958 6.13668 51.3607C5.24237 51.72 4.27088 51.844 3.31499 51.721C2.35097 51.5491 1.48283 51.0313 0.87345 50.2648C0.264074 49.4982 -0.044646 48.5357 0.00522066 47.5578C0.120437 46.3693 0.523681 45.2267 1.18002 44.2292C1.83636 43.2317 2.72601 42.4092 3.7719 41.8331C4.08082 41.6485 4.42332 41.5271 4.77953 41.4759C5.13574 41.4247 5.49856 41.4448 5.84696 41.5349C3.95232 40.5466 2.49359 38.8883 1.75514 36.883C1.40036 35.8841 1.27159 34.819 1.3781 33.7643C1.48461 32.7097 1.82376 31.6918 2.37109 30.784Z" fill="white"/>
<path d="M32.0695 41.7213C32.2213 40.8478 32.1106 39.949 31.7513 39.1384C31.1189 37.8326 29.7144 37.0688 28.3115 36.6987C25.7377 36.0197 22.9648 36.4017 20.4893 37.3804C18.0139 38.3592 15.8027 39.9051 13.7351 41.5819C13.1219 42.0849 12.4558 42.5198 11.7485 42.8788C14.3241 46.2942 13.7485 51.219 15.8575 54.9407C16.3052 55.7942 16.9642 56.5187 17.7716 57.045C18.6168 57.5394 19.6134 57.7084 20.5744 57.5202C21.5354 57.332 22.3946 56.7996 22.991 56.0229C23.6741 55.0436 24.1082 53.9124 24.2556 52.7275C24.403 51.5425 24.2593 50.3395 23.8369 49.2226C23.7215 48.8817 23.5395 48.5672 23.3016 48.2972C23.0637 48.0272 22.7745 47.8071 22.4509 47.6498C24.5339 48.1264 26.7198 47.8102 28.5824 46.7629C29.5003 46.2327 30.2892 45.5056 30.8922 44.6338C31.4952 43.762 31.8973 42.7673 32.0695 41.7213Z" fill="white"/>
<g style="mix-blend-mode:multiply">
<path d="M2.37109 30.784C2.82204 30.0208 3.4893 29.4084 4.28841 29.0246C5.61671 28.4408 7.18111 28.7703 8.48895 29.3985C10.8886 30.551 12.7512 32.6403 14.0006 34.9908C15.2499 37.3413 15.9304 39.9521 16.4164 42.5693C16.557 43.3499 16.7819 44.1129 17.0874 44.8449C12.9118 45.774 10.1557 49.8958 6.13668 51.3607C5.24237 51.72 4.27088 51.844 3.31499 51.721C2.35097 51.5491 1.48283 51.0313 0.87345 50.2648C0.264074 49.4982 -0.044646 48.5357 0.00522066 47.5578C0.120437 46.3693 0.523681 45.2267 1.18002 44.2292C1.83636 43.2317 2.72601 42.4092 3.7719 41.8331C4.08082 41.6485 4.42332 41.5271 4.77953 41.4759C5.13574 41.4247 5.49856 41.4448 5.84696 41.5349C3.95232 40.5466 2.49359 38.8883 1.75514 36.883C1.40036 35.8841 1.27159 34.819 1.3781 33.7643C1.48461 32.7097 1.82376 31.6918 2.37109 30.784Z" fill="#F9CC7D"/>
</g>
<g style="mix-blend-mode:multiply">
<path d="M32.0695 41.7206C32.2213 40.8471 32.1106 39.9482 31.7513 39.1377C31.1189 37.8319 29.7144 37.068 28.3115 36.6979C25.7377 36.019 22.9648 36.401 20.4893 37.3797C18.0139 38.3585 15.8027 39.9044 13.7351 41.5811C13.1219 42.0842 12.4558 42.519 11.7485 42.8781C14.3241 46.2935 13.7485 51.2183 15.8575 54.94C16.3052 55.7935 16.9642 56.518 17.7716 57.0443C18.6168 57.5387 19.6134 57.7076 20.5744 57.5195C21.5354 57.3313 22.3946 56.7989 22.991 56.0222C23.6741 55.0428 24.1082 53.9117 24.2556 52.7267C24.403 51.5418 24.2593 50.3387 23.8369 49.2219C23.7215 48.881 23.5395 48.5665 23.3016 48.2965C23.0637 48.0265 22.7745 47.8064 22.4509 47.649C24.5339 48.1256 26.7198 47.8095 28.5824 46.7621C29.5003 46.232 30.2892 45.5048 30.8922 44.633C31.4952 43.7612 31.8973 42.7665 32.0695 41.7206Z" fill="#F5B33C"/>
</g>
</svg>
