<svg width="49" height="91" viewBox="0 0 49 91" fill="none" xmlns="http://www.w3.org/2000/svg">
<mask id="mask0" mask-type="alpha" maskUnits="userSpaceOnUse" x="0" y="41" width="49" height="50">
<rect x="0.136597" y="41.4982" width="48.8634" height="49.3015" fill="#C4C4C4"/>
</mask>
<g mask="url(#mask0)">
<path d="M6.22986 90.7793C6.25843 87.9143 6.3845 84.2605 6.47532 81.3966C6.57275 78.3048 6.70725 75.2142 6.87882 72.1249C6.97551 70.3893 7.08367 68.6545 7.20327 66.9203C7.20535 66.8988 7.21026 66.8778 7.21789 66.8577C7.21779 66.8562 7.21805 66.8548 7.21865 66.8534C7.22358 66.837 7.2302 66.8212 7.2384 66.8061C7.24739 66.7886 7.2582 66.772 7.27066 66.7568C7.30423 66.7106 7.35261 66.6775 7.4076 66.6632C7.46258 66.6488 7.52079 66.6541 7.57236 66.6781C7.58188 66.6823 7.59 66.6853 7.59947 66.6903C7.61484 66.699 7.63097 66.7081 7.64634 66.7167C8.50981 67.2101 9.37373 67.7034 10.2381 68.1966C12.2111 69.3232 14.1838 70.4499 16.1563 71.5766C18.2252 72.7577 20.2941 73.9389 22.363 75.1201C23.5288 75.7862 24.6952 76.4522 25.8622 77.1181C25.8944 77.1368 25.9296 77.153 25.9603 77.1743C26.1778 77.3258 26.1222 77.6925 26.1375 77.9324C26.2182 79.1762 26.3197 80.4183 26.4422 81.6588C26.6868 84.1441 27.0146 86.6194 27.4257 89.0846C27.4763 89.3866 27.8424 90.4375 27.8952 90.7393L6.22986 90.7793Z" fill="#4DB3B7"/>
<g style="mix-blend-mode:multiply" opacity="0.2">
<path d="M23.8188 84.8059C21.7345 83.4777 19.3324 82.736 17.1705 81.5436C14.9316 80.309 12.7002 78.7748 11.1183 76.7232C9.63446 74.7574 8.70547 72.4231 8.42982 69.9678C8.33828 69.0454 8.35774 68.1153 8.48777 67.1976C9.0707 67.5307 9.65414 67.8637 10.2381 68.1966C12.2111 69.3233 14.1838 70.45 16.1562 71.5766C18.2251 72.7578 20.294 73.939 22.3629 75.1201C23.5288 75.7863 24.6952 76.4523 25.8621 77.1182C25.8943 77.1368 25.9295 77.1531 25.9603 77.1743C26.1778 77.3258 26.1221 77.6925 26.1375 77.9325C26.2181 79.1762 26.3197 80.4184 26.4422 81.6588C26.6582 83.8531 26.9404 86.0391 27.2888 88.2171C26.3952 86.8361 25.2103 85.6713 23.8188 84.8059Z" fill="#4DB3B7"/>
</g>
<path d="M46.2874 58.8371C44.6184 59.1714 42.9684 59.6264 41.325 60.0772C41.3221 60.1012 41.3169 60.1235 41.3132 60.1461C41.3037 60.215 41.292 60.2841 41.284 60.3528C41.281 60.369 41.2803 60.3777 41.2789 60.3853C41.2775 60.3979 41.2753 60.4128 41.2739 60.4317C41.2343 60.7673 41.1999 61.1034 41.1735 61.4401C41.1252 62.0626 41.0974 62.6863 41.0702 63.3103C41.027 64.3411 40.9795 65.3693 40.863 66.3943C40.8307 66.6799 40.7922 66.9646 40.7473 67.2486C40.7326 67.3387 40.718 67.4291 40.7011 67.5192C40.3213 69.5083 39.4907 71.3818 38.2741 72.9933C36.102 75.9171 32.9821 77.8936 29.5503 78.9848C26.1266 80.0412 22.5169 80.3371 18.9692 79.8525C17.2362 79.6391 15.5313 79.2368 13.8844 78.6524C11.8719 77.9428 10.0244 76.8255 8.45548 75.3692C6.82285 73.8097 5.53402 71.9208 4.67286 69.8254C3.78232 67.6834 3.47765 65.3231 3.26457 63.0271C3.15836 61.8657 3.08732 60.7023 3.01629 59.5385C2.93719 58.2533 2.84565 56.9681 2.8017 55.6804C2.70545 52.8223 2.77638 49.9609 3.0141 47.1112C3.23892 44.4256 3.54211 41.7025 4.25908 39.0992C4.89408 36.7946 5.87027 34.5268 7.54443 32.7959C10.4174 29.8249 14.6432 28.7339 18.614 28.3716C21.1509 28.1338 23.7089 28.2863 26.2004 28.8238C28.8192 29.3722 31.3299 30.3542 33.6308 31.73C35.7166 32.9769 37.4498 34.7436 38.6644 36.8606C39.7913 38.8887 40.4399 41.1516 40.5597 43.4735C40.6113 44.4997 40.5571 45.5286 40.3978 46.5435C40.534 46.8929 40.6219 47.1023 40.7934 47.4794C40.9685 47.8638 41.153 48.2442 41.3471 48.6205C41.7345 49.3756 42.1527 50.1136 42.5884 50.84C43.4636 52.3019 44.4061 53.7224 45.3025 55.1706C45.8093 55.9896 46.3007 56.8177 46.7606 57.6645C46.9884 58.088 46.8059 58.7343 46.2874 58.8371Z" fill="#4DB3B7"/>
<path d="M40.8629 66.3942C40.8307 66.6798 40.7921 66.9645 40.7472 67.2485C40.7326 67.3386 40.7179 67.429 40.7011 67.5191C39.1345 67.5387 37.5884 67.1586 36.2065 66.4141C34.8245 65.6695 33.6513 64.5847 32.7961 63.2603C32.759 63.1964 32.7349 63.1258 32.7249 63.0525C32.7149 62.9791 32.7194 62.9046 32.738 62.833C32.7566 62.7614 32.789 62.6942 32.8334 62.6352C32.8777 62.5763 32.9331 62.5267 32.9964 62.4894C33.0598 62.452 33.1298 62.4276 33.2025 62.4176C33.2751 62.4075 33.349 62.412 33.42 62.4308C33.491 62.4496 33.5575 62.4823 33.616 62.527C33.6744 62.5717 33.7235 62.6277 33.7606 62.6916C33.8316 62.7992 33.9026 62.9058 33.9773 63.011C34.0102 63.056 34.0432 63.1025 34.0769 63.1475C34.0828 63.1542 34.0882 63.1613 34.093 63.1689C34.0937 63.1702 34.0952 63.1702 34.0952 63.1714L34.093 63.1703C34.0945 63.1722 34.0962 63.1739 34.098 63.1754C34.1003 63.1775 34.1023 63.1799 34.1039 63.1826C34.1053 63.1837 34.1066 63.1851 34.1076 63.1866C34.1084 63.188 34.1093 63.1893 34.1105 63.1904L34.1112 63.1917V63.1927C34.1142 63.1953 34.1156 63.1978 34.1171 63.1992L34.1178 63.2005L34.1185 63.2027C34.1251 63.2094 34.131 63.2166 34.1362 63.2243C34.2805 63.4082 34.4328 63.5848 34.591 63.7551C34.7557 63.932 34.9269 64.1016 35.1043 64.2638C35.193 64.3452 35.2838 64.4256 35.3753 64.5016C35.4185 64.5381 35.4625 64.5745 35.5057 64.6096C35.5306 64.6298 35.5555 64.6495 35.5811 64.6695C35.5826 64.671 35.584 64.672 35.5877 64.6758H35.5884C35.5899 64.6772 35.5914 64.6772 35.5929 64.6794L35.5936 64.6811H35.595L35.6001 64.6846L35.6023 64.6859L35.6088 64.691L35.6125 64.6947L35.6147 64.696C35.6337 64.71 35.6586 64.7287 35.6586 64.7287C35.6784 64.7437 35.6967 64.7573 35.7166 64.7727C35.7554 64.8002 35.7935 64.829 35.833 64.8563C35.918 64.9179 36.0052 64.9766 36.0916 65.0343C36.2659 65.1496 36.4431 65.2586 36.6247 65.3597C36.8129 65.4665 37.0055 65.5666 37.2004 65.6594C37.2838 65.6983 37.3659 65.7356 37.4501 65.7722H37.4508C37.4523 65.7735 37.4538 65.7735 37.4558 65.7745C37.4568 65.7754 37.4581 65.7759 37.4595 65.7759C37.4621 65.7769 37.4645 65.7782 37.4668 65.7796C37.4693 65.7811 37.472 65.7819 37.4749 65.7822C37.4998 65.7921 37.5371 65.8071 37.5518 65.8136C37.5965 65.8309 37.6411 65.8484 37.6858 65.866C38.0822 66.0173 38.4893 66.1383 38.9037 66.2281C39.0187 66.2543 39.1359 66.2769 39.253 66.2967C39.3036 66.3054 39.3556 66.3143 39.4061 66.3217C39.4186 66.3242 39.4427 66.3271 39.4632 66.3306C39.4683 66.3306 39.472 66.3319 39.4771 66.3319L39.4793 66.3331H39.4808C39.4842 66.3329 39.4877 66.3333 39.491 66.3342C39.7144 66.3607 39.9363 66.3806 40.1626 66.3921C40.3965 66.402 40.6293 66.403 40.8629 66.3942Z" fill="#42495A"/>
<path d="M26.3405 49.864C26.3405 49.864 29.9455 54.2305 34.5761 49.9182" stroke="#42495A" stroke-width="2" stroke-miterlimit="10" stroke-linecap="round"/>
<g style="mix-blend-mode:multiply" opacity="0.2">
<path d="M3.01418 47.112C3.239 44.4259 3.54219 41.7029 4.25916 39.0992C4.89416 36.7947 5.87035 34.5279 7.54524 32.7956C10.4168 29.8252 14.6432 28.7336 18.614 28.3726C21.1512 28.1345 23.7095 28.2868 26.2013 28.8245C28.82 29.3722 31.3306 30.3541 33.631 31.7303C34.0734 32.0017 34.5011 32.2948 34.9126 32.6061C32.0154 31.5168 28.9235 30.9369 25.8373 31.1951C19.0828 31.7614 13.005 36.0191 9.56736 41.8333C7.60317 45.1555 6.62549 48.9482 6.11283 52.7532C5.57731 56.7293 5.29179 60.8426 5.65291 64.8464C5.98175 68.491 6.99311 72.4948 8.94559 75.8055C8.78009 75.6639 8.61602 75.5205 8.45639 75.3701C6.82335 73.8106 5.53424 71.9215 4.67302 69.8258C3.78248 67.6837 3.4778 65.3232 3.26473 63.0269C3.15778 61.866 3.08748 60.7026 3.01645 59.5392C2.93735 58.2531 2.8458 56.9681 2.80186 55.6801C2.70557 52.8224 2.77646 49.9613 3.01418 47.112Z" fill="#4DB3B7"/>
</g>
</g>
<g style="mix-blend-mode:multiply">
<path d="M40.6303 26.8206C40.4267 26.5042 40.1347 26.256 39.7912 26.1072C39.2211 25.883 38.568 26.0513 38.0282 26.3418C37.0466 26.9095 36.2686 27.7764 35.806 28.8181C35.3491 29.8549 35.0515 30.9558 34.9234 32.083C34.8782 32.4174 34.797 32.7458 34.6814 33.0624C36.4571 33.3822 37.6918 35.0846 39.4111 35.6349C39.7943 35.7715 40.2058 35.8067 40.6063 35.7372C41.0094 35.6468 41.3659 35.4111 41.6089 35.0743C41.852 34.7375 41.9649 34.3228 41.9264 33.908C41.8567 33.4048 41.6664 32.9265 41.3721 32.5143C41.0778 32.1021 40.6883 31.7685 40.2374 31.5424C40.1039 31.4695 39.9575 31.4241 39.8065 31.4088C39.6556 31.3934 39.5031 31.4085 39.358 31.453C40.1385 30.9988 40.7235 30.2676 40.9988 29.402C41.1304 28.971 41.1656 28.5159 41.1019 28.0695C41.0382 27.6231 40.8771 27.1966 40.6303 26.8206Z" fill="white"/>
</g>
<g style="mix-blend-mode:multiply">
<path d="M28.3137 32.0045C28.2341 31.636 28.2647 31.2519 28.4016 30.9009C28.6447 30.3345 29.2228 29.9845 29.8072 29.8019C30.8976 29.4975 32.0556 29.5497 33.1148 29.9509C34.1665 30.3527 35.1513 30.9139 36.0353 31.6151C36.3027 31.8179 36.5911 31.9908 36.8954 32.1307C35.8713 33.6289 36.2017 35.7119 35.3796 37.3318C35.2063 37.7027 34.9416 38.0225 34.6108 38.2608C34.2635 38.4861 33.8467 38.5759 33.4385 38.5132C33.0303 38.4505 32.6587 38.2397 32.3937 37.9203C32.0884 37.5163 31.8853 37.0433 31.802 36.5423C31.7188 36.0412 31.7579 35.5273 31.9159 35.0449C31.9584 34.8979 32.0295 34.761 32.1249 34.6419C32.2203 34.5229 32.3382 34.4241 32.4718 34.3514C31.6027 34.5915 30.6761 34.4964 29.8727 34.0848C29.4766 33.876 29.1312 33.5811 28.8616 33.2213C28.592 32.8616 28.4049 32.446 28.3137 32.0045Z" fill="white"/>
</g>
<g style="mix-blend-mode:multiply">
<path d="M40.6303 26.8206C40.4267 26.5042 40.1347 26.256 39.7912 26.1072C39.2211 25.883 38.568 26.0513 38.0282 26.3418C37.0466 26.9095 36.2686 27.7764 35.806 28.8181C35.3491 29.8549 35.0515 30.9558 34.9234 32.083C34.8782 32.4174 34.797 32.7458 34.6814 33.0624C36.4571 33.3822 37.6918 35.0846 39.4111 35.6349C39.7943 35.7715 40.2058 35.8067 40.6063 35.7372C41.0094 35.6468 41.3659 35.4111 41.6089 35.0743C41.852 34.7375 41.9649 34.3228 41.9264 33.908C41.8567 33.4048 41.6664 32.9265 41.3721 32.5143C41.0778 32.1021 40.6883 31.7685 40.2374 31.5424C40.1039 31.4695 39.9575 31.4241 39.8065 31.4088C39.6556 31.3934 39.5031 31.4085 39.358 31.453C40.1385 30.9988 40.7235 30.2676 40.9988 29.402C41.1304 28.971 41.1656 28.5159 41.1019 28.0695C41.0382 27.6231 40.8771 27.1966 40.6303 26.8206Z" fill="#EB822F"/>
</g>
<g style="mix-blend-mode:multiply">
<path d="M28.3137 32.0045C28.2341 31.636 28.2647 31.2519 28.4016 30.9009C28.6447 30.3345 29.2228 29.9845 29.8072 29.8019C30.8976 29.4975 32.0556 29.5497 33.1148 29.9509C34.1665 30.3527 35.1513 30.9139 36.0353 31.6151C36.3027 31.8179 36.5911 31.9908 36.8954 32.1307C35.8713 33.6289 36.2017 35.7119 35.3796 37.3318C35.2063 37.7027 34.9416 38.0225 34.6108 38.2608C34.2635 38.4861 33.8467 38.5759 33.4385 38.5132C33.0303 38.4505 32.6587 38.2397 32.3937 37.9203C32.0884 37.5163 31.8853 37.0433 31.802 36.5423C31.7188 36.0412 31.7579 35.5273 31.9159 35.0449C31.9584 34.8979 32.0295 34.761 32.1249 34.6419C32.2203 34.5229 32.3382 34.4241 32.4718 34.3514C31.6027 34.5915 30.6761 34.4964 29.8727 34.0848C29.4766 33.876 29.1312 33.5811 28.8616 33.2213C28.592 32.8616 28.4049 32.446 28.3137 32.0045Z" fill="#F1A96F"/>
</g>
<g style="mix-blend-mode:multiply">
<path d="M45.1283 10.8694C45.2737 10.5219 45.3137 10.1387 45.2432 9.76833C45.1076 9.16638 44.6033 8.71502 44.0622 8.42699C43.0459 7.92522 41.8982 7.76136 40.7838 7.95893C39.6769 8.15852 38.6065 8.52716 37.6096 9.05217C37.3098 9.20181 36.9948 9.31814 36.6702 9.39911C37.4034 11.0619 36.6985 13.0479 37.211 14.7929C37.3137 15.1896 37.5155 15.5532 37.7971 15.8488C38.0973 16.1349 38.4907 16.3005 38.9034 16.3147C39.316 16.329 39.7197 16.1907 40.0385 15.926C40.4123 15.5857 40.6982 15.1585 40.8715 14.6814C41.0447 14.2044 41.1001 13.692 41.0328 13.1885C41.0178 13.0362 40.973 12.8883 40.9009 12.7536C40.8288 12.6189 40.731 12.4999 40.613 12.4036C41.4234 12.8011 42.3514 12.8798 43.2162 12.6244C43.6437 12.4928 44.037 12.2671 44.3676 11.9636C44.6982 11.6601 44.958 11.2864 45.1283 10.8694Z" fill="white"/>
</g>
<g style="mix-blend-mode:multiply">
<path d="M33.9681 3.48609C34.2259 3.21301 34.5583 3.02325 34.9231 2.94084C35.5243 2.82643 36.1356 3.11306 36.6131 3.49893C37.4743 4.23924 38.0808 5.23591 38.3455 6.34577C38.6053 7.44964 38.697 8.58702 38.6172 9.71874C38.6006 10.0558 38.6205 10.3936 38.6763 10.7264C36.8726 10.7108 35.3484 12.1548 33.558 12.3762C33.1565 12.4393 32.7456 12.3975 32.3646 12.2548C31.9849 12.091 31.6775 11.7931 31.5001 11.4169C31.3227 11.0407 31.2874 10.6122 31.4009 10.2116C31.5613 9.73002 31.8356 9.29516 32.2001 8.94468C32.5646 8.5942 33.0083 8.33867 33.4927 8.20022C33.6372 8.15336 33.7894 8.13591 33.9406 8.14887C34.0918 8.16184 34.239 8.20497 34.3735 8.27576C33.6892 7.68432 33.2477 6.85696 33.135 5.95495C33.0843 5.50688 33.1327 5.05304 33.2767 4.62612C33.4208 4.1992 33.6569 3.80984 33.9681 3.48609Z" fill="white"/>
</g>
<g style="mix-blend-mode:multiply">
<path d="M45.133 10.8717C45.2785 10.5242 45.3184 10.1411 45.2479 9.77065C45.1124 9.1687 44.6081 8.71734 44.0669 8.42931C43.0507 7.92754 41.9029 7.76368 40.7886 7.96124C39.6816 8.16083 38.6113 8.52948 37.6144 9.05449C37.3146 9.20413 36.9996 9.32046 36.6749 9.40143C37.4082 11.0642 36.7033 13.0503 37.2157 14.7952C37.3185 15.192 37.5203 15.5555 37.8019 15.8511C38.1021 16.1372 38.4954 16.3028 38.9081 16.3171C39.3208 16.3313 39.7244 16.1931 40.0433 15.9283C40.417 15.588 40.703 15.1608 40.8762 14.6838C41.0495 14.2068 41.1049 13.6943 41.0376 13.1909C41.0226 13.0385 40.9777 12.8907 40.9057 12.7559C40.8336 12.6212 40.7357 12.5022 40.6178 12.4059C41.4282 12.8034 42.3562 12.8821 43.221 12.6267C43.6485 12.4951 44.0417 12.2694 44.3724 11.9659C44.703 11.6624 44.9628 11.2887 45.133 10.8717Z" fill="#F9B5AB"/>
</g>
<g style="mix-blend-mode:multiply">
<path d="M33.9728 3.48841C34.2307 3.21533 34.5631 3.02557 34.9279 2.94316C35.529 2.82875 36.1404 3.11538 36.6179 3.50125C37.4791 4.24156 38.0856 5.23823 38.3502 6.34809C38.6101 7.45196 38.7017 8.58934 38.6219 9.72106C38.6054 10.0581 38.6252 10.396 38.6811 10.7287C36.8774 10.7131 35.3532 12.1571 33.5628 12.3786C33.1612 12.4417 32.7503 12.3998 32.3694 12.2571C31.9897 12.0934 31.6823 11.7954 31.5049 11.4192C31.3274 11.0431 31.2921 10.6145 31.4056 10.2139C31.566 9.73234 31.8403 9.29748 32.2048 8.947C32.5693 8.59652 33.013 8.34099 33.4975 8.20254C33.642 8.15568 33.7942 8.13823 33.9454 8.15119C34.0966 8.16416 34.2437 8.20729 34.3783 8.27808C33.694 7.68664 33.2524 6.85928 33.1398 5.95727C33.089 5.5092 33.1374 5.05536 33.2815 4.62844C33.4255 4.20152 33.6617 3.81216 33.9728 3.48841Z" fill="#F47E6A"/>
</g>
<g style="mix-blend-mode:multiply">
<path d="M30.2598 16.4623C30.2454 16.1727 30.1463 15.8939 29.9748 15.6612C29.8138 15.4876 29.618 15.3505 29.4005 15.259C29.1829 15.1675 28.9486 15.1237 28.713 15.1306C27.8432 15.1257 26.9943 15.3991 26.2882 15.9115C25.5879 16.4228 24.9688 17.0388 24.4525 17.7383C24.2945 17.9429 24.1149 18.1296 23.9169 18.2951C24.9752 19.1993 25.1446 20.8119 26.0772 21.8474C26.2796 22.0874 26.5397 22.2711 26.8326 22.3809C27.1352 22.4777 27.4624 22.4599 27.7528 22.3306C28.0432 22.2014 28.2769 21.9696 28.41 21.6789C28.5561 21.3172 28.6126 20.9251 28.5747 20.5364C28.5367 20.1477 28.4054 19.7743 28.1921 19.4484C28.1313 19.3479 28.0513 19.2607 27.9568 19.1917C27.8623 19.1227 27.7551 19.0733 27.6416 19.0464C28.3343 19.0484 29.0029 18.7901 29.5171 18.3218C29.7695 18.0866 29.967 17.7978 30.0954 17.4762C30.2238 17.1547 30.28 16.8084 30.2598 16.4623Z" fill="white"/>
</g>
<g style="mix-blend-mode:multiply">
<path d="M20.0882 15.1119C20.1763 14.8359 20.3436 14.5925 20.5688 14.4124C20.7689 14.2867 20.9932 14.2054 21.2268 14.1738C21.4604 14.1422 21.698 14.1611 21.9238 14.2292C22.7652 14.4515 23.5151 14.9372 24.0658 15.6164C24.6112 16.2931 25.0512 17.0497 25.3706 17.8602C25.4708 18.0992 25.5964 18.3264 25.7452 18.5379C24.4912 19.1351 23.914 20.6486 22.7477 21.4054C22.4905 21.5845 22.1922 21.694 21.8812 21.7236C21.5641 21.7382 21.2526 21.6355 21.0052 21.4348C20.7578 21.2342 20.5915 20.9493 20.5374 20.6337C20.489 20.2463 20.535 19.8527 20.6713 19.4872C20.8076 19.1217 21.0302 18.7952 21.3198 18.5361C21.4043 18.4549 21.504 18.3915 21.6129 18.3495C21.7219 18.3076 21.8381 18.2878 21.9547 18.2915C21.2851 18.1126 20.7054 17.6886 20.3288 17.102C20.1453 16.8089 20.0285 16.4784 19.9869 16.1342C19.9453 15.7901 19.9799 15.4409 20.0882 15.1119Z" fill="white"/>
</g>
<g style="mix-blend-mode:multiply">
<path d="M30.2598 16.4623C30.2454 16.1727 30.1463 15.8939 29.9748 15.6612C29.8138 15.4876 29.618 15.3505 29.4005 15.259C29.1829 15.1675 28.9486 15.1237 28.713 15.1306C27.8432 15.1257 26.9943 15.3991 26.2882 15.9115C25.5879 16.4228 24.9688 17.0388 24.4525 17.7383C24.2945 17.9429 24.1149 18.1296 23.9169 18.2951C24.9752 19.1993 25.1446 20.8119 26.0772 21.8474C26.2796 22.0874 26.5397 22.2711 26.8326 22.3809C27.1352 22.4777 27.4624 22.4599 27.7528 22.3306C28.0432 22.2014 28.2769 21.9696 28.41 21.6789C28.5561 21.3172 28.6126 20.9251 28.5747 20.5364C28.5367 20.1477 28.4054 19.7743 28.1921 19.4484C28.1313 19.3479 28.0513 19.2607 27.9568 19.1917C27.8623 19.1227 27.7551 19.0733 27.6416 19.0464C28.3343 19.0484 29.0029 18.7901 29.5171 18.3218C29.7695 18.0866 29.967 17.7978 30.0954 17.4762C30.2238 17.1547 30.28 16.8084 30.2598 16.4623Z" fill="#E566A1"/>
</g>
<g style="mix-blend-mode:multiply">
<path d="M20.0882 15.1119C20.1763 14.8359 20.3436 14.5925 20.5688 14.4124C20.7689 14.2867 20.9932 14.2054 21.2268 14.1738C21.4604 14.1422 21.698 14.1611 21.9238 14.2292C22.7652 14.4515 23.5151 14.9372 24.0658 15.6164C24.6112 16.2931 25.0512 17.0497 25.3706 17.8602C25.4708 18.0992 25.5964 18.3264 25.7452 18.5379C24.4912 19.1351 23.914 20.6486 22.7477 21.4054C22.4905 21.5845 22.1922 21.694 21.8812 21.7236C21.5641 21.7382 21.2526 21.6355 21.0052 21.4348C20.7578 21.2342 20.5915 20.9493 20.5374 20.6337C20.489 20.2463 20.535 19.8527 20.6713 19.4872C20.8076 19.1217 21.0302 18.7952 21.3198 18.5361C21.4043 18.4549 21.504 18.3915 21.6129 18.3495C21.7219 18.3076 21.8381 18.2878 21.9547 18.2915C21.2851 18.1126 20.7054 17.6886 20.3288 17.102C20.1453 16.8089 20.0285 16.4784 19.9869 16.1342C19.9453 15.7901 19.9799 15.4409 20.0882 15.1119Z" fill="#ECA0C6"/>
</g>
<path d="M22.7276 1.5483C22.598 1.28947 22.3953 1.07523 22.145 0.932702C21.928 0.839898 21.694 0.794704 21.4583 0.800117C21.2227 0.805531 20.9909 0.861428 20.7783 0.964101C19.9814 1.31559 19.3153 1.9129 18.8759 2.67023C18.4413 3.42422 18.1231 4.24064 17.9323 5.09136C17.8703 5.34308 17.7812 5.58724 17.6669 5.81954C18.9976 6.21288 19.8009 7.61753 21.0695 8.18233C21.3511 8.31889 21.6627 8.38034 21.9745 8.36081C22.29 8.32551 22.5819 8.17526 22.7954 7.93825C23.0089 7.70125 23.1294 7.39378 23.1342 7.07355C23.1223 6.68318 23.0163 6.30162 22.8253 5.96191C22.6344 5.6222 22.3642 5.33459 22.0382 5.12398C21.9423 5.05707 21.8341 5.01006 21.72 4.98567C21.6058 4.96128 21.4881 4.95999 21.3734 4.98189C22.0074 4.70026 22.5147 4.19051 22.7964 3.55202C22.9325 3.23368 22.9969 2.88884 22.985 2.54236C22.9731 2.19587 22.8852 1.85637 22.7276 1.5483Z" fill="white"/>
<path d="M12.8876 4.47675C12.8571 4.18843 12.9122 3.89748 13.0457 3.64073C13.1781 3.44395 13.3503 3.2778 13.5512 3.15332C13.752 3.02883 13.9767 2.94885 14.2105 2.91867C15.0689 2.77752 15.9496 2.91452 16.7261 3.30998C17.4967 3.70535 18.203 4.21691 18.8209 4.82705C19.0085 5.00445 19.2146 5.16075 19.4357 5.29318C18.5296 6.35223 18.6104 7.97189 17.8486 9.14098C17.6856 9.40986 17.4569 9.63208 17.1845 9.78643C16.9005 9.92953 16.5746 9.96316 16.2678 9.881C15.961 9.79885 15.6944 9.60655 15.5181 9.3402C15.3181 9.00583 15.2019 8.62729 15.1795 8.23738C15.1572 7.84746 15.2294 7.45793 15.3899 7.10253C15.4346 6.99378 15.5001 6.89505 15.5829 6.81208C15.6656 6.7291 15.7638 6.66352 15.8719 6.61914C15.1879 6.72975 14.4877 6.57941 13.9076 6.19742C13.622 6.00459 13.3824 5.75023 13.206 5.45269C13.0296 5.15515 12.9209 4.82183 12.8876 4.47675Z" fill="white"/>
<g style="mix-blend-mode:multiply">
<path d="M22.7276 1.5483C22.598 1.28947 22.3953 1.07523 22.145 0.932702C21.928 0.839898 21.694 0.794704 21.4583 0.800117C21.2227 0.805531 20.9909 0.861428 20.7783 0.964101C19.9814 1.31559 19.3153 1.9129 18.8759 2.67023C18.4413 3.42422 18.1231 4.24064 17.9323 5.09136C17.8703 5.34308 17.7812 5.58724 17.6669 5.81954C18.9976 6.21288 19.8009 7.61753 21.0695 8.18233C21.3511 8.31889 21.6627 8.38034 21.9745 8.36081C22.29 8.32551 22.5819 8.17526 22.7954 7.93825C23.0089 7.70125 23.1294 7.39378 23.1342 7.07355C23.1223 6.68318 23.0163 6.30162 22.8253 5.96191C22.6344 5.6222 22.3642 5.33459 22.0382 5.12398C21.9423 5.05707 21.8341 5.01006 21.72 4.98567C21.6058 4.96128 21.4881 4.95999 21.3734 4.98189C22.0074 4.70026 22.5147 4.19051 22.7964 3.55202C22.9325 3.23368 22.9969 2.88884 22.985 2.54236C22.9731 2.19587 22.8852 1.85637 22.7276 1.5483Z" fill="#DA7579"/>
</g>
<g style="mix-blend-mode:multiply">
<path d="M12.8876 4.47675C12.8571 4.18843 12.9122 3.89748 13.0457 3.64073C13.1781 3.44395 13.3503 3.2778 13.5512 3.15332C13.752 3.02883 13.9767 2.94885 14.2105 2.91867C15.0689 2.77752 15.9496 2.91452 16.7261 3.30998C17.4967 3.70535 18.203 4.21691 18.8209 4.82705C19.0085 5.00445 19.2146 5.16075 19.4357 5.29318C18.5296 6.35223 18.6104 7.97189 17.8486 9.14098C17.6856 9.40986 17.4569 9.63208 17.1845 9.78643C16.9005 9.92953 16.5746 9.96316 16.2678 9.881C15.961 9.79885 15.6944 9.60655 15.5181 9.3402C15.3181 9.00583 15.2019 8.62729 15.1795 8.23738C15.1572 7.84746 15.2294 7.45793 15.3899 7.10253C15.4346 6.99378 15.5001 6.89505 15.5829 6.81208C15.6656 6.7291 15.7638 6.66352 15.8719 6.61914C15.1879 6.72975 14.4877 6.57941 13.9076 6.19742C13.622 6.00459 13.3824 5.75023 13.206 5.45269C13.0296 5.15515 12.9209 4.82183 12.8876 4.47675Z" fill="#CC4045"/>
</g>
<g style="mix-blend-mode:multiply">
<path d="M23.8046 31.4108C23.9173 30.7564 23.8351 30.0831 23.5683 29.476C23.0988 28.4978 22.0561 27.9256 21.0146 27.6484C19.1037 27.1398 17.045 27.4259 15.2072 28.1591C13.3693 28.8922 11.7277 30.0503 10.1927 31.3063C9.73738 31.6831 9.24284 32.0088 8.71777 32.2778C10.6299 34.8362 10.2026 38.5253 11.7684 41.3131C12.1008 41.9525 12.59 42.4952 13.1894 42.8894C13.817 43.2598 14.5569 43.3863 15.2703 43.2454C15.9838 43.1044 16.6217 42.7056 17.0644 42.1238C17.5716 41.3902 17.8939 40.5429 18.0033 39.6552C18.1128 38.7676 18.0061 37.8664 17.6925 37.0298C17.6068 36.7745 17.4717 36.5389 17.2951 36.3366C17.1184 36.1344 16.9037 35.9695 16.6635 35.8516C18.21 36.2087 19.8328 35.9718 21.2157 35.1873C21.8972 34.7902 22.4828 34.2454 22.9305 33.5924C23.3782 32.9394 23.6767 32.1942 23.8046 31.4108Z" fill="white"/>
</g>
<path d="M1.76036 23.2202C2.09516 22.6485 2.59054 22.1898 3.18382 21.9022C4.16999 21.4649 5.33143 21.7118 6.3024 22.1824C8.08393 23.0457 9.46683 24.6107 10.3944 26.3714C11.3219 28.1321 11.8271 30.0879 12.188 32.0483C12.2923 32.633 12.4593 33.2046 12.6861 33.7529C9.58604 34.4489 7.53988 37.5365 4.55603 38.6338C3.89207 38.9029 3.17081 38.9958 2.46113 38.9037C1.74542 38.7749 1.10089 38.387 0.648471 37.8129C0.196055 37.2387 -0.0331463 36.5177 0.00387594 35.7851C0.0894153 34.8948 0.388794 34.039 0.876078 33.2918C1.36336 32.5445 2.02386 31.9284 2.80035 31.4968C3.02971 31.3586 3.28399 31.2677 3.54844 31.2293C3.8129 31.191 4.08227 31.206 4.34093 31.2735C2.9343 30.5332 1.85131 29.2909 1.30306 27.7889C1.03966 27.0406 0.944059 26.2427 1.02314 25.4527C1.10221 24.6627 1.354 23.9002 1.76036 23.2202Z" fill="white"/>
<path d="M23.8093 31.4131C23.9221 30.7588 23.8398 30.0854 23.5731 29.4783C23.1036 28.5001 22.0609 27.9279 21.0193 27.6507C19.1084 27.1421 17.0498 27.4282 15.2119 28.1614C13.3741 28.8946 11.7324 30.0526 10.1974 31.3086C9.74214 31.6854 9.2476 32.0112 8.72253 32.2801C10.6347 34.8386 10.2074 38.5276 11.7731 41.3155C12.1055 41.9548 12.5948 42.4975 13.1942 42.8918C13.8217 43.2621 14.5616 43.3887 15.2751 43.2477C15.9885 43.1067 16.6265 42.7079 17.0692 42.1261C17.5764 41.3925 17.8987 40.5452 18.0081 39.6576C18.1175 38.7699 18.0108 37.8688 17.6972 37.0321C17.6116 36.7768 17.4765 36.5412 17.2998 36.3389C17.1232 36.1367 16.9085 35.9718 16.6682 35.8539C18.2147 36.211 19.8376 35.9741 21.2204 35.1896C21.9019 34.7925 22.4876 34.2478 22.9353 33.5947C23.3829 32.9417 23.6815 32.1966 23.8093 31.4131Z" fill="white"/>
<g style="mix-blend-mode:multiply">
<path d="M1.76036 23.2202C2.09516 22.6485 2.59054 22.1898 3.18382 21.9022C4.16999 21.4649 5.33143 21.7118 6.3024 22.1824C8.08393 23.0457 9.46683 24.6107 10.3944 26.3714C11.3219 28.1321 11.8271 30.0879 12.188 32.0483C12.2923 32.633 12.4593 33.2046 12.6861 33.7529C9.58604 34.4489 7.53988 37.5365 4.55603 38.6338C3.89207 38.9029 3.17081 38.9958 2.46113 38.9037C1.74542 38.7749 1.10089 38.387 0.648471 37.8129C0.196055 37.2387 -0.0331463 36.5177 0.00387594 35.7851C0.0894153 34.8948 0.388794 34.039 0.876078 33.2918C1.36336 32.5445 2.02386 31.9284 2.80035 31.4968C3.02971 31.3586 3.28399 31.2677 3.54844 31.2293C3.8129 31.191 4.08227 31.206 4.34093 31.2735C2.9343 30.5332 1.85131 29.2909 1.30306 27.7889C1.03966 27.0406 0.944059 26.2427 1.02314 25.4527C1.10221 24.6627 1.354 23.9002 1.76036 23.2202Z" fill="#F9CC7D"/>
</g>
<g style="mix-blend-mode:multiply">
<path d="M23.8093 31.4131C23.9221 30.7588 23.8398 30.0854 23.5731 29.4783C23.1036 28.5001 22.0609 27.9279 21.0193 27.6507C19.1084 27.1421 17.0498 27.4282 15.2119 28.1614C13.3741 28.8946 11.7324 30.0526 10.1974 31.3086C9.74214 31.6854 9.2476 32.0112 8.72253 32.2801C10.6347 34.8386 10.2074 38.5276 11.7731 41.3155C12.1055 41.9548 12.5948 42.4975 13.1942 42.8918C13.8217 43.2621 14.5616 43.3887 15.2751 43.2477C15.9885 43.1067 16.6265 42.7079 17.0692 42.1261C17.5764 41.3925 17.8987 40.5452 18.0081 39.6576C18.1175 38.7699 18.0108 37.8688 17.6972 37.0321C17.6116 36.7768 17.4765 36.5412 17.2998 36.3389C17.1232 36.1367 16.9085 35.9718 16.6682 35.8539C18.2147 36.211 19.8376 35.9741 21.2204 35.1896C21.9019 34.7925 22.4876 34.2478 22.9353 33.5947C23.3829 32.9417 23.6815 32.1966 23.8093 31.4131Z" fill="#F5B33C"/>
</g>
</svg>
