<svg width="118" height="40" viewBox="0 0 118 40" fill="none" xmlns="http://www.w3.org/2000/svg">
<mask id="mask00" mask-type="alpha" maskUnits="userSpaceOnUse" x="0" y="18" width="22" height="22">
<path d="M0.0612793 18.0883H21.973V40H0.0612793V18.0883Z" fill="#C4C4C4"/>
</mask>
<g mask="url(#mask00)">
<path d="M2.7937 39.9911C2.80652 38.7178 2.86305 37.0938 2.90377 35.821C2.94746 34.4469 3.00778 33.0733 3.08471 31.7002C3.12807 30.9289 3.17657 30.1578 3.23021 29.3871C3.23114 29.3775 3.23334 29.3682 3.23676 29.3592C3.23672 29.3586 3.23683 29.3579 3.2371 29.3574C3.23932 29.3501 3.24228 29.343 3.24596 29.3363C3.24999 29.3285 3.25484 29.3212 3.26042 29.3144C3.27548 29.2939 3.29718 29.2792 3.32183 29.2728C3.34649 29.2664 3.37259 29.2688 3.39572 29.2794C3.39999 29.2813 3.40363 29.2827 3.40787 29.2849C3.41477 29.2887 3.422 29.2928 3.42889 29.2966C3.8161 29.5159 4.20351 29.7351 4.59112 29.9543C5.47586 30.4551 6.36049 30.9558 7.245 31.4565C8.17275 31.9815 9.1005 32.5065 10.0283 33.0314C10.5511 33.3275 11.0741 33.6235 11.5974 33.9194C11.6118 33.9277 11.6276 33.935 11.6414 33.9444C11.7389 34.0117 11.714 34.1747 11.7209 34.2813C11.757 34.8341 11.8026 35.3862 11.8575 35.9375C11.9672 37.0421 12.1142 38.1422 12.2985 39.2379C12.3212 39.3721 12.4854 39.8392 12.5091 39.9733L2.7937 39.9911Z" fill="#4DB3B7"/>
<g style="mix-blend-mode:multiply" opacity="0.2">
<path d="M10.6811 37.3361C9.74649 36.7458 8.6693 36.4162 7.69984 35.8862C6.69589 35.3375 5.69527 34.6557 4.98587 33.7438C4.32048 32.8702 3.9039 31.8327 3.78029 30.7414C3.73924 30.3315 3.74796 29.9181 3.80628 29.5103C4.06768 29.6583 4.3293 29.8063 4.59116 29.9543C5.4759 30.455 6.36053 30.9557 7.24504 31.4565C8.17279 31.9814 9.10054 32.5064 10.0283 33.0314C10.5511 33.3274 11.0741 33.6234 11.5974 33.9194C11.6119 33.9277 11.6277 33.9349 11.6414 33.9443C11.739 34.0117 11.714 34.1746 11.7209 34.2813C11.7571 34.8341 11.8026 35.3861 11.8575 35.9375C11.9544 36.9127 12.081 37.8843 12.2372 38.8522C11.8365 38.2385 11.3051 37.7208 10.6811 37.3361Z" fill="#4DB3B7"/>
</g>
<path d="M20.7566 25.7944C20.0081 25.943 19.2682 26.1452 18.5313 26.3455C18.53 26.3562 18.5277 26.3661 18.526 26.3761C18.5217 26.4068 18.5165 26.4375 18.5129 26.468C18.5116 26.4752 18.5112 26.4791 18.5106 26.4825C18.51 26.4881 18.509 26.4947 18.5084 26.5031C18.4906 26.6522 18.4752 26.8016 18.4634 26.9513C18.4417 27.228 18.4292 27.5051 18.417 27.7825C18.3977 28.2406 18.3763 28.6976 18.3241 29.1531C18.3096 29.2801 18.2923 29.4066 18.2722 29.5328C18.2656 29.5729 18.2591 29.613 18.2515 29.6531C18.0812 30.5371 17.7087 31.3698 17.1632 32.086C16.1891 33.3855 14.7901 34.2639 13.2511 34.7489C11.7159 35.2184 10.0972 35.35 8.50626 35.1345C7.72917 35.0397 6.96464 34.8609 6.22612 34.6012C5.32365 34.2858 4.49519 33.7892 3.79163 33.142C3.05951 32.4489 2.48156 31.6093 2.09539 30.6781C1.69605 29.7261 1.55943 28.6771 1.46388 27.6566C1.41625 27.1404 1.38439 26.6234 1.35254 26.1061C1.31707 25.5349 1.27602 24.9637 1.25631 24.3914C1.21315 23.1211 1.24496 21.8494 1.35156 20.5829C1.45237 19.3893 1.58833 18.179 1.90984 17.022C2.19459 15.9977 2.63235 14.9898 3.38309 14.2205C4.67142 12.9001 6.56636 12.4152 8.34698 12.2542C9.48461 12.1485 10.6317 12.2163 11.749 12.4552C12.9233 12.6989 14.0492 13.1353 15.081 13.7468C16.0163 14.301 16.7935 15.0862 17.3382 16.0271C17.8435 16.9284 18.1343 17.9341 18.1881 18.9661C18.2112 19.4222 18.1869 19.8795 18.1155 20.3306C18.1766 20.4858 18.216 20.5789 18.2929 20.7465C18.3714 20.9174 18.4541 21.0864 18.5412 21.2537C18.7149 21.5893 18.9024 21.9173 19.0978 22.2401C19.4903 22.8898 19.9129 23.5212 20.3149 24.1648C20.5422 24.5288 20.7625 24.8969 20.9688 25.2732C21.0709 25.4614 20.9891 25.7487 20.7566 25.7944Z" fill="#4DB3B7"/>
<path d="M18.3241 29.1531C18.3097 29.2801 18.2924 29.4066 18.2722 29.5328C18.2657 29.5729 18.2591 29.613 18.2515 29.6531C17.5491 29.6618 16.8558 29.4929 16.236 29.162C15.6163 28.8311 15.0902 28.3489 14.7067 27.7603C14.6901 27.7319 14.6793 27.7005 14.6748 27.6679C14.6703 27.6353 14.6723 27.6022 14.6807 27.5704C14.689 27.5385 14.7036 27.5087 14.7234 27.4825C14.7433 27.4563 14.7682 27.4342 14.7966 27.4177C14.825 27.4011 14.8564 27.3902 14.889 27.3857C14.9215 27.3813 14.9547 27.3833 14.9865 27.3916C15.0183 27.4 15.0482 27.4145 15.0744 27.4344C15.1006 27.4543 15.1226 27.4791 15.1392 27.5075C15.1711 27.5554 15.2029 27.6027 15.2364 27.6495C15.2512 27.6695 15.266 27.6901 15.2811 27.7101C15.2837 27.7131 15.2861 27.7163 15.2883 27.7197C15.2886 27.7202 15.2893 27.7202 15.2893 27.7208L15.2883 27.7203C15.289 27.7211 15.2897 27.7219 15.2906 27.7225C15.2916 27.7235 15.2925 27.7246 15.2932 27.7258C15.2938 27.7263 15.2944 27.7269 15.2948 27.7275C15.2952 27.7282 15.2956 27.7287 15.2961 27.7292L15.2965 27.7298V27.7303C15.2978 27.7314 15.2984 27.7325 15.2991 27.7331L15.2994 27.7337L15.2998 27.7347C15.3027 27.7377 15.3053 27.7409 15.3077 27.7443C15.3724 27.826 15.4407 27.9045 15.5116 27.9802C15.5855 28.0588 15.6622 28.1342 15.7418 28.2063C15.7816 28.2425 15.8223 28.2782 15.8633 28.312C15.8827 28.3282 15.9024 28.3444 15.9218 28.36C15.9329 28.3689 15.9441 28.3777 15.9556 28.3866C15.9563 28.3873 15.9569 28.3877 15.9586 28.3894H15.9589C15.9596 28.39 15.9602 28.39 15.9609 28.391L15.9612 28.3918H15.9619L15.9641 28.3933L15.9651 28.3939L15.968 28.3962L15.9697 28.3978L15.9707 28.3984C15.9792 28.4046 15.9904 28.4129 15.9904 28.4129C15.9993 28.4196 16.0075 28.4256 16.0164 28.4324C16.0338 28.4447 16.0508 28.4575 16.0686 28.4696C16.1067 28.497 16.1458 28.5231 16.1845 28.5487C16.2627 28.6 16.3421 28.6484 16.4236 28.6934C16.508 28.7408 16.5944 28.7853 16.6817 28.8265C16.7192 28.8439 16.7559 28.8604 16.7937 28.8767H16.794C16.7947 28.8773 16.7954 28.8773 16.7963 28.8777C16.7967 28.8781 16.7973 28.8783 16.7979 28.8783C16.7991 28.8788 16.8002 28.8793 16.8012 28.88C16.8023 28.8806 16.8036 28.881 16.8048 28.8811C16.816 28.8855 16.8327 28.8922 16.8393 28.8951C16.8594 28.9028 16.8794 28.9106 16.8994 28.9184C17.0772 28.9856 17.2597 29.0394 17.4455 29.0793C17.4971 29.091 17.5497 29.101 17.6022 29.1098C17.6249 29.1137 17.6482 29.1176 17.6709 29.1209C17.6764 29.122 17.6873 29.1233 17.6965 29.1248C17.6987 29.1248 17.7004 29.1254 17.7027 29.1254L17.7037 29.126H17.7043C17.7059 29.1259 17.7074 29.1261 17.7089 29.1265C17.8091 29.1382 17.9086 29.1471 18.0101 29.1522C18.115 29.1566 18.2194 29.157 18.3241 29.1531Z" fill="#42495A"/>
<path fill-rule="evenodd" clip-rule="evenodd" d="M12.0373 21.6175C12.0373 21.6175 12.0373 21.6175 12.0373 21.6175C12.0373 21.6175 12.0373 21.6175 12.0373 21.6175L12.0391 21.6195C12.041 21.6218 12.0444 21.6257 12.0493 21.6311C12.059 21.642 12.0746 21.6588 12.0956 21.6803C12.1377 21.7233 12.2013 21.7844 12.2842 21.8529C12.451 21.9907 12.6896 22.1531 12.9818 22.2612C13.2717 22.3686 13.6131 22.422 13.9949 22.3467C14.3766 22.2713 14.8193 22.063 15.3054 21.6143C15.4248 21.5041 15.6109 21.5116 15.7211 21.6309C15.8312 21.7503 15.8238 21.9364 15.7044 22.0465C15.1523 22.5561 14.6143 22.824 14.1088 22.9238C13.6034 23.0235 13.1514 22.9512 12.7776 22.8129C12.4061 22.6755 12.1107 22.4725 11.9096 22.3064C11.8084 22.2228 11.7295 22.1473 11.6751 22.0917C11.6479 22.0638 11.6266 22.0408 11.6117 22.0242C11.6042 22.0159 11.5983 22.0091 11.594 22.0041L11.5887 21.998L11.587 21.9959L11.5863 21.9952L11.5861 21.9948C11.586 21.9947 11.5858 21.9946 11.8118 21.8063L11.5858 21.9946C11.4819 21.8698 11.4988 21.6843 11.6236 21.5803C11.7482 21.4766 11.9332 21.4932 12.0373 21.6175Z" fill="#42495A"/>
<g style="mix-blend-mode:multiply" opacity="0.2">
<path d="M1.35166 20.5836C1.45248 19.3898 1.58843 18.1796 1.90994 17.0224C2.1947 15.9982 2.63245 14.9907 3.38352 14.2208C4.67121 12.9006 6.56646 12.4154 8.34708 12.255C9.48482 12.1492 10.632 12.2169 11.7494 12.4559C12.9237 12.6993 14.0496 13.1357 15.0811 13.7473C15.2795 13.8679 15.4713 13.9982 15.6559 14.1366C14.3567 13.6524 12.9701 13.3947 11.5862 13.5094C8.5573 13.7612 5.83184 15.6534 4.2903 18.2375C3.4095 19.7141 2.97108 21.3997 2.74119 23.0908C2.50104 24.858 2.37301 26.6861 2.53494 28.4656C2.6824 30.0854 3.13593 31.8649 4.01148 33.3363C3.93726 33.2733 3.86369 33.2096 3.7921 33.1428C3.0598 32.4497 2.48173 31.6101 2.09553 30.6787C1.69619 29.7266 1.55956 28.6775 1.46401 27.6569C1.41606 27.141 1.38453 26.6239 1.35268 26.1068C1.31721 25.5352 1.27616 24.9641 1.25645 24.3917C1.21327 23.1216 1.24506 21.85 1.35166 20.5836Z" fill="#4DB3B7"/>
</g>
</g>
<g style="mix-blend-mode:multiply">
<path d="M18.2198 11.5648C18.1285 11.4243 17.9975 11.3139 17.8435 11.2478C17.5879 11.1481 17.295 11.2229 17.0529 11.3521C16.6128 11.6044 16.2639 11.9897 16.0564 12.4527C15.8515 12.9134 15.7181 13.4027 15.6607 13.9037C15.6404 14.0523 15.604 14.1983 15.5521 14.339C16.3484 14.4811 16.9021 15.2378 17.6731 15.4823C17.8449 15.543 18.0294 15.5587 18.209 15.5278C18.3898 15.4876 18.5496 15.3828 18.6586 15.2332C18.7676 15.0835 18.8182 14.8992 18.801 14.7148C18.7697 14.4912 18.6844 14.2786 18.5524 14.0954C18.4204 13.9122 18.2458 13.7639 18.0436 13.6634C17.9838 13.6311 17.9181 13.6109 17.8504 13.604C17.7827 13.5972 17.7143 13.6039 17.6492 13.6237C17.9993 13.4219 18.2616 13.0969 18.385 12.7121C18.444 12.5206 18.4598 12.3183 18.4313 12.1199C18.4027 11.9215 18.3305 11.732 18.2198 11.5648Z" fill="white"/>
</g>
<g style="mix-blend-mode:multiply">
<path d="M12.6966 13.8688C12.661 13.705 12.6747 13.5343 12.7361 13.3783C12.8451 13.1265 13.1043 12.971 13.3664 12.8899C13.8554 12.7546 14.3747 12.7778 14.8496 12.9561C15.3212 13.1346 15.7628 13.3841 16.1593 13.6957C16.2792 13.7859 16.4085 13.8627 16.545 13.9249C16.0857 14.5907 16.2339 15.5165 15.8652 16.2365C15.7875 16.4013 15.6688 16.5435 15.5205 16.6493C15.3647 16.7495 15.1778 16.7894 14.9948 16.7615C14.8117 16.7337 14.6451 16.64 14.5262 16.498C14.3893 16.3185 14.2983 16.1082 14.2609 15.8856C14.2236 15.6629 14.2411 15.4345 14.312 15.2201C14.3311 15.1548 14.3629 15.0939 14.4057 15.041C14.4485 14.9881 14.5014 14.9442 14.5613 14.9118C14.1715 15.0185 13.7561 14.9763 13.3958 14.7934C13.2181 14.7005 13.0633 14.5695 12.9424 14.4096C12.8215 14.2497 12.7376 14.065 12.6966 13.8688Z" fill="white"/>
</g>
<g style="mix-blend-mode:multiply">
<path d="M18.2198 11.5648C18.1285 11.4243 17.9975 11.3139 17.8435 11.2478C17.5879 11.1481 17.295 11.2229 17.0529 11.3521C16.6128 11.6044 16.2639 11.9897 16.0564 12.4527C15.8515 12.9134 15.7181 13.4027 15.6607 13.9037C15.6404 14.0523 15.604 14.1983 15.5521 14.339C16.3484 14.4811 16.9021 15.2378 17.6731 15.4823C17.8449 15.543 18.0294 15.5587 18.209 15.5278C18.3898 15.4876 18.5496 15.3828 18.6586 15.2332C18.7676 15.0835 18.8182 14.8992 18.801 14.7148C18.7697 14.4912 18.6844 14.2786 18.5524 14.0954C18.4204 13.9122 18.2458 13.7639 18.0436 13.6634C17.9838 13.6311 17.9181 13.6109 17.8504 13.604C17.7827 13.5972 17.7143 13.6039 17.6492 13.6237C17.9993 13.4219 18.2616 13.0969 18.385 12.7121C18.444 12.5206 18.4598 12.3183 18.4313 12.1199C18.4027 11.9215 18.3305 11.732 18.2198 11.5648Z" fill="#EB822F"/>
</g>
<g style="mix-blend-mode:multiply">
<path d="M12.6966 13.8688C12.661 13.705 12.6747 13.5343 12.7361 13.3783C12.8451 13.1265 13.1043 12.971 13.3664 12.8899C13.8554 12.7546 14.3747 12.7778 14.8496 12.9561C15.3212 13.1346 15.7628 13.3841 16.1593 13.6957C16.2792 13.7859 16.4085 13.8627 16.545 13.9249C16.0857 14.5907 16.2339 15.5165 15.8652 16.2365C15.7875 16.4013 15.6688 16.5435 15.5205 16.6493C15.3647 16.7495 15.1778 16.7894 14.9948 16.7615C14.8117 16.7337 14.6451 16.64 14.5262 16.498C14.3893 16.3185 14.2983 16.1082 14.2609 15.8856C14.2236 15.6629 14.2411 15.4345 14.312 15.2201C14.3311 15.1548 14.3629 15.0939 14.4057 15.041C14.4485 14.9881 14.5014 14.9442 14.5613 14.9118C14.1715 15.0185 13.7561 14.9763 13.3958 14.7934C13.2181 14.7005 13.0633 14.5695 12.9424 14.4096C12.8215 14.2497 12.7376 14.065 12.6966 13.8688Z" fill="#F1A96F"/>
</g>
<g style="mix-blend-mode:multiply">
<path d="M20.2368 4.47538C20.302 4.32095 20.32 4.15065 20.2884 3.98602C20.2276 3.71849 20.0014 3.51789 19.7588 3.38987C19.303 3.16687 18.7884 3.09404 18.2887 3.18184C17.7923 3.27055 17.3123 3.4344 16.8652 3.66773C16.7308 3.73424 16.5896 3.78594 16.444 3.82193C16.7728 4.56093 16.4567 5.44363 16.6865 6.21917C16.7326 6.3955 16.8231 6.55707 16.9493 6.68846C17.084 6.81559 17.2603 6.88922 17.4454 6.89554C17.6304 6.90186 17.8114 6.84043 17.9544 6.72278C18.122 6.5715 18.2503 6.38164 18.3279 6.16963C18.4056 5.95763 18.4305 5.72988 18.4003 5.50612C18.3936 5.4384 18.3735 5.3727 18.3412 5.31281C18.3088 5.25293 18.265 5.20005 18.212 5.15726C18.5755 5.3339 18.9916 5.36889 19.3794 5.2554C19.5711 5.19689 19.7475 5.09657 19.8957 4.96169C20.044 4.82681 20.1605 4.66071 20.2368 4.47538Z" fill="white"/>
</g>
<g style="mix-blend-mode:multiply">
<path d="M15.2322 1.19395C15.3479 1.07257 15.4969 0.988239 15.6605 0.951612C15.9301 0.900763 16.2042 1.02816 16.4184 1.19965C16.8046 1.52868 17.0765 1.97164 17.1952 2.46491C17.3117 2.95552 17.3528 3.46102 17.317 3.96401C17.3096 4.11381 17.3185 4.26397 17.3436 4.41184C16.5347 4.40492 15.8512 5.04668 15.0484 5.14513C14.8683 5.17316 14.684 5.15458 14.5132 5.09115C14.3429 5.01836 14.2051 4.88595 14.1255 4.71876C14.046 4.55157 14.0301 4.36109 14.081 4.18306C14.153 3.96903 14.276 3.77576 14.4394 3.61999C14.6029 3.46422 14.8018 3.35065 15.0191 3.28911C15.0839 3.26829 15.1521 3.26053 15.2199 3.26629C15.2877 3.27206 15.3537 3.29122 15.4141 3.32269C15.1072 3.05983 14.9092 2.69211 14.8587 2.29121C14.8359 2.09207 14.8576 1.89037 14.9222 1.70062C14.9868 1.51088 15.0927 1.33783 15.2322 1.19395Z" fill="white"/>
</g>
<g style="mix-blend-mode:multiply">
<path d="M20.2389 4.47648C20.3041 4.32205 20.322 4.15175 20.2904 3.98712C20.2296 3.71959 20.0035 3.51899 19.7608 3.39097C19.3051 3.16796 18.7904 3.09514 18.2907 3.18294C17.7943 3.27165 17.3144 3.43549 16.8673 3.66883C16.7329 3.73534 16.5916 3.78704 16.446 3.82303C16.7749 4.56203 16.4588 5.44473 16.6886 6.22027C16.7346 6.3966 16.8251 6.55817 16.9514 6.68956C17.086 6.81669 17.2624 6.89032 17.4475 6.89664C17.6325 6.90296 17.8135 6.84153 17.9565 6.72388C18.1241 6.5726 18.2523 6.38274 18.33 6.17073C18.4077 5.95873 18.4326 5.73098 18.4024 5.50722C18.3957 5.4395 18.3755 5.3738 18.3432 5.31391C18.3109 5.25403 18.267 5.20115 18.2141 5.15836C18.5775 5.335 18.9937 5.36999 19.3815 5.2565C19.5732 5.19798 19.7495 5.09767 19.8978 4.96279C20.0461 4.82791 20.1626 4.66181 20.2389 4.47648Z" fill="#F9B5AB"/>
</g>
<g style="mix-blend-mode:multiply">
<path d="M15.2344 1.19504C15.3501 1.07367 15.4991 0.989337 15.6627 0.95271C15.9323 0.901862 16.2064 1.02925 16.4206 1.20075C16.8068 1.52978 17.0787 1.97274 17.1974 2.46601C17.3139 2.95662 17.355 3.46212 17.3192 3.96511C17.3118 4.11491 17.3207 4.26507 17.3458 4.41294C16.5369 4.40601 15.8534 5.04778 15.0506 5.14622C14.8705 5.17426 14.6862 5.15568 14.5154 5.09225C14.3451 5.01946 14.2073 4.88705 14.1277 4.71986C14.0482 4.55267 14.0323 4.36218 14.0832 4.18416C14.1552 3.97013 14.2782 3.77685 14.4416 3.62109C14.6051 3.46532 14.804 3.35175 15.0213 3.29021C15.0861 3.26939 15.1543 3.26163 15.2221 3.26739C15.2899 3.27316 15.3559 3.29232 15.4163 3.32379C15.1094 3.06092 14.9114 2.69321 14.8609 2.29231C14.8381 2.09317 14.8598 1.89146 14.9244 1.70172C14.989 1.51198 15.0949 1.33893 15.2344 1.19504Z" fill="#F47E6A"/>
</g>
<g style="mix-blend-mode:multiply">
<path d="M13.5693 6.96119C13.5629 6.83249 13.5184 6.70858 13.4415 6.60516C13.3693 6.52799 13.2815 6.46706 13.184 6.4264C13.0864 6.38574 12.9813 6.36629 12.8757 6.36933C12.4857 6.36715 12.105 6.48866 11.7884 6.71639C11.4743 6.94363 11.1967 7.21742 10.9652 7.52832C10.8943 7.61926 10.8138 7.70224 10.725 7.77578C11.1996 8.17763 11.2755 8.89436 11.6937 9.35458C11.7845 9.46127 11.9011 9.54291 12.0325 9.59169C12.1682 9.63474 12.3149 9.62679 12.4451 9.56935C12.5753 9.5119 12.6801 9.4089 12.7398 9.27968C12.8054 9.11894 12.8307 8.94466 12.8137 8.77192C12.7966 8.59918 12.7378 8.4332 12.6421 8.28835C12.6148 8.24371 12.579 8.20494 12.5366 8.17427C12.4942 8.1436 12.4462 8.12165 12.3952 8.1097C12.7059 8.1106 13.0057 7.99579 13.2363 7.78766C13.3494 7.6831 13.438 7.55474 13.4956 7.41183C13.5532 7.26892 13.5784 7.11501 13.5693 6.96119Z" fill="white"/>
</g>
<g style="mix-blend-mode:multiply">
<path d="M9.00814 6.36102C9.04766 6.23836 9.12267 6.13018 9.22369 6.05016C9.3134 5.9943 9.41397 5.95815 9.51872 5.94411C9.62347 5.93007 9.73001 5.93846 9.83127 5.96873C10.2086 6.06753 10.5449 6.28338 10.7918 6.58526C11.0364 6.88602 11.2337 7.2223 11.3769 7.58252C11.4219 7.68871 11.4782 7.7897 11.5449 7.88372C10.9826 8.14913 10.7237 8.8218 10.2007 9.15816C10.0854 9.23773 9.95165 9.28642 9.81216 9.29957C9.66997 9.30605 9.5303 9.26042 9.41935 9.17124C9.30841 9.08206 9.23383 8.95546 9.2096 8.81519C9.18789 8.64298 9.20849 8.46807 9.26963 8.30562C9.33076 8.14316 9.43058 7.99806 9.56044 7.88289C9.59834 7.84683 9.64302 7.81865 9.69189 7.79999C9.74076 7.78133 9.79285 7.77256 9.84514 7.77418C9.54485 7.6947 9.28493 7.50624 9.11603 7.24555C9.03375 7.11527 8.9814 6.96836 8.96274 6.8154C8.94409 6.66245 8.95959 6.50726 9.00814 6.36102Z" fill="white"/>
</g>
<g style="mix-blend-mode:multiply">
<path d="M13.5693 6.96119C13.5629 6.83249 13.5184 6.70858 13.4415 6.60516C13.3693 6.52799 13.2815 6.46706 13.184 6.4264C13.0864 6.38574 12.9813 6.36629 12.8757 6.36933C12.4857 6.36715 12.105 6.48866 11.7884 6.71639C11.4743 6.94363 11.1967 7.21742 10.9652 7.52832C10.8943 7.61926 10.8138 7.70224 10.725 7.77578C11.1996 8.17763 11.2755 8.89436 11.6937 9.35458C11.7845 9.46127 11.9011 9.54291 12.0325 9.59169C12.1682 9.63474 12.3149 9.62679 12.4451 9.56935C12.5753 9.5119 12.6801 9.4089 12.7398 9.27968C12.8054 9.11894 12.8307 8.94466 12.8137 8.77192C12.7966 8.59918 12.7378 8.4332 12.6421 8.28835C12.6148 8.24371 12.579 8.20494 12.5366 8.17427C12.4942 8.1436 12.4462 8.12165 12.3952 8.1097C12.7059 8.1106 13.0057 7.99579 13.2363 7.78766C13.3494 7.6831 13.438 7.55474 13.4956 7.41183C13.5532 7.26892 13.5784 7.11501 13.5693 6.96119Z" fill="#E566A1"/>
</g>
<g style="mix-blend-mode:multiply">
<path d="M9.00814 6.36102C9.04766 6.23836 9.12267 6.13018 9.22369 6.05016C9.3134 5.9943 9.41397 5.95815 9.51872 5.94411C9.62347 5.93007 9.73001 5.93846 9.83127 5.96873C10.2086 6.06753 10.5449 6.28338 10.7918 6.58526C11.0364 6.88602 11.2337 7.2223 11.3769 7.58252C11.4219 7.68871 11.4782 7.7897 11.5449 7.88372C10.9826 8.14913 10.7237 8.8218 10.2007 9.15816C10.0854 9.23773 9.95165 9.28642 9.81216 9.29957C9.66997 9.30605 9.5303 9.26042 9.41935 9.17124C9.30841 9.08206 9.23383 8.95546 9.2096 8.81519C9.18789 8.64298 9.20849 8.46807 9.26963 8.30562C9.33076 8.14316 9.43058 7.99806 9.56044 7.88289C9.59834 7.84683 9.64302 7.81865 9.69189 7.79999C9.74076 7.78133 9.79285 7.77256 9.84514 7.77418C9.54485 7.6947 9.28493 7.50624 9.11603 7.24555C9.03375 7.11527 8.9814 6.96836 8.96274 6.8154C8.94409 6.66245 8.95959 6.50726 9.00814 6.36102Z" fill="#ECA0C6"/>
</g>
<path d="M10.1917 0.33272C10.1336 0.217682 10.0427 0.122464 9.9305 0.0591199C9.8332 0.0178736 9.72823 -0.00221271 9.62257 0.000193222C9.51691 0.00259915 9.41297 0.0274423 9.31764 0.073075C8.96025 0.229292 8.66158 0.494763 8.46451 0.831353C8.26962 1.16646 8.12695 1.52931 8.04141 1.90741C8.01357 2.01929 7.97365 2.1278 7.92236 2.23105C8.5191 2.40587 8.87932 3.03015 9.44822 3.28118C9.57449 3.34187 9.71422 3.36918 9.85405 3.3605C9.99553 3.34481 10.1264 3.27803 10.2222 3.1727C10.3179 3.06736 10.3719 2.93071 10.3741 2.78838C10.3687 2.61489 10.3212 2.44531 10.2356 2.29432C10.1499 2.14334 10.0288 2.01551 9.88261 1.92191C9.83958 1.89217 9.79106 1.87128 9.73989 1.86044C9.68871 1.8496 9.63589 1.84903 9.58449 1.85876C9.86879 1.73359 10.0963 1.50703 10.2226 1.22326C10.2836 1.08178 10.3125 0.928516 10.3072 0.774522C10.3018 0.620529 10.2624 0.469637 10.1917 0.33272Z" fill="white"/>
<path d="M5.77917 1.63423C5.76553 1.50608 5.79022 1.37677 5.8501 1.26266C5.90944 1.1752 5.9867 1.10136 6.07675 1.04603C6.1668 0.990706 6.26758 0.955158 6.37242 0.941747C6.75736 0.879012 7.15229 0.939899 7.50047 1.11566C7.84603 1.29138 8.16279 1.51874 8.43983 1.78991C8.52396 1.86876 8.61641 1.93822 8.71555 1.99708C8.30921 2.46777 8.34546 3.18762 8.00386 3.70722C7.93074 3.82672 7.82821 3.92548 7.70605 3.99408C7.57871 4.05768 7.43254 4.07263 7.29496 4.03612C7.15738 3.9996 7.03785 3.91414 6.9588 3.79576C6.8691 3.64715 6.81698 3.47891 6.80696 3.30562C6.79694 3.13232 6.82933 2.95919 6.90131 2.80124C6.92132 2.75291 6.95073 2.70903 6.98783 2.67215C7.02493 2.63527 7.06898 2.60612 7.11743 2.5864C6.81072 2.63556 6.4967 2.56874 6.23658 2.39897C6.10853 2.31326 6.00108 2.20022 5.92198 2.06798C5.84288 1.93573 5.79411 1.78759 5.77917 1.63423Z" fill="white"/>
<g style="mix-blend-mode:multiply">
<path d="M10.1917 0.33272C10.1336 0.217682 10.0427 0.122464 9.9305 0.0591199C9.8332 0.0178736 9.72823 -0.00221271 9.62257 0.000193222C9.51691 0.00259915 9.41297 0.0274423 9.31764 0.073075C8.96025 0.229292 8.66158 0.494763 8.46451 0.831353C8.26962 1.16646 8.12695 1.52931 8.04141 1.90741C8.01357 2.01929 7.97365 2.1278 7.92236 2.23105C8.5191 2.40587 8.87932 3.03015 9.44822 3.28118C9.57449 3.34187 9.71422 3.36918 9.85405 3.3605C9.99553 3.34481 10.1264 3.27803 10.2222 3.1727C10.3179 3.06736 10.3719 2.93071 10.3741 2.78838C10.3687 2.61489 10.3212 2.44531 10.2356 2.29432C10.1499 2.14334 10.0288 2.01551 9.88261 1.92191C9.83958 1.89217 9.79106 1.87128 9.73989 1.86044C9.68871 1.8496 9.63589 1.84903 9.58449 1.85876C9.86879 1.73359 10.0963 1.50703 10.2226 1.22326C10.2836 1.08178 10.3125 0.928516 10.3072 0.774522C10.3018 0.620529 10.2624 0.469637 10.1917 0.33272Z" fill="#DA7579"/>
</g>
<g style="mix-blend-mode:multiply">
<path d="M5.77917 1.63423C5.76553 1.50608 5.79022 1.37677 5.8501 1.26266C5.90944 1.1752 5.9867 1.10136 6.07675 1.04603C6.1668 0.990706 6.26758 0.955158 6.37242 0.941747C6.75736 0.879012 7.15229 0.939899 7.50047 1.11566C7.84603 1.29138 8.16279 1.51874 8.43983 1.78991C8.52396 1.86876 8.61641 1.93822 8.71555 1.99708C8.30921 2.46777 8.34546 3.18762 8.00386 3.70722C7.93074 3.82672 7.82821 3.92548 7.70605 3.99408C7.57871 4.05768 7.43254 4.07263 7.29496 4.03612C7.15738 3.9996 7.03785 3.91414 6.9588 3.79576C6.8691 3.64715 6.81698 3.47891 6.80696 3.30562C6.79694 3.13232 6.82933 2.95919 6.90131 2.80124C6.92132 2.75291 6.95073 2.70903 6.98783 2.67215C7.02493 2.63527 7.06898 2.60612 7.11743 2.5864C6.81072 2.63556 6.4967 2.56874 6.23658 2.39897C6.10853 2.31326 6.00108 2.20022 5.92198 2.06798C5.84288 1.93573 5.79411 1.78759 5.77917 1.63423Z" fill="#CC4045"/>
</g>
<g style="mix-blend-mode:multiply">
<path d="M10.6747 13.6049C10.7252 13.3141 10.6883 13.0149 10.5687 12.745C10.3582 12.3103 9.8906 12.056 9.42354 11.9328C8.56664 11.7067 7.64347 11.8339 6.81933 12.1598C5.99518 12.4856 5.25902 13.0003 4.57069 13.5585C4.36652 13.726 4.14476 13.8708 3.9093 13.9903C4.76677 15.1274 4.57515 16.767 5.27728 18.006C5.42633 18.2902 5.64572 18.5314 5.91453 18.7066C6.19593 18.8712 6.52773 18.9274 6.84765 18.8648C7.16758 18.8021 7.45365 18.6249 7.65218 18.3663C7.87963 18.0402 8.02415 17.6637 8.07322 17.2692C8.12229 16.8747 8.07445 16.4741 7.93382 16.1023C7.89539 15.9888 7.83482 15.8841 7.75561 15.7942C7.6764 15.7043 7.58013 15.6311 7.47238 15.5787C8.16588 15.7373 8.89361 15.6321 9.51372 15.2834C9.81932 15.1069 10.082 14.8648 10.2827 14.5746C10.4835 14.2843 10.6173 13.9532 10.6747 13.6049Z" fill="white"/>
</g>
<path d="M0.789396 9.96472C0.939528 9.71061 1.16167 9.50675 1.42772 9.37895C1.86994 9.1846 2.39077 9.29431 2.82618 9.50345C3.62507 9.88716 4.2452 10.5827 4.66114 11.3653C5.07708 12.1478 5.30362 13.017 5.46544 13.8883C5.51222 14.1482 5.58711 14.4022 5.6888 14.6459C4.29866 14.9553 3.3811 16.3275 2.04305 16.8152C1.74531 16.9348 1.42188 16.9761 1.10364 16.9351C0.782697 16.8779 0.49367 16.7055 0.290793 16.4503C0.0879167 16.1952 -0.0148638 15.8747 0.00173809 15.5491C0.0400964 15.1534 0.174346 14.7731 0.392859 14.441C0.611371 14.1089 0.907556 13.835 1.25576 13.6432C1.35861 13.5818 1.47263 13.5414 1.59122 13.5243C1.70981 13.5073 1.83061 13.5139 1.9466 13.5439C1.31583 13.2149 0.830179 12.6628 0.584329 11.9952C0.466215 11.6627 0.423343 11.3081 0.458804 10.9569C0.494265 10.6058 0.607174 10.2669 0.789396 9.96472Z" fill="white"/>
<path d="M10.6769 13.6059C10.7274 13.3151 10.6905 13.0159 10.5709 12.746C10.3604 12.3113 9.8928 12.057 9.42573 11.9338C8.56883 11.7077 7.64567 11.8349 6.82153 12.1607C5.99738 12.4866 5.26122 13.0013 4.57288 13.5595C4.36872 13.727 4.14696 13.8717 3.9115 13.9913C4.76897 15.1284 4.57735 16.7679 5.27948 18.007C5.42852 18.2911 5.64792 18.5323 5.91672 18.7076C6.19813 18.8722 6.52992 18.9284 6.84985 18.8658C7.16978 18.8031 7.45585 18.6259 7.65438 18.3673C7.88182 18.0412 8.02634 17.6646 8.07542 17.2701C8.12449 16.8756 8.07664 16.4751 7.93602 16.1033C7.89759 15.9898 7.83702 15.8851 7.75781 15.7952C7.6786 15.7053 7.58233 15.632 7.47458 15.5796C8.16808 15.7383 8.89581 15.6331 9.51592 15.2844C9.82151 15.1079 10.0841 14.8658 10.2849 14.5755C10.4856 14.2853 10.6195 13.9541 10.6769 13.6059Z" fill="white"/>
<g style="mix-blend-mode:multiply">
<path d="M0.789396 9.96472C0.939528 9.71061 1.16167 9.50675 1.42772 9.37895C1.86994 9.1846 2.39077 9.29431 2.82618 9.50345C3.62507 9.88716 4.2452 10.5827 4.66114 11.3653C5.07708 12.1478 5.30362 13.017 5.46544 13.8883C5.51222 14.1482 5.58711 14.4022 5.6888 14.6459C4.29866 14.9553 3.3811 16.3275 2.04305 16.8152C1.74531 16.9348 1.42188 16.9761 1.10364 16.9351C0.782697 16.8779 0.49367 16.7055 0.290793 16.4503C0.0879167 16.1952 -0.0148638 15.8747 0.00173809 15.5491C0.0400964 15.1534 0.174346 14.7731 0.392859 14.441C0.611371 14.1089 0.907556 13.835 1.25576 13.6432C1.35861 13.5818 1.47263 13.5414 1.59122 13.5243C1.70981 13.5073 1.83061 13.5139 1.9466 13.5439C1.31583 13.2149 0.830179 12.6628 0.584329 11.9952C0.466215 11.6627 0.423343 11.3081 0.458804 10.9569C0.494265 10.6058 0.607174 10.2669 0.789396 9.96472Z" fill="#F9CC7D"/>
</g>
<g style="mix-blend-mode:multiply">
<path d="M10.6769 13.6059C10.7274 13.3151 10.6905 13.0159 10.5709 12.746C10.3604 12.3113 9.8928 12.057 9.42573 11.9338C8.56883 11.7077 7.64567 11.8349 6.82153 12.1607C5.99738 12.4866 5.26122 13.0013 4.57288 13.5595C4.36872 13.727 4.14696 13.8717 3.9115 13.9913C4.76897 15.1284 4.57735 16.7679 5.27948 18.007C5.42852 18.2911 5.64792 18.5323 5.91672 18.7076C6.19813 18.8722 6.52992 18.9284 6.84985 18.8658C7.16978 18.8031 7.45585 18.6259 7.65438 18.3673C7.88182 18.0412 8.02634 17.6646 8.07542 17.2701C8.12449 16.8756 8.07664 16.4751 7.93602 16.1033C7.89759 15.9898 7.83702 15.8851 7.75781 15.7952C7.6786 15.7053 7.58233 15.632 7.47458 15.5796C8.16808 15.7383 8.89581 15.6331 9.51592 15.2844C9.82151 15.1079 10.0841 14.8658 10.2849 14.5755C10.4856 14.2853 10.6195 13.9541 10.6769 13.6059Z" fill="#F5B33C"/>
</g>
<path d="M41.7271 10.832C42.0766 10.832 42.3771 10.96 42.6287 11.216C42.8943 11.4578 43.0271 11.7636 43.0271 12.1333V24.4853C43.0271 24.8551 42.9083 25.168 42.6706 25.424C42.433 25.6658 42.1185 25.7867 41.7271 25.7867C41.3357 25.7867 41.0142 25.6658 40.7626 25.424C40.525 25.1822 40.4062 24.8693 40.4062 24.4853V15.888L36.9466 21.264C36.8068 21.4347 36.6461 21.5769 36.4643 21.6907C36.2826 21.7902 36.0939 21.8329 35.8982 21.8187C35.7165 21.8329 35.5348 21.7902 35.3531 21.6907C35.1714 21.5769 35.0106 21.4347 34.8708 21.264L31.4112 15.696V24.4853C31.4112 24.8693 31.2994 25.1822 31.0758 25.424C30.8521 25.6658 30.5586 25.7867 30.1951 25.7867C29.8457 25.7867 29.5591 25.6658 29.3355 25.424C29.1118 25.168 29 24.8551 29 24.4853V12.1333C29 11.7778 29.1258 11.472 29.3774 11.216C29.643 10.96 29.9575 10.832 30.3209 10.832C30.5306 10.832 30.7403 10.8889 30.95 11.0027C31.1596 11.1022 31.3204 11.2373 31.4322 11.408L36.0031 18.5547L40.6997 11.408C40.8115 11.2373 40.9583 11.1022 41.14 11.0027C41.3357 10.8889 41.5314 10.832 41.7271 10.832Z" fill="#2A2A2A"/>
<path d="M48.3388 24.4853C48.3388 24.8551 48.22 25.168 47.9824 25.424C47.7448 25.6658 47.4442 25.7867 47.0808 25.7867C46.7174 25.7867 46.4168 25.6658 46.1792 25.424C45.9416 25.168 45.8228 24.8551 45.8228 24.4853V15.6747C45.8228 15.3049 45.9416 14.9991 46.1792 14.7573C46.4168 14.5013 46.7174 14.3733 47.0808 14.3733C47.4442 14.3733 47.7448 14.5013 47.9824 14.7573C48.22 14.9991 48.3388 15.3049 48.3388 15.6747V24.4853ZM47.0598 12.9867C46.5846 12.9867 46.2491 12.9084 46.0534 12.752C45.8577 12.5956 45.7599 12.3182 45.7599 11.92V11.5147C45.7599 11.1164 45.8647 10.8391 46.0744 10.6827C46.284 10.5262 46.6195 10.448 47.0808 10.448C47.57 10.448 47.9125 10.5262 48.1082 10.6827C48.3039 10.8391 48.4017 11.1164 48.4017 11.5147V11.92C48.4017 12.3324 48.2969 12.6169 48.0872 12.7733C47.8915 12.9156 47.5491 12.9867 47.0598 12.9867Z" fill="#2A2A2A"/>
<path d="M56.9213 14.16C58.3471 14.16 59.3325 14.5938 59.8777 15.4613C60.4228 16.3147 60.6954 17.5022 60.6954 19.024V24.4853C60.6954 24.8551 60.5766 25.168 60.339 25.424C60.1013 25.6658 59.8008 25.7867 59.4374 25.7867C59.0739 25.7867 58.7734 25.6658 58.5358 25.424C58.2982 25.168 58.1793 24.8551 58.1793 24.4853V19.024C58.1793 18.2418 58.0186 17.6302 57.6971 17.1893C57.3756 16.7342 56.8235 16.5067 56.0407 16.5067C55.23 16.5067 54.5939 16.7484 54.1327 17.232C53.6714 17.7013 53.4407 18.2987 53.4407 19.024V24.4853C53.4407 24.8551 53.3219 25.168 53.0843 25.424C52.8467 25.6658 52.5461 25.7867 52.1827 25.7867C51.8193 25.7867 51.5188 25.6658 51.2811 25.424C51.0435 25.168 50.9247 24.8551 50.9247 24.4853V15.6747C50.9247 15.3049 51.0435 14.9991 51.2811 14.7573C51.5188 14.5013 51.8193 14.3733 52.1827 14.3733C52.5461 14.3733 52.8467 14.5013 53.0843 14.7573C53.3219 14.9991 53.4407 15.3049 53.4407 15.6747V16.0373C53.8182 15.5253 54.3074 15.0844 54.9085 14.7147C55.5235 14.3449 56.1944 14.16 56.9213 14.16Z" fill="#2A2A2A"/>
<path d="M72.4937 10C72.8572 10 73.1577 10.1209 73.3953 10.3627C73.633 10.6044 73.7518 10.9173 73.7518 11.3013V24.4853C73.7518 24.8551 73.633 25.168 73.3953 25.424C73.1577 25.6658 72.8572 25.7867 72.4937 25.7867C72.1303 25.7867 71.8298 25.6658 71.5921 25.424C71.3685 25.1822 71.2497 24.8764 71.2357 24.5067C70.8862 24.9191 70.411 25.2747 69.8099 25.5733C69.2228 25.8578 68.6008 26 67.9438 26C66.9794 26 66.1057 25.7511 65.3229 25.2533C64.5402 24.7413 63.9181 24.0373 63.4569 23.1413C63.0096 22.2453 62.7859 21.2284 62.7859 20.0907C62.7859 18.9529 63.0096 17.936 63.4569 17.04C63.9042 16.1298 64.5122 15.4258 65.281 14.928C66.0638 14.416 66.9234 14.16 67.86 14.16C68.5309 14.16 69.1599 14.288 69.747 14.544C70.3341 14.7858 70.8303 15.0987 71.2357 15.4827V11.3013C71.2357 10.9316 71.3545 10.6258 71.5921 10.384C71.8298 10.128 72.1303 10 72.4937 10ZM68.2584 23.6533C69.1669 23.6533 69.9078 23.3191 70.4809 22.6507C71.054 21.968 71.3405 21.1147 71.3405 20.0907C71.3405 19.0667 71.054 18.2133 70.4809 17.5307C69.9078 16.848 69.1669 16.5067 68.2584 16.5067C67.3638 16.5067 66.6299 16.848 66.0568 17.5307C65.4837 18.2133 65.1971 19.0667 65.1971 20.0907C65.1971 21.1147 65.4767 21.968 66.0358 22.6507C66.6089 23.3191 67.3498 23.6533 68.2584 23.6533Z" fill="#2A2A2A"/>
<path d="M87.9266 23.568C88.0105 23.6818 88.0804 23.824 88.1363 23.9947C88.1922 24.1511 88.2201 24.3004 88.2201 24.4427C88.2201 24.8267 88.0734 25.1467 87.7798 25.4027C87.5003 25.6587 87.1718 25.7867 86.7944 25.7867C86.6127 25.7867 86.4379 25.744 86.2702 25.6587C86.1025 25.5733 85.9627 25.4524 85.8508 25.296L81.301 19.1947L79.3091 21.136V24.4853C79.3091 24.8693 79.1833 25.1822 78.9317 25.424C78.694 25.6658 78.3795 25.7867 77.9881 25.7867C77.6107 25.7867 77.2962 25.6658 77.0446 25.424C76.807 25.168 76.6882 24.8551 76.6882 24.4853V12.1547C76.6882 11.7849 76.814 11.4791 77.0656 11.2373C77.3172 10.9813 77.6387 10.8533 78.0301 10.8533C78.4075 10.8533 78.715 10.9742 78.9526 11.216C79.1903 11.4578 79.3091 11.7707 79.3091 12.1547V17.9573L86.0186 11.2373C86.3401 10.9102 86.6825 10.7467 87.046 10.7467C87.3675 10.7467 87.64 10.8818 87.8637 11.152C88.0873 11.4222 88.1992 11.7067 88.1992 12.0053C88.1992 12.304 88.0734 12.5813 87.8218 12.8373L83.2509 17.2747L87.9266 23.568Z" fill="#2A2A2A"/>
<path d="M92.5871 24.4853C92.5871 24.8551 92.4682 25.168 92.2306 25.424C91.993 25.6658 91.6925 25.7867 91.329 25.7867C90.9656 25.7867 90.6651 25.6658 90.4274 25.424C90.1898 25.168 90.071 24.8551 90.071 24.4853V15.6747C90.071 15.3049 90.1898 14.9991 90.4274 14.7573C90.6651 14.5013 90.9656 14.3733 91.329 14.3733C91.6925 14.3733 91.993 14.5013 92.2306 14.7573C92.4682 14.9991 92.5871 15.3049 92.5871 15.6747V24.4853ZM91.3081 12.9867C90.8328 12.9867 90.4973 12.9084 90.3016 12.752C90.1059 12.5956 90.0081 12.3182 90.0081 11.92V11.5147C90.0081 11.1164 90.1129 10.8391 90.3226 10.6827C90.5323 10.5262 90.8677 10.448 91.329 10.448C91.8183 10.448 92.1607 10.5262 92.3564 10.6827C92.5521 10.8391 92.65 11.1164 92.65 11.5147V11.92C92.65 12.3324 92.5451 12.6169 92.3355 12.7733C92.1398 12.9156 91.7973 12.9867 91.3081 12.9867Z" fill="#2A2A2A"/>
<path d="M101.17 14.16C102.595 14.16 103.581 14.5938 104.126 15.4613C104.671 16.3147 104.944 17.5022 104.944 19.024V24.4853C104.944 24.8551 104.825 25.168 104.587 25.424C104.35 25.6658 104.049 25.7867 103.686 25.7867C103.322 25.7867 103.022 25.6658 102.784 25.424C102.546 25.168 102.428 24.8551 102.428 24.4853V19.024C102.428 18.2418 102.267 17.6302 101.945 17.1893C101.624 16.7342 101.072 16.5067 100.289 16.5067C99.4782 16.5067 98.8422 16.7484 98.3809 17.232C97.9196 17.7013 97.689 18.2987 97.689 19.024V24.4853C97.689 24.8551 97.5702 25.168 97.3325 25.424C97.0949 25.6658 96.7944 25.7867 96.4309 25.7867C96.0675 25.7867 95.767 25.6658 95.5294 25.424C95.2917 25.168 95.1729 24.8551 95.1729 24.4853V15.6747C95.1729 15.3049 95.2917 14.9991 95.5294 14.7573C95.767 14.5013 96.0675 14.3733 96.4309 14.3733C96.7944 14.3733 97.0949 14.5013 97.3325 14.7573C97.5702 14.9991 97.689 15.3049 97.689 15.6747V16.0373C98.0664 15.5253 98.5556 15.0844 99.1567 14.7147C99.7717 14.3449 100.443 14.16 101.17 14.16Z" fill="#2A2A2A"/>
<path d="M116.742 10C117.105 10 117.406 10.1209 117.644 10.3627C117.881 10.6044 118 10.9173 118 11.3013V24.4853C118 24.8551 117.881 25.168 117.644 25.424C117.406 25.6658 117.105 25.7867 116.742 25.7867C116.379 25.7867 116.078 25.6658 115.84 25.424C115.617 25.1822 115.498 24.8764 115.484 24.5067C115.134 24.9191 114.659 25.2747 114.058 25.5733C113.471 25.8578 112.849 26 112.192 26C111.228 26 110.354 25.7511 109.571 25.2533C108.788 24.7413 108.166 24.0373 107.705 23.1413C107.258 22.2453 107.034 21.2284 107.034 20.0907C107.034 18.9529 107.258 17.936 107.705 17.04C108.152 16.1298 108.76 15.4258 109.529 14.928C110.312 14.416 111.172 14.16 112.108 14.16C112.779 14.16 113.408 14.288 113.995 14.544C114.582 14.7858 115.079 15.0987 115.484 15.4827V11.3013C115.484 10.9316 115.603 10.6258 115.84 10.384C116.078 10.128 116.379 10 116.742 10ZM112.507 23.6533C113.415 23.6533 114.156 23.3191 114.729 22.6507C115.302 21.968 115.589 21.1147 115.589 20.0907C115.589 19.0667 115.302 18.2133 114.729 17.5307C114.156 16.848 113.415 16.5067 112.507 16.5067C111.612 16.5067 110.878 16.848 110.305 17.5307C109.732 18.2133 109.445 19.0667 109.445 20.0907C109.445 21.1147 109.725 21.968 110.284 22.6507C110.857 23.3191 111.598 23.6533 112.507 23.6533Z" fill="#2A2A2A"/>
<path d="M31.9452 39C31.3728 39 30.8641 38.9 30.4189 38.7C29.9817 38.5 29.5564 38.1875 29.1431 37.7625C29.0477 37.6792 29 37.5792 29 37.4625C29 37.3625 29.0358 37.2708 29.1073 37.1875C29.1868 37.1042 29.2742 37.0625 29.3696 37.0625C29.465 37.0625 29.5525 37.1042 29.632 37.1875C30.252 37.9042 31.027 38.2625 31.9571 38.2625C32.5294 38.2625 33.0024 38.1208 33.376 37.8375C33.7576 37.5542 33.9484 37.1833 33.9484 36.725C33.9484 36.3667 33.853 36.0708 33.6622 35.8375C33.4794 35.5958 33.2369 35.4 32.9348 35.25C32.6328 35.1 32.2472 34.9458 31.7782 34.7875C31.2695 34.6292 30.8402 34.4542 30.4905 34.2625C30.1487 34.0708 29.8704 33.8167 29.6558 33.5C29.4412 33.175 29.3339 32.7667 29.3339 32.275C29.3339 31.8333 29.4452 31.4417 29.6677 31.1C29.8983 30.7583 30.2162 30.4917 30.6216 30.3C31.035 30.1 31.508 30 32.0406 30C32.5255 30 32.9786 30.0875 33.3999 30.2625C33.8291 30.4292 34.1709 30.6708 34.4253 30.9875C34.5446 31.1292 34.6042 31.25 34.6042 31.35C34.6042 31.4417 34.5644 31.5292 34.4849 31.6125C34.4054 31.6875 34.318 31.725 34.2226 31.725C34.1431 31.725 34.0756 31.6958 34.0199 31.6375C33.8053 31.3708 33.5191 31.1542 33.1614 30.9875C32.8037 30.8208 32.4301 30.7375 32.0406 30.7375C31.4603 30.7375 30.9873 30.875 30.6216 31.15C30.256 31.4167 30.0731 31.7833 30.0731 32.25C30.0731 32.7333 30.248 33.1042 30.5978 33.3625C30.9475 33.6208 31.4483 33.8583 32.1002 34.075C32.6646 34.25 33.1256 34.4292 33.4833 34.6125C33.8411 34.7958 34.1312 35.0583 34.3538 35.4C34.5843 35.7333 34.6996 36.175 34.6996 36.725C34.6996 37.15 34.5803 37.5375 34.3419 37.8875C34.1113 38.2292 33.7854 38.5 33.3641 38.7C32.9507 38.9 32.4778 39 31.9452 39Z" fill="#2A2A2A"/>
<path d="M41.2877 30.125C41.3911 30.125 41.4745 30.1583 41.5381 30.225C41.6097 30.2917 41.6454 30.3792 41.6454 30.4875C41.6454 30.5958 41.6097 30.6833 41.5381 30.75C41.4745 30.8083 41.3911 30.8375 41.2877 30.8375H38.8195V38.5C38.8195 38.6083 38.7837 38.7 38.7122 38.775C38.6406 38.8417 38.5532 38.875 38.4499 38.875C38.3386 38.875 38.2472 38.8417 38.1756 38.775C38.112 38.7 38.0802 38.6083 38.0802 38.5V30.8375H35.612C35.5087 30.8375 35.4212 30.8042 35.3497 30.7375C35.2861 30.6708 35.2543 30.5833 35.2543 30.475C35.2543 30.375 35.2861 30.2917 35.3497 30.225C35.4212 30.1583 35.5087 30.125 35.612 30.125H41.2877Z" fill="#2A2A2A"/>
<path d="M48.6508 30.125C48.7542 30.125 48.8376 30.1625 48.9012 30.2375C48.9728 30.3042 49.0086 30.3917 49.0086 30.5V35.675C49.0086 36.2833 48.8694 36.8417 48.5912 37.35C48.313 37.8583 47.9354 38.2583 47.4585 38.55C46.9815 38.8417 46.4569 38.9875 45.8845 38.9875C45.3042 38.9875 44.7756 38.8417 44.2987 38.55C43.8217 38.2583 43.4441 37.8583 43.1659 37.35C42.8877 36.8417 42.7486 36.2833 42.7486 35.675V30.5C42.7486 30.3917 42.7804 30.3042 42.844 30.2375C42.9155 30.1625 43.0109 30.125 43.1301 30.125C43.2255 30.125 43.309 30.1625 43.3805 30.2375C43.4521 30.3042 43.4878 30.3917 43.4878 30.5V35.675C43.4878 36.1417 43.5952 36.5708 43.8098 36.9625C44.0244 37.3542 44.3146 37.6667 44.6802 37.9C45.0538 38.125 45.4553 38.2375 45.8845 38.2375C46.3217 38.2375 46.7232 38.125 47.0888 37.9C47.4624 37.6667 47.7566 37.3542 47.9712 36.9625C48.1938 36.5708 48.3051 36.1417 48.3051 35.675V30.5C48.3051 30.3917 48.3368 30.3042 48.4004 30.2375C48.464 30.1625 48.5475 30.125 48.6508 30.125Z" fill="#2A2A2A"/>
<path d="M54.2299 30.125C54.993 30.125 55.6329 30.325 56.1496 30.725C56.6742 31.1167 57.0637 31.6458 57.3181 32.3125C57.5804 32.9708 57.7116 33.7 57.7116 34.5C57.7116 35.325 57.5804 36.0667 57.3181 36.725C57.0637 37.3833 56.6742 37.9083 56.1496 38.3C55.6329 38.6833 54.993 38.875 54.2299 38.875H51.1893C51.086 38.875 50.9985 38.8417 50.927 38.775C50.8634 38.7 50.8316 38.6083 50.8316 38.5V30.5C50.8316 30.3917 50.8634 30.3042 50.927 30.2375C50.9985 30.1625 51.086 30.125 51.1893 30.125H54.2299ZM54.1106 38.1375C55.0645 38.1375 55.776 37.8042 56.245 37.1375C56.714 36.4625 56.9485 35.5833 56.9485 34.5C56.9485 33.825 56.8491 33.2167 56.6504 32.675C56.4517 32.125 56.1377 31.6875 55.7084 31.3625C55.2871 31.0292 54.7545 30.8625 54.1106 30.8625H51.5828V38.1375H54.1106Z" fill="#2A2A2A"/>
<path d="M64 30.45C64 30.5083 63.9762 30.5875 63.9285 30.6875L61.2695 34.525V38.5C61.2695 38.6083 61.2337 38.7 61.1621 38.775C61.0906 38.8417 61.0032 38.875 60.8998 38.875C60.7965 38.875 60.709 38.8417 60.6375 38.775C60.5739 38.7 60.5421 38.6083 60.5421 38.5V34.5375L57.8712 30.7125C57.8076 30.6375 57.7758 30.55 57.7758 30.45C57.7758 30.35 57.8155 30.2625 57.895 30.1875C57.9745 30.1125 58.062 30.075 58.1574 30.075C58.2845 30.075 58.3839 30.1333 58.4554 30.25L60.9237 33.775L63.3323 30.25C63.4197 30.1333 63.523 30.075 63.6423 30.075C63.7377 30.075 63.8211 30.1167 63.8927 30.2C63.9642 30.275 64 30.3583 64 30.45Z" fill="#2A2A2A"/>
</svg>
