<svg width="393" height="495" viewBox="0 0 393 495" fill="none" xmlns="http://www.w3.org/2000/svg">
<path d="M55.5747 102.871C55.5747 142.549 55.5747 181.957 55.5747 221.635C55.5747 242.419 87.8551 242.419 87.8551 221.635C87.8551 181.957 87.8551 142.549 87.8551 102.871C87.8551 81.8176 55.5747 81.8176 55.5747 102.871Z" fill="white"/>
<path d="M133.897 146.055C94.353 146.055 55.0785 146.055 15.535 146.055C-5.17832 146.055 -5.17832 178.445 15.535 178.445C55.0785 178.445 94.353 178.445 133.897 178.445C154.61 178.445 154.61 146.055 133.897 146.055Z" fill="white"/>
<path d="M189 221.637C189 241.341 189 261.315 189 281.019C189 296.675 213.211 296.675 213.211 281.019C213.211 261.315 213.211 241.341 213.211 221.637C213.211 205.982 189 205.982 189 221.637Z" fill="white"/>
<path d="M230.696 239.181C211.059 239.181 191.152 239.181 171.515 239.181C155.913 239.181 155.913 263.474 171.515 263.474C191.152 263.474 211.059 263.474 230.696 263.474C246.298 263.474 246.298 239.181 230.696 239.181Z" fill="white"/>
<path d="M363.933 160.249C363.933 170.944 363.933 181.786 363.933 192.481C363.933 200.979 375.77 200.979 375.77 192.481C375.77 181.786 375.77 170.944 375.77 160.249C375.77 151.751 363.933 151.751 363.933 160.249Z" fill="white"/>
<path d="M385.968 170.447C375.272 170.447 364.43 170.447 353.735 170.447C345.237 170.447 345.237 182.283 353.735 182.283C364.43 182.283 375.272 182.283 385.968 182.283C394.465 182.283 394.465 170.447 385.968 170.447Z" fill="white"/>
<path d="M295.834 11.6404C295.834 33.7737 295.834 55.907 295.834 78.0403C295.834 93.6956 320.045 93.6956 320.045 78.0403C320.045 55.907 320.045 33.7737 320.045 11.6404C320.045 -3.74489 295.834 -4.01481 295.834 11.6404Z" fill="white"/>
<path d="M341.027 32.9629C318.969 32.9629 296.911 32.9629 274.853 32.9629C259.25 32.9629 259.25 57.2555 274.853 57.2555C296.911 57.2555 318.969 57.2555 341.027 57.2555C356.63 57.2555 356.63 32.9629 341.027 32.9629Z" fill="white"/>
<path d="M108.029 415.975C108.029 438.108 108.029 460.241 108.029 482.375C108.029 498.03 132.24 498.03 132.24 482.375C132.24 460.241 132.24 438.108 132.24 415.975C132.24 400.32 108.029 400.32 108.029 415.975Z" fill="white"/>
<path d="M153.223 437.03C131.165 437.03 109.107 437.03 87.0483 437.03C71.4461 437.03 71.4461 461.322 87.0483 461.322C109.107 461.322 131.165 461.322 153.223 461.322C168.825 461.322 168.825 437.03 153.223 437.03Z" fill="white"/>
</svg>
