<svg width="149" height="209" viewBox="0 0 149 209" fill="none" xmlns="http://www.w3.org/2000/svg">
<path d="M25.2537 43.7549C25.2537 60.4153 25.2537 76.9624 25.2537 93.6228C25.2537 102.35 38.808 102.35 38.808 93.6228C38.808 76.9624 38.808 60.4153 38.808 43.7549C38.808 34.9147 25.2537 34.9147 25.2537 43.7549Z" fill="white"/>
<path d="M56.8806 61.8872C40.2766 61.8872 23.7856 61.8872 7.18167 61.8872C-1.51564 61.8872 -1.51564 75.4875 7.18167 75.4875C23.7856 75.4875 40.2766 75.4875 56.8806 75.4875C65.5779 75.4875 65.5779 61.8872 56.8806 61.8872Z" fill="white"/>
<path d="M81.2779 93.6236C81.2779 101.897 81.2779 110.284 81.2779 118.558C81.2779 125.131 91.4436 125.131 91.4436 118.558C91.4436 110.284 91.4436 101.897 91.4436 93.6236C91.4436 87.0501 81.2779 87.0501 81.2779 93.6236Z" fill="white"/>
<path d="M98.7854 100.99C90.5399 100.99 82.1815 100.99 73.936 100.99C67.3848 100.99 67.3848 111.19 73.936 111.19C82.1815 111.19 90.5399 111.19 98.7854 111.19C105.337 111.19 105.337 100.99 98.7854 100.99Z" fill="white"/>
<path d="M163.983 72.1293C159.492 72.1293 154.939 72.1293 150.448 72.1293C146.88 72.1293 146.88 77.0993 150.448 77.0993C154.939 77.0993 159.492 77.0993 163.983 77.0993C167.551 77.0993 167.551 72.1293 163.983 72.1293Z" fill="white"/>
<path d="M124.877 5.44801C124.877 14.7416 124.877 24.0351 124.877 33.3287C124.877 39.9022 135.042 39.9022 135.042 33.3287C135.042 24.0351 135.042 14.7416 135.042 5.44801C135.042 -1.01214 124.877 -1.12548 124.877 5.44801Z" fill="white"/>
<path d="M143.853 14.401C134.591 14.401 125.329 14.401 116.067 14.401C109.515 14.401 109.515 24.6012 116.067 24.6012C125.329 24.6012 134.591 24.6012 143.853 24.6012C150.404 24.6012 150.404 14.401 143.853 14.401Z" fill="white"/>
<path d="M47.2788 175.224C47.2788 184.518 47.2788 193.811 47.2788 203.105C47.2788 209.678 57.4445 209.678 57.4445 203.105C57.4445 193.811 57.4445 184.518 57.4445 175.224C57.4445 168.651 47.2788 168.651 47.2788 175.224Z" fill="white"/>
<path d="M66.2554 184.065C56.9933 184.065 47.7313 184.065 38.4692 184.065C31.918 184.065 31.918 194.265 38.4692 194.265C47.7313 194.265 56.9933 194.265 66.2554 194.265C72.8066 194.265 72.8066 184.065 66.2554 184.065Z" fill="white"/>
</svg>
