<svg width="58" height="59" viewBox="0 0 58 59" fill="none" xmlns="http://www.w3.org/2000/svg">
<g style="mix-blend-mode:multiply">
<path d="M20.4516 46.6778C20.4231 46.1177 20.226 45.5784 19.8852 45.1283C19.5652 44.7925 19.176 44.5273 18.7437 44.3503C18.3113 44.1734 17.8455 44.0887 17.3773 44.1019C15.6486 44.0925 13.9614 44.6213 12.5579 45.6124C11.1659 46.6014 9.9356 47.793 8.90928 49.146C8.59523 49.5418 8.23829 49.903 7.84476 50.223C9.94825 51.9719 10.285 55.0912 12.1384 57.0942C12.5409 57.5585 13.0578 57.9138 13.6399 58.1261C14.2413 58.3135 14.8916 58.2789 15.4689 58.0289C16.0461 57.7789 16.5106 57.3306 16.7752 56.7682C17.0655 56.0687 17.1779 55.3102 17.1024 54.5584C17.0269 53.8066 16.7659 53.0842 16.342 52.4538C16.2211 52.2595 16.0622 52.0908 15.8743 51.9573C15.6865 51.8238 15.4735 51.7283 15.2478 51.6763C16.6246 51.6802 17.9535 51.1805 18.9755 50.2747C19.4771 49.8197 19.8697 49.261 20.125 48.6391C20.3802 48.0171 20.4918 47.3472 20.4516 46.6778Z" fill="white"/>
</g>
<g style="mix-blend-mode:multiply">
<path d="M0.235205 44.0659C0.410331 43.532 0.742803 43.0612 1.19054 42.713C1.58819 42.4699 2.03393 42.3125 2.49821 42.2514C2.96249 42.1903 3.4347 42.2268 3.88352 42.3586C5.55581 42.7886 7.04628 43.728 8.14084 45.0418C9.2249 46.3508 10.0995 47.8143 10.7344 49.382C10.9334 49.8442 11.183 50.2837 11.4788 50.6929C8.98644 51.848 7.83914 54.7756 5.52109 56.2395C5.01 56.5858 4.41704 56.7977 3.79882 56.8549C3.16858 56.8831 2.54951 56.6845 2.05779 56.2964C1.56607 55.9083 1.23549 55.3573 1.12809 54.7468C1.03188 53.9973 1.12321 53.2361 1.39417 52.5291C1.66513 51.8221 2.10756 51.1906 2.68312 50.6893C2.85109 50.5324 3.04913 50.4097 3.26574 50.3285C3.48235 50.2473 3.71322 50.2091 3.94497 50.2162C2.61404 49.8703 1.462 49.0501 0.713397 47.9155C0.348709 47.3485 0.11666 46.7091 0.0339695 46.0434C-0.0487209 45.3777 0.0200083 44.7023 0.235205 44.0659Z" fill="white"/>
</g>
<g style="mix-blend-mode:multiply">
<path d="M20.4516 46.6778C20.4231 46.1177 20.226 45.5784 19.8852 45.1283C19.5652 44.7925 19.176 44.5273 18.7437 44.3503C18.3113 44.1734 17.8455 44.0887 17.3773 44.1019C15.6486 44.0925 13.9614 44.6213 12.5579 45.6124C11.1659 46.6014 9.9356 47.793 8.90928 49.146C8.59523 49.5418 8.23829 49.903 7.84476 50.223C9.94825 51.9719 10.285 55.0912 12.1384 57.0942C12.5409 57.5585 13.0578 57.9138 13.6399 58.1261C14.2413 58.3135 14.8916 58.2789 15.4689 58.0289C16.0461 57.7789 16.5106 57.3306 16.7752 56.7682C17.0655 56.0687 17.1779 55.3102 17.1024 54.5584C17.0269 53.8066 16.7659 53.0842 16.342 52.4538C16.2211 52.2595 16.0622 52.0908 15.8743 51.9573C15.6865 51.8238 15.4735 51.7283 15.2478 51.6763C16.6246 51.6802 17.9535 51.1805 18.9755 50.2747C19.4771 49.8197 19.8697 49.261 20.125 48.6391C20.3802 48.0171 20.4918 47.3472 20.4516 46.6778Z" fill="#E566A1"/>
</g>
<g style="mix-blend-mode:multiply">
<path d="M0.235205 44.0659C0.410331 43.532 0.742803 43.0612 1.19054 42.713C1.58819 42.4699 2.03393 42.3125 2.49821 42.2514C2.96249 42.1903 3.4347 42.2268 3.88352 42.3586C5.55581 42.7886 7.04628 43.728 8.14084 45.0418C9.2249 46.3508 10.0995 47.8143 10.7344 49.382C10.9334 49.8442 11.183 50.2837 11.4788 50.6929C8.98644 51.848 7.83914 54.7756 5.52109 56.2395C5.01 56.5858 4.41704 56.7977 3.79882 56.8549C3.16858 56.8831 2.54951 56.6845 2.05779 56.2964C1.56607 55.9083 1.23549 55.3573 1.12809 54.7468C1.03188 53.9973 1.12321 53.2361 1.39417 52.5291C1.66513 51.8221 2.10756 51.1906 2.68312 50.6893C2.85109 50.5324 3.04913 50.4097 3.26574 50.3285C3.48235 50.2473 3.71322 50.2091 3.94497 50.2162C2.61404 49.8703 1.462 49.0501 0.713397 47.9155C0.348709 47.3485 0.11666 46.7091 0.0339695 46.0434C-0.0487209 45.3777 0.0200083 44.7023 0.235205 44.0659Z" fill="#ECA0C6"/>
</g>
<g style="mix-blend-mode:multiply">
<path d="M15.0972 19.0062C14.894 17.7289 15.0422 16.4145 15.523 15.2293C16.3691 13.3198 18.2484 12.2028 20.1256 11.6617C23.5696 10.6688 27.2799 11.2274 30.5922 12.6586C33.9046 14.0898 36.8633 16.3503 39.6298 18.8022C40.4503 19.5378 41.3416 20.1737 42.288 20.6987C38.8417 25.693 39.6118 32.8945 36.7899 38.3366C36.1909 39.5847 35.3091 40.6441 34.2287 41.4137C33.0977 42.1366 31.7642 42.3837 30.4784 42.1085C29.1925 41.8333 28.0428 41.0548 27.2449 39.9191C26.3308 38.487 25.7499 36.8329 25.5527 35.1002C25.3554 33.3675 25.5478 31.6083 26.113 29.9751C26.2674 29.4767 26.5108 29.0167 26.8292 28.6219C27.1475 28.2271 27.5345 27.9053 27.9675 27.6752C25.1803 28.3721 22.2554 27.9098 19.7631 26.3783C18.5349 25.6031 17.4793 24.5398 16.6725 23.265C15.8657 21.9902 15.3276 20.5356 15.0972 19.0062Z" fill="white"/>
</g>
<path d="M54.8273 3.01749C54.2239 1.90138 53.3311 1.006 52.2618 0.444679C50.4845 -0.408969 48.3912 0.0728949 46.6412 0.99151C43.4304 2.67682 40.938 5.73189 39.2663 9.16896C37.5946 12.606 36.6841 16.4238 36.0337 20.2508C35.8457 21.3922 35.5447 22.508 35.136 23.5783C40.7232 24.937 44.411 30.9642 49.7887 33.1063C50.9854 33.6316 52.2853 33.813 53.5643 33.6331C54.8542 33.3817 56.0159 32.6245 56.8313 31.5037C57.6466 30.3829 58.0597 28.9754 57.993 27.5453C57.8388 25.8074 57.2993 24.1367 56.4211 22.6781C55.5428 21.2194 54.3524 20.0168 52.953 19.1743C52.5396 18.9044 52.0813 18.7269 51.6047 18.652C51.1281 18.5771 50.6426 18.6065 50.1764 18.7382C52.7115 17.2931 54.6634 14.8681 55.6515 11.9359C56.1262 10.4753 56.2985 8.91774 56.156 7.37554C56.0135 5.83335 55.5597 4.34491 54.8273 3.01749Z" fill="white"/>
<path d="M15.0886 19.0108C14.8854 17.7335 15.0336 16.4191 15.5143 15.2339C16.3605 13.3244 18.2398 12.2075 20.117 11.6663C23.5609 10.6734 27.2713 11.232 30.5836 12.6632C33.8959 14.0944 36.8547 16.355 39.6211 18.8069C40.4417 19.5425 41.333 20.1784 42.2793 20.7034C38.8331 25.6977 39.6032 32.8991 36.7813 38.3412C36.1822 39.5893 35.3004 40.6487 34.2201 41.4183C33.0891 42.1413 31.7556 42.3883 30.4697 42.1132C29.1839 41.838 28.0342 41.0595 27.2362 39.9237C26.3221 38.4916 25.7413 36.8376 25.544 35.1049C25.3468 33.3721 25.5391 31.613 26.1043 29.9798C26.2587 29.4813 26.5022 29.0214 26.8206 28.6266C27.1389 28.2318 27.5258 27.91 27.9589 27.6798C25.1716 28.3768 22.2468 27.9145 19.7545 26.383C18.5263 25.6077 17.4707 24.5444 16.6639 23.2696C15.857 21.9948 15.319 20.5403 15.0886 19.0108Z" fill="white"/>
<g style="mix-blend-mode:multiply">
<path d="M54.8273 3.01749C54.2239 1.90138 53.3311 1.006 52.2618 0.444679C50.4845 -0.408969 48.3912 0.0728949 46.6412 0.99151C43.4304 2.67682 40.938 5.73189 39.2663 9.16896C37.5946 12.606 36.6841 16.4238 36.0337 20.2508C35.8457 21.3922 35.5447 22.508 35.136 23.5783C40.7232 24.937 44.411 30.9642 49.7887 33.1063C50.9854 33.6316 52.2853 33.813 53.5643 33.6331C54.8542 33.3817 56.0159 32.6245 56.8313 31.5037C57.6466 30.3829 58.0597 28.9754 57.993 27.5453C57.8388 25.8074 57.2993 24.1367 56.4211 22.6781C55.5428 21.2194 54.3524 20.0168 52.953 19.1743C52.5396 18.9044 52.0813 18.7269 51.6047 18.652C51.1281 18.5771 50.6426 18.6065 50.1764 18.7382C52.7115 17.2931 54.6634 14.8681 55.6515 11.9359C56.1262 10.4753 56.2985 8.91774 56.156 7.37554C56.0135 5.83335 55.5597 4.34491 54.8273 3.01749Z" fill="#F9CC7D"/>
</g>
<g style="mix-blend-mode:multiply">
<path d="M15.0886 19.0108C14.8854 17.7335 15.0336 16.4191 15.5143 15.2339C16.3605 13.3244 18.2398 12.2075 20.117 11.6663C23.5609 10.6734 27.2713 11.232 30.5836 12.6632C33.8959 14.0944 36.8547 16.355 39.6211 18.8069C40.4417 19.5425 41.333 20.1784 42.2793 20.7034C38.8331 25.6977 39.6032 32.8991 36.7813 38.3412C36.1822 39.5893 35.3004 40.6487 34.2201 41.4183C33.0891 42.1413 31.7556 42.3883 30.4697 42.1132C29.1839 41.838 28.0342 41.0595 27.2362 39.9237C26.3221 38.4916 25.7413 36.8376 25.544 35.1049C25.3468 33.3721 25.5391 31.613 26.1043 29.9798C26.2587 29.4813 26.5022 29.0214 26.8206 28.6266C27.1389 28.2318 27.5258 27.91 27.9589 27.6798C25.1716 28.3768 22.2468 27.9145 19.7545 26.383C18.5263 25.6077 17.4707 24.5444 16.6639 23.2696C15.857 21.9948 15.319 20.5403 15.0886 19.0108Z" fill="#F5B33C"/>
</g>
</svg>
